<svg width="200" height="200" viewBox="0 0 200 200" fill="none" xmlns="http://www.w3.org/2000/svg">
<g clip-path="url(#clip0_752_2437)">
<path d="M62.2087 163C52.6589 163 43.9417 160.429 36.9917 155.57C32.8229 152.731 26.8981 147.714 22.2932 139.874C18.5661 133.713 16.476 126.363 16.0739 118.035C15.6434 109.16 17.1387 99.7332 20.39 90.7732C23.8905 81.119 29.2261 72.3353 36.2384 64.6609C47.4365 52.4069 68.1505 37.536 103.24 36.2332L109.556 36L116.285 43.1567L114.806 49.4487C119.621 47.9923 125.642 46.8147 132.513 46.8147C134.846 46.8147 137.214 46.9512 139.548 47.2186L144.844 47.833L151.357 54.7621L150.961 56.4461C155.379 55.4676 159.876 54.9442 164.057 54.9442C167.438 54.9442 170.553 55.2685 173.306 55.9113L177.713 56.941L184.006 63.6312L168.916 142.332L71.9228 162.118H71.8832C68.6716 162.71 65.4203 163.006 62.2144 163.006L62.2087 163Z" fill="white"/>
<path d="M175.849 60.1894L172.49 59.4043C170.004 58.8241 167.166 58.5282 164.051 58.5282C158.998 58.5282 152.547 59.3816 146.09 61.4808L147.426 55.8146L143.133 51.2521L139.134 50.7913C136.936 50.5353 134.71 50.4101 132.512 50.4101C123.002 50.4101 115.191 52.771 109.805 55.0864L112.359 44.2148L108.066 39.6523L103.37 39.8287C69.5153 41.0802 49.6114 55.3481 38.872 67.0901C32.177 74.4118 27.0905 82.7916 23.7486 92.002C20.656 100.518 19.2399 109.461 19.6421 117.858C20.0159 125.601 21.9644 132.422 25.3629 138.031C29.5771 145.205 34.9694 149.859 39.0193 152.612C45.3802 157.066 53.3327 159.41 62.2085 159.41C65.1992 159.41 68.2409 159.132 71.2372 158.591L165.846 139.294L180.137 64.7633L175.844 60.2008L175.849 60.1894Z" fill="black"/>
<path d="M135.169 70.0483L138.726 54.3639C125.936 52.8848 115.021 56.2015 107.607 60.1211C106.893 57.1458 104.815 54.2558 101.988 52.4923C105.273 55.7691 106.429 61.0427 104.52 66.214C101.858 73.4162 94.2565 77.7 87.5445 75.7714C86.3777 75.4358 85.3184 74.9351 84.3782 74.298L83.7721 73.8656C80.9174 71.6526 79.2804 68.1255 79.2917 64.2513C72.8742 73.2797 69.6173 80.7663 69.4757 81.1304C80.991 79.9699 95.2251 88.765 91.4018 108.892C94.6077 103.408 99.5356 99.0904 104.662 98.0607C105.449 97.9014 112.631 96.4621 113.877 101.992C115.412 108.773 108.553 116.271 99.3656 118.12C98.7199 118.251 98.1195 118.256 97.689 118.342C97.5474 118.37 97.4738 118.387 97.4965 118.495C97.4965 118.495 96.6752 120.714 97.2019 123.047C97.6041 124.839 98.8955 126.221 102.339 125.527C103.846 125.225 107.052 124.127 110.156 119.929C110.156 119.929 112.592 116.885 114.449 112.869L117.729 99.8015C119.009 94.8408 125.347 93.3389 126.916 92.9691C126.916 92.9691 127.273 92.8951 127.296 93.0032L125.721 98.8287C125.721 98.8287 125.687 99.0051 125.71 99.1132C125.721 99.1701 125.732 99.2213 125.806 99.2099C125.88 99.1928 125.936 99.1245 126.044 98.9368C126.769 97.8275 131.493 92.2011 135.43 91.325C136.308 91.1316 138.041 91.416 138.602 93.9078C139.423 97.543 136.795 105.155 129.352 106.765L130.983 100.479C131.102 100.001 131.17 99.6479 131.125 99.4317C131.04 99.0506 130.558 98.9197 130.054 99.0221C126.18 99.8015 124.373 105.098 123.671 107.959L120.244 121.579C118.964 126.54 112.433 128.195 110.734 128.644C110.592 128.673 110.518 128.69 110.496 128.582L112.558 120.384C108.734 126.636 104.322 130.198 98.1195 131.443C92.0872 132.655 88.9832 129.333 88.1392 125.59C87.7427 123.843 87.6294 122.028 87.7541 120.196C81.2912 134.806 68.1503 144.409 55.7967 143.458C50.6309 143.06 37.8752 140.87 32.194 128.497C29.7754 123.229 26.694 113.99 30.5174 101.309C41.6079 64.5187 71.866 51.7299 92.3194 49.278C93.9563 49.0675 95.5706 49.2154 97.1849 49.6819C98.8389 50.1541 100.283 50.9619 101.484 52.0201L103.506 43.4184C46.0203 45.5461 21.7379 86.9047 23.2219 117.688C24.57 145.58 46.7849 154.034 66.3151 150.484C73.2537 149.221 158.5 131.688 158.5 131.688L171.686 62.9144C162.261 60.7185 146.293 62.1578 135.175 70.054L135.169 70.0483ZM155.628 96.3825C153.912 96.5076 152.518 95.2162 152.518 93.4925C152.518 92.6221 152.875 91.8029 153.447 91.1941C152.949 91.2112 152.411 91.2567 151.833 91.3478C150.117 91.6265 146.956 93.1056 147.404 95.8932C147.506 96.5418 147.862 97.2984 148.593 98.0948C148.593 98.0948 150.224 99.574 152.286 101.161C152.286 101.161 156.053 103.898 156.319 108.176C156.823 116.317 150.168 121.767 143.173 122.609C141.677 122.791 133.102 124.031 131.952 116.851C131.878 116.402 131.861 116.015 131.884 115.679C131.884 115.622 131.872 115.571 131.872 115.514C131.872 113.216 133.725 111.214 136.013 111.043C138.307 110.872 140.165 112.602 140.165 114.9C140.165 116.885 138.783 118.649 136.931 119.201C138.528 120.02 140.544 119.758 141.269 119.61C143.161 119.218 149.12 117.17 147.998 110.138C147.721 108.42 146.373 105.775 142.595 102.765C141.632 101.975 140.567 100.541 140.267 98.6694C139.706 95.1537 141.751 89.9255 149.126 88.3895C152.796 87.6272 157.628 88.6284 158.528 91.9678C158.653 92.2921 158.721 92.6505 158.721 93.026C158.721 94.7497 157.333 96.2459 155.617 96.3711L155.628 96.3825Z" fill="white"/>
<path d="M98.0742 117.073C98.4424 117.056 98.8049 116.982 99.1618 116.908C104.905 115.753 106.701 102.538 106.605 102.106C106.457 101.457 106.129 100.331 104.548 100.649C102.47 101.064 101.15 103.539 101.059 104.466L97.8193 116.954C97.8193 116.954 97.8533 117.119 98.0742 117.073Z" fill="white"/>
<path d="M105.528 67.1015C102.866 74.3037 95.2648 78.5874 88.5527 76.6589C87.5105 76.3574 86.5476 75.925 85.6753 75.3789C86.8931 76.4712 88.3658 77.3131 90.065 77.7967C96.7771 79.7252 104.378 75.4415 107.041 68.2392C107.89 65.9409 108.162 63.654 107.879 61.4978C122.702 54.6484 137.554 57.3734 138.018 57.4587L138.72 54.3639C125.931 52.8848 115.016 56.2014 107.601 60.1211C106.888 57.1458 104.809 54.2558 101.983 52.4922C106.208 55.8942 107.511 61.714 105.523 67.1015H105.528Z" fill="#D0D2D3"/>
<path d="M53.9274 139.141C52.5793 139.095 39.2741 138.242 34.233 126.989C32.0013 122 29.1692 113.876 32.7263 101.918C45.1423 60.2065 81.2515 53.9941 81.2515 53.9941C81.2515 53.9941 74.1826 58.5567 64.2589 73.7177C54.3975 88.7763 47.3626 111.168 49.3847 123.263C50.4043 129.378 56.2667 125.999 58.5098 123.45C63.5565 117.727 68.4108 107.339 67.884 97.031C67.7934 95.1878 67.108 94.2719 66.7058 94.124C64.5704 93.3389 60.1297 97.6909 57.7961 100.023C57.6375 100.183 57.4336 100.262 57.2353 100.257C57.1107 100.257 56.9917 100.217 56.8785 100.149C56.5783 99.9722 56.414 99.6081 56.4706 99.2326C56.4876 99.1075 56.9748 96.3882 58.0963 93.6006C60.9057 86.6316 65.8675 83.3662 71.2825 83.6165C77.9379 83.918 81.8576 87.9059 83.5851 90.8869C85.6412 94.4369 88.3147 102.39 83.1263 115.816C77.853 129.469 65.3068 139.493 53.9444 139.141H53.9274Z" fill="white"/>
<path d="M70.9483 85.3744C62.5427 85.2378 59.2688 94.3117 59.2688 94.3117C59.2688 94.3117 68.592 84.8453 69.2038 96.9115C70.0874 114.246 57.2523 131.051 50.9481 129.287C40.0955 126.255 49.8152 77.6943 75.3381 57.2653C60.4129 61.8506 40.5769 77.1026 33.9895 102.384C29.1069 121.124 37.5239 133.349 47.2323 135.915C58.6797 138.936 74.109 128.832 79.6712 114.439C86.7401 96.1549 79.5862 85.5166 70.9483 85.3801V85.3744Z" fill="url(#paint0_linear_752_2437)"/>
<g style="mix-blend-mode:multiply">
<path d="M68.5864 93.2934C67.8954 87.6898 64.8877 87.9742 62.3784 89.3111C60.2091 91.7062 59.2688 94.3174 59.2688 94.3174C59.2688 94.3174 66.3717 87.1038 68.5864 93.2991V93.2934Z" fill="#D0D2D3"/>
<path d="M46.8755 122.62C44.6098 107.999 54.9073 73.621 75.3437 57.2653C73.6671 57.783 71.9226 58.4315 70.1497 59.2166C51.7807 77.7626 43.2674 110.633 46.8755 122.614V122.62Z" fill="#D0D2D3"/>
<path d="M81.7499 94.7213C82.4863 99.3123 81.8632 105.178 79.1671 112.152C73.6048 126.551 58.1699 136.649 46.7282 133.628C40.7298 132.041 35.2242 126.767 33.0492 118.547C34.7485 128.076 40.7015 134.186 47.2323 135.915C58.6797 138.936 74.1089 128.832 79.6712 114.439C82.8375 106.247 83.149 99.5911 81.7499 94.727V94.7213Z" fill="#D0D2D3"/>
</g>
<path d="M78.7593 91.9223C77.2074 89.0437 74.5395 87.2346 71.4469 86.9616L71.3166 86.9502C69.5324 86.8193 67.9974 87.1777 66.7059 87.7865C67.5839 87.593 68.5411 87.5134 69.5777 87.593L69.7193 87.6044C73.0102 87.8946 75.8423 89.8174 77.4962 92.8781C79.0992 95.8477 80.991 102.521 75.6554 113.802C75.3778 114.394 75.072 114.974 74.7548 115.543C75.6214 114.28 76.386 112.96 77.0374 111.595C82.0559 100.985 80.2717 94.7099 78.765 91.9166L78.7593 91.9223Z" fill="url(#paint1_linear_752_2437)"/>
<path d="M42.8256 122.967C43.9698 127.325 46.0259 128.923 47.7818 129.441C46.4451 128.536 45.1253 126.847 44.4399 123.729C41.7778 111.657 47.6402 83.6165 61.5232 67.2608C45.114 80.3226 39.5517 110.548 42.82 122.973L42.8256 122.967Z" fill="url(#paint2_linear_752_2437)"/>
<path d="M23.2218 117.688C24.5699 145.58 46.7849 154.034 66.315 150.484C73.2537 149.221 158.5 131.688 158.5 131.688L158.874 129.725C148.757 131.808 74.2959 147.116 67.8274 148.288C48.3029 151.838 26.0823 143.385 24.7399 115.492C24.1394 103.033 27.7589 88.8446 36.0909 76.2265C26.6827 89.3794 22.5875 104.506 23.2218 117.693V117.688Z" fill="#D0D2D3"/>
<path d="M171.193 65.4005L171.21 65.3777L171.68 62.9087C162.255 60.7128 146.288 62.1521 135.169 70.0484C156.631 61.6799 171.188 65.4005 171.188 65.4005H171.193Z" fill="#D0D2D3"/>
<path d="M70.9144 81.0394C71.5885 81.0223 72.2682 81.0394 72.9535 81.0849C74.1713 78.5874 76.5446 74.0704 80.0848 68.7854C79.7959 68.006 79.5806 67.1925 79.4504 66.3505C74.7831 73.1033 71.9453 78.8207 70.9144 81.0394Z" fill="#D0D2D3"/>
<path d="M129.069 95.495L129.199 95.0114C129.176 94.9033 128.819 94.9773 128.819 94.9773C128.485 95.0569 127.924 95.1878 127.245 95.3983L126.423 98.4362C126.956 97.7535 127.902 96.6442 129.069 95.5007V95.495Z" fill="#D0D2D3"/>
<path d="M105.71 101.315C103.631 101.73 102.311 104.21 102.22 105.132L99.1674 116.908C99.9434 116.749 100.651 116.368 101.291 115.833L103.721 106.469C103.801 105.65 104.854 103.602 106.548 102.862C106.604 102.43 106.621 102.162 106.61 102.106C106.553 101.861 106.468 101.542 106.304 101.264C106.129 101.258 105.936 101.269 105.715 101.315H105.71Z" fill="#D0D2D3"/>
<path d="M152.87 92.0475C151.125 92.3774 148.14 93.8509 148.576 96.5702C148.678 97.2187 149.035 97.9754 149.766 98.7718C149.766 98.7718 150.298 99.2554 151.136 99.9608C150.496 99.2156 150.174 98.5158 150.077 97.9071C149.777 96.0127 151.136 94.7213 152.575 93.9988C152.547 93.8338 152.53 93.6688 152.53 93.4982C152.53 92.9862 152.654 92.4912 152.875 92.0475H152.87Z" fill="#D0D2D3"/>
<path d="M131.136 99.7105C130.179 99.921 129.352 100.405 128.638 101.064C128.576 101.161 128.531 101.201 128.48 101.212C126.44 103.198 125.347 106.549 124.838 108.631L121.411 122.25C120.414 126.13 116.2 127.985 113.6 128.826L113.158 130.584C113.181 130.692 113.254 130.681 113.396 130.653C115.095 130.198 121.626 128.548 122.906 123.587L126.333 109.968C126.894 107.692 128.151 103.88 130.587 102.02L130.983 100.484C131.062 100.171 131.113 99.9153 131.13 99.7162L131.136 99.7105Z" fill="#D0D2D3"/>
<path d="M104.005 117.784C111.368 114.985 116.37 108.557 115.038 102.663C114.863 101.878 114.557 101.235 114.178 100.706C115.271 101.338 116.166 102.362 116.534 104C116.556 104.108 116.573 104.222 116.596 104.33L114.602 112.266C112.048 115.981 107.437 119.042 102.022 120.128C101.376 120.259 100.776 120.265 100.346 120.35C100.204 120.378 100.13 120.39 100.153 120.498C100.153 120.498 99.3317 122.717 99.8585 125.049C99.9094 125.265 99.9717 125.47 100.045 125.669C99.7848 125.641 99.5469 125.589 99.3317 125.527C98.8219 125.049 98.5217 124.418 98.3631 123.712C97.8363 121.38 98.6576 119.161 98.6576 119.161C98.635 119.053 98.703 119.036 98.8502 119.007C99.2807 118.922 99.8811 118.911 100.527 118.786C101.614 118.609 102.77 118.217 104.01 117.779L104.005 117.784Z" fill="#D0D2D3"/>
<path d="M99.2863 132.109C96.3636 132.695 94.1319 132.217 92.512 131.142C94.1376 133.082 96.8337 134.237 100.782 133.44C104.639 132.667 107.805 130.994 110.564 128.332L111.623 124.127C108.275 128.491 104.39 131.079 99.2863 132.103V132.109Z" fill="#D0D2D3"/>
<path d="M141.281 119.622C141.49 119.576 141.745 119.514 142.04 119.428C142.544 118.706 142.838 117.835 142.838 116.914C142.838 115.355 141.983 114.064 140.72 113.444C141.111 114.052 141.343 114.781 141.343 115.577C141.343 117.392 140.187 119.019 138.568 119.707C139.706 119.872 140.788 119.719 141.281 119.616V119.622Z" fill="#D0D2D3"/>
<path d="M161.202 93.9817C160.89 92.8326 160.114 91.9565 159.078 91.3364C159.361 91.7232 159.576 92.1613 159.706 92.6448C159.831 92.9691 159.899 93.3275 159.899 93.703C159.899 95.4267 158.511 96.9229 156.795 97.0481C156.336 97.0822 155.906 97.0139 155.515 96.8603C156.025 97.8445 157.078 98.4703 158.29 98.3793C160.006 98.2541 161.394 96.7579 161.394 95.0342C161.394 94.6587 161.321 94.3003 161.202 93.976V93.9817Z" fill="#D0D2D3"/>
<path d="M154.954 103.175C154.88 103.118 154.807 103.061 154.733 103.004C155.855 104.193 157.333 106.236 157.492 108.858C157.996 116.999 151.34 122.449 144.345 123.291C143.32 123.416 138.992 124.036 135.985 122.119C138.777 125.618 144.628 124.776 145.84 124.628C152.83 123.78 159.491 118.336 158.987 110.195C158.721 105.917 154.954 103.175 154.954 103.175Z" fill="#D0D2D3"/>
<path d="M140.76 94.5961C140.363 93.9362 139.853 93.5778 139.349 93.4128C139.519 93.7314 139.666 94.1183 139.768 94.5791C140.51 97.8673 138.432 104.41 132.518 106.816L132.014 108.767C136.953 107.698 139.774 103.983 140.867 100.547C140.595 99.9893 140.38 99.3635 140.272 98.6751C140.074 97.4463 140.199 96.007 140.754 94.5905L140.76 94.5961Z" fill="#D0D2D3"/>
<path d="M85.8055 86.6487C90.6314 90.6594 93.8317 97.2586 92.8745 106.623C93.4069 105.883 93.9676 105.172 94.5567 104.501C94.5511 95.9672 90.841 90.0677 85.8055 86.6487Z" fill="#D0D2D3"/>
<path d="M56.8049 144.346C53.4857 144.09 47.0398 143.094 41.3473 139.141C47.3683 144.05 54.7035 145.211 58.3229 145.489C69.5267 146.354 81.3705 138.543 88.2978 126.193C88.2412 125.993 88.1845 125.794 88.1392 125.589C87.9579 124.799 87.8447 123.997 87.7767 123.183C81.0306 136.603 68.5637 145.25 56.8049 144.346Z" fill="#D0D2D3"/>
<path fill-rule="evenodd" clip-rule="evenodd" d="M88.1165 72.506C82.7185 70.9586 80.079 65.0079 82.2144 59.2109C84.3555 53.4196 90.4615 49.9777 95.8595 51.5251C101.257 53.0725 103.897 59.0232 101.762 64.8202C99.6205 70.6115 93.5145 74.0534 88.1165 72.506Z" fill="#D0D2D3"/>
<path fill-rule="evenodd" clip-rule="evenodd" d="M87.7314 64.6325C84.5991 63.7336 83.0697 60.2861 84.3102 56.924C85.5506 53.5675 89.0908 51.5707 92.2231 52.4695C95.3554 53.3684 96.8847 56.8159 95.6442 60.178C94.4038 63.5345 90.8637 65.5313 87.7314 64.6325Z" fill="url(#paint3_radial_752_2437)"/>
<path d="M99.3487 65.4858C100.963 62.4593 101.456 59.0971 100.702 56.264C100.431 55.2343 100 54.3127 99.4393 53.522C98.4538 52.6231 97.2473 51.9348 95.8652 51.5365C95.6556 51.474 95.4404 51.4284 95.2308 51.3829C96.7772 52.2875 97.9043 53.8292 98.4198 55.7748C99.1278 58.4315 98.6577 61.5889 97.1397 64.4391C94.3585 69.6558 88.8643 72.3922 84.7238 70.6912C85.6753 71.5104 86.8138 72.1419 88.1166 72.5174C88.3488 72.5856 88.5867 72.6368 88.8246 72.688C92.7216 72.6994 96.9697 69.9516 99.3487 65.4915V65.4858ZM87.992 71.8916C91.6681 71.573 95.531 68.8992 97.7571 64.7292C99.3714 61.7027 99.8641 58.3405 99.1108 55.5017C98.8729 54.6029 98.5161 53.7894 98.0516 53.0669C98.9692 53.96 99.6489 55.1376 100.017 56.5257C100.719 59.1825 100.255 62.3398 98.737 65.19C96.3184 69.7298 91.8436 72.3922 87.9977 71.8859L87.992 71.8916Z" fill="url(#paint4_linear_752_2437)"/>
<path d="M84.7124 70.6684C88.7736 71.5332 93.6561 68.8139 96.222 63.9953C97.757 61.1224 98.2215 57.9252 97.5078 55.2343C97.083 53.6358 96.2617 52.3102 95.1345 51.3545C94.5851 51.2407 94.03 51.1781 93.4749 51.1667C95.1062 51.9916 96.2957 53.522 96.8224 55.5017C97.4908 58.0162 97.049 61.0029 95.6103 63.6995C92.9141 68.7513 87.5275 71.3454 83.5852 69.4965C83.9251 69.9175 84.2989 70.31 84.7124 70.6684Z" fill="url(#paint5_linear_752_2437)"/>
<path d="M95.6102 63.6995C97.049 61.0029 97.4908 58.0162 96.8224 55.5017C96.2956 53.522 95.1118 51.9916 93.4748 51.1667C93.2936 51.1667 93.118 51.1667 92.9367 51.1667L93.1123 51.2407C94.7776 52.0315 95.9841 53.5675 96.5109 55.5529C97.1679 58.0219 96.7318 60.9517 95.3214 63.5971C92.6705 68.5692 87.3632 71.1179 83.4889 69.2747L83.3359 69.1836C83.4152 69.2917 83.4945 69.3941 83.5738 69.4965C87.5161 71.3454 92.9028 68.7513 95.5989 63.6995H95.6102Z" fill="#808184"/>
<path d="M97.1396 64.4277C98.6576 61.5775 99.1277 58.4201 98.4197 55.7634C98.0175 54.2445 97.2416 52.9758 96.188 52.0599C96.1427 52.0372 96.1031 52.0144 96.0634 51.9973L96.0804 51.9689C95.8142 51.747 95.531 51.5536 95.2364 51.3772C95.2081 51.3715 95.1741 51.3659 95.1458 51.3602C95.4913 51.656 95.8085 51.986 96.0917 52.35C97.032 53.2318 97.723 54.4208 98.0968 55.8203C98.7879 58.4258 98.3291 61.5263 96.8394 64.3196C94.3755 68.9504 89.7365 71.5901 85.8622 70.822C85.477 70.805 85.0919 70.7538 84.718 70.6741C84.718 70.6741 84.7293 70.6798 84.735 70.6855C88.8755 72.3865 94.3698 69.6501 97.1509 64.4334L97.1396 64.4277Z" fill="#808184"/>
<path d="M98.3971 65.0592C96.3183 68.9618 92.6876 71.4535 89.2834 71.6754C88.8529 71.7778 88.4224 71.8461 87.9919 71.8859C91.8436 72.3922 96.3126 69.7298 98.7313 65.19C100.249 62.3398 100.719 59.1825 100.011 56.5257C99.6432 55.1376 98.9692 53.96 98.0459 53.0669C98.3178 53.4935 98.55 53.9543 98.7482 54.4436C99.1391 55.0751 99.4449 55.7862 99.6489 56.5599C100.34 59.1654 99.8811 62.2659 98.3914 65.0592H98.3971Z" fill="#808184"/>
<path d="M94.1319 69.1893C92.6366 70.4295 90.96 71.2829 89.2777 71.6754C91.4131 71.5332 93.6335 70.5035 95.5083 68.7968C95.0552 68.9618 94.5964 69.0926 94.1319 69.1893Z" fill="#BBBDBF"/>
<path d="M89.8441 69.0073C89.5099 68.8992 89.1814 68.774 88.8585 68.6204C84.4688 66.5269 83.0641 60.7867 85.7262 55.7862C86.2133 54.8702 86.8024 54.051 87.4651 53.3228C85.9924 54.3924 84.701 55.8374 83.7664 57.5896C81.4214 61.9871 82.0445 66.9308 84.9842 69.7582C86.5475 70.054 88.2411 69.7696 89.8441 69.0016V69.0073Z" fill="#BBBDBF"/>
<path d="M98.1478 67.3859C96.6411 69.4282 94.7153 70.9586 92.6875 71.8347C95.8594 71.1804 98.9011 68.9617 100.674 65.6394C101.054 64.9283 101.354 64.2058 101.575 63.4776C100.697 65.0762 99.5072 66.396 98.1478 67.3802V67.3859Z" fill="#BBBDBF"/>
<path d="M107.624 80.1405C107.567 80.3738 107.505 80.59 107.341 80.7834C107.097 81.0735 106.825 81.1077 106.497 81.1702L104.718 81.5173C103.744 81.705 102.877 81.9382 102.894 83.1272C102.906 83.7928 103.404 83.8156 103.942 83.9521L105.381 84.339C106.361 84.595 107.216 84.9306 107.233 86.1196C107.244 87.0469 106.814 88.8276 106.514 89.7549C106.197 90.7049 105.585 91.672 104.684 92.2523C103.988 92.7131 103.24 92.8553 102.475 93.0032L98.4197 93.794C97.7796 93.9192 96.9073 94.0898 96.896 93.2422C96.896 93.0431 96.913 92.8326 96.9526 92.6278L97.4398 90.3294L97.9779 90.227C98.0118 91.069 98.6122 90.9325 99.3373 90.7902L101.218 90.4261C102.294 90.2157 103.161 89.8857 103.144 88.6171C103.132 87.8491 102.362 87.758 101.739 87.6158C100.408 87.3086 98.7652 87.1664 98.7425 85.4711C98.7255 84.4243 99.2183 82.5071 99.7054 81.4888C99.9263 81.0223 100.232 80.6013 100.623 80.2373C101.32 79.5773 102.022 79.4806 102.872 79.3156L108.026 78.3144L107.635 80.1462L107.624 80.1405ZM119.054 80.0381L112.807 91.8199C112.705 92.002 112.405 92.5652 112.405 92.7472C112.405 93.0089 112.659 93.0431 112.886 93.0374L112.767 93.5437L109 94.2776C108.712 94.3345 108.338 94.3857 108.332 94.0216C108.332 93.8224 108.428 93.6006 108.53 93.4185L110.592 89.5444L108.355 82.4446C108.139 81.7619 108.196 81.6652 107.431 81.5742L107.528 81.1133L110.841 80.4705C111.606 80.3226 111.838 80.3965 112.031 81.0849L113.101 84.9591L114.88 81.5002C115.021 81.2328 115.242 80.8005 115.242 80.5217C115.242 80.1974 114.925 80.1804 114.659 80.169L114.755 79.7082L118.482 78.9857C118.811 78.9231 119.309 78.8833 119.315 79.3099C119.315 79.5318 119.179 79.822 119.054 80.0495V80.0381ZM130.167 74.9636L127.772 86.1765C127.732 86.4041 127.675 86.6373 127.675 86.8592C127.675 87.2631 127.913 87.3598 128.287 87.3883L128.191 87.8491L124.526 88.5602C124.112 88.6398 123.614 88.6171 123.608 88.1335C123.608 87.7523 123.722 87.3257 123.818 86.9388C122.946 88.5204 122.662 88.9812 120.907 89.3225C119.105 89.6752 117.876 89.3851 117.854 87.4508C117.831 85.619 118.635 82.4332 119.462 80.6127C120.165 79.0596 121.218 78.4339 122.787 78.1267L125.829 77.535C125.925 77.114 126.163 76.2777 126.157 75.8568C126.157 75.4528 125.863 75.3675 125.506 75.3391L125.602 74.8783L129.159 74.1842C129.595 74.0989 130.213 73.9965 130.224 74.5654C130.224 74.6848 130.184 74.8328 130.167 74.9579V74.9636ZM124.554 80.095C124.328 80.1405 124.078 80.186 123.852 80.2714C123.172 80.5274 122.827 81.1589 122.628 81.7846C122.328 82.729 121.818 84.8282 121.835 85.7555C121.847 86.3813 122.221 86.569 122.844 86.4496C123.88 86.2505 124.101 85.6417 124.294 84.7315L125.308 79.9471L124.56 80.0893L124.554 80.095ZM140.992 77.3985L139.61 83.8725C139.553 84.1057 139.491 84.3617 139.496 84.5836C139.496 84.9648 139.791 85.0501 140.125 85.0899L140.029 85.5507L136.324 86.2732C135.951 86.3472 135.435 86.2846 135.424 85.8409C135.424 85.6816 135.48 85.4654 135.52 85.2947L136.806 79.2474C136.846 79.0369 136.885 78.7866 136.88 78.5875C136.874 78.1267 136.602 78.0129 136.149 78.1039C135.345 78.2632 135.016 78.8321 134.863 79.566L133.696 85.0273C133.64 85.2606 133.577 85.5166 133.583 85.7385C133.583 86.1196 133.878 86.205 134.212 86.2448L134.115 86.7056L130.411 87.4281C129.935 87.5191 129.539 87.4963 129.533 86.9502C129.533 86.7113 129.59 86.4553 129.646 86.1993L131.34 78.2347C131.397 77.9787 131.459 77.7682 131.453 77.5236C131.453 77.1425 131.176 77.0514 130.825 77.0173L130.921 76.5565L134.563 75.8454C135.163 75.7259 135.497 75.7828 135.503 76.4313C135.503 76.693 135.43 76.949 135.367 77.2278L135.65 76.7897C136.019 76.2322 136.2 75.8738 136.772 75.5382C137.367 75.2025 138.075 75.0831 138.692 74.9636C139.791 74.7474 141.179 74.5597 141.196 75.9307C141.201 76.4143 141.082 76.9206 140.986 77.4042L140.992 77.3985ZM151.941 76.8865C151.703 77.8593 151.403 78.3428 150.366 78.5476L145.772 79.4408C145.676 79.8447 145.597 80.2828 145.602 80.6867C145.602 80.8687 145.631 81.0678 145.755 81.2044C146.112 81.6424 147.415 81.3466 147.953 81.2385C148.967 81.0394 149.981 80.9654 150.53 79.8675L151.006 79.7764L150.519 82.0918C150.4 82.6607 150.264 83.15 149.709 83.5027C149.012 83.9635 147.29 84.2764 146.526 84.4243C145.489 84.6234 143.937 84.9079 142.963 84.777C141.943 84.6348 141.496 83.8327 141.485 82.8428C141.473 82.035 141.586 81.1873 141.762 80.3624C142.091 78.8264 142.561 76.7727 143.518 75.3561C144.555 73.8201 146.56 73.3707 148.134 73.0635C150.037 72.6937 152.173 72.4775 152.207 74.7929C152.218 75.4756 152.122 76.181 151.946 76.8865H151.941ZM147.67 75.6178C146.554 75.834 146.356 76.6418 146.163 77.5464L148.463 77.097C148.519 76.8011 148.582 76.511 148.576 76.2095C148.57 75.6463 148.214 75.5097 147.675 75.6178H147.67ZM163.649 71.3568L157.401 83.1386C157.299 83.3207 156.999 83.8839 156.999 84.0659C156.999 84.3276 157.254 84.3617 157.48 84.356L157.361 84.8624L153.595 85.5962C153.306 85.6531 152.932 85.7043 152.926 85.3402C152.926 85.1411 153.022 84.9192 153.124 84.7372L155.186 80.863L152.949 73.7632C152.734 73.0806 152.79 72.9838 152.026 72.8928L152.122 72.432L155.435 71.7892C156.2 71.6413 156.432 71.7152 156.625 72.4036L157.695 76.2777L159.474 72.8189C159.616 72.5515 159.837 72.1248 159.837 71.8404C159.837 71.5161 159.519 71.499 159.253 71.4877L159.349 71.0268L163.076 70.3044C163.405 70.2418 163.903 70.202 163.909 70.6286C163.909 70.8505 163.773 71.1406 163.649 71.3682V71.3568Z" fill="#D40F7D"/>
<path d="M153.107 93.4925C153.107 94.8123 154.093 95.8022 155.401 95.8022C155.464 95.8022 155.526 95.8022 155.588 95.7965C157.004 95.6941 158.154 94.4539 158.149 93.0317C158.149 92.7415 158.098 92.4571 157.99 92.1783L157.979 92.1499V92.1214C157.299 89.6183 154.087 88.7308 151.538 88.7308C150.751 88.7308 149.981 88.8105 149.25 88.9584C142.64 90.3351 140.261 94.9033 140.85 98.567C141.19 100.7 142.561 101.969 142.963 102.299C147.33 105.781 148.361 108.642 148.582 110.036C149.885 118.182 142.266 119.997 141.394 120.179C141.139 120.231 140.459 120.356 139.621 120.356C138.483 120.356 137.491 120.139 136.676 119.719L135.379 119.053L136.772 118.638C138.409 118.148 139.593 116.578 139.593 114.9C139.593 113.057 138.16 111.612 136.33 111.612C136.24 111.612 136.155 111.612 136.064 111.623C134.076 111.771 132.461 113.512 132.461 115.509C132.461 115.531 132.473 115.679 132.473 115.679V115.713C132.45 116.021 132.473 116.368 132.535 116.755C133.254 121.266 137.236 122.216 140.442 122.216C141.57 122.216 142.487 122.102 142.986 122.04L143.105 122.023C149.596 121.237 156.228 116.129 155.736 108.204C155.492 104.262 151.975 101.65 151.929 101.616C149.868 100.035 148.214 98.5329 148.197 98.5215L148.157 98.4817C147.404 97.6625 146.956 96.8205 146.82 95.9729C146.588 94.5336 147.149 93.2251 148.44 92.2068C149.511 91.3591 150.847 90.8983 151.737 90.7561C152.297 90.6651 152.853 90.6139 153.425 90.5968L154.846 90.5513L153.866 91.5867C153.368 92.1158 153.096 92.7871 153.096 93.4811L153.107 93.4925ZM130.173 105.951C133.368 104.984 135.271 102.885 136.324 101.218C138.024 98.5386 138.415 95.6827 138.041 94.0386C137.599 92.0702 136.404 91.8598 135.911 91.8598C135.792 91.8598 135.667 91.8711 135.565 91.8939C131.918 92.7017 127.262 98.146 126.565 99.2212C126.463 99.4033 126.293 99.7105 125.936 99.7845L125.857 99.7958H125.8C125.715 99.7958 125.274 99.7674 125.16 99.244C125.115 99.0392 125.149 98.806 125.177 98.6751L126.525 93.6688C120.697 95.1821 118.833 97.9014 118.307 99.9437L115.01 113.062L114.987 113.114C113.124 117.153 110.717 120.168 110.632 120.276C107.471 124.548 104.158 125.754 102.464 126.096C101.824 126.221 101.229 126.289 100.697 126.289C98.5046 126.289 97.1056 125.208 96.6411 123.166C96.1427 120.97 96.7487 118.899 96.9187 118.393C96.93 118.251 96.9866 118.143 97.0206 118.086C97.1792 117.841 97.4284 117.79 97.5814 117.762C97.8023 117.716 98.0515 117.693 98.3121 117.665C98.6179 117.636 98.9295 117.602 99.258 117.54C104.52 116.482 109.17 113.506 111.702 109.581C113.3 107.1 113.86 104.523 113.317 102.117C112.75 99.6195 110.785 98.3565 107.471 98.3565C106.871 98.3565 105.913 98.402 104.781 98.6296C100.396 99.5114 95.8311 103.056 92.5686 108.107C88.9661 113.694 87.5274 120.174 88.7226 125.447C89.5212 128.986 92.1438 131.096 95.7292 131.096C96.4485 131.096 97.2189 131.017 98.0232 130.852C103.903 129.674 108.241 126.34 112.082 120.06L113.147 120.509L111.294 127.876C116.132 126.483 118.958 124.315 119.7 121.42L123.121 107.806C123.892 104.666 125.806 99.2668 129.958 98.4362C130.105 98.4077 130.252 98.3907 130.388 98.3907C131.074 98.3907 131.584 98.732 131.708 99.2895C131.782 99.6138 131.714 100.006 131.567 100.615L130.184 105.94L130.173 105.951ZM100.481 104.358C100.64 103.112 102.135 100.535 104.429 100.075C104.65 100.029 104.86 100.006 105.058 100.006C106.163 100.006 106.871 100.672 107.171 101.975C107.301 102.549 106.253 109.843 103.466 114.16C102.249 116.049 100.838 117.17 99.275 117.483C98.9125 117.557 98.5386 117.631 98.1365 117.653C98.0912 117.659 98.0458 117.665 98.0062 117.665C97.5814 117.665 97.3152 117.363 97.2529 117.079L97.2245 116.942L100.487 104.358H100.481Z" fill="url(#paint6_linear_752_2437)"/>
<path d="M103.67 125.925C103.223 126.079 102.821 126.181 102.481 126.249C101.835 126.38 101.229 126.443 100.685 126.443C98.4197 126.443 97.0887 125.294 96.4883 123.206C95.9728 121.42 96.5732 119.11 96.7658 118.37C96.8961 117.71 97.0717 116.937 97.0717 116.937L100.34 104.324C100.482 103.221 101.637 101.127 103.444 100.251C101.241 100.865 99.8131 103.346 99.6489 104.58C99.6489 104.58 96.0861 118.495 96.0748 118.621C95.8992 119.161 95.2988 121.249 95.7972 123.456C96.2787 125.572 97.7287 126.693 99.9944 126.693C100.544 126.693 101.144 126.625 101.79 126.5C102.288 126.397 102.928 126.221 103.665 125.919L103.67 125.925Z" fill="url(#paint7_linear_752_2437)"/>
<path d="M100.742 129.97C105.092 128.428 108.553 125.396 111.668 120.435L111.249 120.259C108.224 125.208 104.894 128.309 100.736 129.97H100.742Z" fill="url(#paint8_linear_752_2437)"/>
<path d="M124.328 98.9254V98.9482C124.299 99.0733 124.265 99.3123 124.316 99.5341C124.43 100.029 124.815 100.205 125.104 100.205H125.177L125.274 100.188C125.466 100.149 125.614 100.052 125.727 99.9437C125.444 99.921 125.115 99.7389 125.007 99.2781C124.957 99.0506 124.991 98.8116 125.013 98.6922V98.6694L126.31 93.885C125.478 94.1126 124.73 94.3629 124.056 94.6303C124.543 94.4596 125.064 94.2946 125.625 94.141L124.333 98.9254H124.328Z" fill="url(#paint9_linear_752_2437)"/>
<path d="M106.769 98.7718C110.009 98.7718 111.923 100.001 112.473 102.418C113.005 104.779 112.456 107.322 110.875 109.769C108.978 112.71 105.874 115.116 102.215 116.567C106.168 115.15 109.544 112.636 111.561 109.513C113.141 107.066 113.69 104.523 113.158 102.162C112.609 99.7446 110.688 98.5158 107.454 98.5158C106.859 98.5158 105.913 98.5613 104.792 98.7889C104.027 98.9425 103.263 99.1814 102.498 99.4886C103.036 99.3009 103.574 99.153 104.107 99.0449C105.228 98.823 106.168 98.7775 106.769 98.7775V98.7718Z" fill="url(#paint10_linear_752_2437)"/>
<path d="M122.283 108.039L118.862 121.653C118.256 124.014 116.211 125.891 112.79 127.245C116.624 125.874 118.896 123.911 119.547 121.391L122.968 107.777C123.671 104.922 125.308 100.234 128.701 98.6922C124.838 99.8698 123.025 104.996 122.283 108.033V108.039Z" fill="url(#paint11_linear_752_2437)"/>
<path d="M135.82 112.118C137.593 112.118 138.936 113.466 138.936 115.258C138.936 116.402 138.364 117.488 137.474 118.194C138.652 117.534 139.451 116.26 139.451 114.911C139.451 113.125 138.109 111.771 136.336 111.771C136.251 111.771 136.166 111.771 136.081 111.782C135.328 111.839 134.631 112.135 134.064 112.585C134.518 112.329 135.027 112.164 135.565 112.124C135.65 112.118 135.735 112.112 135.82 112.112V112.118Z" fill="url(#paint12_linear_752_2437)"/>
<path d="M151.85 101.753C149.788 100.166 148.18 98.7092 148.112 98.6467L148.089 98.6239L148.066 98.6011C147.296 97.7592 146.832 96.8945 146.696 96.0184C146.458 94.5222 147.036 93.1682 148.372 92.1101C148.429 92.0645 148.491 92.0247 148.548 91.9792C148.31 92.1214 148.078 92.275 147.857 92.4514C146.526 93.5095 145.948 94.8635 146.186 96.3597C146.328 97.2358 146.786 98.1005 147.557 98.9425L147.579 98.9652L147.602 98.988C147.67 99.0506 149.279 100.507 151.34 102.094C151.391 102.128 154.852 104.705 155.09 108.574C155.39 113.404 153.006 117.176 149.624 119.542C153.272 117.21 155.917 113.307 155.605 108.233C155.368 104.364 151.907 101.787 151.856 101.753H151.85Z" fill="url(#paint13_linear_752_2437)"/>
<path d="M157.86 92.2409L157.848 92.2068L157.837 92.1726C157.186 89.7492 154.042 88.8958 151.55 88.8958C150.774 88.8958 150.015 88.9698 149.29 89.1234C147.268 89.5443 145.653 90.2668 144.396 91.1714C145.568 90.4318 147.019 89.8345 148.774 89.4704C149.499 89.3168 150.258 89.2428 151.034 89.2428C153.527 89.2428 156.676 90.1019 157.322 92.5197L157.333 92.5538L157.344 92.5879C157.441 92.8439 157.492 93.117 157.492 93.3901C157.492 94.1751 157.118 94.8976 156.54 95.3869C157.401 94.9488 158.007 94.0443 158.001 93.043C158.001 92.77 157.95 92.5026 157.854 92.2409H157.86Z" fill="url(#paint14_linear_752_2437)"/>
<path d="M137.899 94.0727C137.491 92.2807 136.477 92.0077 135.911 92.0077C135.798 92.0077 135.69 92.019 135.594 92.0418C135.226 92.1214 134.852 92.2523 134.467 92.423C134.614 92.3774 134.761 92.3376 134.908 92.3035C135.005 92.2807 135.112 92.2694 135.226 92.2694C135.792 92.2694 136.806 92.5367 137.214 94.3344C137.576 95.9501 137.197 98.7604 135.515 101.406C134.586 102.862 133 104.66 130.445 105.712C133.407 104.717 135.192 102.731 136.2 101.15C137.876 98.5101 138.262 95.6941 137.899 94.0784V94.0727Z" fill="url(#paint15_linear_752_2437)"/>
<path d="M139.627 120.515C138.466 120.515 137.452 120.299 136.613 119.861L135.226 119.144L134.478 119.372L136.098 120.208C136.936 120.64 137.95 120.862 139.111 120.856C139.967 120.856 140.658 120.731 140.913 120.68C141.32 120.595 143.195 120.157 144.962 118.888C143.359 119.889 141.802 120.259 141.428 120.333C141.173 120.39 140.476 120.509 139.627 120.509V120.515Z" fill="url(#paint16_linear_752_2437)"/>
<path style="mix-blend-mode:screen" opacity="0.3" d="M55.6437 93.629C55.6437 106.418 65.9638 116.783 78.6969 116.783C91.4301 116.783 101.75 106.418 101.75 93.629C101.75 80.8403 91.4301 70.475 78.6969 70.475C65.9638 70.475 55.6437 80.8403 55.6437 93.629Z" fill="url(#paint17_radial_752_2437)"/>
<path style="mix-blend-mode:screen" opacity="0.5" d="M67.1703 93.629C67.1703 100.023 72.3304 105.206 78.6969 105.206C85.0635 105.206 90.2236 100.023 90.2236 93.629C90.2236 87.2346 85.0635 82.052 78.6969 82.052C72.3304 82.052 67.1703 87.2346 67.1703 93.629Z" fill="url(#paint18_radial_752_2437)"/>
<path style="mix-blend-mode:screen" d="M69.0962 93.629C69.0962 98.9596 73.3953 103.277 78.7027 103.277C84.01 103.277 88.3091 98.9596 88.3091 93.629C88.3091 88.2985 84.01 83.9806 78.7027 83.9806C73.3953 83.9806 69.0962 88.2985 69.0962 93.629Z" fill="url(#paint19_radial_752_2437)"/>
<g style="mix-blend-mode:screen" opacity="0.05">
<path d="M78.697 93.629L86.9101 77.8308L78.697 93.629ZM78.697 93.629L52.8739 143.35L78.697 93.629ZM78.697 93.629L128.202 119.565L78.697 93.629ZM78.697 93.629L41.268 73.9794L78.697 93.629ZM78.697 93.629L90.2803 79.9642L78.697 93.629ZM78.697 93.629L53.0892 123.923L78.697 93.629ZM78.697 93.629L108.859 119.349L78.697 93.629ZM78.697 93.629L48.5352 67.915L78.697 93.629ZM78.697 93.629L88.2072 78.6045L78.697 93.629ZM78.697 93.629L49.4811 139.983L78.697 93.629ZM78.697 93.629L124.849 122.978L78.697 93.629ZM78.697 93.629L43.511 71.2828L78.697 93.629ZM78.697 93.629L87.7257 78.3144L78.697 93.629ZM78.697 93.629L54.307 135.067L78.697 93.629ZM78.697 93.629L119.955 118.131L78.697 93.629ZM78.697 93.629L42.7237 72.267L78.697 93.629ZM78.697 93.629L89.8951 79.7651L78.697 93.629ZM78.697 93.629L61.6364 114.769L78.697 93.629ZM78.697 93.629L99.7451 110.77L78.697 93.629ZM78.697 93.629L57.6545 76.4939L78.697 93.629ZM78.697 93.629L89.4816 82.9509L78.697 93.629ZM78.697 93.629L67.918 104.313L78.697 93.629ZM78.697 93.629L89.3343 104.461L78.697 93.629ZM78.697 93.629L68.0653 82.803L78.697 93.629ZM78.697 93.629L80.5039 89.9938L78.697 93.629ZM78.697 93.629L76.8901 97.2699L78.697 93.629ZM78.697 93.629L82.3221 95.4438L78.697 93.629ZM78.697 93.629L75.0776 91.8142L78.697 93.629ZM78.697 93.629L75.627 80.4364L78.697 93.629ZM78.697 93.629L81.767 106.827L78.697 93.629ZM78.697 93.629L91.8379 90.5456L78.697 93.629ZM78.697 93.629L65.5617 96.7124L78.697 93.629ZM78.697 93.629L90.8127 80.2543L78.697 93.629ZM78.697 93.629L45.856 129.998L78.697 93.629ZM78.697 93.629L119.292 130.619L78.697 93.629ZM78.697 93.629L48.5918 66.1799L78.697 93.629ZM78.697 93.629L84.112 76.8637L78.697 93.629ZM78.697 93.629L65.0746 135.374L78.697 93.629ZM78.697 93.629L127.585 109.712L78.697 93.629ZM78.697 93.629L37.1388 79.9471L78.697 93.629ZM78.697 93.629L79.473 81.5969L78.697 93.629ZM78.697 93.629L77.9267 105.661L78.697 93.629ZM78.697 93.629L90.6768 94.4084L78.697 93.629ZM78.697 93.629L66.7229 92.8553L78.697 93.629ZM78.697 93.629L87.3405 78.0754L78.697 93.629ZM78.697 93.629L55.6947 135.306L78.697 93.629ZM78.697 93.629L120.193 116.738L78.697 93.629ZM78.697 93.629L41.8401 73.0919L78.697 93.629ZM78.697 93.629L77.7567 86.1708L78.697 93.629ZM78.697 93.629L79.6429 101.093L78.697 93.629ZM78.697 93.629L86.1284 92.6847L78.697 93.629ZM78.697 93.629L71.2712 94.5791L78.697 93.629ZM78.697 93.629L84.3555 89.715L78.697 93.629ZM78.697 93.629L73.0441 97.5487L78.697 93.629ZM78.697 93.629L82.5996 99.3123L78.697 93.629ZM78.697 93.629L74.8 87.9515L78.697 93.629ZM78.697 93.629L94.8569 81.9439L78.697 93.629ZM78.697 93.629L37.9148 123.024L78.697 93.629ZM78.697 93.629L107.964 134.595L78.697 93.629ZM78.697 93.629L55.2812 60.855" stroke="white" stroke-width="1.11"/>
</g>
</g>
<defs>
<linearGradient id="paint0_linear_752_2437" x1="57.5525" y1="59.0573" x2="57.5525" y2="139.761" gradientUnits="userSpaceOnUse">
<stop stop-color="#EC008C"/>
<stop offset="0.03" stop-color="#EC1690"/>
<stop offset="0.1" stop-color="#ED3B99"/>
<stop offset="0.15" stop-color="#ED529E"/>
<stop offset="0.18" stop-color="#EE5BA0"/>
<stop offset="0.37" stop-color="#EC008C"/>
<stop offset="0.59" stop-color="#E9008A"/>
<stop offset="0.7" stop-color="#E20085"/>
<stop offset="0.78" stop-color="#D5017C"/>
<stop offset="0.85" stop-color="#C20170"/>
<stop offset="0.92" stop-color="#AA0260"/>
<stop offset="0.98" stop-color="#8C044C"/>
<stop offset="1" stop-color="#7E0543"/>
</linearGradient>
<linearGradient id="paint1_linear_752_2437" x1="61.1664" y1="86.5235" x2="84.721" y2="111.953" gradientUnits="userSpaceOnUse">
<stop stop-color="#EB008B"/>
<stop offset="0.09" stop-color="#EB028C"/>
<stop offset="0.16" stop-color="#EB0C90"/>
<stop offset="0.22" stop-color="#ED1C97"/>
<stop offset="0.27" stop-color="#EE32A1"/>
<stop offset="0.32" stop-color="#F14FAF"/>
<stop offset="0.37" stop-color="#F473BF"/>
<stop offset="0.42" stop-color="#F79DD2"/>
<stop offset="0.46" stop-color="#FBCCE8"/>
<stop offset="0.5" stop-color="white"/>
<stop offset="0.51" stop-color="#FEF6FB"/>
<stop offset="0.58" stop-color="#F9B6DD"/>
<stop offset="0.64" stop-color="#F47EC4"/>
<stop offset="0.7" stop-color="#F151AF"/>
<stop offset="0.76" stop-color="#EE2D9F"/>
<stop offset="0.81" stop-color="#EC1494"/>
<stop offset="0.86" stop-color="#EB058D"/>
<stop offset="0.9" stop-color="#EB008B"/>
</linearGradient>
<linearGradient id="paint2_linear_752_2437" x1="59.4217" y1="68.6375" x2="42.2757" y2="125.275" gradientUnits="userSpaceOnUse">
<stop stop-color="#EB008B"/>
<stop offset="0.09" stop-color="#EB028C"/>
<stop offset="0.16" stop-color="#EB0C90"/>
<stop offset="0.22" stop-color="#ED1C97"/>
<stop offset="0.27" stop-color="#EE32A1"/>
<stop offset="0.32" stop-color="#F14FAF"/>
<stop offset="0.37" stop-color="#F473BF"/>
<stop offset="0.42" stop-color="#F79DD2"/>
<stop offset="0.46" stop-color="#FBCCE8"/>
<stop offset="0.5" stop-color="white"/>
<stop offset="0.51" stop-color="#FEF6FB"/>
<stop offset="0.58" stop-color="#F9B6DD"/>
<stop offset="0.64" stop-color="#F47EC4"/>
<stop offset="0.7" stop-color="#F151AF"/>
<stop offset="0.76" stop-color="#EE2D9F"/>
<stop offset="0.81" stop-color="#EC1494"/>
<stop offset="0.86" stop-color="#EB058D"/>
<stop offset="0.9" stop-color="#EB008B"/>
</linearGradient>
<radialGradient id="paint3_radial_752_2437" cx="0" cy="0" r="1" gradientUnits="userSpaceOnUse" gradientTransform="translate(77.5447 54.5286) rotate(16.6585) scale(5.75767 6.33198)">
<stop offset="0.55" stop-color="white"/>
<stop offset="0.74" stop-color="#EDEEEF"/>
<stop offset="1" stop-color="#D0D2D3"/>
</radialGradient>
<linearGradient id="paint4_linear_752_2437" x1="96.6242" y1="49.9038" x2="90.3534" y2="75.9638" gradientUnits="userSpaceOnUse">
<stop stop-color="#B3BFBE"/>
<stop offset="0.01" stop-color="#BBC5C4"/>
<stop offset="0.06" stop-color="#D5DAD9"/>
<stop offset="0.1" stop-color="#E8EAE9"/>
<stop offset="0.15" stop-color="#F3F3F2"/>
<stop offset="0.2" stop-color="#F7F6F5"/>
<stop offset="0.27" stop-color="#E6E5E6"/>
<stop offset="0.39" stop-color="#C0BFC5"/>
<stop offset="0.41" stop-color="#CCCBD0"/>
<stop offset="0.47" stop-color="#E8E7E9"/>
<stop offset="0.51" stop-color="#F9F8F9"/>
<stop offset="0.55" stop-color="white"/>
<stop offset="0.58" stop-color="#FCFCFC"/>
<stop offset="0.6" stop-color="#F4F5F5"/>
<stop offset="0.61" stop-color="#E6E7E8"/>
<stop offset="0.62" stop-color="#D3D5D6"/>
<stop offset="0.63" stop-color="#B9BDBE"/>
<stop offset="0.64" stop-color="#9BA0A1"/>
<stop offset="0.65" stop-color="#868C8E"/>
<stop offset="0.67" stop-color="#A0A4A5"/>
<stop offset="0.69" stop-color="#BFC1C2"/>
<stop offset="0.72" stop-color="#D7D8D8"/>
<stop offset="0.75" stop-color="#E9E9E8"/>
<stop offset="0.77" stop-color="#F3F2F1"/>
<stop offset="0.81" stop-color="#F7F6F5"/>
<stop offset="0.82" stop-color="#DBDBDB"/>
<stop offset="0.84" stop-color="#B3B4B5"/>
<stop offset="0.86" stop-color="#949698"/>
<stop offset="0.88" stop-color="#7E8083"/>
<stop offset="0.89" stop-color="#707376"/>
<stop offset="0.91" stop-color="#737578"/>
<stop offset="0.92" stop-color="#9D9FA1"/>
<stop offset="0.94" stop-color="#C0C2C3"/>
<stop offset="0.95" stop-color="#DCDCDD"/>
<stop offset="0.97" stop-color="#EFEFF0"/>
<stop offset="0.98" stop-color="#FBFBFB"/>
<stop offset="1" stop-color="white"/>
</linearGradient>
<linearGradient id="paint5_linear_752_2437" x1="94.2905" y1="49.3463" x2="88.0255" y2="75.4007" gradientUnits="userSpaceOnUse">
<stop stop-color="#B3BFBE"/>
<stop offset="0.01" stop-color="#BBC5C4"/>
<stop offset="0.06" stop-color="#D5DAD9"/>
<stop offset="0.1" stop-color="#E8EAE9"/>
<stop offset="0.15" stop-color="#F3F3F2"/>
<stop offset="0.2" stop-color="#F7F6F5"/>
<stop offset="0.27" stop-color="#E6E5E6"/>
<stop offset="0.39" stop-color="#C0BFC5"/>
<stop offset="0.41" stop-color="#CCCBD0"/>
<stop offset="0.47" stop-color="#E8E7E9"/>
<stop offset="0.51" stop-color="#F9F8F9"/>
<stop offset="0.55" stop-color="white"/>
<stop offset="0.58" stop-color="#FCFCFC"/>
<stop offset="0.6" stop-color="#F4F5F5"/>
<stop offset="0.61" stop-color="#E6E7E8"/>
<stop offset="0.62" stop-color="#D3D5D6"/>
<stop offset="0.63" stop-color="#B9BDBE"/>
<stop offset="0.64" stop-color="#9BA0A1"/>
<stop offset="0.65" stop-color="#868C8E"/>
<stop offset="0.67" stop-color="#A0A4A5"/>
<stop offset="0.69" stop-color="#BFC1C2"/>
<stop offset="0.72" stop-color="#D7D8D8"/>
<stop offset="0.75" stop-color="#E9E9E8"/>
<stop offset="0.77" stop-color="#F3F2F1"/>
<stop offset="0.81" stop-color="#F7F6F5"/>
<stop offset="0.82" stop-color="#DBDBDB"/>
<stop offset="0.84" stop-color="#B3B4B5"/>
<stop offset="0.86" stop-color="#949698"/>
<stop offset="0.88" stop-color="#7E8083"/>
<stop offset="0.89" stop-color="#707376"/>
<stop offset="0.91" stop-color="#737578"/>
<stop offset="0.92" stop-color="#9D9FA1"/>
<stop offset="0.94" stop-color="#C0C2C3"/>
<stop offset="0.95" stop-color="#DCDCDD"/>
<stop offset="0.97" stop-color="#EFEFF0"/>
<stop offset="0.98" stop-color="#FBFBFB"/>
<stop offset="1" stop-color="white"/>
</linearGradient>
<linearGradient id="paint6_linear_752_2437" x1="118.29" y1="89.442" x2="127.695" y2="125.109" gradientUnits="userSpaceOnUse">
<stop stop-color="white"/>
<stop offset="0.04" stop-color="#DADADA"/>
<stop offset="0.12" stop-color="#9A9898"/>
<stop offset="0.18" stop-color="#666464"/>
<stop offset="0.24" stop-color="#413E3F"/>
<stop offset="0.29" stop-color="#2B2728"/>
<stop offset="0.32" stop-color="#231F20"/>
<stop offset="0.67" stop-color="#231F20"/>
</linearGradient>
<linearGradient id="paint7_linear_752_2437" x1="98.1309" y1="102.373" x2="101.541" y2="123.975" gradientUnits="userSpaceOnUse">
<stop stop-color="white"/>
<stop offset="0.12" stop-color="#DADADA"/>
<stop offset="0.36" stop-color="#9A9898"/>
<stop offset="0.57" stop-color="#666464"/>
<stop offset="0.76" stop-color="#413E3F"/>
<stop offset="0.91" stop-color="#2B2728"/>
<stop offset="1" stop-color="#231F20"/>
</linearGradient>
<linearGradient id="paint8_linear_752_2437" x1="105.63" y1="121.539" x2="106.687" y2="128.228" gradientUnits="userSpaceOnUse">
<stop stop-color="white"/>
<stop offset="0.12" stop-color="#DADADA"/>
<stop offset="0.36" stop-color="#9A9898"/>
<stop offset="0.57" stop-color="#666464"/>
<stop offset="0.76" stop-color="#413E3F"/>
<stop offset="0.91" stop-color="#2B2728"/>
<stop offset="1" stop-color="#231F20"/>
</linearGradient>
<linearGradient id="paint9_linear_752_2437" x1="124.951" y1="94.397" x2="125.756" y2="99.5046" gradientUnits="userSpaceOnUse">
<stop stop-color="white"/>
<stop offset="0.12" stop-color="#DADADA"/>
<stop offset="0.36" stop-color="#9A9898"/>
<stop offset="0.57" stop-color="#666464"/>
<stop offset="0.76" stop-color="#413E3F"/>
<stop offset="0.91" stop-color="#2B2728"/>
<stop offset="1" stop-color="#231F20"/>
</linearGradient>
<linearGradient id="paint10_linear_752_2437" x1="106.14" y1="99.409" x2="108.425" y2="113.856" gradientUnits="userSpaceOnUse">
<stop stop-color="white"/>
<stop offset="0.12" stop-color="#DADADA"/>
<stop offset="0.36" stop-color="#9A9898"/>
<stop offset="0.57" stop-color="#666464"/>
<stop offset="0.76" stop-color="#413E3F"/>
<stop offset="0.91" stop-color="#2B2728"/>
<stop offset="1" stop-color="#231F20"/>
</linearGradient>
<linearGradient id="paint11_linear_752_2437" x1="118.947" y1="101.514" x2="122.369" y2="123.15" gradientUnits="userSpaceOnUse">
<stop stop-color="white"/>
<stop offset="0.12" stop-color="#DADADA"/>
<stop offset="0.36" stop-color="#9A9898"/>
<stop offset="0.57" stop-color="#666464"/>
<stop offset="0.76" stop-color="#413E3F"/>
<stop offset="0.91" stop-color="#2B2728"/>
<stop offset="1" stop-color="#231F20"/>
</linearGradient>
<linearGradient id="paint12_linear_752_2437" x1="136.506" y1="112.033" x2="137.38" y2="117.55" gradientUnits="userSpaceOnUse">
<stop stop-color="white"/>
<stop offset="0.12" stop-color="#DADADA"/>
<stop offset="0.36" stop-color="#9A9898"/>
<stop offset="0.57" stop-color="#666464"/>
<stop offset="0.76" stop-color="#413E3F"/>
<stop offset="0.91" stop-color="#2B2728"/>
<stop offset="1" stop-color="#231F20"/>
</linearGradient>
<linearGradient id="paint13_linear_752_2437" x1="149.386" y1="93.2023" x2="153.025" y2="116.249" gradientUnits="userSpaceOnUse">
<stop stop-color="white"/>
<stop offset="0.12" stop-color="#DADADA"/>
<stop offset="0.36" stop-color="#9A9898"/>
<stop offset="0.57" stop-color="#666464"/>
<stop offset="0.76" stop-color="#413E3F"/>
<stop offset="0.91" stop-color="#2B2728"/>
<stop offset="1" stop-color="#231F20"/>
</linearGradient>
<linearGradient id="paint14_linear_752_2437" x1="150.763" y1="89.2315" x2="151.739" y2="95.4027" gradientUnits="userSpaceOnUse">
<stop stop-color="white"/>
<stop offset="0.12" stop-color="#DADADA"/>
<stop offset="0.36" stop-color="#9A9898"/>
<stop offset="0.57" stop-color="#666464"/>
<stop offset="0.76" stop-color="#413E3F"/>
<stop offset="0.91" stop-color="#2B2728"/>
<stop offset="1" stop-color="#231F20"/>
</linearGradient>
<linearGradient id="paint15_linear_752_2437" x1="133.107" y1="93.0601" x2="134.798" y2="103.742" gradientUnits="userSpaceOnUse">
<stop stop-color="white"/>
<stop offset="0.12" stop-color="#DADADA"/>
<stop offset="0.36" stop-color="#9A9898"/>
<stop offset="0.57" stop-color="#666464"/>
<stop offset="0.76" stop-color="#413E3F"/>
<stop offset="0.91" stop-color="#2B2728"/>
<stop offset="1" stop-color="#231F20"/>
</linearGradient>
<linearGradient id="paint16_linear_752_2437" x1="136.97" y1="116.999" x2="140.732" y2="119.896" gradientUnits="userSpaceOnUse">
<stop stop-color="white"/>
<stop offset="0.12" stop-color="#DADADA"/>
<stop offset="0.36" stop-color="#9A9898"/>
<stop offset="0.57" stop-color="#666464"/>
<stop offset="0.76" stop-color="#413E3F"/>
<stop offset="0.91" stop-color="#2B2728"/>
<stop offset="1" stop-color="#231F20"/>
</linearGradient>
<radialGradient id="paint17_radial_752_2437" cx="0" cy="0" r="1" gradientUnits="userSpaceOnUse" gradientTransform="translate(78.6969 93.629) scale(23.0533 23.154)">
<stop/>
<stop offset="0.73" stop-color="#969696"/>
<stop offset="1"/>
</radialGradient>
<radialGradient id="paint18_radial_752_2437" cx="0" cy="0" r="1" gradientUnits="userSpaceOnUse" gradientTransform="translate(78.6969 93.6347) scale(11.5266 11.577)">
<stop offset="0.15" stop-color="white"/>
<stop offset="0.23" stop-color="#DBDBDB"/>
<stop offset="0.32" stop-color="#B4B4B4"/>
<stop offset="0.4" stop-color="#9B9B9B"/>
<stop offset="0.45" stop-color="#939393"/>
<stop offset="0.49" stop-color="#7F7F7F"/>
<stop offset="0.61" stop-color="#494949"/>
<stop offset="0.72" stop-color="#212121"/>
<stop offset="0.8" stop-color="#080808"/>
<stop offset="0.85"/>
<stop offset="0.86" stop-color="#101010"/>
<stop offset="0.87" stop-color="#252525"/>
<stop offset="0.88" stop-color="#424242"/>
<stop offset="0.89" stop-color="#676767"/>
<stop offset="0.9" stop-color="#A6A6A6"/>
<stop offset="0.91" stop-color="#7A7A7A"/>
<stop offset="0.93" stop-color="#545454"/>
<stop offset="0.94" stop-color="#353535"/>
<stop offset="0.95" stop-color="#1E1E1E"/>
<stop offset="0.97" stop-color="#0D0D0D"/>
<stop offset="0.98" stop-color="#030303"/>
<stop offset="1"/>
</radialGradient>
<radialGradient id="paint19_radial_752_2437" cx="0" cy="0" r="1" gradientUnits="userSpaceOnUse" gradientTransform="translate(78.697 93.629) scale(9.60647 9.64845)">
<stop offset="0.15" stop-color="white"/>
<stop offset="0.27" stop-color="#E0E0E0"/>
<stop offset="0.54" stop-color="#929292"/>
<stop offset="0.93" stop-color="#161616"/>
<stop offset="1"/>
</radialGradient>
<clipPath id="clip0_752_2437">
<rect width="168" height="127" fill="white" transform="translate(16 36)"/>
</clipPath>
</defs>
</svg>
