<svg width="200" height="200" viewBox="0 0 200 200" fill="none" xmlns="http://www.w3.org/2000/svg">
<g clip-path="url(#clip0_752_942)">
<path d="M154.235 72.4236C154.048 72.4119 153.879 72.4061 153.71 72.4061C153.565 71.234 153.396 69.7936 153.209 68.085C153.133 67.4553 153.058 66.8896 152.988 66.3473L153.145 66.2832L153.483 65.3443C153.506 64.9769 153.384 64.7845 153.11 64.7612C152.988 64.7554 152.871 64.7612 152.749 64.7612C152.586 63.7699 152.417 62.971 152.253 62.3587C152.3 62.2479 152.329 62.1488 152.335 62.0846C152.405 61.0758 152.119 59.8629 151.484 58.44L150.942 58.2651C150.009 53.1452 146.746 47.3547 141.127 40.8994L140.568 40.9985C139.647 40.1471 138.871 39.4066 138.207 38.7593C138.19 38.6777 138.166 38.6018 138.149 38.5202L137.916 38.4794C136.505 37.0915 135.707 36.2052 135.549 35.8261L135.182 35.9019C134.762 35.4821 134.366 35.0972 133.993 34.7765L133.853 34.4674C133.235 34.0767 132.618 33.7035 132 33.3245L132.367 32.9863C131.149 32.2923 130.152 31.3243 129.365 30.0939C128.911 30.024 128.462 30.0648 128.019 30.2047L126.224 28.362C125.769 28.2979 125.321 28.3329 124.872 28.4728C122.249 27.0092 120.087 25.9245 118.362 25.1956C117.715 24.8108 117.184 24.4609 116.794 24.181L116.199 24.4026C115.873 24.3093 115.564 24.2276 115.29 24.181C115.179 24.1576 115.074 24.1402 114.964 24.1168L114.765 23.6328C114.474 23.6736 114.183 23.7553 113.891 23.8661C113.693 23.8078 113.501 23.7495 113.32 23.6853L113.279 23.2538C112.935 23.2538 112.626 23.2538 112.306 23.248C111.974 23.0672 111.694 22.8806 111.478 22.6648L110.995 22.9272C109.881 22.7348 108.809 22.5715 107.76 22.4141L107.69 22.3091C105.615 21.796 103.482 21.4636 101.284 21.312C100.113 21.2303 98.6851 21.2478 97.0123 21.3528C96.6568 21.3411 96.3187 21.3353 95.9749 21.3295C95.8467 20.8571 95.7417 20.4256 95.6893 20.0699C95.0423 20.0116 94.4945 19.9882 94.034 20.0116C92.6877 20.0757 92.0233 20.5539 92.0466 21.4402C89.7677 21.6268 87.9143 22.0292 86.498 22.6415C84.0617 23.0905 82.3948 23.6153 81.5148 24.216L81.4157 23.6562C80.1742 24.3034 78.8162 24.6242 77.3533 24.6125C77.0444 24.9565 76.8404 25.3589 76.718 25.8137L74.2002 26.3269C73.903 26.6709 73.6873 27.0675 73.5707 27.5223C68.9955 29.9598 66.058 31.8725 64.7758 33.2545C63.4819 34.6365 62.3628 35.4296 61.4303 35.6454L61.3953 36.1935C52.6237 45.786 48.0951 52.8711 47.7745 57.4487C47.6987 58.545 47.4248 60.1603 46.9527 62.2887C46.4864 64.4113 46.2125 65.9799 46.1484 66.9888L45.6763 67.7818C45.484 72.2836 45.5073 76.2547 45.7462 79.6952L45.583 79.7885L45.5597 80.8906L44.9944 82.1444C45.2741 82.6517 45.653 83.1007 46.1309 83.4972C46.5331 86.4362 47.1334 88.8796 47.9377 90.8272C48.2058 91.4978 48.4564 92.1218 48.6896 92.7049C48.8702 93.807 49.0567 94.6934 49.2666 95.3407L48.9577 95.3523L49.1791 96.3262L49.8377 95.8072L49.8494 96.1162C49.9368 96.2737 50.0068 96.402 50.0709 96.4953C49.7795 96.4486 49.5463 96.5011 49.3773 96.6877L49.9485 97.1542L50.5896 97.2475C50.6129 97.3467 50.642 97.4458 50.6828 97.5391L50.9393 98.9678C51.3006 99.3585 52.1458 100.583 53.4571 102.607C53.5212 102.898 53.5737 103.19 53.6087 103.499C53.8068 103.639 54.0167 103.744 54.2381 103.825C54.5295 104.286 54.8385 104.77 55.1707 105.301L55.1882 105.4C55.2231 105.423 55.2464 105.446 55.2756 105.47C55.3105 105.522 55.3455 105.575 55.3747 105.633C55.398 105.668 55.4213 105.697 55.4446 105.732L55.6777 106.438C55.7885 106.513 55.9109 106.56 56.0274 106.624C57.8109 109.324 59.0465 110.875 59.7226 111.254L59.6818 111.75L60.4803 111.779C60.6901 111.977 60.9058 112.275 61.1331 112.677L61.3312 113.039C61.442 113.068 61.5352 113.068 61.6226 113.056C62.4036 113.931 63.0856 114.584 63.6626 115.004C65.1779 116.129 66.1046 117.138 66.4252 118.042L66.9731 118.019C69.9746 120.165 72.7198 121.99 75.2376 123.512L75.4125 123.774C75.4999 123.78 75.5932 123.774 75.6806 123.774C81.8062 127.425 86.4747 129.186 89.6744 129.028C90.7702 128.976 92.4079 129.057 94.5702 129.273C96.7326 129.489 98.3237 129.571 99.332 129.524L100.177 129.891C104.152 129.594 107.69 129.18 110.802 128.638L107.247 122.456C105.918 122.381 104.723 122.334 103.668 122.316C103.563 121.873 103.482 121.407 103.458 120.917C100.783 120.771 98.1197 120.625 95.4562 120.48C91.9533 120.194 89.5287 119.436 88.1882 118.217L87.3606 118.124L86.4047 118.304L85.9501 117.506L84.5805 117.57L77.1901 112.84L76.7414 112.03L75.9079 111.803L75.3018 110.73C74.8238 110.473 74.1244 110.146 73.1861 109.732C71.0354 108.823 68.2844 106.03 64.9331 101.324C63.2487 98.7403 61.1039 95.2182 58.4986 90.7572C58.5511 89.9292 58.3763 89.2003 57.9799 88.5763L58.114 88.4305C58.2655 87.7833 57.8284 87.3459 56.8084 87.1185C56.3538 85.2991 56.1032 83.9812 56.0624 83.159L56.6044 82.9958C55.975 81.2872 55.398 79.9343 54.8967 78.9488L55.1707 78.9371L55.2581 77.9692L55.5437 78.0974L55.5145 77.5435C55.1124 76.8262 54.9026 76.2897 54.8851 75.9224L54.9783 74.9485L55.2581 75.071L55.3572 74.3829L55.6311 74.3712C55.5437 72.6335 55.9109 69.7645 56.7268 65.7817C57.5428 61.793 57.945 59.6588 57.9333 59.3847L57.3796 59.2739L57.3913 59.548L57.0882 59.4372C57.5545 58.51 58.079 57.7753 58.6677 57.2679L58.86 56.4515L58.7959 55.4777L59.641 55.122L59.7401 53.7516L65.3061 46.9698L66.1629 46.6141L66.4893 45.8094L67.6317 45.337C67.9406 44.8997 68.3544 44.2349 68.8673 43.3544C70.0271 41.3192 73.122 38.9167 78.1868 36.141C79.9528 35.2663 82.1209 34.2458 84.697 33.0854C87.7744 31.925 90.164 31.5809 91.8368 32.0708L92.6236 31.7909L93.4046 31.2077L94.1623 31.7267L95.3687 31.0678L104.082 32.0766L104.84 32.6072L105.697 32.444L106.711 33.1496C107.247 33.1729 108.022 33.1612 109.048 33.1204C111.385 32.9921 115.08 34.2983 120.151 37.0565C122.797 38.6368 126.265 40.8586 130.566 43.7276C130.881 44.4973 131.359 45.0746 131.988 45.4595L131.936 45.6461C132.081 46.2934 132.67 46.4975 133.684 46.2525C134.891 47.6871 135.689 48.76 136.091 49.4831L135.672 49.868C136.995 51.1275 138.102 52.0897 138.982 52.7545L138.743 52.8886L139.087 53.7983L138.778 53.81L139.046 54.294C139.722 54.7605 140.148 55.1512 140.323 55.4719L140.667 56.3874L140.358 56.3991L140.568 57.0638L140.329 57.198C141.168 58.7258 142.1 61.4607 143.109 65.4026C144.129 69.3388 144.7 71.4322 144.834 71.6771L145.382 71.5314L145.253 71.2923L145.527 71.2631C145.516 75.1235 145.329 79.8002 144.945 85.3108C144.752 88.0573 144.21 90.5473 143.318 92.7866C141.08 95.848 139.588 98.1339 138.842 99.6442L137.747 99.5684L138.073 100.834C137.642 101.633 137.234 102.245 136.837 102.676L135.753 102.461L135.549 103.411C135.73 103.423 135.817 103.522 135.8 103.703C135.788 103.884 135.87 103.983 136.051 103.994C135.654 104.426 135.217 104.852 134.728 105.283L134.32 105.114C133.824 105.773 133.428 106.356 133.107 106.887L137.444 114.269C137.601 114.013 137.747 113.779 137.869 113.599C138.16 113.569 138.364 113.529 138.458 113.476C138.889 113.237 139.32 112.899 139.74 112.467C140.002 112.368 140.259 112.287 140.486 112.24L140.457 111.686L141.395 111.231C141.197 110.875 141.092 110.607 141.086 110.42C141.174 110.42 141.267 110.455 141.366 110.543L141.617 109.983C141.797 109.971 141.955 109.849 142.083 109.616C142.205 109.383 142.363 109.26 142.543 109.254L143.167 107.983C144.776 106.741 145.72 105.172 146.011 103.306C146.658 102.088 147.27 100.77 147.853 99.3526L148.383 99.1952L148.366 98.7812L148.622 98.3555C148.733 98.717 148.82 98.6645 148.89 98.2039L149.31 98.3205C149.706 97.0143 150.074 96.1279 150.417 95.6497L150.691 95.6322L151.193 94.6467L152.253 93.7662C152.218 93.0315 151.997 92.3084 151.595 91.5911C151.542 90.5823 151.909 89.6026 152.69 88.6463C152.591 88.5588 152.481 88.6055 152.352 88.7979C152.224 88.9904 152.108 89.037 152.014 88.9554L151.618 89.2469L151.74 88.9612H151.601L151.828 87.9932C151.921 88.0807 152.014 87.9874 152.09 87.7075L151.944 87.5792L152.411 85.9056C152.51 86.0805 152.562 86.2613 152.574 86.4479L152.469 87.136L152.749 87.1243C152.953 85.7365 153.087 84.681 153.139 83.9404C153.699 82.261 154.043 80.9606 154.188 80.0334L154.468 80.1617L154.695 79.1879L153.879 79.3628L154.002 79.0829C153.99 78.9022 153.984 78.7564 153.967 78.6397C154.206 78.8147 154.445 78.8613 154.672 78.7739L154.363 78.1033L153.798 77.7184L154.188 76.3305C154.556 76.2839 154.905 76.2431 155.191 76.2372C155.331 75.6016 155.412 75.0535 155.447 74.5986C155.541 73.2283 155.133 72.511 154.223 72.4469L154.235 72.4236Z" fill="#E41E2E"/>
<path d="M140.043 161.293C140.078 161.235 140.113 161.194 140.153 161.159C139.932 160.815 139.734 160.5 139.588 160.255C139.716 160.57 139.874 160.92 140.043 161.293ZM139.46 138.014C139.915 138.323 143.283 144.429 143.691 144.872C143.948 145.35 144.169 146.557 144.857 146.505C144.239 145.152 140.748 138.434 140.014 136.971C139.897 136.743 139.623 136.568 139.757 136.283C139.448 136.16 139.32 135.711 139.361 135.472C139.052 135.145 138.935 134.784 138.615 134.399C137.886 133.921 137.81 133.134 137.379 132.463C136.767 131.507 136.062 130.55 135.508 129.542C135.316 129.186 135.159 128.853 134.925 128.533C133.981 127.215 133.241 125.879 132.664 124.701C132.53 124.427 132.577 124.118 132.454 123.798C132.145 122.999 131.44 122.217 131.329 121.658C131.458 121.593 131.463 121.675 131.516 121.57C131.405 121.244 131.096 120.981 130.933 120.655C130.828 120.445 130.84 120.153 130.793 120.054C130.397 119.173 124.679 109.377 124.091 108.642C123.822 108.31 123.595 107.925 123.38 107.522C123.38 107.476 123.391 107.429 123.42 107.388C123.805 107.429 123.718 108.03 124.032 108.146C124.417 107.773 125.367 108.053 125.542 108.385C125.641 108.566 125.513 108.899 125.594 109.173C125.728 109.61 126.043 110.251 126.533 110.112C126.894 110.007 127.051 109.797 127.11 109.54C127.308 109.977 132.652 119.383 132.851 119.815C133.084 120.334 133.515 120.777 133.736 121.296L135.071 123.145L136.89 125.879L137.344 126.27L137.408 125.425L137.152 125.168C137.152 125.168 137.152 125.098 136.96 124.515C136.767 123.926 136.831 124.317 136.767 123.862C136.703 123.407 136.114 122.824 135.986 122.626C135.858 122.433 135.986 121.261 135.986 121.261L134.535 119.086C133.393 117.092 132.11 114.858 131.125 112.986C130.793 112.362 130.304 111.663 129.983 111.004C129.901 110.829 129.622 110.351 129.587 110.193C129.552 110.042 129.738 109.919 129.727 109.738C129.703 109.458 129.418 109.033 129.214 108.741C129.004 108.45 128.777 108.158 128.561 107.913C128.718 107.861 128.66 107.761 128.584 107.662C128.345 107.47 127.827 107.225 128.235 106.916C128.025 106.601 127.926 106.129 127.512 105.977C127.436 105.89 127.675 105.86 127.558 105.761C125.489 101.528 119.743 90.7865 118.694 88.8097L118.635 88.6464C121.369 88.1799 130.653 84.4012 134.273 68.1901C136.761 57.0406 132.833 44.7423 116.764 44.7423H72.5681C72.5681 44.7423 72.7371 46.2177 72.842 47.1915C75.185 47.1915 76.0592 50.7428 75.389 52.8304C75.3715 52.8829 75.3715 52.9353 75.3657 52.9878L63.6624 90.874C68.0977 104.012 82.2897 112.357 82.2897 112.357L89.307 90.7982H93.2936C93.7308 91.5737 94.9955 93.813 95.2345 94.227C96.2777 96.0172 97.187 97.5975 97.8805 99.2361C98.0146 99.3119 98.172 99.3177 98.306 99.3877C98.5974 100.029 99.3901 100.811 99.291 101.464C99.3843 101.4 99.4542 101.411 99.5008 101.493C100.416 103.254 101.465 104.846 102.374 106.473C102.333 106.484 102.287 106.525 102.258 106.484C102.228 106.514 102.228 106.549 102.258 106.584C102.52 106.945 102.578 107.126 102.852 107.237C102.759 107.417 102.881 107.587 102.951 107.727C103.417 108.654 104.012 109.453 104.571 110.339C104.595 110.765 105.125 110.951 105.154 111.499C105.393 111.61 105.405 111.867 105.562 112.065C105.603 112.176 105.44 112.263 105.539 112.38C105.638 112.491 105.708 112.683 105.836 112.706C106.005 113.173 106.256 113.651 106.524 114.106C106.949 114.829 107.422 115.575 107.882 116.264C108.78 117.599 109.491 119.016 110.196 120.375C110.458 120.882 110.919 121.302 111.163 121.815C111.758 123.04 112.679 124.13 113.203 125.279C114.416 126.912 115.086 128.748 116.117 130.136C116.182 130.224 116.351 130.27 116.409 130.37C116.426 130.405 116.362 130.434 116.351 130.498C116.263 130.387 116.17 130.27 116.082 130.142L116.158 130.836L120.687 138.026C120.897 138.131 120.949 138.353 121.106 138.493C121.806 139.111 122.674 139.875 123.158 140.936C123.368 140.825 123.298 140.936 123.508 140.907C123.461 140.709 123.636 140.656 123.694 140.434C124.219 140.58 124.184 141.303 124.65 141.642C124.79 141.741 124.959 141.711 125.07 141.816C125.449 142.195 125.186 142.505 125.489 143.047C125.653 143.006 125.886 142.895 126.002 142.889C126.177 142.919 126.556 143.286 126.521 143.502C126.521 143.467 126.422 143.414 126.445 143.49C126.725 144.26 127.471 145.21 127.593 146.05C127.529 146.079 127.512 146.009 127.454 146.021C127.611 146.266 127.896 146.779 127.827 147.082C127.978 147.286 128.334 147.432 128.456 147.683C128.538 147.852 128.456 148.073 128.503 148.237C128.975 149.695 130.432 150.861 130.438 152.132C130.251 152.255 130.175 152.307 130.018 152.342C128.619 150.546 127.384 148.05 126.008 145.776C125.536 145 124.749 143.863 124.423 143.391C124.073 143.449 124.318 143.723 124.353 143.857C124.638 145.065 125.711 146.668 126.154 147.63C126.154 148.015 126.521 148.365 126.783 148.808C127.722 150.423 128.992 152.208 129.971 153.928L129.884 154.004C130.298 154.54 130.624 155.071 130.805 155.578C130.822 155.596 130.828 155.613 130.846 155.631C130.898 155.753 130.962 155.876 131.009 155.998C131.131 156.307 131.393 156.552 131.592 156.832C131.656 156.949 131.726 157.065 131.801 157.182C131.936 157.468 132.046 157.8 132.244 158.127C132.443 158.453 132.553 158.698 132.687 159.013C133.148 160.069 133.859 160.955 134.582 161.847C134.838 162.279 135.083 162.71 135.252 163.13C135.293 163.171 135.333 163.212 135.374 163.247C135.339 163.544 135.683 163.9 135.771 164.215C136.61 165.363 136.965 166.442 137.723 167.585C138.178 168.611 138.801 169.661 139.326 170.699C139.303 170.734 139.273 170.775 139.25 170.816C139.868 171.97 140.503 173.119 141.144 174.274C141.197 174.618 141.412 174.985 141.663 175.358C141.698 175.422 141.663 175.481 141.651 175.533C141.692 175.574 141.739 175.615 141.78 175.65C142.147 176.455 142.508 177.259 143.056 178.087C143.388 178.723 143.604 179.347 144.152 180.017C144.461 179.895 144.233 179.539 144.35 179.312C143.989 178.915 143.965 178.565 143.936 178.216C143.703 177.971 143.796 177.772 143.563 177.533C143.581 177.498 143.598 177.469 143.621 177.44C143.417 176.939 143.202 176.437 143.103 175.953C142.765 175.475 142.992 175.073 142.654 174.594C142.724 174.209 142.397 173.76 142.467 173.376C142.141 172.816 142.304 172.32 142.024 171.766C142.205 171.469 141.791 171.09 142.077 170.81C141.972 170.256 141.937 169.708 141.815 169.148C142.03 169.212 141.791 168.361 142.048 168.145C142.077 168.116 142.24 168.133 142.275 167.947C141.855 167.305 141.646 166.687 141.395 166.069C141.36 165.527 140.993 164.932 141.179 164.419C141.15 164.255 141.08 164.156 141.045 163.993C141.022 163.876 141.098 163.766 141.08 163.637C141.045 163.585 140.999 163.521 140.993 163.515C140.981 163.462 140.999 163.427 141.022 163.404C141.004 163.352 140.993 163.299 140.975 163.247C140.9 163.194 140.812 163.153 140.771 163.089C139.78 161.672 139.174 159.824 138.009 158.156C137.519 156.995 136.633 155.882 136.074 154.64C135.841 154.121 135.398 153.689 135.153 153.176C134.488 151.806 133.824 150.371 132.967 149.012C132.524 148.313 132.075 147.554 131.673 146.82C131.417 146.359 131.184 145.869 131.032 145.403C130.904 145.379 130.84 145.187 130.741 145.065C130.647 144.942 130.816 144.866 130.782 144.75C130.63 144.546 130.624 144.295 130.391 144.178C130.385 143.63 129.855 143.426 129.849 143C129.319 142.096 128.742 141.286 128.31 140.347C128.27 140.265 128.217 140.166 128.2 140.067C128.17 140.085 128.13 140.102 128.071 140.096C127.745 139.735 127.384 139.047 127.191 138.609C127.174 138.574 127.075 138.44 127.069 138.428C127.046 138.318 127.162 138.294 127.133 138.248C127.081 138.149 126.911 138.09 126.847 138.009C125.857 136.592 125.25 134.743 124.079 133.075C123.589 131.909 122.703 130.795 122.144 129.559C121.911 129.046 121.468 128.608 121.217 128.095C120.553 126.725 119.888 125.29 119.032 123.932C118.589 123.232 118.14 122.468 117.738 121.739C117.481 121.279 117.248 120.789 117.091 120.322C116.963 120.299 116.898 120.106 116.805 119.99C116.712 119.867 116.881 119.792 116.84 119.675C116.689 119.471 116.689 119.22 116.455 119.103C116.444 118.555 115.919 118.351 115.908 117.925C115.377 117.022 114.806 116.211 114.369 115.272C114.305 115.132 114.182 114.957 114.287 114.782C114.013 114.66 113.955 114.485 113.71 114.112C113.675 114.077 113.675 114.042 113.71 114.019C113.734 114.053 113.786 114.019 113.827 114.007C112.97 112.357 111.968 110.735 111.105 108.951C111.064 108.869 110.988 108.858 110.895 108.916C111.018 108.263 110.242 107.464 109.974 106.817C109.84 106.735 109.683 106.729 109.549 106.648C108.908 104.986 108.051 103.388 107.06 101.569C106.804 101.09 106.536 100.554 106.233 100.157C105.97 99.8076 105.58 99.4868 105.318 98.9853C105.131 98.6471 105.073 98.2331 104.892 97.8949C104.682 97.5042 104.356 97.1543 104.14 96.7811L105.09 97.2534C105.411 97.2301 105.749 97.1543 106.081 97.1018C106.256 97.4284 106.32 97.7899 106.483 98.1281C106.646 98.4605 106.932 98.7171 107.113 99.067C107.124 99.0845 107.357 99.481 107.457 99.6676C110.097 104.583 113.186 109.61 115.558 114.17C115.674 114.269 115.441 114.304 115.517 114.392C115.937 114.532 116.047 115.004 116.263 115.313C115.861 115.634 116.391 115.861 116.636 116.048C116.712 116.147 116.776 116.24 116.619 116.299C116.84 116.538 117.079 116.823 117.295 117.115C117.505 117.407 117.802 117.815 117.831 118.1C117.848 118.281 117.668 118.409 117.703 118.555C117.744 118.719 118.035 119.191 118.122 119.36C118.46 120.007 118.973 120.695 119.317 121.313C119.48 121.605 119.649 121.908 119.824 122.212C119.888 122.2 119.952 122.188 120.017 122.177C120.191 122.503 120.256 122.865 120.419 123.203C120.582 123.529 120.868 123.792 121.048 124.136C121.06 124.153 121.293 124.55 121.392 124.736C121.637 125.191 121.893 125.652 122.144 126.107C122.395 126.521 122.639 126.929 122.884 127.326C123.444 128.247 123.927 129.063 124.493 129.991C124.668 130.276 124.988 130.521 125.116 130.83C125.151 130.9 125.07 131.017 125.105 131.081C125.268 131.378 125.519 131.693 125.711 131.979C126.171 132.661 126.504 133.396 126.929 134.067C127.104 134.341 127.448 134.609 127.582 134.941C127.681 135.18 127.553 135.472 127.628 135.746C127.675 135.903 127.821 136.026 127.92 136.183C128.503 137.122 129.15 138.131 129.558 139.076C129.458 139.012 129.365 138.918 129.272 138.825C129.342 138.965 129.424 139.111 129.493 139.245C129.616 139.338 129.377 139.379 129.453 139.461C129.866 139.601 129.983 140.073 130.199 140.382C129.797 140.703 130.327 140.93 130.566 141.117C130.647 141.216 130.706 141.309 130.548 141.367C130.77 141.607 131.003 141.892 131.224 142.184C131.434 142.47 131.732 142.884 131.761 143.169C131.778 143.344 131.597 143.478 131.632 143.63C131.673 143.793 131.959 144.266 132.052 144.435C132.39 145.088 132.903 145.776 133.247 146.388C134.279 148.243 135.619 150.447 136.808 152.412C137.368 153.333 137.851 154.15 138.417 155.077C138.591 155.363 138.912 155.608 139.046 155.917C139.075 155.987 138.994 156.109 139.029 156.167C139.192 156.465 139.442 156.78 139.635 157.065C140.095 157.748 140.427 158.477 140.853 159.153C140.94 159.287 141.063 159.421 141.185 159.561C141.238 159.485 141.296 159.427 141.372 159.433C141.459 159.625 141.581 159.818 141.663 160.004C141.611 159.841 141.71 159.911 141.721 160.004C141.704 159.794 141.447 159.392 141.226 159.106C141.255 158.803 140.993 158.465 141.057 158.173C140.859 157.858 140.83 157.567 140.865 157.281C140.841 157.229 140.8 157.17 140.719 157.112C140.76 156.885 140.742 156.646 140.742 156.406C141.057 155.654 141.727 155.129 142.438 154.441C142.549 153.905 142.881 153.415 142.485 152.785C142.578 152.634 142.508 152.447 142.601 152.295C142.316 151.858 142.316 151.24 142.252 150.884C142.205 150.628 142.042 150.418 142.205 150.237C142.421 150.4 142.619 150.593 142.928 150.505C143.237 150.109 142.788 149.893 142.491 149.63C142.392 149.106 142.234 148.575 142.211 148.068C142.054 147.887 142.065 147.724 142.118 147.578C141.89 147.024 141.937 146.505 141.739 145.951C141.756 145.817 141.855 145.945 141.89 145.869C141.832 145.333 141.634 144.779 141.453 144.225C141.453 144.225 140.183 143.898 141.045 143.904C141.302 143.578 140.87 143.321 140.719 143.012C140.661 142.889 140.678 142.709 140.626 142.58C140.229 141.671 139.477 140.743 139.157 139.799C139.652 139.326 139.419 138.668 139.343 138.172C139.413 138.184 139.402 138.096 139.507 138.044L139.46 138.014ZM120.413 134.072C120.617 134.177 121.002 134.801 120.833 134.918C120.669 134.877 120.151 134.422 120.209 134.125C120.291 134.078 120.337 134.125 120.419 134.072H120.413ZM122.045 137.781C121.853 137.694 121.899 137.589 121.742 137.495C121.759 137.612 121.351 137.245 121.252 137.017C121.188 136.918 121.182 137.169 121.112 136.988C120.11 135.874 118.746 133.39 117.598 132.066C117.633 132.026 117.668 131.979 117.744 131.985C117.977 132.241 118.023 132.387 118.251 132.69C118.507 132.515 118.373 132.352 118.251 132.218C118.268 132.206 118.28 132.201 118.297 132.189C118.892 133.069 119.451 133.898 120.092 134.714C120.028 134.743 120.005 134.673 119.952 134.685C120.704 135.705 121.555 136.924 122.051 137.781H122.045ZM117.545 130.3C117.726 130.265 117.872 130.317 118.012 130.405C118.227 130.76 118.437 131.133 118.664 131.53C119.072 132.259 119.638 132.988 119.638 133.443C118.711 132.58 117.93 131.413 117.056 130.212C116.59 129.332 116.152 128.445 115.832 127.745C116.234 128.364 117.003 129.46 117.54 130.3H117.545ZM109.368 59.9096L104.018 77.5202C103.435 79.3513 102.66 80.71 101.681 81.5963C100.62 82.5643 99.3143 83.0425 97.7698 83.0425H91.7783L101.174 52.7779H105.702C107.247 52.7779 108.395 53.4602 109.153 54.8247C109.479 55.4137 109.677 56.0609 109.759 56.7607C109.864 57.6995 109.735 58.7433 109.374 59.8979L109.368 59.9096ZM131.551 122.859C131.737 122.905 131.79 123.203 131.854 123.337C131.65 123.232 131.475 123.104 131.551 122.859ZM131.224 122.445C131.434 122.316 131.446 122.585 131.434 122.678C131.277 122.795 131.207 122.497 131.224 122.445ZM122.435 101.755C122.319 101.621 122.068 101.563 121.969 101.405C121.812 101.166 121.882 100.822 121.788 100.589C121.474 100.466 121.176 99.9592 121.048 99.7026C121.007 99.7376 121.054 99.7959 120.996 99.8251C120.856 99.7143 120.739 99.5801 120.623 99.4344L121.439 98.0698C121.514 98.2098 121.584 98.3497 121.649 98.4722C122.896 100.811 124.423 103.161 125.233 105.248C125.116 105.347 125.023 105.371 124.807 105.446C123.677 104.718 123.461 102.951 122.43 101.761L122.435 101.755ZM134.529 136.353C134.133 135.647 133.562 134.731 133.264 134.212C133.655 135.221 134.313 136.714 134.908 137.799C134.984 137.939 135.281 138.125 134.984 138.306C134.815 138.049 134.786 137.933 134.605 137.717C134.471 137.705 134.483 137.874 134.302 137.863C134.045 137.565 133.771 137.006 133.62 136.644C133.608 136.615 133.527 136.504 133.527 136.498C133.509 136.411 133.602 136.387 133.579 136.353C133.538 136.271 133.404 136.224 133.352 136.154C132.582 134.988 132.128 133.478 131.219 132.113C130.846 131.168 130.152 130.247 129.727 129.232C129.546 128.807 129.196 128.451 129.004 128.031C128.497 126.906 127.99 125.734 127.319 124.62C126.976 124.043 126.632 123.419 126.317 122.818C126.119 122.439 125.938 122.042 125.827 121.663C125.723 121.64 125.676 121.483 125.6 121.389C125.524 121.284 125.658 121.226 125.635 121.133C125.513 120.969 125.519 120.76 125.332 120.66C125.338 120.217 124.912 120.042 124.912 119.698C124.499 118.958 124.056 118.293 123.723 117.523C123.671 117.407 123.584 117.267 123.665 117.127C123.449 117.022 123.409 116.876 123.211 116.573C123.181 116.538 123.187 116.514 123.211 116.491C123.234 116.52 123.275 116.491 123.31 116.485C123.193 116.24 123.059 115.989 122.931 115.739C123.275 116.03 123.671 116.188 124.096 116.293C124.219 116.199 124.335 116.159 124.446 116.135C124.534 116.31 124.621 116.485 124.703 116.654C124.802 116.73 124.609 116.759 124.668 116.829C125 116.952 125.087 117.337 125.256 117.587C124.918 117.838 125.349 118.03 125.536 118.188C125.6 118.264 125.647 118.345 125.519 118.392C125.693 118.59 125.88 118.824 126.049 119.068C126.218 119.308 126.445 119.646 126.469 119.873C126.48 120.019 126.329 120.118 126.352 120.241C126.381 120.369 126.603 120.76 126.673 120.899C126.929 121.43 127.331 121.996 127.599 122.503C128.398 124.025 129.435 125.833 130.362 127.448C130.793 128.206 131.172 128.877 131.609 129.635C131.743 129.874 132 130.078 132.099 130.329C132.122 130.387 132.052 130.48 132.081 130.533C132.204 130.778 132.402 131.034 132.553 131.273C132.915 131.839 133.171 132.44 133.498 132.988C133.632 133.215 133.906 133.437 134.01 133.711C134.08 133.903 133.97 134.142 134.028 134.364C134.063 134.492 134.179 134.591 134.255 134.714C134.704 135.489 135.205 136.318 135.52 137.087C135.188 136.854 134.966 136.318 134.517 136.376L134.529 136.353ZM141.873 149.945C141.978 149.939 142.048 150.009 142.106 150.114C141.96 150.231 141.949 150.004 141.873 149.945ZM141.523 147.175C141.593 147.187 141.681 147.245 141.774 147.339C142.059 148.073 142.176 148.785 142.345 149.508C142.327 149.485 142.31 149.467 142.292 149.45C142.007 149.036 141.966 148.476 141.517 148.196C141.517 148.05 141.517 147.904 141.558 147.764C141.377 147.543 141.407 147.35 141.529 147.175H141.523Z" fill="#E41E2E"/>
</g>
<defs>
<clipPath id="clip0_752_942">
<rect width="110.476" height="160" fill="white" transform="translate(45 20)"/>
</clipPath>
</defs>
</svg>
