<svg width="200" height="200" viewBox="0 0 200 200" fill="none" xmlns="http://www.w3.org/2000/svg">
<path d="M178.671 74.8617H137.033L136.608 70.4825C130.022 68.5163 122.883 67.0529 115.376 66.1983L99.5001 17.3457L83.5966 66.2821C76.3348 67.1478 69.4249 68.5834 63.0344 70.4881L62.582 74.8673H20.3292L27.9206 85.9549L37.065 92.5963C36.5566 92.8756 36.0595 93.1605 35.5679 93.4509L28.5016 136.31L33.1324 138.874C41.2377 134.478 51.7674 130.657 63.5595 127.971L50.572 167.936L55.2643 170.098L99.5001 137.958L143.736 170.098L148.428 167.936L135.446 127.976C147.361 130.719 157.991 134.629 166.153 139.069L170.783 136.517L163.952 93.4453C163.365 93.099 162.767 92.7639 162.159 92.4287L171.079 85.9493L178.671 74.8617Z" fill="#007A33"/>
<path d="M50.5664 167.925L55.2643 170.087L99.5 137.947V132.378L50.5664 167.925Z" fill="url(#paint0_linear_752_1788)"/>
<path d="M148.428 167.925L143.736 170.087L99.5 137.947V132.378L148.428 167.925Z" fill="url(#paint1_linear_752_1788)"/>
<path d="M20.3292 74.8617L27.9206 85.9493L37.065 92.5907C38.5006 91.792 39.9976 91.0211 41.5506 90.2782L20.3292 74.8617Z" fill="url(#paint2_linear_752_1788)"/>
<path d="M178.671 74.8617L157.662 90.1274C159.215 90.8647 160.717 91.6356 162.159 92.4287L171.08 85.9493L178.671 74.8617Z" fill="url(#paint3_linear_752_1788)"/>
<path d="M115.375 66.1983L99.5 17.3457L83.5966 66.2821C88.8474 65.6565 94.2771 65.3157 99.8352 65.3157C105.393 65.3157 110.342 65.6229 115.375 66.1983Z" fill="url(#paint4_linear_752_1788)"/>
<path d="M62.582 74.8617H20.3292L41.5506 90.2791C47.5444 87.4023 54.3482 84.9501 61.7441 83.0229L62.582 74.8561V74.8617Z" fill="url(#paint5_linear_752_1788)"/>
<path d="M63.5539 127.959L50.5664 167.925L99.4945 132.378L148.423 167.925L135.441 127.965C124.33 125.407 112.102 123.865 99.7011 123.865C87.3001 123.865 74.7819 125.396 63.5483 127.954L63.5539 127.959Z" fill="url(#paint6_linear_752_1788)"/>
<path d="M52.6221 168.869L50.5664 167.925L88.7749 140.17L52.6221 168.869Z" fill="#78BE20"/>
<path d="M146.378 168.875L148.428 167.925L110.225 140.17L146.378 168.875Z" fill="#78BE20"/>
<path d="M58.5433 158.558L57.9958 160.245L99.5001 130.093L141.004 160.245L140.451 158.558L99.5001 128.808L58.5433 158.558Z" fill="#006834"/>
<path d="M66.8273 127.25L56.0686 160.362L99.5 128.808L142.931 160.362L132.173 127.25C121.956 125.128 110.901 123.871 99.7067 123.871C88.5123 123.871 77.167 125.116 66.8273 127.244V127.25Z" fill="url(#paint7_linear_752_1788)"/>
<path d="M62.2859 77.7495H29.2222L44.567 88.8936C49.7955 86.609 55.5659 84.6315 61.744 83.0227L62.2859 77.7495Z" fill="url(#paint8_linear_752_1788)"/>
<path d="M137.82 83.0227C143.864 84.598 149.506 86.5252 154.634 88.7484L169.772 77.7495H137.312L137.826 83.0227C137.826 83.0227 137.826 83.0227 137.815 83.0227H137.82Z" fill="url(#paint9_linear_752_1788)"/>
<path d="M112.231 65.8687L99.5 26.6962L86.7471 65.9358C91.0092 65.528 95.3831 65.3102 99.8351 65.3102C104.047 65.3102 108.186 65.5001 112.231 65.8687Z" fill="url(#paint10_linear_752_1788)"/>
<path d="M110.532 65.7347L99.5 31.7736V65.3157C99.6117 65.3157 99.7234 65.3157 99.8352 65.3157C103.46 65.3157 107.03 65.461 110.532 65.7347Z" fill="url(#paint11_linear_752_1788)"/>
<path d="M164.946 79.3191L146.009 85.4581C148.406 86.2625 150.718 87.1228 152.942 88.0389L164.94 79.3191H164.946Z" fill="url(#paint12_linear_752_1788)"/>
<path d="M99.5 123.871V126.865L139.948 156.251L117.157 124.859C111.448 124.223 105.594 123.871 99.7011 123.871C99.634 123.871 99.5614 123.871 99.4944 123.871H99.5Z" fill="url(#paint13_linear_752_1788)"/>
<path d="M59.0515 156.251L81.8258 124.876C77.3067 125.379 72.8825 126.06 68.5925 126.893L59.0515 156.245V156.251Z" fill="url(#paint14_linear_752_1788)"/>
<path d="M62.1239 79.3191H34.0541L53.2756 85.5475C56.0016 84.6314 58.8281 83.7823 61.7496 83.0226L62.1295 79.3191H62.1239Z" fill="url(#paint15_linear_752_1788)"/>
<path d="M137.82 83.0226C140.641 83.76 143.373 84.57 146.009 85.4581L164.946 79.3191H137.468L137.831 83.0226C137.831 83.0226 137.831 83.0226 137.82 83.0226Z" fill="url(#paint16_linear_752_1788)"/>
<path d="M139.948 156.251L130.408 126.893C126.112 126.049 121.682 125.362 117.157 124.859L139.948 156.251Z" fill="url(#paint17_linear_752_1788)"/>
<path d="M59.0515 156.251L99.5 126.865V123.871C93.5341 123.876 87.6073 124.234 81.8258 124.876L59.0515 156.251Z" fill="url(#paint18_linear_752_1788)"/>
<path d="M34.0541 79.3191L46.254 88.1785C48.5051 87.2457 50.8513 86.3631 53.2756 85.5475L34.0541 79.3191Z" fill="url(#paint19_linear_752_1788)"/>
<path d="M99.5001 31.7736L88.4453 65.7905C92.0595 65.4889 95.7518 65.3269 99.5001 65.3213V31.7736Z" fill="url(#paint20_linear_752_1788)"/>
<path d="M164.946 79.3191L145.032 85.1286C145.372 85.2403 145.708 85.352 146.043 85.4637L164.952 79.3191H164.946Z" fill="url(#paint21_linear_752_1788)"/>
<path d="M34.0541 79.3191L52.231 85.905C52.5662 85.7877 52.9069 85.676 53.2477 85.5587L34.0541 79.3191Z" fill="url(#paint22_linear_752_1788)"/>
<path d="M59.0515 156.251L83.4513 124.703C82.9095 124.759 82.3676 124.815 81.8258 124.876L59.0515 156.251Z" fill="url(#paint23_linear_752_1788)"/>
<path d="M139.948 156.251L118.682 125.033C118.168 124.971 117.649 124.915 117.135 124.854L139.948 156.251Z" fill="url(#paint24_linear_752_1788)"/>
<path d="M163.952 93.4398C156.684 89.1835 147.791 85.6198 137.82 83.0224C137.82 83.0224 137.826 83.0224 137.831 83.0224L136.608 70.4825C125.609 67.1981 113.08 65.3157 99.8352 65.3157C86.5907 65.3157 74.0501 67.2037 63.0344 70.4825L61.744 83.0224C51.7618 85.6198 42.8521 89.1835 35.5623 93.4398L28.496 136.299L33.1268 138.863C48.9464 130.283 73.9942 123.871 99.7067 123.871C125.419 123.871 150.378 130.479 166.153 139.058L170.783 136.506L163.952 93.4342V93.4398Z" fill="url(#paint25_linear_752_1788)"/>
<path d="M137.831 83.028L136.608 70.4881C125.609 67.2037 113.08 65.3213 99.8352 65.3213C86.5907 65.3213 74.05 67.2093 63.0344 70.4881L61.744 83.028C73.2736 80.0285 86.2332 78.3137 99.8017 78.3137C113.37 78.3137 126.319 80.0285 137.831 83.028Z" fill="url(#paint26_linear_752_1788)"/>
<g style="mix-blend-mode:multiply" opacity="0.4">
<path d="M63.5594 127.96L62.2244 132.082C73.8098 129.797 86.6577 128.423 99.7066 128.423C112.756 128.423 125.319 129.809 136.787 132.093L135.452 127.976C124.341 125.418 112.113 123.876 99.7122 123.876C87.3112 123.876 74.7929 125.407 63.565 127.965L63.5594 127.96Z" fill="black"/>
</g>
<path d="M99.7123 120.268C72.2123 120.268 45.4217 127.127 28.5016 136.304L33.1324 138.868C48.952 130.289 73.9998 123.876 99.7123 123.876C125.425 123.876 150.383 130.484 166.158 139.064L170.789 136.511C153.914 127.334 127.218 120.262 99.7179 120.262L99.7123 120.268Z" fill="url(#paint27_linear_752_1788)"/>
<path d="M99.7123 120.268C72.2123 120.268 45.4217 127.128 28.5016 136.305L28.8703 136.512C45.9132 127.485 72.4581 120.776 99.7123 120.776C126.967 120.776 153.422 127.686 170.415 136.719L170.789 136.512C153.914 127.334 127.218 120.262 99.7179 120.262L99.7123 120.268Z" fill="url(#paint28_linear_752_1788)"/>
<path d="M28.496 136.305C45.4216 127.127 72.2067 120.268 99.7067 120.268C127.207 120.268 153.908 127.339 170.778 136.517L163.946 93.4454C148.283 84.2681 125.101 78.3193 99.7961 78.3193C74.4913 78.3193 51.2758 84.2736 35.5623 93.4454L28.496 136.305Z" fill="url(#paint29_linear_752_1788)"/>
<path d="M100.198 79.3861C75.3796 79.3861 52.6388 85.145 37.2828 94.0262L37.2605 94.1603C52.6388 85.5918 74.983 80.0676 99.3325 80.0676C123.682 80.0676 146.942 85.8264 162.276 94.7077C162.276 94.7077 167.409 127.892 167.761 128.077L163.069 94.0318C147.741 85.1506 125.017 79.3917 100.204 79.3917L100.198 79.3861Z" fill="url(#paint30_linear_752_1788)"/>
<path d="M33.1547 130.406C49.2033 122.234 73.2791 116.933 99.6955 116.933C126.112 116.933 150.154 122.234 166.158 130.406L160.745 94.9814C145.987 86.8095 123.95 81.5087 99.796 81.5087C75.642 81.5087 53.5716 86.8095 38.7686 94.9814L33.1547 130.406Z" fill="url(#paint31_linear_752_1788)"/>
<path d="M166.158 130.406L160.745 94.9814C145.987 86.8095 123.95 81.5087 99.796 81.5087C75.642 81.5087 53.5716 86.8095 38.7687 94.9814L38.724 95.2775C53.5493 87.3793 75.2622 82.2851 98.9861 82.2851C122.71 82.2851 145.261 87.5859 160.03 95.7578L165.063 129.144C149.093 121.251 125.536 116.162 99.7011 116.162C73.8657 116.162 49.3039 121.463 33.2832 129.635L33.1603 130.412C49.2089 122.24 73.2847 116.939 99.7011 116.939C126.117 116.939 149.182 122.033 165.181 129.92V129.931C165.51 130.093 165.845 130.25 166.164 130.412L166.158 130.406Z" fill="#B3B3B3"/>
<path d="M93.2493 72.6891C93.16 72.6388 93.0482 72.622 92.9198 72.622L92.2997 72.65L92.283 73.2309H92.3612C92.4896 73.2197 92.6014 73.2421 92.6907 73.2924C92.7801 73.3426 92.8248 73.4041 92.8192 73.4767L92.7857 74.9402H92.8583C92.9868 74.9291 93.0985 74.9011 93.1935 74.8453C93.2829 74.7894 93.3331 74.728 93.3331 74.6498L93.3722 72.8734C93.3722 72.8008 93.3331 72.7393 93.2438 72.6891H93.2493Z" fill="#006838"/>
<path d="M93.3163 69.5777C93.2269 69.5274 93.1208 69.5106 92.9923 69.5106L92.3778 69.5386L92.3611 70.1195H92.4337C92.5622 70.1139 92.6683 70.1307 92.7577 70.1809C92.8471 70.2312 92.8918 70.2927 92.8862 70.3653L92.8638 71.4155H92.942C93.0705 71.4043 93.1822 71.3764 93.2716 71.3205C93.361 71.2646 93.4113 71.1976 93.4113 71.125L93.4392 69.762C93.4392 69.6894 93.4001 69.6279 93.3107 69.5777H93.3163Z" fill="#006838"/>
<path d="M108.845 76.1915C108.549 76.253 108.231 76.2753 107.89 76.2586L107.147 76.225C106.807 76.2083 106.488 76.158 106.187 76.0686C105.885 75.9793 105.622 75.8675 105.399 75.7335C105.175 75.5994 104.997 75.4374 104.868 75.2642C104.734 75.0855 104.667 74.9012 104.667 74.7112L104.6 68.8515L104.304 68.8403C104.125 68.8347 104.036 68.8794 104.042 68.9855L104.114 75.3201C104.114 75.5156 104.181 75.7 104.315 75.8731C104.444 76.0519 104.622 76.2083 104.846 76.3423C105.069 76.4764 105.332 76.5937 105.634 76.6775C105.935 76.7669 106.254 76.8172 106.594 76.8283L107.337 76.8618C107.678 76.8786 107.996 76.8563 108.292 76.7948C108.594 76.7334 108.851 76.644 109.069 76.5267C109.287 76.4094 109.46 76.2697 109.583 76.1021C109.639 76.0295 109.683 75.9457 109.711 75.8675C109.683 75.8843 109.655 75.9066 109.622 75.9234C109.404 76.0407 109.147 76.1301 108.845 76.1915Z" fill="#006838"/>
<path d="M107.901 74.9849C107.991 74.9347 108.035 74.8732 108.035 74.8006L107.913 68.9967L107.611 68.9855C107.432 68.98 107.348 69.0246 107.348 69.1308L107.471 75.0464H107.572C107.7 75.0576 107.812 75.0352 107.901 74.9849Z" fill="#006838"/>
<path d="M101.416 75.9625C101.114 76.0351 100.796 76.0742 100.461 76.0686H99.7179C99.3771 76.0686 99.0587 76.0295 98.7627 75.9513C98.461 75.8787 98.2041 75.7726 97.9862 75.6497C97.7683 75.5212 97.5896 75.376 97.4667 75.2028C97.3382 75.0352 97.2768 74.8509 97.2768 74.6554L97.3326 69.4939C97.3326 69.3766 97.3606 69.2704 97.4053 69.1643C97.2321 69.276 97.0869 69.4045 96.9751 69.5553C96.8467 69.7285 96.7796 69.9072 96.7796 70.1028L96.7238 75.2643C96.7238 75.4598 96.7852 75.6385 96.9137 75.8117C97.0422 75.9848 97.2153 76.1357 97.4332 76.2586C97.651 76.387 97.9136 76.4876 98.2096 76.5602C98.5057 76.6328 98.8297 76.6719 99.1649 76.6719H99.9078C100.249 76.6719 100.567 76.6384 100.863 76.5658C101.159 76.4932 101.422 76.3926 101.645 76.2642C101.863 76.1357 102.042 75.9904 102.17 75.8173C102.22 75.7502 102.265 75.672 102.293 75.5994C102.265 75.6162 102.232 75.6385 102.198 75.6553C101.975 75.7782 101.718 75.8787 101.416 75.9569V75.9625Z" fill="#006838"/>
<path d="M100.505 69.371C100.416 69.3207 100.304 69.2928 100.182 69.2928H100.031C99.9022 69.2928 99.7961 69.3151 99.7067 69.371C99.6173 69.4213 99.5726 69.4827 99.5726 69.5609V69.9017H99.6341C99.7626 69.9017 99.8687 69.9296 99.9581 69.9799C100.047 70.0357 100.092 70.0972 100.092 70.1698V74.8788H100.176C100.304 74.8788 100.416 74.8565 100.505 74.8006C100.595 74.7503 100.64 74.6833 100.64 74.6107V69.5609C100.64 69.4883 100.6 69.4213 100.511 69.371H100.505Z" fill="#006838"/>
<path d="M66.4196 79.1074L67.1402 71.9573L66.9111 72.002C66.7324 72.0355 66.6374 72.1025 66.6263 72.2087L65.8721 79.7107C65.861 79.8169 65.9504 79.8504 66.1347 79.8169L68.0228 79.4761C68.2071 79.4426 68.3021 79.3756 68.3132 79.2694L68.3468 78.9119L66.6877 79.208C66.5034 79.2415 66.414 79.208 66.4252 79.1018L66.4196 79.1074Z" fill="#006838"/>
<path d="M76.2342 77.4428L76.7481 70.3206L76.5023 70.3541C76.3236 70.3765 76.2286 70.4379 76.223 70.5441L75.6812 78.0461C75.6756 78.1522 75.7594 78.1913 75.9437 78.169L80.1947 77.6327C80.379 77.6104 80.474 77.5434 80.4796 77.4428L80.5019 77.063L76.4967 77.5657C76.3124 77.588 76.2286 77.5489 76.2342 77.4428Z" fill="#006838"/>
<path d="M69.0338 76.7833L69.6594 78.3976C69.6818 78.4312 69.7153 78.4423 69.7544 78.4368C69.7935 78.4312 69.827 78.4032 69.855 78.3641L70.1789 77.705L69.1902 75.141L69.0338 76.7833Z" fill="#006838"/>
<path d="M71.6481 78.1686L71.9497 74.6383L71.3408 75.8672L71.095 78.7719C71.0839 78.8781 71.1733 78.9116 71.3576 78.8781L73.2401 78.5373C73.4244 78.5038 73.5194 78.4368 73.525 78.3306L73.5529 77.9731L71.9106 78.2692C71.7263 78.3027 71.6425 78.2692 71.6481 78.1631V78.1686Z" fill="#006838"/>
<path d="M72.2737 71.0133L72.2235 71.0244C72.1453 71.0412 72.0782 71.0691 72.0168 71.1138C71.9553 71.1585 71.9107 71.2032 71.8827 71.2423L70.4415 74.5269L70.5644 74.9123L72.2737 71.0133Z" fill="#006838"/>
<path d="M116.655 73.7949C116.727 73.7502 116.794 73.6999 116.861 73.6496C117.012 73.5212 117.107 73.3759 117.152 73.2195C116.962 73.3256 116.733 73.4094 116.47 73.4653L116.655 73.7949Z" fill="#006838"/>
<path d="M85.2166 76.6049H85.1942L83.4514 76.7557C83.267 76.7669 83.1777 76.7278 83.1832 76.6216L83.5519 69.5218L83.295 69.5441C83.1162 69.5609 83.0212 69.6168 83.0157 69.7229L82.6246 77.2249C82.6246 77.3311 82.7084 77.3757 82.8928 77.359L84.6356 77.2138H84.6524H84.6915L87.3337 76.9903C87.518 76.9736 87.6074 76.9177 87.613 76.8116L87.6297 76.4094L85.2501 76.6105H85.211L85.2166 76.6049Z" fill="#006838"/>
<path d="M94.0928 75.9681C93.7911 76.0575 93.4727 76.1077 93.132 76.1189L90.1993 76.2418C90.015 76.2474 89.9256 76.2027 89.9312 76.0966L90.1602 69.0191L89.8921 69.0302C89.7133 69.0358 89.624 69.0917 89.6184 69.1978L89.3782 76.7055C89.3782 76.8116 89.462 76.8563 89.6463 76.8507L92.579 76.7278C92.9141 76.7166 93.2381 76.6608 93.5398 76.577C93.8414 76.4932 94.104 76.3815 94.3274 76.2418C94.5508 76.1077 94.7296 75.9513 94.8637 75.7726C94.9139 75.7056 94.953 75.6385 94.981 75.5715C94.9474 75.5938 94.9195 75.6162 94.886 75.6385C94.6626 75.7726 94.4 75.8843 94.0984 75.9737L94.0928 75.9681Z" fill="#006838"/>
<path d="M78.72 74.2529L80.1165 74.0741C80.2952 74.0518 80.3902 73.9848 80.3958 73.8842L80.4181 73.5044L78.7535 73.7166L78.72 74.2529Z" fill="#006838"/>
<path d="M78.9099 71.3428L80.5801 71.1306C80.7589 71.1082 80.8538 71.0412 80.8594 70.9406L80.8818 70.5608L78.9434 70.8066L78.9099 71.3428Z" fill="#006838"/>
<path d="M130.268 73.0522L131.849 73.3594C132.027 73.3929 132.117 73.3594 132.106 73.2533L132.055 72.6835L130.212 72.326L130.273 73.0522H130.268Z" fill="#006838"/>
<path d="M116.158 76.7219C116.085 76.6828 116.035 76.6437 116.007 76.5934L114.471 73.7334L114.543 75.5042L115.454 77.2023C115.482 77.2526 115.532 77.2917 115.605 77.3308C115.677 77.3643 115.755 77.3867 115.834 77.3978L117.616 77.5542C117.783 77.571 117.85 77.5207 117.805 77.4146L117.509 76.8895L116.392 76.789C116.314 76.7834 116.236 76.761 116.163 76.7219H116.158Z" fill="#006838"/>
<path d="M128.464 78.2416L127.905 71.3038L127.559 71.2367C127.38 71.2032 127.296 71.2367 127.307 71.3429L127.911 78.8449C127.922 78.951 128.017 79.0181 128.195 79.0516L132.458 79.8616C132.642 79.8951 132.731 79.8616 132.72 79.7554L132.664 79.1912L128.748 78.4483C128.564 78.4148 128.469 78.3422 128.464 78.2416Z" fill="#006838"/>
<path d="M123.542 70.5832L123.207 70.5329C123.028 70.5105 122.945 70.5496 122.95 70.6502L123.073 72.4489L123.749 73.6164L123.542 70.5776V70.5832Z" fill="#006838"/>
<path d="M115.264 70.1642C115.174 70.1027 115.063 70.0692 114.934 70.0581L114.32 70.0022L114.348 70.6613H114.381C114.51 70.6781 114.616 70.7116 114.711 70.7731C114.8 70.8345 114.851 70.9015 114.851 70.9742L114.906 72.2925L115.024 72.3036C115.152 72.3148 115.258 72.3036 115.348 72.2534C115.437 72.2087 115.476 72.1528 115.476 72.0746L115.404 70.3653C115.404 70.2927 115.353 70.2256 115.264 70.1642Z" fill="#006838"/>
<path d="M112.298 76.2641L112.063 69.2593L111.756 69.2313C111.577 69.2146 111.493 69.2593 111.493 69.3654L111.745 76.8674C111.745 76.9736 111.84 77.035 112.024 77.0462L113.767 77.2026C113.906 77.2138 113.99 77.1858 114.018 77.1132L114.041 77.2249L114.013 76.5714L112.583 76.4429C112.398 76.4261 112.309 76.3647 112.303 76.2641H112.298Z" fill="#006838"/>
<path d="M124.565 77.7386C124.492 77.6995 124.442 77.6604 124.408 77.6157L122.101 73.6328L122.213 75.3869L123.861 78.2246C123.889 78.2637 123.939 78.3083 124.017 78.3475C124.09 78.3866 124.168 78.4145 124.246 78.4257L125.503 78.5988C125.687 78.6268 125.777 78.5877 125.766 78.4815L125.727 77.9453L124.799 77.8168C124.721 77.8056 124.643 77.7833 124.57 77.7386H124.565Z" fill="#006838"/>
<path d="M130.519 75.9621L131.826 76.2135C132.005 76.247 132.095 76.2135 132.083 76.1074L132.028 75.5376L130.452 75.2359L130.514 75.9565L130.519 75.9621Z" fill="#006838"/>
<path d="M120.045 76.9959L119.654 70.0245L119.33 69.9799C119.152 69.9519 119.068 69.9966 119.074 70.0972L119.498 77.5992C119.498 77.7053 119.599 77.7668 119.777 77.7947L121.52 78.0405C121.705 78.0684 121.788 78.0293 121.783 77.9232L121.749 77.3925L120.33 77.197C120.146 77.1691 120.057 77.1076 120.051 77.0015L120.045 76.9959Z" fill="#006838"/>
<path d="M87.9425 75.0744L85.5293 75.2755L85.8142 68.9241C85.8142 68.818 85.7304 68.7733 85.5516 68.7901L83.8479 68.9353C83.6691 68.9521 83.5798 69.0079 83.5686 69.1141L83.1776 76.6161C83.1776 76.7222 83.2614 76.7613 83.4457 76.7502L85.1885 76.6049H85.2109H85.25L87.8922 76.3815C88.0765 76.3647 88.1659 76.3089 88.1715 76.2027L88.2106 75.2084C88.2106 75.1079 88.1268 75.0576 87.9425 75.0744ZM81.2113 69.2146L77.0553 69.7509C76.8765 69.7732 76.7816 69.8403 76.776 69.9408L76.2341 77.4428C76.2286 77.549 76.3123 77.5881 76.4967 77.5657L80.7477 77.0295C80.932 77.0071 81.027 76.9401 81.0325 76.8396L81.0884 75.8452C81.094 75.7391 81.0046 75.7 80.8259 75.7223L78.6026 76.0016L78.7534 73.7114L80.6694 73.4656C80.8482 73.4432 80.9432 73.3762 80.9487 73.2757L81.0046 72.2813C81.0102 72.1752 80.9264 72.1361 80.7421 72.1585L78.8316 72.4042L78.9378 70.7955L81.1275 70.5162C81.3063 70.4938 81.4012 70.4268 81.4068 70.3262L81.4627 69.3319C81.4683 69.2258 81.3845 69.1867 81.2057 69.209L81.2113 69.2146ZM132.402 72.7506C132.58 72.7841 132.67 72.7506 132.659 72.6444L132.564 71.6501C132.553 71.544 132.458 71.477 132.279 71.4434L128.117 70.6335C127.938 70.6 127.855 70.6335 127.866 70.7396L128.469 78.2416C128.48 78.3478 128.575 78.4148 128.754 78.4483L133.016 79.2583C133.2 79.2918 133.284 79.2583 133.279 79.1522L133.184 78.1579C133.173 78.0517 133.078 77.9847 132.893 77.9512L130.659 77.5266L130.458 75.2364L132.385 75.605C132.569 75.6386 132.653 75.605 132.642 75.4989L132.547 74.5046C132.536 74.3985 132.441 74.3314 132.262 74.2979L130.346 73.9292L130.206 72.3205L132.407 72.745L132.402 72.7506ZM74.4075 70.1196L72.782 70.4212C72.7038 70.4324 72.6367 70.4659 72.5753 70.5106C72.5138 70.5553 72.4692 70.6 72.4412 70.6391L70.5643 74.918L69.4024 71.1977C69.3801 71.1641 69.341 71.1362 69.2851 71.1139C69.2293 71.0915 69.1622 71.0859 69.0896 71.1027L67.4529 71.4043C67.2741 71.4379 67.1792 71.5049 67.168 71.611L66.4139 79.1131C66.4027 79.2192 66.4921 79.2527 66.6764 79.2192L68.5645 78.8785C68.7489 78.8449 68.8438 78.7779 68.855 78.6718L69.1846 75.1414L70.2068 77.7892C70.2292 77.8227 70.2627 77.8339 70.3018 77.8283C70.3409 77.8227 70.3744 77.7948 70.4023 77.7557L71.9385 74.6387L71.6368 78.169C71.6257 78.2752 71.715 78.3087 71.8994 78.2752L73.7819 77.9344C73.9662 77.9009 74.0612 77.8339 74.0668 77.7277L74.6589 70.2257C74.6645 70.1196 74.5807 70.086 74.4019 70.1196H74.4075ZM116.47 73.4656C116.867 73.3818 117.18 73.2421 117.414 73.0466C117.649 72.8511 117.761 72.6109 117.744 72.3372L117.655 70.5162C117.643 70.3207 117.571 70.1363 117.437 69.952C117.303 69.7676 117.118 69.6056 116.9 69.4604C116.677 69.3152 116.414 69.1923 116.118 69.0917C115.822 68.9912 115.51 68.9241 115.174 68.8962L112.309 68.6337C112.13 68.6169 112.046 68.6616 112.046 68.7677L112.298 76.2698C112.298 76.3759 112.393 76.4318 112.577 76.4485L114.32 76.6049C114.465 76.6161 114.543 76.5882 114.571 76.5156L114.593 76.6273L114.476 73.7337L116.012 76.5938C116.04 76.6385 116.09 76.6831 116.163 76.7222C116.236 76.7558 116.314 76.7781 116.392 76.7893L118.174 76.9457C118.342 76.9624 118.409 76.9122 118.364 76.806L116.476 73.4656H116.47ZM115.482 72.0747C115.482 72.1473 115.442 72.2087 115.353 72.2534C115.264 72.2981 115.158 72.3149 115.029 72.3037L114.415 72.2478L114.325 70.0023L114.94 70.0581C115.068 70.0693 115.174 70.1084 115.269 70.1642C115.359 70.2257 115.409 70.2927 115.409 70.3653L115.482 72.0747ZM95.0032 68.6448C94.7909 68.5275 94.534 68.4382 94.2435 68.3767C93.953 68.3153 93.6402 68.2929 93.3106 68.3041L90.445 68.4214C90.2663 68.427 90.1769 68.4884 90.1713 68.589L89.9311 76.0966C89.9311 76.2027 90.0149 76.2474 90.1992 76.2418L93.1319 76.119C93.4726 76.1078 93.791 76.0575 94.0927 75.9681C94.3943 75.8843 94.6569 75.7726 94.8803 75.633C95.1038 75.4989 95.2825 75.3425 95.4166 75.1637C95.5506 74.985 95.6177 74.8007 95.6233 74.6107L95.6456 72.9573C95.6456 72.7841 95.6065 72.6333 95.5171 72.4936C95.4277 72.354 95.2937 72.2367 95.1149 72.1417C94.9362 72.0467 94.7071 71.9741 94.4223 71.9238C94.696 71.8401 94.925 71.7339 95.1205 71.6054C95.4836 71.3597 95.6679 71.0636 95.6735 70.7228L95.6903 69.6056C95.6903 69.4101 95.6344 69.2314 95.5059 69.0638C95.3831 68.8962 95.2099 68.7566 94.9976 68.6393L95.0032 68.6448ZM93.3442 74.6498C93.3442 74.7224 93.2939 74.7895 93.2045 74.8453C93.1151 74.9012 93.0034 74.9291 92.8693 74.9347L92.2437 74.9626L92.2996 72.65L92.9196 72.6221C93.0481 72.6221 93.1598 72.6389 93.2492 72.6891C93.3386 72.7394 93.3833 72.8009 93.3777 72.8735L93.3386 74.6498H93.3442ZM93.4224 71.1195C93.4224 71.1921 93.3777 71.2591 93.2827 71.315C93.1933 71.3708 93.0816 71.4043 92.9531 71.4043L92.3387 71.4323L92.3889 69.533L93.0034 69.5051C93.1319 69.5051 93.238 69.5218 93.3274 69.5721C93.4168 69.6224 93.4559 69.6838 93.4559 69.7565L93.4279 71.1195H93.4224ZM102.17 68.5164C101.952 68.3879 101.695 68.2873 101.405 68.2091C101.114 68.1365 100.802 68.0974 100.472 68.0974H99.7457C99.4162 68.0974 99.1034 68.1309 98.8073 68.2035C98.5168 68.2762 98.2599 68.3767 98.042 68.5052C97.8241 68.6337 97.651 68.7789 97.5225 68.9521C97.394 69.1252 97.327 69.304 97.327 69.4995L97.2711 74.661C97.2711 74.8565 97.3326 75.0353 97.4611 75.2084C97.5895 75.3816 97.7627 75.5324 97.9806 75.6553C98.1984 75.7838 98.461 75.8843 98.757 75.957C99.0587 76.0296 99.3771 76.0687 99.7122 76.0687H100.455C100.796 76.0687 101.114 76.0352 101.41 75.9625C101.706 75.8899 101.969 75.7894 102.192 75.6609C102.416 75.5324 102.589 75.3872 102.718 75.214C102.846 75.0464 102.913 74.8621 102.907 74.6666L102.874 69.5051C102.874 69.3096 102.807 69.1308 102.678 68.9577C102.55 68.7845 102.377 68.6393 102.159 68.5108L102.17 68.5164ZM100.64 74.6107C100.64 74.6833 100.595 74.7504 100.505 74.8006C100.416 74.8509 100.304 74.8789 100.176 74.8789H100.019C99.891 74.8789 99.7793 74.8509 99.6899 74.8006C99.6005 74.7504 99.5558 74.6833 99.5558 74.6107L99.5782 69.561C99.5782 69.4883 99.6229 69.4213 99.7122 69.371C99.8016 69.3208 99.9133 69.2928 100.036 69.2928H100.187C100.316 69.2928 100.422 69.3208 100.511 69.371C100.6 69.4213 100.645 69.4883 100.645 69.561V74.6107H100.64ZM109.868 68.4605L108.169 68.3823C107.991 68.3767 107.901 68.4214 107.907 68.5275L108.041 74.8062C108.041 74.8789 107.996 74.9403 107.907 74.9906C107.818 75.0409 107.706 75.0576 107.577 75.052H107.421C107.292 75.0408 107.181 75.0073 107.091 74.9515C107.002 74.8956 106.952 74.8286 106.952 74.756L106.84 68.4773C106.84 68.3711 106.751 68.3153 106.572 68.3097L104.874 68.2315C104.695 68.2203 104.606 68.2706 104.611 68.3767L104.684 74.7113C104.684 74.9068 104.751 75.0911 104.885 75.2643C105.013 75.443 105.192 75.5995 105.416 75.7335C105.639 75.8676 105.902 75.9849 106.203 76.0687C106.505 76.1581 106.823 76.2083 107.164 76.2251L107.907 76.2586C108.248 76.2754 108.566 76.2474 108.862 76.1916C109.164 76.1301 109.421 76.0407 109.639 75.9234C109.856 75.8061 110.03 75.6665 110.153 75.4989C110.275 75.3369 110.337 75.1526 110.331 74.9626L110.153 68.6337C110.153 68.5275 110.058 68.4717 109.879 68.4661L109.868 68.4605ZM125.475 70.1698L123.771 69.924C123.593 69.8961 123.509 69.9408 123.514 70.0414L123.76 73.6164L121.526 69.7509C121.498 69.7118 121.447 69.6671 121.375 69.628C121.302 69.5889 121.23 69.561 121.151 69.5498L119.889 69.371C119.71 69.3487 119.626 69.3878 119.632 69.4883L120.057 76.9904C120.057 77.0965 120.157 77.158 120.336 77.1859L122.079 77.4317C122.263 77.454 122.347 77.4205 122.341 77.3144L122.107 73.6276L124.414 77.6104C124.442 77.6495 124.492 77.6942 124.57 77.7333C124.643 77.7724 124.721 77.8003 124.799 77.8115L126.056 77.9847C126.24 78.007 126.33 77.9735 126.319 77.8674L125.76 70.3653C125.754 70.2592 125.659 70.1978 125.481 70.1698H125.475Z" fill="url(#paint32_linear_752_1788)"/>
<g style="mix-blend-mode:multiply" opacity="0.46">
<path d="M61.8948 93.0041C62.2244 93.4342 62.3864 93.9872 62.3361 94.6967L62.1127 97.1545C62.0736 97.5176 61.7999 97.9421 61.1687 98.1432C61.1687 98.1432 57.0294 99.3889 55.4821 99.8582C55.4765 99.9755 55.4653 100.087 55.4541 100.171C55.3815 100.852 55.8005 100.925 56.2976 100.78C57.4819 100.422 62.3082 98.97 62.3082 98.97C62.9394 98.7689 63.2131 98.3499 63.2522 97.9812L63.4757 95.5234C63.5762 94.2163 62.9338 93.4286 61.9004 93.0041H61.8948Z" fill="#666666"/>
<path d="M60.381 104.326C60.867 104.969 60.9061 105.756 60.867 106.27L60.3698 111.945C60.2916 112.627 59.99 113.336 59.4537 114.085C58.9175 114.833 58.2304 115.548 57.3813 116.235C56.5322 116.928 55.5491 117.564 54.4375 118.162C53.3203 118.754 52.1472 119.24 50.9183 119.614L48.2146 120.436C46.9801 120.81 45.8294 121.033 44.7736 121.106C43.7123 121.178 42.8129 121.106 42.07 120.91C41.8633 120.854 41.6734 120.787 41.4946 120.715C41.5058 120.726 41.5114 120.737 41.5226 120.748C41.9024 121.206 42.4666 121.536 43.2095 121.731C43.9525 121.932 44.8518 121.994 45.9132 121.927C46.9689 121.854 48.1141 121.636 49.3542 121.257L52.0578 120.436C53.2867 120.061 54.4598 119.575 55.577 118.983C56.6886 118.391 57.6718 117.749 58.5209 117.062C59.3699 116.369 60.057 115.654 60.5933 114.911C61.1239 114.168 61.4312 113.453 61.5094 112.772L62.0065 107.097C62.0624 106.315 61.9395 104.93 60.381 104.326Z" fill="#666666"/>
</g>
<path d="M52.1752 92.2612C48.5386 93.6017 42.7906 96.1991 42.1371 100.221C41.8689 101.874 41.4947 104.175 41.4947 104.175C41.3941 104.779 41.8801 106.298 43.9022 106.901L51.2814 108.756C51.6668 108.834 52.0858 109.225 52.0411 109.756C52.002 110.225 51.8288 112.051 51.8288 112.051C51.7674 112.465 51.5998 112.794 51.2479 113.079C50.896 113.364 50.4826 113.576 50.0134 113.721L49.4492 113.895C48.9799 114.04 48.5945 114.073 48.2873 113.99C47.9856 113.906 47.8516 113.733 47.8907 113.476L48.1085 111.917C48.1588 111.554 47.8851 111.454 47.2706 111.666L40.8132 114.09C40.1819 114.386 39.8412 114.682 39.7797 115.051L39.4222 117.665C39.3105 118.346 39.4446 118.911 39.8244 119.369C40.2043 119.827 40.7685 120.156 41.5114 120.352C42.2544 120.553 43.1537 120.62 44.2151 120.547C45.2708 120.475 46.4215 120.257 47.6561 119.882L50.3597 119.061C51.5886 118.687 52.7617 118.201 53.8789 117.609C54.9905 117.017 55.9737 116.375 56.8227 115.682C57.6718 114.995 58.3589 114.274 58.8951 113.532C59.4258 112.789 59.7331 112.074 59.8113 111.392L60.3084 105.717C60.3754 104.84 60.2134 103.204 58.0684 102.768L50.9183 101.36C49.8569 101.087 49.7899 100.506 49.8681 99.8857C49.8569 100.003 49.8905 99.7963 49.9798 99.3438C50.086 98.7909 50.6893 98.0591 51.8567 97.6961C52.5718 97.4782 53.8174 97.3386 53.8007 98.0312C53.8007 98.1932 53.7728 98.5786 53.7504 98.7909C53.6778 99.4723 54.0967 99.5449 54.5939 99.3997C55.7781 99.0478 60.6045 97.5899 60.6045 97.5899C61.2357 97.3888 61.5094 96.9699 61.5485 96.6013L61.772 94.1436C62.0736 90.2615 55.8117 90.9318 52.1863 92.2723L52.1752 92.2612Z" fill="url(#paint33_linear_752_1788)"/>
<path d="M52.1752 92.2612C49.9017 93.0991 46.7958 94.4342 44.634 96.2999C46.7176 94.7638 49.371 93.6354 51.382 92.8925C55.0129 91.5518 61.2692 90.8815 60.9676 94.7638L60.7888 96.7468C60.7888 96.7468 60.7944 96.7468 60.8 96.7468L61.2413 97.1937C61.4256 97.0094 61.5206 96.7915 61.543 96.5904L61.7664 94.1326C62.068 90.2503 55.8061 90.9206 52.1808 92.2612H52.1752Z" fill="url(#paint34_linear_752_1788)"/>
<path d="M43.8967 106.902L51.2759 108.756C51.6613 108.835 52.0803 109.226 52.0356 109.756C52.0132 110.024 51.9071 111.22 51.8289 111.996C51.7563 112.745 51.2424 113.141 50.734 113.41L49.8347 114.102C51.7004 113.454 52.0914 112.432 52.1417 112.086C52.1417 112.086 52.421 109.321 52.4545 108.851C52.4992 108.321 52.0803 107.93 51.6948 107.851L44.3157 105.997C42.2991 105.394 41.8132 103.874 41.9081 103.271C41.9081 103.271 42.2824 100.975 42.5505 99.316C42.6008 99.0032 42.6846 98.6959 42.7963 98.3999C42.4611 98.9696 42.2265 99.5729 42.126 100.215C41.8578 101.869 41.4836 104.17 41.4836 104.17C41.383 104.774 41.869 106.293 43.8912 106.896L43.8967 106.902Z" fill="#006838"/>
<path d="M58.0572 102.763L50.9071 101.355C49.8458 101.081 49.7787 100.5 49.8569 99.8803C49.8458 99.9976 49.8793 99.7909 49.9687 99.3384C50.0134 99.115 50.1362 98.8636 50.3429 98.6178C50.3429 98.6178 50.4044 98.5564 50.4993 98.4558C50.4546 98.5005 50.41 98.5452 50.3709 98.5955C50.3764 98.5452 50.3876 98.4893 50.3988 98.4391C50.4882 97.9698 50.9406 97.3665 51.8009 96.9755C51.8009 96.9755 51.8009 96.9755 51.7953 96.9755C49.3207 98.1374 49.2369 99.0815 49.181 99.3552C49.0917 99.8132 49.0581 100.629 49.0693 100.511C48.9911 101.137 49.0581 101.712 50.1195 101.986L57.2696 103.394C59.4146 103.83 59.5766 105.466 59.5096 106.343L59.0124 112.019C58.951 112.577 58.7276 113.164 58.3533 113.767C58.7164 113.393 59.0404 113.013 59.3197 112.628C59.4314 112.466 59.5375 112.309 59.6269 112.153C59.5878 112.259 59.5487 112.365 59.4984 112.477C59.6604 112.108 59.761 111.745 59.8001 111.393L60.2972 105.718C60.3643 104.841 60.2023 103.204 58.0572 102.768V102.763Z" fill="url(#paint35_linear_752_1788)"/>
<path d="M46.4719 112.286C47.0863 112.079 47.3656 112.174 47.3098 112.543L47.0919 114.101C47.0528 114.364 47.1869 114.537 47.4885 114.615C47.7902 114.699 48.1756 114.666 48.6504 114.52L49.2146 114.347C49.6838 114.202 50.0916 113.99 50.4491 113.705C50.5664 113.61 50.6614 113.515 50.7396 113.409C50.5161 113.532 50.2759 113.638 50.0134 113.716L49.4492 113.889C48.98 114.034 48.5946 114.068 48.2873 113.984C47.9857 113.9 47.8516 113.727 47.8907 113.47L48.1086 111.912C48.1588 111.549 47.8851 111.448 47.2707 111.66L40.8132 114.085C40.5395 114.213 40.3272 114.342 40.1596 114.476L40.1317 114.671L46.4774 112.292L46.4719 112.286Z" fill="url(#paint36_linear_752_1788)"/>
<path d="M60.8 96.7465C59.8448 97.037 56.0407 98.1821 55.0128 98.4894C54.5157 98.6402 54.1023 98.562 54.1694 97.8805C54.1917 97.6682 54.214 97.2828 54.2196 97.1208C54.2308 96.4281 52.9851 96.5678 52.2757 96.7856C51.1026 97.1487 50.5049 97.8805 50.3988 98.4335C50.3876 98.4838 50.382 98.5396 50.3708 98.5899C50.6781 98.2324 51.1641 97.8972 51.8511 97.685C52.5662 97.4671 53.8118 97.3275 53.7951 98.0201C53.7951 98.1821 53.7672 98.5676 53.7448 98.7798C53.6722 99.4613 54.0911 99.534 54.5883 99.3887C55.7725 99.0368 60.5989 97.5788 60.5989 97.5788C60.8838 97.4895 61.096 97.3554 61.2469 97.199L60.8056 96.7465H60.8Z" fill="#006838"/>
<path d="M59.3141 112.627C58.7778 113.375 58.0907 114.09 57.2417 114.777C56.3926 115.47 55.4094 116.107 54.2978 116.705C53.1806 117.297 52.0075 117.783 50.7786 118.157L48.075 118.978C46.8405 119.352 45.6897 119.576 44.634 119.648C43.5726 119.721 42.6733 119.648 41.9303 119.453C41.1874 119.252 40.6232 118.928 40.2434 118.47C39.8635 118.012 39.7294 117.442 39.8412 116.766L40.154 114.476C39.9361 114.654 39.8077 114.839 39.7741 115.045L39.4166 117.66C39.3049 118.341 39.439 118.905 39.8188 119.363C40.1987 119.822 40.7629 120.151 41.5058 120.347C42.2487 120.548 43.1481 120.615 44.2094 120.542C45.2652 120.469 46.4159 120.252 47.6504 119.877L50.3541 119.056C51.583 118.682 52.7561 118.196 53.8733 117.604C54.9849 117.012 55.968 116.369 56.8171 115.677C57.6662 114.99 58.3533 114.269 58.8895 113.526C59.2247 113.057 59.4705 112.593 59.6269 112.152C59.5319 112.308 59.4314 112.47 59.3197 112.627H59.3141Z" fill="#006838"/>
<g style="mix-blend-mode:multiply" opacity="0.46">
<path d="M52.9572 97.5117C52.7617 97.5453 52.5774 97.59 52.4154 97.6402C51.2423 98.0033 50.6446 98.7351 50.5385 99.2881C50.4491 99.7462 50.4156 100.282 50.4268 100.165C50.3877 100.5 50.3877 100.902 50.5608 101.249C50.6614 101.293 50.7787 101.327 50.9072 101.361L51.544 101.483C51.544 101.411 51.5552 101.338 51.5607 101.266C51.5496 101.383 51.5831 100.567 51.6725 100.109C51.7786 99.5562 52.3819 98.8245 53.5494 98.4614C53.6164 98.439 53.6946 98.4223 53.7728 98.3999C53.784 98.2547 53.7896 98.1095 53.7896 98.0257C53.7952 97.6402 53.4153 97.5117 52.9517 97.5117H52.9572Z" fill="#666666"/>
</g>
<g style="mix-blend-mode:multiply" opacity="0.46">
<path d="M49.4492 113.889L49.7397 113.8L49.8123 113.291C49.8626 112.928 49.5889 112.833 48.9744 113.04L48.5778 113.185L48.4661 114.012C48.7398 114.046 49.0638 114.012 49.4492 113.889Z" fill="#666666"/>
</g>
<g style="mix-blend-mode:multiply" opacity="0.46">
<path d="M52.0355 109.666C51.9741 109.638 51.9126 109.616 51.8456 109.599L44.4664 107.745C44.1257 107.644 43.8352 107.516 43.5782 107.371C43.9358 108.03 44.567 108.694 45.6004 109.007L51.9573 110.605C51.9908 110.208 52.0243 109.879 52.0299 109.756C52.0299 109.722 52.0299 109.694 52.0299 109.666H52.0355Z" fill="#666666"/>
</g>
<g style="mix-blend-mode:multiply" opacity="0.46">
<path d="M87.9146 87.7032C87.9146 87.7032 87.8197 87.7144 87.6521 87.7256L87.3393 91.6803C87.3281 92.0266 87.1884 92.2947 86.5572 92.3338C84.1329 92.479 80.9488 92.8309 80.9488 92.8309L79.5635 113.615C79.5412 113.962 79.3736 114.347 78.625 114.436C76.022 114.744 72.9105 115.218 72.0559 115.352L71.9944 115.995C71.9721 116.408 72.2179 116.749 72.9608 116.637C72.9608 116.637 76.709 116.045 79.759 115.688C80.5075 115.598 80.6751 115.213 80.6975 114.867L82.0828 94.0821C82.0828 94.0821 85.2612 93.7246 87.6912 93.585C88.3224 93.5459 88.462 93.2834 88.4732 92.9315L88.8587 88.0831C88.8698 87.7367 88.5514 87.6474 87.9146 87.7088V87.7032Z" fill="#666666"/>
</g>
<path d="M86.1717 85.3237C86.1717 85.3237 79.6584 85.9158 75.184 86.642C70.3185 87.4351 65.833 88.4294 65.833 88.4294C65.2632 88.5634 65.0509 88.7143 65.0174 89.0829L64.604 94.1994C64.5705 94.5681 64.8331 94.7412 65.4699 94.596C67.3635 94.1547 71.4357 93.3727 71.4357 93.3727L69.5365 113.934C69.5141 114.364 69.7711 114.727 70.5476 114.604C70.5476 114.604 74.4745 113.984 77.6753 113.61C78.463 113.515 78.6417 113.113 78.6585 112.75L80.055 92.0154C80.055 92.0154 83.3899 91.6412 85.9371 91.4904C86.6018 91.4513 86.7415 91.172 86.7582 90.8089L87.1604 85.7259C87.1772 85.3628 86.8364 85.2679 86.1717 85.3293V85.3237Z" fill="url(#paint37_linear_752_1788)"/>
<path d="M86.1717 85.3237C86.1717 85.3237 79.6584 85.9158 75.184 86.642C70.3185 87.4352 65.8329 88.4296 65.8329 88.4296C65.5369 88.4966 65.3414 88.5748 65.2129 88.6809L65.7268 89.0217V89.0329C67.1959 88.72 70.6593 88.005 74.3405 87.4073C78.8149 86.6756 85.3282 86.089 85.3282 86.089C85.9929 86.0276 86.3337 86.1169 86.3169 86.4856L85.9929 90.5802L86.5236 91.3343C86.7024 91.2114 86.7582 91.0271 86.7638 90.8092L87.166 85.7259C87.1828 85.3628 86.842 85.2679 86.1773 85.3293L86.1717 85.3237Z" fill="url(#paint38_linear_752_1788)"/>
<path d="M77.8596 112.71L78.4126 113.303C78.5858 113.141 78.6472 112.934 78.6584 112.738L80.0549 92.0042L79.2952 91.2055L77.8596 112.71Z" fill="url(#paint39_linear_752_1788)"/>
<path d="M77.8541 112.705C74.7874 113.085 71.3296 113.627 71.3296 113.627C70.5476 113.744 70.2906 113.386 70.3185 112.956L72.2178 92.3953C72.2178 92.3953 68.1456 93.1773 66.2519 93.6185C65.6151 93.7638 65.347 93.5906 65.3861 93.2219L65.7268 89.0159L65.2129 88.6752C65.0956 88.7757 65.0342 88.8986 65.0174 89.0773L64.604 94.1939C64.5705 94.5625 64.8331 94.7357 65.4699 94.5904C67.3635 94.1492 71.4357 93.3672 71.4357 93.3672L69.5365 113.928C69.5141 114.358 69.7711 114.721 70.5476 114.598C70.5476 114.598 74.4745 113.978 77.6753 113.604C78.0384 113.559 78.2675 113.453 78.4183 113.314L77.8541 112.71V112.705Z" fill="#006838"/>
<path d="M85.9818 90.5688C83.3396 90.7644 79.3009 91.2112 79.3009 91.2112L80.0606 92.01C81.1834 91.8927 84.1216 91.5967 85.9427 91.485C86.2164 91.4682 86.4007 91.4123 86.5236 91.3285L85.9874 90.5688H85.9818Z" fill="#006838"/>
<g style="mix-blend-mode:multiply" opacity="0.46">
<path d="M67.425 95.2049L67.3468 96.1601C67.3132 96.512 67.5702 96.674 68.1735 96.5344C68.9555 96.3556 70.123 96.1098 71.2011 95.892L71.3408 94.3949C70.1845 94.624 68.5533 94.9535 67.425 95.1993V95.2049Z" fill="#666666"/>
</g>
<g style="mix-blend-mode:multiply" opacity="0.46">
<path d="M109.51 113.504L102.997 113.225C102.282 113.225 101.779 112.811 101.679 112.303L100.964 108.287H97.4052L96.5952 112.364C96.4779 112.716 95.9919 113.219 95.2769 113.225L88.6798 113.571L88.6575 113.671C88.5178 114.107 88.7357 114.683 89.4507 114.677L96.3271 114.314C96.9863 114.314 97.4387 113.811 97.5504 113.454L98.2934 109.32L99.9468 109.337L100.589 113.314C100.684 113.822 101.148 114.241 101.813 114.236L108.728 114.604C109.438 114.604 109.661 114.169 109.555 113.705L109.516 113.498L109.51 113.504Z" fill="#666666"/>
</g>
<path d="M111.035 111.727L104.913 85.7873C104.812 85.4243 104.421 85.05 103.695 84.9662C103.695 84.9662 101.891 84.821 99.2989 84.821C96.707 84.821 94.7183 85.0333 94.7183 85.0333C93.8972 85.1171 93.5955 85.4913 93.495 85.8544L87.1269 111.755C86.9873 112.202 87.2107 112.805 87.9481 112.8L94.5563 112.476C95.2434 112.476 95.64 112.286 95.7518 111.917L96.6288 107.03L101.79 106.996L102.589 111.873C102.695 112.241 103.092 112.42 103.779 112.414L110.164 112.649C110.901 112.649 111.13 112.197 111.024 111.716L111.035 111.727ZM97.3885 102.645L99.2095 91.697L100.947 102.617L97.3885 102.639V102.645Z" fill="url(#paint40_linear_752_1788)"/>
<path d="M97.3941 102.646L99.2151 91.6971L98.8911 89.7867L96.5618 103.199L101.841 103.176L100.952 102.623L97.3941 102.646Z" fill="url(#paint41_linear_752_1788)"/>
<path d="M98.8911 89.7867L99.2151 91.6971L100.952 102.623L101.841 103.176L99.7123 89.8035L98.8911 89.7867Z" fill="#006838"/>
<path d="M111.035 111.727L104.913 85.7873C104.812 85.4243 104.421 85.05 103.695 84.9662C103.695 84.9662 101.891 84.821 99.2988 84.821C96.7069 84.821 94.7183 85.0333 94.7183 85.0333C94.2714 85.078 93.9809 85.212 93.791 85.3796L94.2993 85.5695C94.8077 85.5248 96.5505 85.374 98.7235 85.374C101.315 85.374 103.12 85.5192 103.12 85.5192C103.84 85.603 104.237 85.9773 104.337 86.3403L110.365 111.878L110.778 112.487C111.024 112.314 111.091 112.023 111.024 111.722L111.035 111.727Z" fill="url(#paint42_linear_752_1788)"/>
<path d="M95.0702 111.75L95.3495 112.348C95.5953 112.242 95.7182 112.085 95.7629 111.923L96.6399 107.035L96.0477 106.281L95.0702 111.744V111.75Z" fill="url(#paint43_linear_752_1788)"/>
<path d="M95.0647 111.75L88.881 112.046C88.138 112.046 87.9146 111.448 88.0542 111.001L94.3106 85.5695L93.7967 85.3796C93.6347 85.5192 93.5509 85.6868 93.5006 85.8599L87.1325 111.761C86.9929 112.208 87.2163 112.811 87.9537 112.805L94.562 112.481C94.8859 112.481 95.1485 112.437 95.344 112.353L95.0591 111.744L95.0647 111.75Z" fill="#006838"/>
<path d="M104.483 111.672C103.796 111.672 103.399 111.493 103.293 111.13L102.494 106.253L96.0479 106.292L96.64 107.047L101.801 107.013L102.6 111.89C102.706 112.258 103.103 112.437 103.79 112.432L110.175 112.666C110.449 112.666 110.65 112.605 110.789 112.504L110.365 111.884L104.477 111.677L104.483 111.672Z" fill="#006838"/>
<g style="mix-blend-mode:multiply" opacity="0.46">
<path d="M99.2207 98.9305L98.5504 102.64L99.8575 102.628L99.2207 98.9305Z" fill="#666666"/>
</g>
<g style="mix-blend-mode:multiply" opacity="0.46">
<path d="M115.353 113.861C114.811 113.811 114.599 113.543 114.588 113.196L113.716 88.7534C113.471 88.7254 113.331 88.7087 113.331 88.7087C112.733 88.6528 112.543 88.8204 112.56 89.1667L113.459 114.297C113.471 114.649 113.683 114.917 114.225 114.962C114.956 115.029 119.593 115.487 120.241 115.582C120.649 115.637 121.056 115.42 121.073 114.995L121.045 114.436C119.788 114.291 116.018 113.917 115.364 113.861H115.353Z" fill="#666666"/>
</g>
<path d="M136.658 115.302L130.597 103.081C131.949 102.846 134.2 102.388 133.988 98.7685L133.564 93.881C133.424 92.3114 132.497 89.0606 127.855 87.5859C124.777 86.6084 115.197 85.6142 115.197 85.6142C114.571 85.5527 114.376 85.7259 114.387 86.0945L115.331 112.453C115.342 112.822 115.565 113.101 116.135 113.152C116.906 113.219 121.766 113.699 122.442 113.8C122.866 113.861 123.297 113.632 123.313 113.18L122.872 103.885L127.626 113.978C127.726 114.146 127.911 114.297 128.168 114.436C128.424 114.576 128.698 114.66 128.972 114.693C128.972 114.693 134.815 115.704 135.915 115.928C136.48 116.045 136.865 115.732 136.664 115.297L136.658 115.302ZM125.726 98.5227C125.43 98.6624 125.274 98.668 124.833 98.6121L122.576 98.2155L122.202 91.4457L124.414 91.8367C124.844 91.8981 125.766 92.345 125.821 93.0264L126.151 97.9139C126.168 98.1764 126.028 98.3775 125.732 98.5172L125.726 98.5227Z" fill="url(#paint44_linear_752_1788)"/>
<path d="M114.549 85.698L115.124 86.2231V86.2342C117.319 86.4744 124.548 87.3123 127.14 88.1391C131.782 89.6138 132.709 92.8648 132.849 94.4345L133.273 99.3223C133.34 100.495 133.15 101.333 132.815 101.942C133.033 101.858 133.212 101.775 133.34 101.685C133.29 101.758 133.228 101.83 133.173 101.897C133.714 101.277 134.072 100.311 133.983 98.7693L133.558 93.8815C133.418 92.3118 132.491 89.0608 127.849 87.586C124.771 86.6085 115.191 85.6142 115.191 85.6142C114.566 85.5527 114.37 85.7259 114.381 86.0946C114.376 85.9158 114.42 85.7818 114.543 85.698H114.549Z" fill="url(#paint45_linear_752_1788)"/>
<path d="M122.565 113.041L123.023 113.677C123.185 113.571 123.297 113.404 123.308 113.18L122.866 103.885L122.045 102.142L122.565 113.035V113.041Z" fill="url(#paint46_linear_752_1788)"/>
<path d="M135.558 115.063L136.591 115.806C136.72 115.688 136.759 115.51 136.658 115.303L130.597 103.081L129.424 102.718L135.558 115.063Z" fill="url(#paint47_linear_752_1788)"/>
<path d="M133.346 101.684C132.687 102.137 130.665 102.545 129.419 102.718L130.592 103.081C131.933 102.857 132.776 102.5 133.34 101.684H133.346Z" fill="#006838"/>
<path d="M125.866 98.445C125.788 98.4953 125.419 98.7131 124.833 98.607L122.576 98.2104L122.202 91.4401L121.408 90.4849L121.867 98.769L124.123 99.1656C125.961 99.4505 126.927 98.5903 126.866 97.3893C126.9 98.1434 125.961 98.4283 125.866 98.4506V98.445Z" fill="url(#paint48_linear_752_1788)"/>
<path d="M122.559 113.034C121.057 112.867 117.487 112.515 116.839 112.459C116.269 112.409 116.046 112.13 116.035 111.761L115.124 86.2286L114.549 85.7036C114.426 85.7818 114.381 85.9158 114.387 86.1001L115.331 112.459C115.342 112.828 115.565 113.107 116.135 113.157C116.906 113.224 121.766 113.705 122.442 113.805C122.654 113.833 122.866 113.794 123.028 113.688L122.565 113.04L122.559 113.034Z" fill="#006838"/>
<path d="M135.519 115.035C133.469 114.661 129.681 114.007 129.681 114.007C129.408 113.974 129.134 113.884 128.877 113.75C128.62 113.61 128.436 113.46 128.335 113.292L123.654 103.343L122.056 102.148L122.878 103.891L127.631 113.985C127.732 114.152 127.916 114.303 128.173 114.443C128.43 114.582 128.704 114.666 128.977 114.7C128.977 114.7 134.82 115.711 135.921 115.934C136.217 115.996 136.463 115.934 136.602 115.811L135.53 115.04L135.519 115.035Z" fill="#006838"/>
<path d="M126.866 97.3893L126.531 92.3395C126.475 91.6524 125.559 91.2055 125.129 91.1497L121.414 90.4905L122.207 91.4457L124.419 91.8367C124.849 91.8982 125.771 92.3451 125.827 93.0266C125.827 93.0266 126.073 96.7525 126.151 97.9311C126.173 98.2719 125.877 98.445 125.877 98.445C125.972 98.4283 126.911 98.1434 126.877 97.3837L126.866 97.3893Z" fill="#006838"/>
<g style="mix-blend-mode:multiply" opacity="0.46">
<path d="M134.429 117.068L134.111 116.42C132.256 116.079 128.235 115.381 128.235 115.381C127.972 115.347 127.715 115.264 127.469 115.135C127.223 115.007 127.05 114.856 126.95 114.699L122.984 106.276L123.123 109.242L126.24 115.856C126.335 116.018 126.508 116.163 126.76 116.291C127.006 116.426 127.263 116.504 127.525 116.537C127.525 116.537 132.67 117.448 133.72 117.66C134.256 117.766 134.625 117.476 134.429 117.057V117.068Z" fill="#666666"/>
</g>
<path d="M150.478 100.483C150.478 100.483 153.757 101.818 156.181 102.857C157.276 103.326 157.343 102.846 157.276 102.377L156.991 100.623C156.757 99.4221 155.444 95.3222 147.914 92.6298C140.63 90.0213 139.066 91.859 138.708 92.1327C137.999 92.6689 137.502 93.909 137.608 95.2551L137.949 99.746C138.217 102.148 139.161 102.606 140.161 103.338C140.161 103.338 147.612 108.449 150.216 110.387C150.584 110.661 151.02 111.163 151.115 111.906C151.193 112.532 151.255 112.783 151.305 113.224C151.389 113.984 150.484 114.297 149.601 114.023L148.473 113.688C147.456 113.33 146.886 112.627 146.769 112.107L146.484 110.744C146.439 110.376 146.048 110.085 145.562 109.89L139.898 108.471C139.172 108.231 138.904 108.65 138.937 109.018L139.133 110.984C139.664 115.699 143.607 117.525 148.674 119.101C156.796 121.625 159.734 120.162 159.259 116.604L158.595 111.426C158.31 110.035 157.746 107.89 155.517 106.415C153.802 105.276 147.624 101.31 146.624 100.522C145.948 99.9918 145.44 99.4444 145.378 98.9305C145.345 98.6177 145.289 98.1597 145.272 97.819C145.222 96.618 146.808 97.1543 147.618 97.4503C148.713 97.8525 149.411 98.5172 149.551 99.1763C149.657 99.6567 149.886 100.238 150.473 100.472L150.478 100.483Z" fill="url(#paint49_linear_752_1788)"/>
<path d="M157.271 102.378L156.986 100.624C156.751 99.4225 155.438 95.3224 147.908 92.6299C143.534 91.0658 141.227 91.0993 139.999 91.4401C141.345 91.2725 143.557 91.468 147.193 92.7696C154.723 95.462 156.036 99.5622 156.271 100.763L156.505 102.221L156.958 103.048C157.293 103.009 157.31 102.69 157.265 102.378H157.271Z" fill="url(#paint50_linear_752_1788)"/>
<path d="M139.619 108.722L144.853 110.029C145.339 110.225 145.735 110.515 145.774 110.884L146.059 112.241C146.177 112.755 146.752 113.459 147.763 113.822L148.891 114.157C149.361 114.303 151.165 114.856 151.824 113.47C151.824 113.47 151.824 113.47 151.819 113.47C151.645 113.778 151.299 114.04 150.645 114.057C150.645 114.057 150.645 114.057 150.651 114.057C150.333 114.135 149.975 114.141 149.601 114.012L148.472 113.677C147.456 113.32 146.886 112.616 146.769 112.096L146.484 110.733C146.439 110.365 146.048 110.074 145.562 109.879L139.898 108.46C139.546 108.342 139.3 108.387 139.149 108.499L139.624 108.706L139.619 108.722Z" fill="url(#paint51_linear_752_1788)"/>
<path d="M159.259 116.609L158.594 111.431C158.31 110.04 157.745 107.896 155.516 106.421C153.802 105.281 147.623 101.316 146.624 100.528C145.948 99.9974 145.439 99.45 145.378 98.9361C145.344 98.6233 145.288 98.1653 145.272 97.8245C145.261 97.5285 145.339 97.2715 145.663 97.1263C145.082 97.1096 144.685 97.5564 144.624 97.6346C144.585 97.7296 144.562 97.8357 144.568 97.9642C144.585 98.2993 144.64 98.7629 144.674 99.0701C144.735 99.584 145.244 100.131 145.92 100.662C146.92 101.45 153.098 105.416 154.813 106.555C157.036 108.03 157.606 110.175 157.891 111.565L158.555 116.743C158.723 118.022 158.449 119.028 157.656 119.676C158.013 119.586 158.332 119.469 158.606 119.318C159.214 118.67 159.416 117.743 159.265 116.604L159.259 116.609Z" fill="url(#paint52_linear_752_1788)"/>
<path d="M151.143 99.9753C150.556 99.7406 150.322 99.1597 150.221 98.6793C150.082 98.0201 149.378 97.3666 148.288 96.9532C147.506 96.6571 145.199 96.0985 144.613 97.657C144.613 97.657 145.032 97.1152 145.669 97.132C146.249 96.9588 147.171 97.294 147.624 97.4615C148.719 97.8637 149.417 98.5285 149.556 99.1876C149.663 99.668 149.892 100.249 150.478 100.484C150.478 100.484 153.757 101.819 156.181 102.858C156.55 103.014 156.802 103.064 156.969 103.048L156.505 102.21C154.126 101.193 151.143 99.9808 151.143 99.9808V99.9753Z" fill="#006838"/>
<path d="M149.339 118.598C144.272 117.023 140.328 115.196 139.798 110.482L139.624 108.722L139.15 108.516C138.988 108.633 138.926 108.834 138.943 109.024L139.138 110.99C139.669 115.705 143.613 117.531 148.679 119.107C154.193 120.822 157.315 120.699 158.606 119.325C157.042 120.185 154.076 120.073 149.344 118.598H149.339Z" fill="#006838"/>
<path d="M140.161 103.332C140.161 103.332 147.613 108.443 150.216 110.381C150.584 110.655 151.02 111.158 151.115 111.901C151.193 112.526 151.249 112.777 151.305 113.219C151.344 113.526 151.176 113.934 150.646 114.062C151.852 114.029 152.02 113.168 151.97 112.71C151.925 112.269 151.863 112.018 151.78 111.392C151.685 110.649 151.249 110.152 150.88 109.873C148.277 107.929 140.825 102.824 140.825 102.824C139.826 102.092 138.876 101.634 138.613 99.2322L138.273 94.7412C138.172 93.4956 138.591 92.3506 139.211 91.7585C138.943 91.9149 138.792 92.0601 138.714 92.1271C138.005 92.6634 137.507 93.9034 137.614 95.2496L137.954 99.7405C138.222 102.142 139.166 102.6 140.166 103.332H140.161Z" fill="#006838"/>
<g style="mix-blend-mode:multiply" opacity="0.46">
<path d="M150.428 114.101C150.595 113.956 150.69 113.755 150.663 113.492C150.618 113.074 150.562 112.856 150.484 112.258C150.394 111.554 149.975 111.074 149.624 110.811C147.138 108.957 139.49 103.986 139.49 103.986C138.809 103.427 137.385 102.556 137.256 100.411L136.932 96.3387C136.854 95.3501 137.116 94.4228 137.552 93.8196C137.267 93.976 137.116 94.1268 137.033 94.1938C136.357 94.7077 135.882 95.8863 135.982 97.171L136.329 100.953C136.502 102.935 137.569 103.93 138.563 104.617C138.563 104.617 146.216 109.588 148.696 111.442C149.048 111.705 149.462 112.185 149.556 112.889C149.618 113.353 149.651 113.705 149.685 114.04C149.942 114.112 150.193 114.129 150.428 114.101Z" fill="#666666"/>
</g>
<g style="mix-blend-mode:multiply" opacity="0.46">
<path d="M155.193 120.369C153.562 120.732 151.02 120.442 147.378 119.308C142.546 117.805 138.787 116.062 138.278 111.565L138.122 110.018L138.055 110.001C137.362 109.772 137.105 110.169 137.139 110.521L137.323 112.398C137.831 116.895 141.591 118.637 146.423 120.14C151.679 121.777 154.651 121.654 155.88 120.352C155.656 120.369 155.427 120.375 155.182 120.375L155.193 120.369Z" fill="#666666"/>
</g>
<g style="mix-blend-mode:multiply" opacity="0.46">
<path d="M125.397 98.484L125.084 93.8252C125.034 93.1717 124.157 92.7471 123.744 92.6913L122.252 92.4231L122.325 93.7414L123.123 93.8811C123.665 94.0096 123.894 94.2833 123.945 94.9368L124.185 98.5007L124.827 98.6125C125.079 98.646 125.235 98.6571 125.375 98.6348C125.375 98.6348 125.375 98.6236 125.375 98.618C125.38 98.5733 125.391 98.5287 125.386 98.484H125.397Z" fill="#666666"/>
</g>
<g style="mix-blend-mode:multiply" opacity="0.46">
<path d="M145.395 98.7127C145.741 98.7853 146.099 98.9082 146.361 99.0088C147.406 99.3942 148.071 100.025 148.205 100.651C148.305 101.109 148.529 101.662 149.087 101.886C149.087 101.886 152.21 103.159 154.522 104.148C155.567 104.595 155.634 104.137 155.567 103.69L155.511 103.332C155.511 103.332 155.489 103.321 155.472 103.316C153.159 102.321 150.037 101.053 150.037 101.053C149.478 100.83 149.255 100.271 149.154 99.8187C149.02 99.1875 148.355 98.5563 147.311 98.1764C146.747 97.9698 145.775 97.6402 145.322 97.9362C145.311 97.9418 145.3 97.953 145.289 97.9586C145.305 98.1932 145.333 98.4669 145.361 98.7015C145.372 98.7015 145.384 98.7071 145.395 98.7127Z" fill="#666666"/>
</g>
<defs>
<linearGradient id="paint0_linear_752_1788" x1="99.595" y1="134.601" x2="52.8921" y2="169.475" gradientUnits="userSpaceOnUse">
<stop offset="0.11" stop-color="#006838"/>
<stop offset="0.38" stop-color="#009345"/>
<stop offset="0.55" stop-color="#44AB2F"/>
<stop offset="0.69" stop-color="#78BE20"/>
</linearGradient>
<linearGradient id="paint1_linear_752_1788" x1="99.405" y1="134.601" x2="146.108" y2="169.475" gradientUnits="userSpaceOnUse">
<stop offset="0.38" stop-color="#009345"/>
<stop offset="0.55" stop-color="#44AB2F"/>
<stop offset="0.69" stop-color="#78BE20"/>
</linearGradient>
<linearGradient id="paint2_linear_752_1788" x1="67.0396" y1="111.901" x2="26.051" y2="81.7131" gradientUnits="userSpaceOnUse">
<stop stop-color="#00B140"/>
<stop offset="0.06" stop-color="#00AA3F"/>
<stop offset="0.14" stop-color="#00983D"/>
<stop offset="0.24" stop-color="#007B3A"/>
<stop offset="0.29" stop-color="#006838"/>
<stop offset="0.72" stop-color="#006838"/>
<stop offset="0.74" stop-color="#046E39"/>
<stop offset="0.85" stop-color="#209342"/>
<stop offset="0.94" stop-color="#30AA47"/>
<stop offset="1" stop-color="#37B34A"/>
</linearGradient>
<linearGradient id="paint3_linear_752_1788" x1="131.961" y1="111.901" x2="172.949" y2="81.7131" gradientUnits="userSpaceOnUse">
<stop stop-color="#00B140"/>
<stop offset="0.06" stop-color="#00AA3F"/>
<stop offset="0.14" stop-color="#00983D"/>
<stop offset="0.24" stop-color="#007B3A"/>
<stop offset="0.29" stop-color="#006838"/>
<stop offset="0.72" stop-color="#006838"/>
<stop offset="0.74" stop-color="#006C38"/>
<stop offset="0.85" stop-color="#00913C"/>
<stop offset="0.94" stop-color="#00A83F"/>
<stop offset="1" stop-color="#00B140"/>
</linearGradient>
<linearGradient id="paint4_linear_752_1788" x1="99.4832" y1="18.7589" x2="99.4832" y2="172.154" gradientUnits="userSpaceOnUse">
<stop stop-color="#00B140"/>
<stop offset="0.13" stop-color="#00AE3F"/>
<stop offset="0.19" stop-color="#00A73D"/>
<stop offset="0.23" stop-color="#009A3A"/>
<stop offset="0.27" stop-color="#008836"/>
<stop offset="0.29" stop-color="#007A33"/>
<stop offset="0.72" stop-color="#007A33"/>
<stop offset="0.74" stop-color="#008535"/>
<stop offset="0.78" stop-color="#00983A"/>
<stop offset="0.83" stop-color="#00A63D"/>
<stop offset="0.89" stop-color="#00AE3F"/>
<stop offset="1" stop-color="#00B140"/>
</linearGradient>
<linearGradient id="paint5_linear_752_1788" x1="41.4556" y1="18.7556" x2="41.4556" y2="172.159" gradientUnits="userSpaceOnUse">
<stop stop-color="#00B140"/>
<stop offset="0.13" stop-color="#00AE3F"/>
<stop offset="0.19" stop-color="#00A73D"/>
<stop offset="0.23" stop-color="#009A3A"/>
<stop offset="0.27" stop-color="#008836"/>
<stop offset="0.29" stop-color="#007A33"/>
<stop offset="0.72" stop-color="#007A33"/>
<stop offset="0.74" stop-color="#008535"/>
<stop offset="0.78" stop-color="#00983A"/>
<stop offset="0.83" stop-color="#00A63D"/>
<stop offset="0.89" stop-color="#00AE3F"/>
<stop offset="1" stop-color="#00B140"/>
</linearGradient>
<linearGradient id="paint6_linear_752_1788" x1="99.5" y1="18.7589" x2="99.5" y2="172.154" gradientUnits="userSpaceOnUse">
<stop stop-color="#00B140"/>
<stop offset="0.13" stop-color="#00AE3F"/>
<stop offset="0.19" stop-color="#00A73D"/>
<stop offset="0.23" stop-color="#009A3A"/>
<stop offset="0.27" stop-color="#008836"/>
<stop offset="0.29" stop-color="#007A33"/>
<stop offset="0.72" stop-color="#007A33"/>
<stop offset="0.74" stop-color="#008535"/>
<stop offset="0.78" stop-color="#00983A"/>
<stop offset="0.83" stop-color="#00A63D"/>
<stop offset="0.89" stop-color="#00AE3F"/>
<stop offset="1" stop-color="#00B140"/>
</linearGradient>
<linearGradient id="paint7_linear_752_1788" x1="29.2221" y1="142.114" x2="169.772" y2="142.114" gradientUnits="userSpaceOnUse">
<stop stop-color="#BBBDBF"/>
<stop offset="0.03" stop-color="#CFD0D2"/>
<stop offset="0.06" stop-color="#E2E2E4"/>
<stop offset="0.1" stop-color="#EDEDEE"/>
<stop offset="0.14" stop-color="#F1F1F2"/>
<stop offset="0.2" stop-color="#E0E1E2"/>
<stop offset="0.29" stop-color="#BBBDBF"/>
<stop offset="0.32" stop-color="#CBCDCE"/>
<stop offset="0.38" stop-color="#E7E8E9"/>
<stop offset="0.44" stop-color="#F8F9F9"/>
<stop offset="0.48" stop-color="white"/>
<stop offset="0.55" stop-color="#FCFCFC"/>
<stop offset="0.59" stop-color="#F4F4F5"/>
<stop offset="0.6" stop-color="#F1F1F2"/>
<stop offset="0.66" stop-color="#D7D7D7"/>
<stop offset="0.77" stop-color="#999999"/>
<stop offset="0.78" stop-color="#9D9D9D"/>
<stop offset="0.82" stop-color="#C0C0C0"/>
<stop offset="0.87" stop-color="#DCDCDC"/>
<stop offset="0.91" stop-color="#EFEFEF"/>
<stop offset="0.95" stop-color="#FBFBFB"/>
<stop offset="1" stop-color="white"/>
</linearGradient>
<linearGradient id="paint8_linear_752_1788" x1="29.2222" y1="83.3244" x2="169.772" y2="83.3244" gradientUnits="userSpaceOnUse">
<stop stop-color="#BBBDBF"/>
<stop offset="0.03" stop-color="#CFD0D2"/>
<stop offset="0.06" stop-color="#E2E2E4"/>
<stop offset="0.1" stop-color="#EDEDEE"/>
<stop offset="0.14" stop-color="#F1F1F2"/>
<stop offset="0.2" stop-color="#E0E1E2"/>
<stop offset="0.29" stop-color="#BBBDBF"/>
<stop offset="0.32" stop-color="#CBCDCE"/>
<stop offset="0.38" stop-color="#E7E8E9"/>
<stop offset="0.44" stop-color="#F8F9F9"/>
<stop offset="0.48" stop-color="white"/>
<stop offset="0.55" stop-color="#FCFCFC"/>
<stop offset="0.59" stop-color="#F4F4F5"/>
<stop offset="0.6" stop-color="#F1F1F2"/>
<stop offset="0.66" stop-color="#D7D7D7"/>
<stop offset="0.77" stop-color="#999999"/>
<stop offset="0.78" stop-color="#9D9D9D"/>
<stop offset="0.82" stop-color="#C0C0C0"/>
<stop offset="0.87" stop-color="#DCDCDC"/>
<stop offset="0.91" stop-color="#EFEFEF"/>
<stop offset="0.95" stop-color="#FBFBFB"/>
<stop offset="1" stop-color="white"/>
</linearGradient>
<linearGradient id="paint9_linear_752_1788" x1="29.2222" y1="83.2518" x2="169.772" y2="83.2518" gradientUnits="userSpaceOnUse">
<stop stop-color="#BBBDBF"/>
<stop offset="0.03" stop-color="#CFD0D2"/>
<stop offset="0.06" stop-color="#E2E2E4"/>
<stop offset="0.1" stop-color="#EDEDEE"/>
<stop offset="0.14" stop-color="#F1F1F2"/>
<stop offset="0.2" stop-color="#E0E1E2"/>
<stop offset="0.29" stop-color="#BBBDBF"/>
<stop offset="0.32" stop-color="#CBCDCE"/>
<stop offset="0.38" stop-color="#E7E8E9"/>
<stop offset="0.44" stop-color="#F8F9F9"/>
<stop offset="0.48" stop-color="white"/>
<stop offset="0.55" stop-color="#FCFCFC"/>
<stop offset="0.59" stop-color="#F4F4F5"/>
<stop offset="0.6" stop-color="#F1F1F2"/>
<stop offset="0.66" stop-color="#D7D7D7"/>
<stop offset="0.77" stop-color="#999999"/>
<stop offset="0.78" stop-color="#9D9D9D"/>
<stop offset="0.82" stop-color="#C0C0C0"/>
<stop offset="0.87" stop-color="#DCDCDC"/>
<stop offset="0.91" stop-color="#EFEFEF"/>
<stop offset="0.95" stop-color="#FBFBFB"/>
<stop offset="1" stop-color="white"/>
</linearGradient>
<linearGradient id="paint10_linear_752_1788" x1="29.2221" y1="46.3188" x2="169.778" y2="46.3188" gradientUnits="userSpaceOnUse">
<stop stop-color="#BBBDBF"/>
<stop offset="0.03" stop-color="#CFD0D2"/>
<stop offset="0.06" stop-color="#E2E2E4"/>
<stop offset="0.1" stop-color="#EDEDEE"/>
<stop offset="0.14" stop-color="#F1F1F2"/>
<stop offset="0.2" stop-color="#E0E1E2"/>
<stop offset="0.29" stop-color="#BBBDBF"/>
<stop offset="0.32" stop-color="#CBCDCE"/>
<stop offset="0.38" stop-color="#E7E8E9"/>
<stop offset="0.44" stop-color="#F8F9F9"/>
<stop offset="0.48" stop-color="white"/>
<stop offset="0.55" stop-color="#FCFCFC"/>
<stop offset="0.59" stop-color="#F4F4F5"/>
<stop offset="0.6" stop-color="#F1F1F2"/>
<stop offset="0.66" stop-color="#D7D7D7"/>
<stop offset="0.77" stop-color="#999999"/>
<stop offset="0.78" stop-color="#9D9D9D"/>
<stop offset="0.82" stop-color="#C0C0C0"/>
<stop offset="0.87" stop-color="#DCDCDC"/>
<stop offset="0.91" stop-color="#EFEFEF"/>
<stop offset="0.95" stop-color="#FBFBFB"/>
<stop offset="1" stop-color="white"/>
</linearGradient>
<linearGradient id="paint11_linear_752_1788" x1="105.019" y1="100.69" x2="105.019" y2="31.6563" gradientUnits="userSpaceOnUse">
<stop offset="0.35" stop-color="#00642B"/>
<stop offset="1" stop-color="#007A33"/>
</linearGradient>
<linearGradient id="paint12_linear_752_1788" x1="100.433" y1="102.987" x2="165.259" y2="81.52" gradientUnits="userSpaceOnUse">
<stop offset="0.35" stop-color="#00642B"/>
<stop offset="1" stop-color="#007A33"/>
</linearGradient>
<linearGradient id="paint13_linear_752_1788" x1="93.1933" y1="104.896" x2="133.901" y2="161.152" gradientUnits="userSpaceOnUse">
<stop offset="0.35" stop-color="#00642B"/>
<stop offset="1" stop-color="#007A33"/>
</linearGradient>
<linearGradient id="paint14_linear_752_1788" x1="96.4388" y1="97.0426" x2="55.0271" y2="153.583" gradientUnits="userSpaceOnUse">
<stop offset="0.35" stop-color="#00642B"/>
<stop offset="1" stop-color="#007A33"/>
</linearGradient>
<linearGradient id="paint15_linear_752_1788" x1="101.444" y1="96.5464" x2="35.35" y2="75.2245" gradientUnits="userSpaceOnUse">
<stop offset="0.35" stop-color="#00642B"/>
<stop offset="1" stop-color="#007A33"/>
</linearGradient>
<linearGradient id="paint16_linear_752_1788" x1="120.302" y1="82.3858" x2="175.258" y2="82.3858" gradientUnits="userSpaceOnUse">
<stop stop-color="#009345"/>
<stop offset="0.37" stop-color="#8BC53F"/>
<stop offset="0.49" stop-color="#ADD677"/>
<stop offset="0.63" stop-color="#CFE7B1"/>
<stop offset="0.75" stop-color="#E9F4DB"/>
<stop offset="0.84" stop-color="#F9FCF5"/>
<stop offset="0.9" stop-color="white"/>
</linearGradient>
<linearGradient id="paint17_linear_752_1788" x1="120.47" y1="115.615" x2="137.477" y2="167.899" gradientUnits="userSpaceOnUse">
<stop stop-color="#009345"/>
<stop offset="0.37" stop-color="#8BC53F"/>
<stop offset="0.49" stop-color="#ADD677"/>
<stop offset="0.63" stop-color="#CFE7B1"/>
<stop offset="0.75" stop-color="#E9F4DB"/>
<stop offset="0.84" stop-color="#F9FCF5"/>
<stop offset="0.9" stop-color="white"/>
</linearGradient>
<linearGradient id="paint18_linear_752_1788" x1="91.6589" y1="125.172" x2="47.2178" y2="157.546" gradientUnits="userSpaceOnUse">
<stop stop-color="#009345"/>
<stop offset="0.37" stop-color="#8BC53F"/>
<stop offset="0.49" stop-color="#ADD677"/>
<stop offset="0.63" stop-color="#CFE7B1"/>
<stop offset="0.75" stop-color="#E9F4DB"/>
<stop offset="0.84" stop-color="#F9FCF5"/>
<stop offset="0.9" stop-color="white"/>
</linearGradient>
<linearGradient id="paint19_linear_752_1788" x1="72.0462" y1="102.973" x2="27.5549" y2="70.7434" gradientUnits="userSpaceOnUse">
<stop stop-color="#009345"/>
<stop offset="0.37" stop-color="#8BC53F"/>
<stop offset="0.49" stop-color="#ADD677"/>
<stop offset="0.63" stop-color="#CFE7B1"/>
<stop offset="0.75" stop-color="#E9F4DB"/>
<stop offset="0.84" stop-color="#F9FCF5"/>
<stop offset="0.9" stop-color="white"/>
</linearGradient>
<linearGradient id="paint20_linear_752_1788" x1="90.6605" y1="75.8111" x2="107.591" y2="23.5785" gradientUnits="userSpaceOnUse">
<stop stop-color="#009345"/>
<stop offset="0.37" stop-color="#8BC53F"/>
<stop offset="0.49" stop-color="#ADD677"/>
<stop offset="0.63" stop-color="#CFE7B1"/>
<stop offset="0.75" stop-color="#E9F4DB"/>
<stop offset="0.84" stop-color="#F9FCF5"/>
<stop offset="0.9" stop-color="white"/>
</linearGradient>
<linearGradient id="paint21_linear_752_1788" x1="121.677" y1="92.103" x2="162.219" y2="80.3897" gradientUnits="userSpaceOnUse">
<stop stop-color="#009345"/>
<stop offset="0.37" stop-color="#8BC53F"/>
<stop offset="0.46" stop-color="#ADD677"/>
<stop offset="0.55" stop-color="#CFE7B1"/>
<stop offset="0.64" stop-color="#E9F4DB"/>
<stop offset="0.7" stop-color="#F9FCF5"/>
<stop offset="0.74" stop-color="white"/>
</linearGradient>
<linearGradient id="paint22_linear_752_1788" x1="76.9721" y1="92.352" x2="36.6596" y2="80.7069" gradientUnits="userSpaceOnUse">
<stop stop-color="#009345"/>
<stop offset="0.37" stop-color="#8BC53F"/>
<stop offset="0.46" stop-color="#ADD677"/>
<stop offset="0.55" stop-color="#CFE7B1"/>
<stop offset="0.64" stop-color="#E9F4DB"/>
<stop offset="0.7" stop-color="#F9FCF5"/>
<stop offset="0.74" stop-color="white"/>
</linearGradient>
<linearGradient id="paint23_linear_752_1788" x1="86.2387" y1="120.251" x2="60.3382" y2="153.56" gradientUnits="userSpaceOnUse">
<stop stop-color="#009345"/>
<stop offset="0.37" stop-color="#8BC53F"/>
<stop offset="0.46" stop-color="#ADD677"/>
<stop offset="0.55" stop-color="#CFE7B1"/>
<stop offset="0.64" stop-color="#E9F4DB"/>
<stop offset="0.7" stop-color="#F9FCF5"/>
<stop offset="0.74" stop-color="white"/>
</linearGradient>
<linearGradient id="paint24_linear_752_1788" x1="114.088" y1="119.256" x2="137.754" y2="154.193" gradientUnits="userSpaceOnUse">
<stop stop-color="#009345"/>
<stop offset="0.37" stop-color="#8BC53F"/>
<stop offset="0.46" stop-color="#ADD677"/>
<stop offset="0.55" stop-color="#CFE7B1"/>
<stop offset="0.64" stop-color="#E9F4DB"/>
<stop offset="0.7" stop-color="#F9FCF5"/>
<stop offset="0.74" stop-color="white"/>
</linearGradient>
<linearGradient id="paint25_linear_752_1788" x1="28.496" y1="102.187" x2="170.783" y2="102.187" gradientUnits="userSpaceOnUse">
<stop stop-color="#007A33"/>
<stop offset="0.5" stop-color="#78BE20"/>
<stop offset="0.67" stop-color="#4CA526"/>
<stop offset="0.89" stop-color="#15862F"/>
<stop offset="1" stop-color="#007A33"/>
</linearGradient>
<linearGradient id="paint26_linear_752_1788" x1="59.6884" y1="74.1691" x2="139.775" y2="74.1691" gradientUnits="userSpaceOnUse">
<stop stop-color="#007A33"/>
<stop offset="0.5" stop-color="#78BE20"/>
<stop offset="0.67" stop-color="#4CA526"/>
<stop offset="0.89" stop-color="#15862F"/>
<stop offset="1" stop-color="#007A33"/>
</linearGradient>
<linearGradient id="paint27_linear_752_1788" x1="28.496" y1="129.663" x2="170.783" y2="129.663" gradientUnits="userSpaceOnUse">
<stop stop-color="#78BE20"/>
<stop offset="0.21" stop-color="#00B140"/>
<stop offset="0.82" stop-color="#00B140"/>
<stop offset="0.84" stop-color="#06B13E"/>
<stop offset="0.88" stop-color="#18B339"/>
<stop offset="0.93" stop-color="#36B631"/>
<stop offset="0.97" stop-color="#5EBB26"/>
<stop offset="1" stop-color="#78BE20"/>
</linearGradient>
<linearGradient id="paint28_linear_752_1788" x1="28.496" y1="128.491" x2="170.783" y2="128.491" gradientUnits="userSpaceOnUse">
<stop stop-color="#8BC53F"/>
<stop offset="0.06" stop-color="#95CA50"/>
<stop offset="0.19" stop-color="#B0D77C"/>
<stop offset="0.37" stop-color="#DAECC3"/>
<stop offset="0.51" stop-color="white"/>
<stop offset="0.68" stop-color="#D0E7B2"/>
<stop offset="0.83" stop-color="#ABD574"/>
<stop offset="0.94" stop-color="#93C94D"/>
<stop offset="1" stop-color="#8BC53F"/>
</linearGradient>
<linearGradient id="paint29_linear_752_1788" x1="16" y1="107.41" x2="16.5586" y2="107.41" gradientUnits="userSpaceOnUse">
<stop stop-color="#007A33"/>
<stop offset="0.5" stop-color="#78BE20"/>
<stop offset="0.67" stop-color="#4CA526"/>
<stop offset="0.89" stop-color="#15862F"/>
<stop offset="1" stop-color="#007A33"/>
</linearGradient>
<linearGradient id="paint30_linear_752_1788" x1="37.065" y1="103.729" x2="164.555" y2="103.729" gradientUnits="userSpaceOnUse">
<stop stop-color="#00B140"/>
<stop offset="0.21" stop-color="#3EB93F"/>
<stop offset="0.41" stop-color="#75C13F"/>
<stop offset="0.51" stop-color="#8BC53F"/>
<stop offset="1" stop-color="#00B140"/>
</linearGradient>
<linearGradient id="paint31_linear_752_1788" x1="33.1547" y1="105.957" x2="166.158" y2="105.957" gradientUnits="userSpaceOnUse">
<stop stop-color="#B6B6B6"/>
<stop offset="0.05" stop-color="#D0D0D0"/>
<stop offset="0.1" stop-color="#E3E3E3"/>
<stop offset="0.15" stop-color="#EEEEEE"/>
<stop offset="0.2" stop-color="#F2F2F2"/>
<stop offset="0.26" stop-color="#E1E1E1"/>
<stop offset="0.38" stop-color="#B6B6B6"/>
<stop offset="0.39" stop-color="#B3B3B3"/>
<stop offset="0.43" stop-color="#CBCBCB"/>
<stop offset="0.47" stop-color="#E7E7E7"/>
<stop offset="0.52" stop-color="#F8F8F8"/>
<stop offset="0.55" stop-color="white"/>
<stop offset="0.58" stop-color="#EAEAEA"/>
<stop offset="0.66" stop-color="#C2C2C2"/>
<stop offset="0.7" stop-color="#B3B3B3"/>
<stop offset="0.75" stop-color="#C5C5C6"/>
<stop offset="0.84" stop-color="#F1F1F2"/>
<stop offset="0.91" stop-color="#FAFAFA"/>
<stop offset="1" stop-color="white"/>
</linearGradient>
<linearGradient id="paint32_linear_752_1788" x1="66.4139" y1="73.689" x2="133.273" y2="73.689" gradientUnits="userSpaceOnUse">
<stop stop-color="#B6B6B6"/>
<stop offset="0.05" stop-color="#D0D0D0"/>
<stop offset="0.1" stop-color="#E3E3E3"/>
<stop offset="0.15" stop-color="#EEEEEE"/>
<stop offset="0.2" stop-color="#F2F2F2"/>
<stop offset="0.26" stop-color="#E1E1E1"/>
<stop offset="0.38" stop-color="#B6B6B6"/>
<stop offset="0.39" stop-color="#B3B3B3"/>
<stop offset="0.43" stop-color="#CBCBCB"/>
<stop offset="0.47" stop-color="#E7E7E7"/>
<stop offset="0.52" stop-color="#F8F8F8"/>
<stop offset="0.55" stop-color="white"/>
<stop offset="0.61" stop-color="#D0D0D0"/>
<stop offset="0.67" stop-color="#A8A8A8"/>
<stop offset="0.7" stop-color="#999999"/>
<stop offset="0.73" stop-color="#ACABAB"/>
<stop offset="0.81" stop-color="#DDDCDB"/>
<stop offset="0.84" stop-color="#F7F6F5"/>
<stop offset="0.9" stop-color="#FBFAFA"/>
<stop offset="1" stop-color="white"/>
</linearGradient>
<linearGradient id="paint33_linear_752_1788" x1="49.8905" y1="113.319" x2="52.4765" y2="85.7985" gradientUnits="userSpaceOnUse">
<stop offset="0.18" stop-color="#009345"/>
<stop offset="0.45" stop-color="#00B159"/>
<stop offset="0.78" stop-color="#8BC53F"/>
<stop offset="0.83" stop-color="#ADD677"/>
<stop offset="0.89" stop-color="#CFE7B1"/>
<stop offset="0.94" stop-color="#E9F4DB"/>
<stop offset="0.98" stop-color="#F9FCF5"/>
<stop offset="1" stop-color="white"/>
</linearGradient>
<linearGradient id="paint34_linear_752_1788" x1="53.784" y1="89.5017" x2="50.6223" y2="120.945" gradientUnits="userSpaceOnUse">
<stop offset="0.18" stop-color="#009345"/>
<stop offset="0.45" stop-color="#00B159"/>
<stop offset="0.78" stop-color="#8BC53F"/>
<stop offset="0.83" stop-color="#ADD677"/>
<stop offset="0.89" stop-color="#CFE7B1"/>
<stop offset="0.94" stop-color="#E9F4DB"/>
<stop offset="0.98" stop-color="#F9FCF5"/>
<stop offset="1" stop-color="white"/>
</linearGradient>
<linearGradient id="paint35_linear_752_1788" x1="56.0519" y1="89.7304" x2="52.8902" y2="121.169" gradientUnits="userSpaceOnUse">
<stop offset="0.18" stop-color="#009345"/>
<stop offset="0.45" stop-color="#00B159"/>
<stop offset="0.78" stop-color="#8BC53F"/>
<stop offset="0.83" stop-color="#ADD677"/>
<stop offset="0.89" stop-color="#CFE7B1"/>
<stop offset="0.94" stop-color="#E9F4DB"/>
<stop offset="0.98" stop-color="#F9FCF5"/>
<stop offset="1" stop-color="white"/>
</linearGradient>
<linearGradient id="paint36_linear_752_1788" x1="47.9633" y1="88.9141" x2="44.796" y2="120.358" gradientUnits="userSpaceOnUse">
<stop offset="0.18" stop-color="#009345"/>
<stop offset="0.45" stop-color="#00B159"/>
<stop offset="0.78" stop-color="#8BC53F"/>
<stop offset="0.83" stop-color="#ADD677"/>
<stop offset="0.89" stop-color="#CFE7B1"/>
<stop offset="0.94" stop-color="#E9F4DB"/>
<stop offset="0.98" stop-color="#F9FCF5"/>
<stop offset="1" stop-color="white"/>
</linearGradient>
<linearGradient id="paint37_linear_752_1788" x1="74.2343" y1="108.476" x2="76.6361" y2="81.5143" gradientUnits="userSpaceOnUse">
<stop offset="0.18" stop-color="#009345"/>
<stop offset="0.45" stop-color="#00B159"/>
<stop offset="0.78" stop-color="#8BC53F"/>
<stop offset="0.83" stop-color="#ADD677"/>
<stop offset="0.89" stop-color="#CFE7B1"/>
<stop offset="0.94" stop-color="#E9F4DB"/>
<stop offset="0.98" stop-color="#F9FCF5"/>
<stop offset="1" stop-color="white"/>
</linearGradient>
<linearGradient id="paint38_linear_752_1788" x1="76.3626" y1="83.7876" x2="74.6086" y2="117.097" gradientUnits="userSpaceOnUse">
<stop offset="0.18" stop-color="#009345"/>
<stop offset="0.45" stop-color="#00B159"/>
<stop offset="0.78" stop-color="#8BC53F"/>
<stop offset="0.83" stop-color="#ADD677"/>
<stop offset="0.89" stop-color="#CFE7B1"/>
<stop offset="0.94" stop-color="#E9F4DB"/>
<stop offset="0.98" stop-color="#F9FCF5"/>
<stop offset="1" stop-color="white"/>
</linearGradient>
<linearGradient id="paint39_linear_752_1788" x1="79.9265" y1="83.972" x2="78.1726" y2="117.28" gradientUnits="userSpaceOnUse">
<stop offset="0.18" stop-color="#009345"/>
<stop offset="0.45" stop-color="#00B159"/>
<stop offset="0.78" stop-color="#8BC53F"/>
<stop offset="0.83" stop-color="#ADD677"/>
<stop offset="0.89" stop-color="#CFE7B1"/>
<stop offset="0.94" stop-color="#E9F4DB"/>
<stop offset="0.98" stop-color="#F9FCF5"/>
<stop offset="1" stop-color="white"/>
</linearGradient>
<linearGradient id="paint40_linear_752_1788" x1="99.0754" y1="107.694" x2="99.0754" y2="81.3355" gradientUnits="userSpaceOnUse">
<stop offset="0.18" stop-color="#009345"/>
<stop offset="0.45" stop-color="#00B159"/>
<stop offset="0.78" stop-color="#8BC53F"/>
<stop offset="0.83" stop-color="#ADD677"/>
<stop offset="0.89" stop-color="#CFE7B1"/>
<stop offset="0.94" stop-color="#E9F4DB"/>
<stop offset="0.98" stop-color="#F9FCF5"/>
<stop offset="1" stop-color="white"/>
</linearGradient>
<linearGradient id="paint41_linear_752_1788" x1="99.204" y1="89.4516" x2="99.204" y2="103.852" gradientUnits="userSpaceOnUse">
<stop offset="0.18" stop-color="#009345"/>
<stop offset="0.45" stop-color="#00B159"/>
<stop offset="0.78" stop-color="#8BC53F"/>
<stop offset="0.83" stop-color="#ADD677"/>
<stop offset="0.89" stop-color="#CFE7B1"/>
<stop offset="0.94" stop-color="#E9F4DB"/>
<stop offset="0.98" stop-color="#F9FCF5"/>
<stop offset="1" stop-color="white"/>
</linearGradient>
<linearGradient id="paint42_linear_752_1788" x1="102.433" y1="84.1284" x2="102.433" y2="113.978" gradientUnits="userSpaceOnUse">
<stop offset="0.18" stop-color="#009345"/>
<stop offset="0.45" stop-color="#00B159"/>
<stop offset="0.78" stop-color="#8BC53F"/>
<stop offset="0.83" stop-color="#ADD677"/>
<stop offset="0.89" stop-color="#CFE7B1"/>
<stop offset="0.94" stop-color="#E9F4DB"/>
<stop offset="0.98" stop-color="#F9FCF5"/>
<stop offset="1" stop-color="white"/>
</linearGradient>
<linearGradient id="paint43_linear_752_1788" x1="95.8522" y1="106.136" x2="95.8522" y2="112.761" gradientUnits="userSpaceOnUse">
<stop offset="0.18" stop-color="#009345"/>
<stop offset="0.45" stop-color="#00B159"/>
<stop offset="0.78" stop-color="#8BC53F"/>
<stop offset="0.83" stop-color="#ADD677"/>
<stop offset="0.89" stop-color="#CFE7B1"/>
<stop offset="0.94" stop-color="#E9F4DB"/>
<stop offset="0.98" stop-color="#F9FCF5"/>
<stop offset="1" stop-color="white"/>
</linearGradient>
<linearGradient id="paint44_linear_752_1788" x1="125.888" y1="110.61" x2="124.777" y2="82.7431" gradientUnits="userSpaceOnUse">
<stop offset="0.18" stop-color="#009345"/>
<stop offset="0.45" stop-color="#00B159"/>
<stop offset="0.78" stop-color="#8BC53F"/>
<stop offset="0.83" stop-color="#ADD677"/>
<stop offset="0.89" stop-color="#CFE7B1"/>
<stop offset="0.94" stop-color="#E9F4DB"/>
<stop offset="0.98" stop-color="#F9FCF5"/>
<stop offset="1" stop-color="white"/>
</linearGradient>
<linearGradient id="paint45_linear_752_1788" x1="123.877" y1="85.2678" x2="125.397" y2="120.309" gradientUnits="userSpaceOnUse">
<stop offset="0.18" stop-color="#009345"/>
<stop offset="0.45" stop-color="#00B159"/>
<stop offset="0.78" stop-color="#8BC53F"/>
<stop offset="0.83" stop-color="#ADD677"/>
<stop offset="0.89" stop-color="#CFE7B1"/>
<stop offset="0.94" stop-color="#E9F4DB"/>
<stop offset="0.98" stop-color="#F9FCF5"/>
<stop offset="1" stop-color="white"/>
</linearGradient>
<linearGradient id="paint46_linear_752_1788" x1="121.71" y1="85.3674" x2="123.23" y2="120.37" gradientUnits="userSpaceOnUse">
<stop offset="0.18" stop-color="#009345"/>
<stop offset="0.45" stop-color="#00B159"/>
<stop offset="0.78" stop-color="#8BC53F"/>
<stop offset="0.83" stop-color="#ADD677"/>
<stop offset="0.89" stop-color="#CFE7B1"/>
<stop offset="0.94" stop-color="#E9F4DB"/>
<stop offset="0.98" stop-color="#F9FCF5"/>
<stop offset="1" stop-color="white"/>
</linearGradient>
<linearGradient id="paint47_linear_752_1788" x1="132.016" y1="84.9149" x2="133.541" y2="119.939" gradientUnits="userSpaceOnUse">
<stop offset="0.18" stop-color="#009345"/>
<stop offset="0.45" stop-color="#00B159"/>
<stop offset="0.78" stop-color="#8BC53F"/>
<stop offset="0.83" stop-color="#ADD677"/>
<stop offset="0.89" stop-color="#CFE7B1"/>
<stop offset="0.94" stop-color="#E9F4DB"/>
<stop offset="0.98" stop-color="#F9FCF5"/>
<stop offset="1" stop-color="white"/>
</linearGradient>
<linearGradient id="paint48_linear_752_1788" x1="123.76" y1="85.2732" x2="125.28" y2="120.292" gradientUnits="userSpaceOnUse">
<stop offset="0.18" stop-color="#009345"/>
<stop offset="0.45" stop-color="#00B159"/>
<stop offset="0.78" stop-color="#8BC53F"/>
<stop offset="0.83" stop-color="#ADD677"/>
<stop offset="0.89" stop-color="#CFE7B1"/>
<stop offset="0.94" stop-color="#E9F4DB"/>
<stop offset="0.98" stop-color="#F9FCF5"/>
<stop offset="1" stop-color="white"/>
</linearGradient>
<linearGradient id="paint49_linear_752_1788" x1="149.216" y1="113.973" x2="146.261" y2="87.7423" gradientUnits="userSpaceOnUse">
<stop offset="0.18" stop-color="#009345"/>
<stop offset="0.45" stop-color="#00B159"/>
<stop offset="0.78" stop-color="#8BC53F"/>
<stop offset="0.83" stop-color="#ADD677"/>
<stop offset="0.89" stop-color="#CFE7B1"/>
<stop offset="0.94" stop-color="#E9F4DB"/>
<stop offset="0.98" stop-color="#F9FCF5"/>
<stop offset="1" stop-color="white"/>
</linearGradient>
<linearGradient id="paint50_linear_752_1788" x1="148.478" y1="94.6185" x2="150.327" y2="121.113" gradientUnits="userSpaceOnUse">
<stop offset="0.18" stop-color="#009345"/>
<stop offset="0.45" stop-color="#00B159"/>
<stop offset="0.78" stop-color="#8BC53F"/>
<stop offset="0.83" stop-color="#ADD677"/>
<stop offset="0.89" stop-color="#CFE7B1"/>
<stop offset="0.94" stop-color="#E9F4DB"/>
<stop offset="0.98" stop-color="#F9FCF5"/>
<stop offset="1" stop-color="white"/>
</linearGradient>
<linearGradient id="paint51_linear_752_1788" x1="144.367" y1="94.9024" x2="146.21" y2="121.397" gradientUnits="userSpaceOnUse">
<stop offset="0.18" stop-color="#009345"/>
<stop offset="0.45" stop-color="#00B159"/>
<stop offset="0.78" stop-color="#8BC53F"/>
<stop offset="0.83" stop-color="#ADD677"/>
<stop offset="0.89" stop-color="#CFE7B1"/>
<stop offset="0.94" stop-color="#E9F4DB"/>
<stop offset="0.98" stop-color="#F9FCF5"/>
<stop offset="1" stop-color="white"/>
</linearGradient>
<linearGradient id="paint52_linear_752_1788" x1="151.025" y1="94.4396" x2="152.868" y2="120.933" gradientUnits="userSpaceOnUse">
<stop offset="0.18" stop-color="#009345"/>
<stop offset="0.45" stop-color="#00B159"/>
<stop offset="0.78" stop-color="#8BC53F"/>
<stop offset="0.83" stop-color="#ADD677"/>
<stop offset="0.89" stop-color="#CFE7B1"/>
<stop offset="0.94" stop-color="#E9F4DB"/>
<stop offset="0.98" stop-color="#F9FCF5"/>
<stop offset="1" stop-color="white"/>
</linearGradient>
</defs>
</svg>
