<svg width="160" height="80" viewBox="0 0 160 80" fill="none" xmlns="http://www.w3.org/2000/svg">
<g clip-path="url(#clip0_10548_20798)">
<path d="M159.907 54.5379C159.631 53.516 158.657 49.9058 158.478 49.1897C158.299 48.4773 157.542 48.3207 157.177 48.2685C140.517 45.8442 122.626 44.606 107.189 44.5389C105.421 39.1048 103.534 33.3016 102.448 29.9785C108.285 24.082 117.05 15.3659 117.613 14.799C117.934 14.4745 118.303 13.7734 117.524 13.7286C117.303 13.7174 113.85 13.557 113.387 13.5421C112.936 13.5272 112.395 13.7025 112.078 13.9225C111.31 14.4559 106.07 19.9794 102.363 23.9253C104.328 18.9202 105.902 14.8885 106.081 14.4149C106.357 13.6876 106.018 13.3333 105.384 13.3034C104.716 13.2699 102.669 13.3034 101.792 13.3034C101.188 13.3034 100.938 13.5682 100.807 13.8927C100.807 13.8927 91.8042 37.0088 91.6177 37.5459C91.435 38.0829 91.2112 38.4745 91.9124 39.0452C92.9753 39.9067 93.9375 40.7384 94.4559 41.1449C94.9781 41.5552 95.5077 41.2867 95.7837 40.5967C96.5184 38.7542 98.5809 33.5365 98.5809 33.5365C98.5809 33.5365 100.382 38.9818 102.255 44.6172C83.3753 45.0163 64.4886 47.1533 49.3613 50.592L18.7748 25.4545C26.6555 18.5883 41.4023 13.378 46.4298 12.248C46.4298 12.248 47.1832 12.095 47.3622 12.0764L45.3967 16.7421C45.3967 16.7421 45.0984 17.4731 45.6951 17.8834C46.1688 18.2079 47.3883 18.9351 48.4662 19.5841C48.9473 19.875 49.4061 20.013 49.7939 19.0321C50.4988 17.2456 53.3557 10.1929 53.669 9.3314C53.9114 8.67126 53.7734 8.39154 53.393 8.06706C52.8373 7.58968 51.8117 6.79527 51.2858 6.39993C50.9128 6.12021 50.3571 5.90389 49.5702 6.08292C46.7842 6.70576 26.3944 12.0652 13.3744 23.2913C11.5319 24.8801 12.9343 27.2149 14.0084 28.0577C15.1049 28.9156 43.0247 52.1435 43.0247 52.1435C25.007 56.91 11.1814 63.5897 2.44289 71.5636C1.79767 72.1528 0.607926 73.4097 1.9021 74.4876C2.66294 75.1216 4.04289 76.2218 4.92308 76.9342C5.94126 77.7584 7.12354 77.7211 8.17529 77.7808C8.98089 77.8256 18.1893 77.7547 30.2918 73.4209C46.4522 67.6363 52.7254 60.565 54.7319 56.9696C55.2205 56.164 55.1385 55.6605 54.8998 55.3435C55.448 55.2316 55.9552 55.1272 56.3916 55.0414C69.3408 52.4643 86.262 50.5808 104.198 50.4652C105.309 53.8069 106.186 56.4251 106.335 56.8391C106.413 57.0517 106.629 57.8871 107.368 57.8871C107.83 57.8871 109.49 57.9095 110.396 57.9095C111.441 57.9095 111.366 57.4582 111.232 57.0293C110.892 55.9515 110.113 53.5347 109.136 50.5174C123.756 50.8344 141.483 52.3524 159.064 55.3771C159.441 55.4405 160.19 55.5524 159.91 54.5305L159.907 54.5379ZM47.3026 58.234C44.5501 61.1393 37.9711 65.8722 28.8037 68.923C19.379 72.0596 12.8261 72.7981 9.77529 73.0629C8.54452 73.171 7.78741 73.1151 7.78741 73.1151C13.1841 69.6279 24.8615 62.2881 47.9963 56.8988C47.9963 56.8988 47.9963 56.8988 48 56.8988C48.097 56.8727 48.2126 56.8466 48.3431 56.813C47.9925 57.4806 47.3026 58.234 47.3026 58.234ZM34.0774 28.5873C33.7156 28.7515 33.2158 29.0834 33.7753 29.4974L34.6182 30.1762C35.0061 30.4671 35.6923 30.2433 36.1697 30.068C37.0984 29.7323 44.3413 27.1887 52.0019 25.3239C49.1413 32.6862 45.6802 41.5589 45.6019 41.7864C45.4191 42.3235 45.1916 42.7188 45.8965 43.2857C46.9221 44.1062 47.9366 44.8894 48.4625 45.2848C48.9697 45.6652 49.5888 45.1804 49.8312 44.8783C55.9254 37.1841 61.5608 31.3547 66.1221 28.0055C65.4135 29.8069 62.9669 35.9347 62.3664 37.4713C62.0643 38.2321 61.7772 38.9668 61.5347 39.5971C61.1879 40.4848 61.0163 40.895 60.9865 40.992C60.8037 41.5291 60.5837 41.9132 61.2811 42.4913C62.1949 43.2484 63.2504 44.1137 63.7986 44.5538C64.317 44.9678 64.8727 44.6396 65.1487 43.9496C66.2228 41.2792 67.0471 39.392 67.3417 38.661C69.9786 32.1267 74.4503 28.5426 75.3902 27.7892C74.7487 29.434 73.4732 32.164 73.4135 32.3468C73.2308 32.8839 73.0107 33.268 73.7082 33.8461C74.6219 34.6032 75.6848 35.5095 76.2517 35.9608C76.7702 36.3748 77.3035 36.1025 77.5795 35.4125C77.5795 35.4125 80.4028 28.1846 80.7832 27.1887C81.0592 26.4615 80.9063 26.2116 80.5482 25.902C80.1828 25.5813 78.6834 24.3319 78.0718 23.8657C77.6802 23.5673 77.1991 23.7426 76.8783 23.9291C74.0214 25.5999 71.5674 27.9794 71.3212 28.2218C71.3212 28.2218 71.6494 27.4871 71.7315 27.2708C72.0075 26.5435 71.862 26.2862 71.4965 25.9841C71.1086 25.6671 69.7063 24.5221 69.1096 24.082C68.4531 23.5971 67.573 24.1305 67.0471 24.4736C62.5268 27.4424 56.9548 31.8619 53.0201 36.5538C54.0532 33.9244 56.2611 28.1957 57.9058 23.9142C66.0699 22.0755 75.8452 20.3748 86.0121 19.7109C85.8294 18.8941 85.8033 17.9915 85.9636 17.0405C86.0942 16.2647 86.3403 15.5188 86.676 14.8176C83.9124 15.075 71.4145 16.5594 59.4462 19.9123C60.6471 16.7645 61.0089 15.7053 61.1207 15.4144C61.3967 14.6871 61.2737 14.3887 60.9007 14.0941C60.5165 13.792 58.7524 12.3748 58.1818 11.916C57.5329 11.3976 57.0741 12.0727 56.9473 12.3934C56.9473 12.3934 55.5786 15.9701 53.4974 21.516C53.4974 21.516 41.9767 25.0293 34.0923 28.5911L34.0774 28.5873ZM143.735 40.2125C142.661 39.6978 142.288 38.7878 142.381 38.0978C142.434 37.7137 142.415 37.3333 141.867 36.9305C141.061 36.3375 139.953 35.5542 139.267 35.0843C138.887 34.8232 138.312 34.6852 137.932 35.6773C137.384 37.0983 137.6 40.4102 142.366 42.7785C145.619 44.3971 149.841 44.4792 151.933 41.0368C153.566 38.344 152.794 35.3305 150.135 32.3058C147.409 29.2065 150.359 25.1449 152.067 25.7603C153.055 26.1184 152.888 26.9053 152.765 27.6251C152.701 27.9943 153.026 28.1995 153.466 28.5128C153.988 28.8857 155.308 29.8517 156.021 30.3776C156.319 30.5976 156.658 30.4186 156.815 30.027C157.926 27.2521 157.117 24.5407 153.537 22.9407C149.632 21.1953 145.984 23.2689 145.085 26.6218C144.414 29.1244 145.302 31.2876 146.831 33.5738C149.255 37.2102 146.085 41.3351 143.735 40.2088V40.2125ZM109.393 33.6894C108.408 33.8013 107.815 33.8349 107.189 33.8312C106.898 33.8312 106.771 34.2377 107.014 34.6442C107.241 35.0246 107.506 35.2484 108.088 35.5617C108.725 35.9048 109.844 36.1361 109.844 36.1361C110.482 38.2433 112.414 40.4587 116.919 40.8204C119.937 41.0629 122.495 40.2237 124.196 39.4107C124.274 39.5225 124.416 39.6009 124.576 39.7351C125.635 40.6228 126.527 41.3389 127.109 41.7603C127.646 42.1482 128.16 41.8983 128.433 41.2121C129.507 38.5379 130.394 36.4643 130.693 35.7333C133.33 29.199 137.801 25.6149 138.738 24.8615C138.096 26.5062 136.828 29.2512 136.765 29.4377C136.582 29.9748 136.362 30.3626 137.059 30.937C138.077 31.7724 138.98 32.5594 139.595 33.033C140.121 33.4358 140.647 33.1748 140.923 32.4848C140.923 32.4848 143.538 25.8013 143.918 24.8018C144.194 24.0745 144.045 23.8172 143.683 23.5151C143.299 23.1943 141.546 21.7734 140.983 21.337C140.572 21.02 139.998 21.3258 139.681 21.5123C136.824 23.1832 134.915 25.0517 134.669 25.2941C134.669 25.2941 134.937 24.6638 135.015 24.4475C135.232 23.8619 135.124 23.5897 134.743 23.2801C134.366 22.9743 132.666 21.6018 132.05 21.1244C131.338 20.5762 130.965 21.337 130.734 21.9188C130.734 21.9188 127.925 28.9454 127.918 28.9715C125.579 34.8867 120.794 38.0941 117.68 37.9487C115.081 37.8293 114.782 36.054 114.782 36.054C120.66 35.4051 123.871 32.1529 125.262 27.7482C126.355 24.2908 124.912 22.0494 122.57 20.8149C119.963 19.4386 116.64 20.0167 113.581 23.0638C111.485 25.1561 109.497 28.8969 109.389 33.682L109.393 33.6894ZM116.931 27.0097C118.221 25.171 120.466 23.172 120.891 23.4778C121.32 23.7836 120.339 25.9654 118.713 28.4978C118.042 29.5384 116.304 32.0298 114.417 32.7832C114.581 31.0452 115.666 28.8111 116.931 27.0135V27.0097ZM84.0429 24.3058C83.1739 24.2386 83.1291 24.854 83.5804 25.2009C84.3189 25.764 85.6653 26.909 85.6653 26.909C83.9385 31.3696 81.2308 38.2023 81.104 38.5678C80.9175 39.1048 80.7012 39.489 81.3986 40.0671C82.2639 40.7869 83.4723 41.7379 83.9981 42.1519C84.5203 42.5622 85.0499 42.2936 85.3221 41.6037C88.69 33.1748 91.0061 26.8494 91.3828 25.8498C91.6587 25.1225 91.4984 24.8801 91.1478 24.5631C90.745 24.2013 89.2121 22.8699 88.593 22.441C88.1977 22.1687 87.7837 22.2992 87.5674 22.6573C87.1161 23.3957 85.9599 24.4624 84.0354 24.3132L84.0429 24.3058ZM91.573 20.8932C93.6019 20.8447 95.5487 19.0135 95.9217 16.8018C96.2946 14.5901 94.952 12.8372 92.9231 12.8857C90.8942 12.9342 88.9473 14.7654 88.5744 16.9771C88.2014 19.1887 89.5441 20.9417 91.573 20.8932Z" fill="url(#paint0_linear_10548_20798)"/>
<path d="M114.417 32.7791C114.417 32.7791 117.11 32.0519 119.761 27.9232C121.384 25.3908 122.301 23.4999 121.846 23.153C121.455 22.8547 120.806 23.1978 120.257 23.6304C120.261 23.6304 120.272 23.6304 120.287 23.6304C120.571 23.4626 120.787 23.3992 120.891 23.4738C121.32 23.7796 120.339 25.9614 118.713 28.4938C118.042 29.5344 116.304 32.0258 114.417 32.7791ZM91.5692 20.8892C92.7702 20.8593 93.945 20.2029 94.7767 19.2108C94.027 19.8374 93.1245 20.229 92.2033 20.2514C90.1744 20.2999 88.8317 18.547 89.2047 16.3353C89.3576 15.4365 89.7716 14.601 90.3459 13.9223C89.4471 14.6756 88.772 15.7647 88.5706 16.9731C88.1977 19.1847 89.5403 20.9376 91.5692 20.8892ZM114.782 36.0612C117.046 35.8113 118.911 35.1735 120.433 34.2337C119.124 34.8603 116.74 35.5875 114.7 35.6584C114.7 35.6584 114.73 35.912 114.779 36.0612H114.782ZM152.067 25.76C153.055 26.1181 152.888 26.905 152.765 27.6248C152.701 27.9941 153.026 28.1992 153.466 28.5125C153.988 28.8854 155.308 29.8514 156.021 30.3773C156.319 30.5973 156.658 30.4183 156.815 30.0267C156.826 30.0006 156.834 29.9782 156.845 29.9521C156.781 29.9372 156.718 29.9148 156.658 29.87C155.942 29.3442 154.626 28.3782 154.104 28.0052C153.667 27.6957 153.339 27.4868 153.402 27.1176C153.525 26.3978 153.693 25.6108 152.705 25.2528C152.145 25.0514 151.455 25.3498 150.874 25.9502C151.284 25.7115 151.705 25.6295 152.067 25.76ZM146.432 39.5148C148.073 38.5115 149.195 35.6658 147.465 33.0663C145.939 30.7763 145.052 28.6169 145.723 26.1143C146.018 25.0141 146.611 24.0556 147.409 23.3209C146.29 24.0892 145.458 25.2491 145.089 26.6253C144.418 29.1279 145.305 31.291 146.835 33.5773C148.33 35.8225 147.696 38.2505 146.439 39.5185L146.432 39.5148ZM86.5119 26.4425C86.5119 26.4425 84.9529 25.126 84.2145 24.5628C84.1138 24.4845 84.0392 24.395 83.9907 24.3017C83.1702 24.2607 83.1366 24.8612 83.5767 25.1968C84.3152 25.76 85.6615 26.905 85.6615 26.905C83.9347 31.3656 81.227 38.1982 81.104 38.5638C80.9212 39.1008 80.7012 39.485 81.3986 40.063C82.2639 40.7829 83.4723 41.7339 83.9981 42.1479C84.4942 42.5395 85.0014 42.3083 85.2849 41.6854C85.0797 41.7376 84.8559 41.6854 84.6322 41.5139C84.1063 41.0999 83.1142 40.3204 82.249 39.6006C81.5515 39.0225 81.7716 38.6421 81.9543 38.1013C82.0811 37.7358 84.7851 30.9069 86.5156 26.4463L86.5119 26.4425ZM125.042 39.015C124.774 39.1418 124.528 39.2612 124.196 39.4141C124.185 39.5446 126.527 41.3423 127.105 41.7637C127.53 42.0733 127.94 41.9801 128.231 41.581C128.175 41.5549 128.116 41.5213 128.056 41.4766C127.474 41.0551 126.586 40.339 125.527 39.4477C125.367 39.3134 125.121 39.1195 125.042 39.0113V39.015ZM140.002 23.8057C139.767 23.9922 139.312 24.3577 138.719 24.9022C138.051 26.5097 136.817 29.2882 136.765 29.4449C136.582 29.9819 136.362 30.3698 137.059 30.9442C138.077 31.7796 138.984 32.5665 139.595 33.0402C140.047 33.3908 140.546 33.2603 140.852 32.6337C140.677 32.753 140.502 32.7157 140.442 32.671C139.827 32.1973 139.028 31.4924 138.01 30.6533C137.313 30.0789 137.533 29.6948 137.716 29.154C137.779 28.9712 139.357 25.4467 139.998 23.802L140.002 23.8057ZM14.0084 28.0612C15.0266 28.8556 39.5413 49.2528 43.021 52.147C43.3716 52.05 43.7221 51.9568 44.0765 51.8635C44.0765 51.8635 15.7352 28.285 14.6387 27.4272C13.6615 26.6626 12.4233 24.6784 13.5646 23.1269C13.4974 23.1829 13.434 23.2388 13.3669 23.2948C11.5245 24.8836 12.9268 27.2183 14.0047 28.0612H14.0084ZM8.80932 77.1502C7.75757 77.0943 6.57156 77.1316 5.55711 76.3036C4.68065 75.5913 3.3007 74.491 2.53613 73.857C1.55524 73.0402 2.00279 72.119 2.55478 71.4663C2.51748 71.4999 2.47645 71.5334 2.43916 71.567C1.79394 72.1563 0.607923 73.4132 1.89837 74.491C2.65921 75.1251 4.03916 76.2253 4.91562 76.9376C5.9338 77.7619 7.11608 77.7246 8.16783 77.7843C8.97342 77.829 18.1818 77.7582 30.2844 73.4244C41.5515 69.3927 48.0112 64.7344 51.573 61.0645C47.8993 64.6262 41.5478 68.9861 30.9221 72.7903C18.8196 77.1241 9.61119 77.1913 8.80559 77.1502H8.80932ZM107.211 57.1409C105.343 51.5055 99.0434 32.3726 99.0434 32.3726L98.5846 33.5362C98.5846 33.5362 106.189 56.4323 106.338 56.8463C106.417 57.0589 106.633 57.8943 107.372 57.8943C107.472 57.8943 107.636 57.8943 107.838 57.8943C107.42 57.719 107.271 57.2864 107.215 57.1334L107.211 57.1409ZM7.36597 73.0178L5.34079 74.5432L9.87972 73.0626C9.85734 73.0626 9.83496 73.0663 9.81259 73.07C8.58182 73.1782 7.82471 73.1223 7.82471 73.1223C7.85081 73.1073 7.87692 73.0887 7.90303 73.07C7.89184 73.07 7.88065 73.07 7.87319 73.07C13.3035 69.5605 24.9809 62.2691 47.9963 56.9059C48.0932 56.8798 48.2089 56.8537 48.3431 56.8202C48.3431 56.8202 48.3431 56.8202 48.3431 56.8239C49.7455 56.4845 52.0765 55.9437 54.9035 55.3582C54.9035 55.3582 54.9035 55.3582 54.9035 55.3544C55.448 55.2425 55.959 55.1381 56.3953 55.0523C68.9529 52.5535 85.2401 50.7073 102.572 50.491L102.329 49.7153C94.7655 49.6705 39.6793 50.1479 7.37342 73.0216L7.36597 73.0178ZM116.919 40.8276C119.038 40.9992 120.929 40.6337 122.458 40.1227C121.123 40.4733 119.571 40.6784 117.87 40.5404C113.365 40.1787 111.433 37.9633 110.795 35.8561C110.795 35.8561 109.68 35.6248 109.039 35.2817C108.457 34.9684 108.192 34.7446 107.965 34.3642C107.845 34.1703 107.819 33.9763 107.849 33.8234C107.621 33.8346 107.405 33.8383 107.185 33.8346C106.894 33.8346 106.767 34.2411 107.01 34.6477C107.237 35.0281 107.502 35.2519 108.084 35.5651C108.722 35.9083 109.841 36.1395 109.841 36.1395C110.478 38.2467 112.41 40.4621 116.916 40.8239L116.919 40.8276ZM159.955 54.7875C159.862 54.7801 159.769 54.7652 159.694 54.754C142.117 51.7255 123.539 50.1889 108.919 49.8719C108.99 50.0957 109.061 50.312 109.132 50.5283C123.588 50.8864 141.818 52.4192 159.06 55.388C159.4 55.4477 160.052 55.5409 159.955 54.7875ZM47.3585 12.0761L45.393 16.7418C45.393 16.7418 45.0946 17.4728 45.6914 17.8831C46.165 18.2076 47.3846 18.9348 48.4625 19.5838C48.9212 19.8598 49.3613 19.9978 49.738 19.1586C49.5329 19.181 49.3165 19.0803 49.1002 18.9498C48.0224 18.2971 46.8028 17.5735 46.3291 17.2491C45.7324 16.8388 46.0308 16.1078 46.0308 16.1078L47.8583 11.7703L49.0107 9.08496L47.0079 11.2668C41.7417 12.5087 27.1291 17.622 19.4723 24.8686C27.4984 18.2971 41.5478 13.3479 46.4298 12.2514C46.4298 12.2514 47.1832 12.0985 47.3622 12.0798L47.3585 12.0761ZM67.2149 26.8714C66.4205 27.457 63.9142 29.7358 63.9142 29.7358C63.9142 29.7358 65.5478 28.423 66.1184 28.0052C65.4098 29.8066 61.0126 40.8985 60.979 40.9955C60.7963 41.5325 60.5762 41.9167 61.2737 42.4948C62.1874 43.2519 63.2429 44.1171 63.7911 44.5572C64.2797 44.9451 64.7981 44.6803 65.089 44.0724C64.8765 44.1358 64.649 44.0985 64.4252 43.9195C63.8769 43.4831 63.0117 42.8192 62.0979 42.0621C61.4005 41.484 61.6205 41.1036 61.8033 40.5628C61.8368 40.4658 66.5063 28.6728 67.2149 26.8714ZM73.697 33.8495C74.6107 34.6066 75.6737 35.5129 76.2406 35.9642C76.7366 36.3596 77.2438 36.1246 77.5273 35.5017C77.3221 35.554 77.0984 35.5017 76.8746 35.3265C76.3114 34.8752 75.5394 34.2299 74.6256 33.4728C73.9319 32.8948 74.1483 32.5106 74.331 31.9735C74.3944 31.7908 76.5576 26.5843 76.5576 26.5843C76.1958 26.8752 74.7562 28.1656 73.6448 29.3143C74.4578 28.5311 75.0918 28.0239 75.3828 27.7889C74.7413 29.4337 73.4695 32.1637 73.4061 32.3465C73.2233 32.8836 73.0033 33.2677 73.7007 33.8458L73.697 33.8495ZM57.6187 12.2253C57.7305 11.9493 57.9841 11.8934 58.1184 11.8822C57.4956 11.4346 57.0555 12.0761 56.9287 12.3931C56.9287 12.3931 55.4517 16.2533 53.4788 21.5157C53.7697 21.4262 54.2173 21.2472 54.2173 21.2472C56.2984 15.7013 57.4657 12.6057 57.6224 12.2253H57.6187Z" fill="#A7A9AC"/>
<path d="M54.7282 56.9731C55.2131 56.1713 55.1347 55.6678 54.8998 55.3545C52.0727 55.94 49.7417 56.4846 48.3394 56.8202C47.9888 57.4841 47.3026 58.2375 47.3026 58.2375C47.269 58.2748 46.9221 58.6365 46.8848 58.6738C49.4844 58.0286 54.7282 56.9731 54.7282 56.9731Z" fill="#939598"/>
<path d="M100.729 44.6506L102.564 50.4837C103.109 50.4762 103.649 50.4725 104.194 50.4688L102.251 44.6133C101.744 44.6245 101.236 44.6357 100.729 44.6506Z" fill="#939598"/>
<path d="M104.589 13.8477C104.85 13.9746 104.787 14.3028 104.697 14.5303C104.522 14.9927 101.848 21.8701 99.8415 26.9797L100.89 26.1927C102.896 21.0832 105.391 14.6906 105.566 14.2282C105.652 14.0007 105.537 13.8552 105.346 13.8477C105.156 13.8366 104.791 13.8477 104.586 13.8477H104.589Z" fill="white"/>
<path d="M121.559 21.2995C123.286 22.2095 125.11 24.0445 123.987 27.5914C122.503 32.2832 119.131 34.9536 113.962 35.5242L113.395 35.5876L113.488 36.1508C113.503 36.2403 113.895 38.355 116.893 38.493C116.968 38.493 117.046 38.4967 117.124 38.4967C117.251 38.4967 117.378 38.4893 117.509 38.4818C114.648 38.2804 114.268 36.2366 114.253 36.1508L114.159 35.5876L114.726 35.5242C119.896 34.9536 123.267 32.2832 124.752 27.5914C125.874 24.0408 124.05 22.2095 122.324 21.2995C121.514 20.8706 120.641 20.6543 119.731 20.6543C119.605 20.6543 119.474 20.658 119.344 20.6692C120.119 20.7214 120.862 20.9303 121.559 21.2995Z" fill="white"/>
<path d="M133.639 23.7012C133.837 23.8653 133.882 23.8988 133.747 24.2643C133.688 24.4322 132.386 27.8075 132.311 27.979L133.527 26.8117C133.602 26.6401 134.448 24.4284 134.512 24.2643C134.646 23.8988 134.605 23.8653 134.404 23.7012C134.005 23.373 132.938 22.5524 132.334 22.0937C132.132 21.9371 131.972 22.0079 131.845 22.2802C132.591 22.8695 133.307 23.4289 133.639 23.7012Z" fill="white"/>
<path d="M48.6825 50.7333L17.9394 25.4653L18.4205 25.0476C26.0476 18.4051 38.4932 13.2023 46.1911 11.1545C46.3179 11.1212 29.0051 14.5152 16.7534 25.5511L47.5002 50.9907C47.5002 50.9907 48.358 50.8154 48.6751 50.7371L48.6825 50.7333Z" fill="white"/>
<path d="M95.6457 39.6117C96.373 37.7916 98.6443 31.8877 98.6443 31.8877L98.2974 30.8359C98.2974 30.8359 95.6084 37.7916 94.8849 39.6117C94.8737 39.6415 94.8625 39.6639 94.8513 39.69C94.9669 39.7833 95.0676 39.869 95.1571 39.9362C95.2205 39.9847 95.2802 40.0145 95.3212 40.0145C95.4033 40.0145 95.545 39.8728 95.6494 39.6117H95.6457Z" fill="white"/>
<path d="M115.726 26.7001C114.253 28.8036 113.276 31.0562 113.119 32.7308L113.037 33.611L113.828 33.294L113.88 32.7308C114.036 31.0562 115.014 28.8036 116.487 26.7001C117.441 25.335 119.273 23.4292 120.373 22.9966C120.265 22.9369 120.145 22.9033 120.015 22.9033C119.019 22.9033 116.807 25.1523 115.722 26.7001H115.726Z" fill="white"/>
<path d="M117.982 40.3285C120.407 40.3285 123.04 39.5416 124.446 38.6129L124.248 38.3369C123.543 38.9001 119.966 40.2502 117.617 40.3211C117.74 40.3211 117.863 40.3285 117.982 40.3285Z" fill="white"/>
<path d="M141.546 37.3633C140.766 36.7889 139.655 36.0057 138.961 35.5283C138.835 35.4388 138.674 35.6178 138.674 35.8565C139.36 36.3339 140.11 36.8673 140.785 37.3633C141.139 37.6244 141.117 37.7847 141.083 38.0234C140.972 38.8402 141.337 40.03 142.739 40.7013C143.075 40.8617 143.433 40.9437 143.802 40.9437C143.933 40.9437 144.063 40.9325 144.194 40.9139C143.955 40.8766 143.724 40.8095 143.504 40.705C142.102 40.0337 141.736 38.844 141.848 38.0272C141.882 37.7885 141.904 37.6281 141.546 37.367V37.3633Z" fill="white"/>
<path d="M127.877 40.7351C127.955 40.7351 128.09 40.612 128.198 40.3398C128.944 38.4862 130.1 35.7598 130.193 35.536C131.931 31.2321 134.844 27.2936 138.402 24.4442L138.868 24.0712L139.215 23.1836L137.641 24.4442C134.083 27.2936 131.166 31.2321 129.432 35.536C129.343 35.7598 128.183 38.4862 127.437 40.3398C127.422 40.3733 127.411 40.4032 127.396 40.433C127.5 40.5113 127.601 40.5897 127.694 40.6531C127.765 40.7053 127.832 40.7351 127.877 40.7351Z" fill="white"/>
<path d="M142.575 23.9328C142.78 24.1044 142.829 24.1454 142.654 24.6116C142.281 25.5963 139.886 31.7315 139.875 31.7576C139.983 31.8433 140.084 31.9254 140.181 31.9963C140.405 32.1641 140.558 31.9664 140.673 31.6792C140.699 31.6121 143.045 25.5963 143.418 24.6116C143.597 24.1454 143.549 24.1044 143.34 23.9328C142.948 23.6046 141.408 22.3552 140.852 21.9189C140.837 21.9077 140.819 21.8965 140.763 21.8965C140.614 21.8965 140.416 21.9897 140.274 22.068C140.957 22.6088 142.221 23.6345 142.575 23.9328Z" fill="white"/>
<path d="M151.47 40.7574C152.929 38.3592 152.343 35.6366 149.729 32.6641C148.423 31.1797 148.125 29.2292 148.934 27.4464C149.475 26.2492 150.393 25.3989 151.306 25.2012C151.187 25.1751 151.064 25.1602 150.937 25.1602C149.9 25.1602 148.789 26.0776 148.17 27.4464C147.364 29.2292 147.659 31.1797 148.964 32.6641C151.575 35.6366 152.164 38.3592 150.706 40.7574C149.531 42.6893 147.748 43.2264 146.327 43.3047C146.45 43.3121 146.573 43.3159 146.693 43.3159C148.162 43.3159 150.18 42.872 151.467 40.7536L151.47 40.7574Z" fill="white"/>
<path d="M50.2005 6.83671C50.7301 7.22832 51.7445 8.019 52.2779 8.47774C52.4979 8.66422 52.5538 8.71643 52.3972 9.14907C52.207 9.67121 48.7571 18.2903 48.7422 18.3276C48.7422 18.3276 49.2904 18.626 49.3054 18.6297C49.3054 18.6297 52.9716 9.67494 53.1618 9.1528C53.3184 8.72016 53.2587 8.67168 53.0424 8.48147C52.5091 8.02273 51.4909 7.23205 50.965 6.84044C50.7151 6.65396 50.4392 6.56445 50.1221 6.56445C49.9953 6.56445 49.8573 6.57937 49.7156 6.60921C49.8909 6.65396 50.0513 6.72483 50.2005 6.83671Z" fill="white"/>
<path d="M65.6485 39.4779C65.2382 40.4476 64.8951 41.1935 64.1604 43.0248C64.1417 43.0733 64.1193 43.118 64.097 43.1553C64.2126 43.2486 64.3207 43.3343 64.4103 43.4052C64.4625 43.4462 64.511 43.4686 64.5445 43.4686C64.6266 43.4686 64.7981 43.3306 64.9212 43.0211C65.6597 41.1898 65.9991 40.4439 66.4093 39.4742C66.5995 39.0266 66.745 38.6835 66.8345 38.456C68.5688 34.1558 71.4853 30.2173 75.0434 27.3642L76.6508 26.0439L76.9977 25.1562L74.2788 27.3642C70.7207 30.2136 67.8042 34.1521 66.0699 38.456C65.9767 38.6835 65.8312 39.0266 65.6448 39.4742L65.6485 39.4779Z" fill="white"/>
<path d="M116.595 14.2657C116.561 14.3179 116.517 14.3739 116.468 14.4186C116.371 14.5193 116.021 14.8662 115.483 15.4032C112.925 17.9543 106.122 24.7347 101.304 29.6018L101.072 29.8368L101.173 30.1501C102.255 33.4732 109.643 56.2312 109.949 57.2009C109.967 57.2681 109.982 57.3128 109.99 57.3464C109.941 57.3576 109.863 57.3688 109.747 57.3762C109.982 57.3762 110.202 57.3762 110.393 57.3762C110.583 57.3762 110.687 57.3613 110.751 57.3426C110.743 57.3091 110.732 57.2606 110.71 57.1972C110.404 56.2275 103.019 33.4694 101.934 30.1464L101.833 29.8331L102.064 29.5981C106.883 24.731 113.686 17.9506 116.244 15.3995C116.785 14.8625 117.132 14.5156 117.229 14.4149C117.277 14.3664 117.322 14.3105 117.356 14.262C116.677 14.2284 116.595 14.262 116.595 14.262V14.2657Z" fill="white"/>
<path d="M59.793 14.5198C59.9646 14.654 60.0354 14.71 59.8415 15.2209C59.8154 15.2881 57.9282 20.3305 57.9282 20.3305L58.7823 20.0918C58.7823 20.0918 60.58 15.2881 60.6061 15.2209C60.8 14.71 60.7291 14.654 60.5576 14.5198C60.3077 14.3221 59.4685 13.6508 58.7562 13.0801C58.3758 12.7743 58.2974 12.7034 58.096 12.5505C57.835 12.3491 57.7268 12.8377 57.7193 12.8601C57.8872 12.9943 59.5431 14.3258 59.793 14.5235V14.5198Z" fill="white"/>
<path d="M90.0289 24.9587C90.2527 25.1601 90.2937 25.1937 90.1184 25.6524C90.0625 25.8016 84.4047 40.6715 84.3897 40.6976C84.4904 40.7797 84.5949 40.858 84.6993 40.9401C84.7627 40.9885 84.8186 41.0184 84.8597 41.0184C84.9231 41.0184 85.0723 40.9102 85.1879 40.6156C88.0448 33.4585 90.8233 25.8016 90.8792 25.6524C91.0508 25.1974 91.0135 25.1601 90.7897 24.9587C90.3049 24.5223 88.8466 23.2655 88.2872 22.8776C88.2424 22.844 88.1977 22.8291 88.1641 22.8291C88.1007 22.8291 88.0447 22.9074 88.0298 22.9298C87.9851 23.0007 87.9366 23.0753 87.8844 23.1461C88.5557 23.672 89.6224 24.5969 90.0252 24.955L90.0289 24.9587Z" fill="white"/>
<path d="M71.1422 26.4017C70.7096 26.0474 69.352 24.9397 68.7776 24.5182C68.6956 24.4585 68.6061 24.4287 68.4942 24.4287C68.3524 24.4287 68.1958 24.4735 68.0429 24.5369C68.6284 24.9732 69.9562 26.0511 70.3813 26.4017C70.5865 26.5695 70.635 26.6105 70.4559 27.0805C70.3925 27.2446 69.0014 30.5826 69.0014 30.5826C69.0685 30.5192 70.5455 28.7439 70.5455 28.7439C70.5455 28.7439 71.1534 27.2446 71.2168 27.0805C71.3958 26.6105 71.3473 26.5695 71.1422 26.4017Z" fill="white"/>
<path d="M80.1828 26.3086C79.8434 26.0139 78.3441 24.7608 77.7361 24.2983C77.6914 24.2647 77.6429 24.2461 77.5795 24.2461C77.4639 24.2461 77.3072 24.2983 77.1431 24.3953C77.1357 24.399 77.1282 24.4065 77.1208 24.4102C77.7958 24.9361 79.1086 26.0363 79.4219 26.3086C79.6382 26.495 79.683 26.5361 79.5077 26.9948C79.1347 27.9794 76.6546 34.3869 76.6284 34.4578C76.6173 34.4839 76.6061 34.5062 76.5949 34.5323C76.7105 34.6256 76.8149 34.7114 76.9044 34.7822C76.9641 34.8307 77.0238 34.8605 77.0611 34.8605C77.1245 34.8605 77.2737 34.7524 77.3893 34.4615C77.4191 34.3906 79.8956 27.9832 80.2685 26.9985C80.4438 26.5361 80.3991 26.4988 80.1828 26.3123V26.3086Z" fill="white"/>
<path d="M48.9921 44.0917C49.0853 44.1625 49.1674 44.2259 49.2457 44.2819C49.2793 44.308 49.3054 44.3154 49.3352 44.3154C49.4918 44.3154 49.7343 44.1401 49.8648 43.9723C55.9739 36.2595 61.1841 30.9597 65.7977 27.5695L67.2634 26.5252L67.573 25.7383C67.573 25.7383 65.8797 26.8758 65.0331 27.5695C56.8951 34.238 49.0294 44.0506 48.9883 44.0917H48.9921Z" fill="white"/>
<path d="M94.1091 14.1909C94.5828 14.7615 94.773 15.6007 94.6238 16.4846C94.3403 18.1927 92.9455 19.6286 91.435 19.8338C91.5431 19.8487 91.6513 19.8599 91.7632 19.8599H91.8266C93.4489 19.8189 95.0154 18.3046 95.3175 16.4846C95.4629 15.5969 95.2765 14.7615 94.8028 14.1909C94.4 13.706 93.8107 13.4375 93.1469 13.4375H93.0835C92.9828 13.4375 92.882 13.4487 92.7776 13.4636C93.3072 13.5382 93.7697 13.7881 94.1054 14.1909H94.1091Z" fill="white"/>
<path d="M52.897 57.6859C50.6965 60.9866 45.1692 66.6406 30.1091 72.9176C45.7361 67.3232 51.6774 60.7516 53.7772 57.5068L52.897 57.6859Z" fill="white"/>
<path d="M56.4774 26.0957L55.6531 26.2561C53.7772 31.1307 50.4914 39.5969 50.4914 39.5969C50.5772 39.4962 52.1249 37.3591 52.1249 37.3591C52.8224 35.5801 54.5678 31.0561 56.4774 26.0994V26.0957Z" fill="white"/>
<path d="M155.879 28.7591L156.535 29.1954C157.248 26.719 156.129 24.6864 153.324 23.4332C152.455 23.0453 151.575 22.8477 150.713 22.8477C150.59 22.8477 150.467 22.8551 150.344 22.8626C151.079 22.9111 151.825 23.105 152.563 23.4332C155.2 24.6118 156.349 26.4766 155.883 28.7553L155.879 28.7591Z" fill="white"/>
<path d="M100.908 45.1883C37.1431 47.2694 11.8228 63.8736 3.10303 71.7021C11.8527 64.0974 39.4331 47.4596 101.076 45.6769L100.912 45.1846L100.908 45.1883Z" fill="white"/>
<path d="M159.265 54.172C159.004 53.2024 158.135 50.0508 157.952 49.3198C157.908 49.1445 157.773 48.9021 157.098 48.8014C141.154 46.4816 123.517 45.1613 107.409 45.083L107.595 45.5977C123.498 45.7133 140.83 47.0261 156.528 49.3124C157.203 49.4093 157.337 49.6555 157.382 49.8308C157.546 50.4835 158.225 52.945 158.583 54.2728C158.732 54.2989 158.881 54.3212 159.03 54.3473C159.097 54.3585 159.213 54.3772 159.303 54.3772C159.303 54.3324 159.288 54.2653 159.262 54.172H159.265Z" fill="white"/>
<path d="M85.6392 15.3955C85.6392 15.3955 85.449 15.8729 85.449 16.1116C85.449 16.1116 62.2322 18.2076 35.9198 28.2664C35.9198 28.2664 56.8466 18.7335 85.6392 15.3955Z" fill="white"/>
<path d="M14.0121 28.0656C13.2849 27.4949 12.4084 26.2418 12.4867 24.9961C11.3044 26.5476 12.5538 28.5579 13.5347 29.3262C14.5044 30.087 36.4755 48.3583 41.5217 52.5541C42.0215 52.4161 42.5212 52.2819 43.0284 52.1476C43.0284 52.1476 15.1086 28.9196 14.0121 28.0618V28.0656Z" fill="#005F9E"/>
<path d="M45.6988 17.891C45.1021 17.4807 45.4005 16.7497 45.4005 16.7497L47.366 12.084C47.1869 12.1026 46.4373 12.2555 46.4373 12.2555C41.4098 13.3856 26.6667 18.5959 18.7823 25.4621L19.3716 25.9469C27.5021 19.7073 40.7683 15.0565 45.4825 13.9973L43.6849 18.0476C43.6849 18.0476 43.3865 18.7786 43.9832 19.1889C44.4569 19.5134 45.8667 20.3451 46.9445 20.994C47.4256 21.2849 47.8844 21.4229 48.2723 20.442C48.3506 20.2406 48.4587 19.9721 48.5856 19.6588C48.5483 19.6364 48.5072 19.6178 48.4699 19.5917C47.3921 18.939 46.1725 18.2155 45.6988 17.891Z" fill="#005F9E"/>
<path d="M98.5809 33.5408C98.5809 33.5408 98.2452 34.3875 97.7977 35.5175C98.4914 37.7068 99.6364 41.3021 100.737 44.6551C101.24 44.6401 101.747 44.629 102.251 44.6178C100.382 38.9823 98.5772 33.5371 98.5772 33.5371L98.5809 33.5408Z" fill="#005F9E"/>
<path d="M91.6177 37.5533C91.7781 37.0871 98.5399 19.7183 100.36 15.0488C100.065 15.0488 99.8228 15.0488 99.6587 15.0488C99.0546 15.0488 98.8047 15.3136 98.6741 15.6381C98.6741 15.6381 89.9245 38.0679 89.7417 38.605C89.559 39.1421 89.3352 39.5337 90.0364 40.1043C91.0993 40.9658 92.0615 41.7975 92.58 42.2041C93.1021 42.6143 93.6317 42.3421 93.904 41.6558C93.9823 41.4619 94.0793 41.2195 94.1874 40.9397C93.6392 40.4922 92.8112 39.7873 91.9086 39.0563C91.2075 38.4894 91.4312 38.0978 91.614 37.557L91.6177 37.5533Z" fill="#005F9E"/>
<path d="M30.2918 73.4284C18.1893 77.7622 8.98089 77.8331 8.17529 77.7883C7.12354 77.7324 5.93753 77.7697 4.92308 76.9417C4.04289 76.2293 2.66667 75.1291 1.9021 74.4951C1.4993 74.1594 1.33893 73.8088 1.32401 73.4657C0.667599 74.0997 -0.242424 75.2447 0.94732 76.2368C1.70816 76.8746 3.08811 77.9711 3.96457 78.6834C4.98275 79.5114 6.16504 79.4704 7.21678 79.53C8.02238 79.5748 17.2009 79.4181 29.3333 75.1701C45.4676 69.5235 52.7441 62.8811 54.7468 59.2895C55.0751 58.745 54.7021 58.0811 54.3515 57.6074C51.9944 61.3519 45.5534 67.9645 30.2844 73.4284H30.2918Z" fill="#005F9E"/>
<path d="M106.335 56.8505C106.186 56.4365 105.309 53.8183 104.198 50.4766C86.262 50.5922 69.3408 52.4794 56.3916 55.0565C55.9553 55.1386 55.448 55.243 54.8998 55.3549C55.131 55.6607 55.2131 56.153 54.7618 56.9288C55.0005 56.8803 55.228 56.8355 55.4368 56.7945C68.386 54.2211 85.3072 52.3339 103.243 52.2183C104.354 55.56 105.231 58.1782 105.38 58.5922C105.458 58.8048 105.675 59.6439 106.413 59.6439C106.876 59.6439 108.535 59.6663 109.441 59.6663C110.486 59.6663 110.411 59.215 110.277 58.7861C110.206 58.5586 110.113 58.2677 110.005 57.9283C109.076 57.9246 107.771 57.9059 107.372 57.9059C106.633 57.9059 106.413 57.0705 106.338 56.8579L106.335 56.8505Z" fill="#005F9E"/>
<path d="M109.71 52.3073C124.028 52.6952 141.139 54.2094 158.109 57.1297C158.486 57.1931 159.235 57.305 158.956 56.2831C158.896 56.0668 158.807 55.7274 158.698 55.3283C141.24 52.3409 123.655 50.8453 109.136 50.5283C109.337 51.1474 109.527 51.7404 109.71 52.3073Z" fill="#005F9E"/>
<path d="M47.3063 58.2413C47.3063 58.2413 47.9963 57.4842 48.3469 56.8203C48.2163 56.8539 48.097 56.88 48 56.9061C24.8653 62.2954 13.1879 69.6352 7.79115 73.1224C7.79115 73.1224 8.5035 73.1746 9.66341 73.0814C15.9217 69.2585 27.2671 63.2763 46.8662 58.6926C47.0228 58.5397 47.172 58.3867 47.31 58.2413H47.3063Z" fill="#005F9E"/>
<path d="M110.657 15.2694C110.4 15.2582 110.206 15.2507 110.12 15.247C109.669 15.2321 109.128 15.4074 108.811 15.6274C108.091 16.1272 106.738 17.5929 103.496 21.0428C103.138 21.9528 102.758 22.9225 102.363 23.937C105.097 21.0279 108.666 17.261 110.657 15.2694Z" fill="#005F9E"/>
<path d="M57.2569 25.5888C65.3576 23.7762 75.0135 22.1091 85.0499 21.4526C84.9343 20.9305 84.8821 20.3748 84.9007 19.793C75.1329 20.5016 65.7641 22.1463 57.8984 23.9179C57.6932 24.455 57.4769 25.0144 57.2569 25.5888Z" fill="#005F9E"/>
<path d="M73.7044 33.8538C73.007 33.2757 73.227 32.8915 73.4098 32.3544C73.4732 32.1717 74.7487 29.4416 75.3865 27.7969C74.6256 28.4048 71.5524 30.8738 69.0089 35.2561C70.3664 33.4248 71.8098 31.9069 72.8019 30.9596C72.8019 30.9596 71.7128 33.3428 71.6494 33.5293C71.4667 34.0663 71.2503 34.4505 71.944 35.0286C72.8578 35.7857 74.2564 36.9158 74.8196 37.367C75.338 37.781 75.8713 37.5088 76.1473 36.8188C76.1473 36.8188 76.2555 36.5428 76.4308 36.0915C76.3674 36.0617 76.304 36.0207 76.2443 35.9722C75.6811 35.5209 74.6144 34.6183 73.7007 33.8575L73.7044 33.8538Z" fill="#005F9E"/>
<path d="M53.4825 21.5201C54.7767 18.0739 55.7949 15.3886 56.3804 13.8483C56.3469 13.8222 56.3133 13.7998 56.2872 13.7774C55.6382 13.259 55.1832 13.9341 55.0527 14.2548C55.0527 14.2548 53.9152 17.2199 52.1399 21.9378C52.9902 21.6693 53.4825 21.5164 53.4825 21.5164V21.5201Z" fill="#005F9E"/>
<path d="M61.2774 42.4985C60.5837 41.9204 60.8 41.54 60.9827 40.9992C61.0163 40.9022 61.1879 40.492 61.5347 39.6043C61.7772 38.974 62.0643 38.2393 62.3664 37.4784C62.9706 35.9381 65.4135 29.8141 66.1221 28.0127C62.3776 30.7614 57.9096 35.181 53.0611 40.932C57.1413 36.5348 60.5389 33.4728 63.7464 30.8845C63.0378 32.6859 59.2597 42.1591 59.2261 42.2523C59.0434 42.7894 58.8233 43.1735 59.5207 43.7516C60.4345 44.5087 62.0531 45.6798 62.6014 46.1162C63.1198 46.5302 63.6755 46.202 63.9515 45.512C64.0597 45.2472 64.1641 44.9899 64.2648 44.74C64.1119 44.74 63.9515 44.684 63.7949 44.5572C63.2466 44.1209 62.1911 43.2556 61.2774 42.4947V42.4985Z" fill="#005F9E"/>
<path d="M48.4625 45.289C47.9366 44.8936 46.9221 44.1141 45.8965 43.2899C45.1916 42.723 45.4191 42.3314 45.6019 41.7906C45.6802 41.5631 49.1413 32.6904 52.0019 25.3281C44.345 27.1929 37.0984 29.7328 36.1697 30.0722C35.6923 30.2475 35.0061 30.4712 34.6182 30.1803L34.2079 29.8484C33.8424 30.0088 33.4807 30.1692 33.1263 30.3295C32.7646 30.4936 32.2648 30.8256 32.8242 31.2395L33.6671 31.9183C34.055 32.2092 34.7413 31.9855 35.2186 31.8102C36.1473 31.4708 42.4615 29.0465 50.1184 27.1855C47.2541 34.5477 44.0503 42.6894 43.972 42.9169C43.7893 43.454 43.5618 43.8493 44.2667 44.4162C45.2923 45.2368 46.4559 46.2624 46.9855 46.6577C47.4928 47.0381 48.1044 46.5458 48.3543 46.2512C48.5967 45.964 48.8392 45.6806 49.0779 45.4009C48.8765 45.4531 48.6601 45.4381 48.4625 45.289Z" fill="#005F9E"/>
<path d="M145.883 35.3232C146.812 36.7144 146.92 38.1801 146.566 39.3922C147.737 38.0943 148.282 35.7521 146.834 33.5852C145.309 31.2953 144.421 29.1358 145.093 26.6333C145.13 26.4953 145.171 26.361 145.22 26.2305C144.727 26.8496 144.354 27.5731 144.142 28.375C143.47 30.8776 144.358 33.0407 145.883 35.327V35.3232Z" fill="#005F9E"/>
<path d="M142.37 42.7823C138.48 40.8466 137.622 38.2881 137.734 36.6396C137.469 36.662 137.193 36.8634 136.981 37.4191C136.433 38.8401 136.649 42.152 141.415 44.524C144.668 46.1427 148.89 46.2247 150.982 42.7823C151.209 42.4093 151.388 42.0252 151.523 41.641C149.326 44.4681 145.421 44.304 142.366 42.786L142.37 42.7823Z" fill="#005F9E"/>
<path d="M153.473 28.5208C153.037 28.2112 152.709 28.0024 152.772 27.6331C152.895 26.9133 153.063 26.1264 152.075 25.7683C151.09 25.4103 149.688 26.615 149.207 28.2933C149.803 27.6331 150.534 27.2975 151.12 27.5063C152.108 27.8644 151.94 28.6513 151.817 29.3711C151.754 29.7404 152.078 29.9455 152.518 30.2588C153.041 30.6318 154.361 31.5977 155.077 32.1236C155.375 32.3436 155.715 32.1646 155.871 31.773C156.047 31.3366 156.173 30.904 156.248 30.4751C156.173 30.4676 156.099 30.4378 156.028 30.3856C155.312 29.8597 153.995 28.8938 153.473 28.5208Z" fill="#005F9E"/>
<path d="M127.922 28.9829C127.929 28.9605 130.003 23.7764 130.585 22.3144C130.484 22.236 130.398 22.1652 130.327 22.113C129.615 21.5647 129.242 22.3255 129.011 22.9074C129.011 22.9074 126.202 29.9339 126.195 29.96C124.986 33.0109 123.181 35.3903 121.29 36.9642C123.778 35.6029 126.381 32.8803 127.922 28.9829Z" fill="#005F9E"/>
<path d="M124.58 39.7467C124.42 39.6125 124.278 39.5341 124.2 39.4223C122.495 40.2353 119.94 41.0745 116.923 40.8321C112.418 40.4703 110.486 38.2549 109.848 36.1477C109.848 36.1477 108.733 35.9164 108.091 35.5733C107.67 35.3458 107.413 35.1631 107.219 34.9355C106.596 34.9952 106.141 35.0101 105.667 35.0101C105.376 35.0101 105.246 35.4167 105.492 35.8232C105.719 36.2036 105.984 36.4274 106.566 36.7407C107.204 37.0838 108.319 37.315 108.319 37.315C108.957 39.4223 110.889 41.6376 115.394 42.0031C118.411 42.2456 120.97 41.4064 122.67 40.5934C122.749 40.7052 122.89 40.7836 123.051 40.9178C124.11 41.8055 125.001 42.5216 125.579 42.943C126.117 43.3309 126.631 43.081 126.903 42.3948C126.986 42.1934 127.064 41.9957 127.142 41.8017C127.127 41.7943 127.116 41.7868 127.101 41.7756C126.519 41.3542 125.632 40.6381 124.572 39.7505L124.58 39.7467Z" fill="#005F9E"/>
<path d="M120.895 23.4812C120.649 23.306 119.806 23.8915 118.885 24.768C118.892 24.768 118.896 24.7717 118.904 24.7791C119.332 25.085 118.352 27.2668 116.725 29.7992C116.293 30.4705 115.61 31.6864 114.674 32.671C116.461 31.8095 118.076 29.4934 118.717 28.5013C120.347 25.9726 121.324 23.7871 120.895 23.4812Z" fill="#005F9E"/>
<path d="M137.067 30.9486C136.369 30.3742 136.586 29.9901 136.772 29.4493C136.835 29.2665 138.104 26.5178 138.745 24.873C138.469 25.0968 137.88 25.5668 137.123 26.2903C136.459 27.95 135.31 30.4413 135.25 30.6166C135.064 31.1537 134.848 31.5416 135.545 32.1159C136.563 32.9551 137.466 33.7383 138.081 34.212C138.607 34.6148 139.133 34.35 139.409 33.6637C139.409 33.6637 139.498 33.4399 139.64 33.067C139.629 33.0595 139.618 33.0521 139.607 33.0446C138.991 32.571 138.085 31.784 137.07 30.9486H137.067Z" fill="#005F9E"/>
<path d="M113.589 23.0755C113.76 22.9039 113.932 22.7436 114.103 22.5869C113.417 23.0233 112.735 23.5753 112.063 24.2429C110.12 26.1785 108.274 29.5352 107.927 33.8205C108.334 33.8018 108.793 33.7645 109.397 33.6937C109.509 28.9086 111.493 25.1678 113.589 23.0755Z" fill="#005F9E"/>
<path d="M81.1077 38.5675C81.2308 38.202 83.9385 31.3731 85.669 26.9125C85.669 26.9125 84.483 25.9018 83.7259 25.3125C83.3156 25.4207 82.8531 25.4691 82.331 25.4281C81.462 25.361 81.4172 25.9764 81.8685 26.3232C82.607 26.8864 83.9534 28.0314 83.9534 28.0314C82.2266 32.492 79.5189 39.3246 79.3921 39.6864C79.2093 40.2235 78.993 40.6076 79.6867 41.1857C80.552 41.9018 81.7604 42.8566 82.2862 43.2705C82.8084 43.6808 83.338 43.4123 83.6103 42.7223C83.6998 42.4985 83.7893 42.2747 83.8751 42.0547C83.3007 41.6034 82.2042 40.7344 81.3986 40.0668C80.7012 39.4887 80.9175 39.1083 81.104 38.5675H81.1077Z" fill="#005F9E"/>
<path d="M90.6219 22.6352C92.4494 22.5905 94.2098 21.0986 94.814 19.1854C93.9786 20.1923 92.7925 20.8674 91.5767 20.8935C89.5478 20.942 88.2051 19.1891 88.5781 16.9774C88.6154 16.7574 88.6713 16.5448 88.7385 16.3359C88.179 17.011 87.7762 17.8315 87.627 18.7192C87.2541 20.9308 88.5967 22.6837 90.6256 22.6352H90.6219Z" fill="#005F9E"/>
<path d="M38.1501 28.9677C37.4639 29.1989 36.9902 29.363 36.8037 29.4339C36.3263 29.6092 35.6401 29.833 35.2522 29.5421L34.4093 28.8633C34.2601 28.7514 34.1855 28.6469 34.1669 28.5462C34.1371 28.5612 34.1072 28.5724 34.0774 28.5873C33.7156 28.7514 33.2159 29.0833 33.7753 29.4973L34.6182 30.1761C35.0061 30.467 35.6923 30.2432 36.1697 30.0679C37.0984 29.7323 44.3413 27.1887 52.0019 25.3239C49.1413 32.6861 45.6802 41.5588 45.6019 41.7863C45.4191 42.3234 45.1916 42.7187 45.8965 43.2856C46.9221 44.1062 47.9366 44.8894 48.4625 45.2847C48.9697 45.6651 49.5888 45.1803 49.8312 44.8782C49.8984 44.7924 49.9692 44.7066 50.0364 44.6208C49.7566 44.7924 49.4061 44.8819 49.1002 44.6507C48.5744 44.2553 47.8434 43.7108 46.8177 42.8903C46.1128 42.3234 46.3403 41.9318 46.5231 41.391C46.5939 41.1784 50.0774 32.1192 52.7888 25.1299L57.9021 23.9141C66.0662 22.0754 75.8415 20.3747 86.0084 19.7108C85.9636 19.5169 85.9301 19.3155 85.904 19.1104C84.3189 19.1999 63.3585 20.494 38.1538 28.9714L38.1501 28.9677Z" fill="#A7A9AC"/>
<path d="M95.09 40.5112C94.5716 40.1046 93.8406 39.5266 92.7776 38.665C92.0765 38.0981 92.3002 37.7065 92.483 37.1657C92.6359 36.7144 99.3939 19.3382 101.464 14.0011C101.665 13.479 102.031 13.3373 102.139 13.3037C102.008 13.3037 101.889 13.3037 101.788 13.3037C101.184 13.3037 100.934 13.5685 100.804 13.893C100.804 13.893 91.8005 37.0091 91.614 37.5461C91.4312 38.0832 91.2075 38.4748 91.9086 39.0454C92.9716 39.907 93.9338 40.7387 94.4522 41.1452C94.952 41.5368 95.4555 41.3056 95.7427 40.6827C95.5375 40.7349 95.3137 40.6827 95.09 40.5112Z" fill="#A7A9AC"/>
<path d="M143.004 42.2711C138.238 39.8991 138.007 36.5835 138.57 35.1662C138.626 35.0208 138.73 34.9424 138.827 34.9014C138.517 34.8604 138.186 35.0245 137.932 35.6772C137.384 37.0981 137.6 40.41 142.366 42.7783C145.145 44.162 148.625 44.4194 150.885 42.327C148.643 43.8562 145.529 43.528 143 42.2711H143.004Z" fill="#A7A9AC"/>
<path d="M134.307 26.19C134.545 25.9587 137.544 23.1578 140.476 21.5168C140.729 21.375 140.957 21.3862 141.057 21.4012C141.031 21.3788 141.001 21.3601 140.979 21.3415C140.569 21.0245 139.994 21.3303 139.677 21.5168C136.821 23.1876 134.911 25.0562 134.665 25.2986C134.661 25.3135 134.657 25.3284 134.65 25.3433C134.572 25.5597 134.303 26.19 134.303 26.19H134.307Z" fill="#A7A9AC"/>
<path d="M128.873 28.6922C128.884 28.6661 131.536 22.02 131.685 21.6545C131.83 21.2778 132.144 21.1994 132.144 21.1994C132.114 21.1733 132.08 21.1472 132.05 21.1286C131.338 20.5803 130.965 21.3412 130.734 21.923C130.734 21.923 127.925 28.9496 127.918 28.9757C126.117 33.5295 122.864 36.4796 120.041 37.5276C123.047 36.8489 126.862 33.7682 128.869 28.6885L128.873 28.6922Z" fill="#A7A9AC"/>
<path d="M114.379 22.5014C115.066 21.8189 116.017 21.2594 116.718 20.8193C115.67 21.3042 114.614 22.0501 113.585 23.072C111.489 25.1643 109.501 28.9051 109.393 33.6902C109.691 33.6678 109.848 33.5932 110.247 33.5485C110.169 28.5918 112.28 24.5937 114.379 22.5014Z" fill="#A7A9AC"/>
<path d="M113.037 13.9973C113.585 13.546 114.245 13.587 114.245 13.587C113.831 13.5684 113.51 13.5534 113.391 13.5497C112.94 13.5348 112.399 13.7101 112.082 13.9301C111.314 14.4635 106.074 19.987 102.366 23.9329C102.113 24.5744 101.852 25.242 101.583 25.9283C104.91 22.3889 111.228 15.7166 113.044 13.9973H113.037Z" fill="#A7A9AC"/>
<path d="M51.3343 27.0132L57.2457 25.6146C57.4545 25.0738 57.7007 24.4174 57.8984 23.9102C53.5758 24.8948 52.0019 25.3237 52.0019 25.3237C51.8601 25.6854 51.4797 26.644 51.338 27.0132H51.3343Z" fill="#939598"/>
<path d="M114.312 2.70312L113.559 5.64578L113.615 5.91058L114.995 5.95907L114.312 2.70312Z" fill="#005F9E"/>
<path d="M92.4345 7.23155L94.9594 7.10101L94.9744 6.0791L92.4494 6.20964L92.4345 7.23155Z" fill="#005F9E"/>
<path d="M115.428 7.85824L113.055 7.77246L112.776 8.88388L114.283 8.93983L114.674 10.7412L118.516 10.8792L118.184 9.74542L115.819 9.65964L115.428 7.85824Z" fill="#005F9E"/>
<path d="M111.362 1.53978L110.583 1.51367L107.629 10.4871L111.467 10.6251L111.746 9.51367L108.774 9.40551L111.362 1.53978Z" fill="#005F9E"/>
<path d="M92.483 3.6735L95.6121 3.50939L95.627 2.49121L92.4979 2.65158L92.483 3.6735Z" fill="#005F9E"/>
<path d="M88.8205 1.91699L87.6904 1.97294L87.5599 11.0508L95.5114 10.6368L95.5263 9.61489L88.7049 9.96921L88.8205 1.91699Z" fill="#005F9E"/>
<path d="M70.1837 5.25098L69.4564 8.25331L69.5273 8.57778L70.8625 8.3652L70.1837 5.25098Z" fill="#005F9E"/>
<path d="M67.338 4.43066L66.4839 4.56493L63.5599 14.0866L67.3604 13.4824L67.5804 12.55L64.7049 13.0088L67.338 4.43066Z" fill="#005F9E"/>
<path d="M71.2876 10.1738L68.9417 10.5505L68.7217 11.4829L70.1427 11.2554L70.5305 12.9748L74.331 12.3668L74.0662 11.5128L71.6755 11.8932L71.2876 10.1738Z" fill="#005F9E"/>
<path d="M81.4695 3.50222L80.9399 3.55444L80.9249 4.63229C81.324 4.76656 81.5179 5.13206 81.5105 5.7288L81.4732 8.37682C81.4732 8.48125 81.4657 8.58194 81.4508 8.67518C82.2154 8.57821 82.607 8.11947 82.6182 7.29896L82.6555 4.65094C82.6667 3.80805 82.2713 3.4239 81.4695 3.50595V3.50222Z" fill="#005F9E"/>
<path d="M77.158 11.0505L77.2737 2.94238L76.1436 3.05427L76.013 12.1284L82.7002 11.4571C83.7594 11.3489 84.4718 10.9088 84.841 10.1368C84.5501 10.2599 84.2219 10.3419 83.8452 10.3792L77.158 11.0505Z" fill="#005F9E"/>
<path d="M99.2261 1.47656L98.096 1.48775L97.9655 10.5619L105.928 10.491L105.943 9.42062L99.1105 9.48029L99.2261 1.47656Z" fill="#005F9E"/>
<path d="M134.572 11.1248L127.888 10.4162L128 2.53927L126.874 2.41992L126.743 11.494L133.427 12.2027C134.609 12.3295 135.362 11.9453 135.683 11.0577C135.366 11.1435 134.997 11.1696 134.568 11.1211L134.572 11.1248Z" fill="#005F9E"/>
<path d="M143.161 6.36563L146.256 6.82437L146.275 5.57495L143.176 5.11621L143.161 6.36563Z" fill="#005F9E"/>
<path d="M132.196 3.73661L131.666 3.68066L131.648 4.99348C132.047 5.2098 132.244 5.6126 132.237 6.20934L132.2 8.85736C132.2 8.87973 132.2 8.89838 132.2 8.92076C132.953 8.97297 133.333 8.59255 133.348 7.77577L133.386 5.12775C133.397 4.28486 133.001 3.81866 132.2 3.73288L132.196 3.73661Z" fill="#005F9E"/>
<path d="M139.524 3.87113L138.398 3.70703L138.271 12.7812L146.156 13.9485L146.171 12.6991L139.413 11.6996L139.524 3.87113Z" fill="#005F9E"/>
<path d="M143.109 9.92422L145.607 10.2935L145.626 9.04777L143.127 8.6748L143.109 9.92422Z" fill="#005F9E"/>
<path d="M121.857 2.06252L120.731 1.98047L120.6 11.0583L124.289 11.3231L124.304 10.1632L121.745 9.97674L121.857 2.06252Z" fill="#005F9E"/>
<path d="M88.7049 9.96914L96.6564 9.55515L96.6825 7.61203L92.4233 7.83208L92.4457 6.2097L96.1007 6.01949L96.1305 4.07637L92.4755 4.26658L92.4979 2.65166L96.7571 2.43161L96.7832 0.481029L88.8317 0.895015L88.7012 9.96914H88.7049ZM83.9758 1.30527L77.2886 1.9766L77.158 11.0507L83.8452 10.3794C85.4489 10.219 86.262 9.29408 86.2881 7.60457L86.344 3.59898C86.3702 1.90947 85.5795 1.1449 83.9758 1.30527ZM82.6182 7.29874C82.607 8.14163 82.2005 8.60411 81.3986 8.68616L80.869 8.73837L80.9436 3.55795L81.4732 3.50574C82.275 3.42369 82.6704 3.80784 82.6592 4.65073L82.6219 7.29874H82.6182ZM67.6326 3.48709L64.7086 13.0088L68.5054 12.4046L68.9417 10.5547L71.2876 10.1817L71.6755 11.9011L75.476 11.2932L72.8168 2.66285L67.6326 3.49082V3.48709ZM69.3781 8.60411L70.1874 5.25119L70.8625 8.36541L69.3744 8.60411H69.3781ZM134.702 2.04746L128.019 1.33884L127.888 10.413L134.572 11.1216C136.175 11.2931 136.988 10.5323 137.011 8.8428L137.067 4.83721C137.089 3.1477 136.302 2.21529 134.698 2.04746H134.702ZM133.345 7.77613C133.333 8.61902 132.927 8.99944 132.125 8.91366L131.595 8.85772L131.67 3.6773L132.2 3.73324C133.001 3.81902 133.397 4.2815 133.386 5.12812L133.348 7.77613H133.345ZM147.401 5.73977L147.431 3.78919L139.547 2.62182L139.416 11.6959L147.301 12.8633L147.331 10.9202L143.109 10.2936L143.131 8.67124L146.756 9.2083L146.782 7.26518L143.157 6.72812L143.179 5.1132L147.401 5.73977ZM102.937 0.37287L99.241 0.406437L99.1105 9.48056L107.073 9.40597L107.103 7.46285L102.836 7.50014L102.937 0.369141V0.37287ZM121.745 9.9766L125.434 10.2414L125.565 1.16728L121.876 0.902474L121.745 9.9766ZM111.728 0.432544L108.774 9.40597L112.615 9.54397L113.059 7.7724L115.431 7.85819L115.823 9.65958L119.664 9.79758L116.975 0.619024L111.735 0.428814L111.728 0.432544ZM113.492 5.9076L114.312 2.70387L114.999 5.95982L113.496 5.9076H113.492Z" fill="url(#paint1_linear_10548_20798)"/>
</g>
<defs>
<linearGradient id="paint0_linear_10548_20798" x1="1.32401" y1="41.9058" x2="159.966" y2="41.9058" gradientUnits="userSpaceOnUse">
<stop stop-color="#C9C9C9"/>
<stop offset="0.04" stop-color="#DDDDDD"/>
<stop offset="0.09" stop-color="#F0F0F0"/>
<stop offset="0.14" stop-color="#FBFBFB"/>
<stop offset="0.2" stop-color="white"/>
<stop offset="0.25" stop-color="#EEEEEE"/>
<stop offset="0.36" stop-color="#C3C3C3"/>
<stop offset="0.39" stop-color="#B3B3B3"/>
<stop offset="0.43" stop-color="#CBCBCB"/>
<stop offset="0.47" stop-color="#E7E7E7"/>
<stop offset="0.52" stop-color="#F8F8F8"/>
<stop offset="0.55" stop-color="white"/>
<stop offset="0.58" stop-color="#FCFCFC"/>
<stop offset="0.6" stop-color="#F4F4F4"/>
<stop offset="0.62" stop-color="#E6E6E6"/>
<stop offset="0.63" stop-color="#D3D3D3"/>
<stop offset="0.65" stop-color="#B3B3B3"/>
<stop offset="0.67" stop-color="#C7C7C7"/>
<stop offset="0.7" stop-color="#DFDFDF"/>
<stop offset="0.73" stop-color="#F1F1F1"/>
<stop offset="0.77" stop-color="#FBFBFB"/>
<stop offset="0.81" stop-color="#FAFAFA"/>
<stop offset="0.84" stop-color="#DBDBDB"/>
<stop offset="0.86" stop-color="#C5C5C5"/>
<stop offset="0.89" stop-color="#B7B7B7"/>
<stop offset="0.91" stop-color="#B3B3B3"/>
<stop offset="0.92" stop-color="#C0C0C0"/>
<stop offset="0.94" stop-color="#DCDCDC"/>
<stop offset="0.96" stop-color="#EFEFEF"/>
<stop offset="0.98" stop-color="#FBFBFB"/>
<stop offset="1" stop-color="white"/>
</linearGradient>
<linearGradient id="paint1_linear_10548_20798" x1="64.7049" y1="6.69082" x2="147.427" y2="6.69082" gradientUnits="userSpaceOnUse">
<stop stop-color="#C9C9C9"/>
<stop offset="0.04" stop-color="#DDDDDD"/>
<stop offset="0.09" stop-color="#F0F0F0"/>
<stop offset="0.14" stop-color="#FBFBFB"/>
<stop offset="0.2" stop-color="white"/>
<stop offset="0.25" stop-color="#EEEEEE"/>
<stop offset="0.36" stop-color="#C3C3C3"/>
<stop offset="0.39" stop-color="#B3B3B3"/>
<stop offset="0.43" stop-color="#CBCBCB"/>
<stop offset="0.47" stop-color="#E7E7E7"/>
<stop offset="0.52" stop-color="#F8F8F8"/>
<stop offset="0.55" stop-color="white"/>
<stop offset="0.58" stop-color="#FCFCFC"/>
<stop offset="0.6" stop-color="#F4F4F4"/>
<stop offset="0.62" stop-color="#E6E6E6"/>
<stop offset="0.63" stop-color="#D3D3D3"/>
<stop offset="0.65" stop-color="#B3B3B3"/>
<stop offset="0.67" stop-color="#C7C7C7"/>
<stop offset="0.7" stop-color="#DFDFDF"/>
<stop offset="0.73" stop-color="#F1F1F1"/>
<stop offset="0.77" stop-color="#FBFBFB"/>
<stop offset="0.81" stop-color="#FAFAFA"/>
<stop offset="0.84" stop-color="#DBDBDB"/>
<stop offset="0.86" stop-color="#C5C5C5"/>
<stop offset="0.89" stop-color="#B7B7B7"/>
<stop offset="0.91" stop-color="#B3B3B3"/>
<stop offset="0.92" stop-color="#C0C0C0"/>
<stop offset="0.94" stop-color="#DCDCDC"/>
<stop offset="0.96" stop-color="#EFEFEF"/>
<stop offset="0.98" stop-color="#FBFBFB"/>
<stop offset="1" stop-color="white"/>
</linearGradient>
<clipPath id="clip0_10548_20798">
<rect width="160" height="79.8135" fill="white"/>
</clipPath>
</defs>
</svg>
