<svg width="200" height="200" viewBox="0 0 200 200" fill="none" xmlns="http://www.w3.org/2000/svg">
<path d="M16.8 147.865C15.2822 147.865 11.533 147.701 9.52648 146.187C9.28 146.001 9.02054 145.789 8.74811 145.564C8.60108 145.443 8.4454 145.313 8.28973 145.188C8.03027 144.981 7.76648 144.773 7.50703 144.57C6.91892 144.107 6.36108 143.67 5.95027 143.285C4.05189 141.499 4.08216 139.16 4.18162 138.239V138.213C4.32865 136.505 5.10703 134.996 6.49946 133.724C15.7751 125.257 30.0324 117.932 47.7795 112.509C41.6086 107.376 35.2303 102.096 30.0627 97.8151C24.2811 93.0238 20.4584 89.8627 20.0649 89.5081C18.0065 87.6659 16.7178 85.9492 16.6443 83.0692C16.5924 81.0627 17.4919 79.2032 19.2432 77.694C35.9135 63.3243 62.3135 57.1146 62.573 57.0584C63.0184 56.9589 63.4638 56.907 63.8962 56.907C65.0681 56.907 66.1838 57.2746 67.1178 57.9708C67.5546 58.2951 72.96 62.7621 78.1924 67.0908C79.1265 67.8649 79.7449 68.3751 79.7924 68.414C80.4843 68.9546 81.2627 69.8584 81.3924 71.2162C94.4822 68.2108 105.864 67.1297 105.976 67.1211L108.411 66.8919C109.872 65.6249 111.654 64.907 113.444 64.8681C113.505 64.8681 113.557 64.8681 113.613 64.8681C115.736 64.8681 117.397 65.5513 118.69 66.9567C118.871 67.1557 119.217 67.5794 119.555 67.9903C119.602 68.0465 119.645 68.1027 119.693 68.1589L119.749 68.0162C120.419 66.3513 121.937 65.3611 123.801 65.3611C124.099 65.3611 124.519 65.3611 124.977 65.3524C125.561 65.3524 126.205 65.3438 126.768 65.3438C127.33 65.3438 127.758 65.3524 128.117 65.3654C130.893 65.4735 132.039 66.9221 132.545 67.8778C133.492 66.9567 133.747 66.7794 133.942 66.6454C134.832 66.027 136.078 65.6378 137.185 65.6378C137.245 65.6378 137.302 65.6378 137.358 65.6378C137.682 65.6508 141.903 65.8238 142.253 65.8584C144.454 66.0919 146.123 67.4194 146.962 69.6076C147.507 71.0303 147.031 72.414 146.292 73.3957C147.373 73.573 148.402 73.9232 149.366 74.4378C151.036 75.333 152.947 77.2097 154.006 78.4465L154.456 77.3221C155.52 74.6108 157.358 74.2086 158.357 74.2086C159.23 74.2086 160.056 74.5027 160.804 75.0821C161.371 75.5189 162.595 76.5049 163.369 77.1276C164.277 76.4703 165.211 75.8605 166.154 75.3113C166.785 74.9438 167.65 74.52 168.757 74.52C169.643 74.52 170.478 74.8054 171.17 75.3416C171.827 75.8519 173.864 77.5038 174.37 77.9232C176.095 76.5524 178.257 75.8043 180.523 75.8043C182.223 75.8043 183.766 76.1459 185.111 76.8205C192.519 80.5394 193.526 86.3297 192 90.507C191.472 91.9513 190.045 93.4043 188.043 93.4043C187.33 93.4043 186.59 93.2227 185.838 92.8681C188.722 97.8065 187.351 101.698 186.102 103.752C185.734 104.358 185.31 104.916 184.835 105.422C186.045 105.582 187.286 105.746 188.489 105.936C192.428 106.563 193.661 109.253 194.045 110.801C194.24 111.575 195.299 115.519 195.689 116.959C196.151 118.671 195.632 119.835 195.114 120.514C194.997 120.665 193.894 122.01 191.295 122.01C190.776 122.01 190.227 121.953 189.661 121.845C174.962 119.039 157.172 117.171 138.154 116.44C138.651 117.992 139.001 119.074 139.209 119.731C139.628 121.063 139.468 122.286 138.75 123.264C137.989 124.302 136.813 124.829 135.256 124.829C134.897 124.829 134.443 124.829 133.972 124.821H133.929C133.881 124.825 133.834 124.829 133.786 124.829C133.198 124.829 132.342 124.821 131.602 124.812H131.403C130.906 124.803 130.486 124.799 130.279 124.799C129.565 124.799 127.157 124.561 126.132 121.517L126.123 121.486C125.994 121.128 125.401 119.363 124.359 116.241C106.85 116.565 88.9513 118.364 73.8595 121.322C73.7384 121.612 73.5913 121.902 73.4227 122.187C71.3816 125.828 64.3589 135.134 43.4422 142.624C29.1978 147.722 18.3308 147.869 17.1373 147.869H17.0941C17.0378 147.869 16.9427 147.869 16.813 147.869L16.8 147.865Z" fill="white"/>
<path d="M109.358 62.5114L118.577 62.0314L118.608 59.7784L113.669 60.0335L113.695 58.1524L117.933 57.9319L117.968 55.6789L113.73 55.8995L113.756 54.027L118.694 53.7719L118.729 51.5103L109.509 51.9903L109.358 62.5114ZM103.875 52.466L96.1211 53.2443L95.9697 63.7654L103.723 62.987C105.583 62.8011 106.525 61.7287 106.556 59.7654L106.621 55.1211C106.651 53.1622 105.734 52.2757 103.875 52.4616V52.466ZM102.301 59.4151C102.288 60.3924 101.816 60.9287 100.886 61.0238L100.272 61.0843L100.359 55.0779L100.973 55.0173C101.903 54.9265 102.361 55.3676 102.348 56.3449L102.305 59.4151H102.301ZM84.9254 54.9957L81.5351 66.0357L85.9416 65.3352L86.4476 63.1903L89.1676 62.7579L89.6173 64.7514L94.0238 64.0508L90.9405 54.0443L84.9297 55.0043L84.9254 54.9957ZM86.9492 60.9287L87.8876 57.0411L88.6703 60.6519L86.9449 60.9287H86.9492ZM162.694 53.3265L154.945 52.5049L154.794 63.026L162.543 63.8476C164.402 64.0465 165.345 63.1643 165.371 61.2054L165.436 56.5611C165.462 54.6022 164.549 53.5254 162.69 53.3265H162.694ZM161.12 59.9687C161.107 60.946 160.636 61.387 159.706 61.2876L159.092 61.2227L159.178 55.2162L159.792 55.2811C160.722 55.3806 161.181 55.9168 161.168 56.8984L161.124 59.9687H161.12ZM177.418 57.6076L177.449 55.346L168.307 53.9924L168.156 64.5135L177.297 65.867L177.332 63.6141L172.437 62.8876L172.463 61.0065L176.666 61.6292L176.696 59.3762L172.493 58.7535L172.519 56.8811L177.414 57.6076H177.418ZM125.864 51.3806L121.578 51.4195L121.427 61.9406L130.659 61.8541L130.694 59.6011L125.747 59.6487L125.864 51.3806ZM147.671 62.5157L151.948 62.8227L152.099 52.3016L147.823 51.9946L147.671 62.5157ZM136.056 51.4497L132.627 61.8541L137.081 62.0141L137.596 59.96L140.346 60.0595L140.8 62.1481L145.254 62.3081L142.136 51.666L136.061 51.4454L136.056 51.4497ZM138.102 57.7979L139.053 54.0833L139.849 57.8584L138.106 57.7979H138.102Z" fill="white"/>
<path d="M191.183 115.259C190.863 114.075 189.734 109.884 189.526 109.058C189.319 108.232 188.441 108.051 188.017 107.99C168.701 105.179 147.957 103.744 130.058 103.666C128.009 97.3611 125.821 90.6368 124.562 86.7838C131.33 79.947 141.488 69.8411 142.145 69.1838C142.521 68.8076 142.945 67.9946 142.041 67.9427C141.786 67.9297 137.782 67.7438 137.245 67.7265C136.722 67.7092 136.095 67.9124 135.728 68.1676C134.837 68.7859 128.761 75.1903 124.463 79.7654C126.742 73.9622 128.566 69.2876 128.774 68.7384C129.094 67.8951 128.701 67.4843 127.965 67.4497C127.191 67.4108 124.817 67.4497 123.801 67.4497C123.101 67.4497 122.811 67.7568 122.659 68.133C122.659 68.133 112.221 94.9351 112.004 95.5578C111.792 96.1805 111.533 96.6389 112.346 97.2962C113.578 98.2951 114.694 99.2595 115.295 99.7308C115.901 100.206 116.515 99.8908 116.835 99.0951C117.686 96.9589 120.078 90.9092 120.078 90.9092C120.078 90.9092 122.166 97.2227 124.337 103.757C102.448 104.219 80.5492 106.697 63.0054 110.684L27.5503 81.5384C36.6876 73.5773 53.7859 67.5362 59.6151 66.2259C59.6151 66.2259 60.4843 66.0486 60.6919 66.027L58.413 71.4368C58.413 71.4368 58.067 72.2843 58.7589 72.76C59.3081 73.1362 60.7222 73.9795 61.9719 74.7319C62.5297 75.0692 63.0616 75.2292 63.5113 74.0919C64.3286 72.0205 67.6454 63.8432 68.0086 62.8443C68.2897 62.0789 68.1297 61.7546 67.6886 61.3784C67.0443 60.8249 65.8551 59.9038 65.2454 59.4454C64.813 59.1211 64.1686 58.8703 63.2562 59.0778C60.0259 59.8 36.3849 66.014 21.2886 79.0303C19.1524 80.8724 20.7784 83.5795 22.0238 84.5567C23.2951 85.5513 55.667 112.483 55.667 112.483C34.7762 118.01 18.7459 125.755 8.61405 135C7.86594 135.683 6.49081 137.141 7.98702 138.39C8.86918 139.125 10.4692 140.401 11.4854 141.227C12.6659 142.183 14.0368 142.139 15.2562 142.209C16.1903 142.261 26.867 142.178 40.8995 137.154C59.6367 130.446 66.9103 122.248 69.2367 118.079C69.8032 117.145 69.7081 116.557 69.4313 116.194C70.0627 116.059 70.6551 115.943 71.1611 115.843C86.1751 112.855 105.795 110.671 126.59 110.533C127.879 114.408 128.895 117.443 129.068 117.923C129.159 118.17 129.41 119.138 130.266 119.138C130.802 119.138 132.726 119.164 133.777 119.164C134.988 119.164 134.902 118.641 134.746 118.139C134.352 116.894 133.449 114.088 132.316 110.589C149.267 110.957 169.825 112.717 190.205 116.224C190.642 116.297 191.511 116.427 191.187 115.242L191.183 115.259ZM60.6227 119.545C57.4313 122.914 49.8032 128.401 39.174 131.938C28.2465 135.575 20.6486 136.431 17.1113 136.738C15.6843 136.864 14.8065 136.799 14.8065 136.799C21.0638 132.756 34.6032 124.245 61.427 117.997C61.5395 117.966 61.6735 117.936 61.8249 117.897C61.4184 118.671 60.6184 119.545 60.6184 119.545H60.6227ZM45.2886 85.1708C44.8692 85.3611 44.2897 85.7459 44.9384 86.2259L45.9157 87.013C46.3654 87.3503 47.1611 87.0908 47.7146 86.8876C48.7913 86.494 57.1892 83.5492 66.0713 81.387C62.7503 89.9232 58.7416 100.211 58.6508 100.475C58.4389 101.097 58.1751 101.556 58.9924 102.213C60.1816 103.164 61.3578 104.072 61.9676 104.531C62.5557 104.972 63.2735 104.41 63.5546 104.059C70.6205 95.1384 77.1589 88.3795 82.4432 84.4962C81.6216 86.5849 78.7849 93.6897 78.0886 95.4713C77.7384 96.3535 77.4054 97.2054 77.1243 97.9405C76.7222 98.9697 76.5232 99.4454 76.4843 99.5578C76.2724 100.181 76.0173 100.626 76.8259 101.296C77.8854 102.174 79.1092 103.177 79.7449 103.688C80.3459 104.168 80.9903 103.787 81.3103 102.987C82.5557 99.8865 83.5113 97.7027 83.853 96.8551C86.9103 89.2789 92.0951 85.1232 93.1849 84.2497C92.4411 86.1567 90.9665 89.3222 90.893 89.534C90.6811 90.1568 90.4303 90.6022 91.2346 91.2724C92.294 92.1503 93.5265 93.2011 94.1838 93.72C94.7849 94.2 95.4032 93.8843 95.7232 93.0843C95.7232 93.0843 98.9967 84.7038 99.4378 83.5492C99.7578 82.7059 99.5805 82.4162 99.1654 82.0573C98.7416 81.6854 97.0032 80.2368 96.294 79.6962C95.84 79.3503 95.2822 79.5535 94.9103 79.7697C91.5978 81.707 88.7524 84.4659 88.467 84.747C88.467 84.747 88.8476 83.8951 88.9427 83.6443C89.2627 82.8011 89.094 82.5027 88.6703 82.1524C88.2249 81.7849 86.5946 80.4573 85.9027 79.947C85.1416 79.3849 84.1211 80.0032 83.5113 80.4011C78.2703 83.8432 71.8097 88.9676 67.2476 94.4076C68.4454 91.3589 71.0054 84.7167 72.9124 79.7524C82.374 77.6205 93.7124 75.6486 105.501 74.8789C105.289 73.9319 105.258 72.8854 105.444 71.7827C105.596 70.8832 105.881 70.0184 106.27 69.2054C103.066 69.5038 88.5751 71.2249 74.694 75.1124C76.0865 71.4584 76.5059 70.2346 76.6357 69.8973C76.9557 69.054 76.813 68.7081 76.3805 68.3665C75.9351 68.0162 73.8897 66.373 73.2281 65.8411C72.4757 65.24 71.9481 66.0227 71.7967 66.3946C71.7967 66.3946 70.2097 70.5416 67.7967 76.9676C67.7967 76.9676 54.4389 81.0411 45.2973 85.1708H45.2886ZM172.432 98.6497C171.187 98.053 170.755 96.9978 170.863 96.1978C170.923 95.7524 170.902 95.3113 170.266 94.8443C169.336 94.1567 168.048 93.2486 167.252 92.7038C166.811 92.4011 166.145 92.2411 165.704 93.3913C165.068 95.0389 165.319 98.8789 170.845 101.629C174.616 103.506 179.511 103.601 181.937 99.6097C183.831 96.4876 182.936 92.9935 179.853 89.4865C176.692 85.893 180.112 81.1838 182.093 81.9016C183.239 82.3167 183.044 83.2292 182.902 84.0638C182.828 84.4919 183.204 84.7297 183.715 85.093C184.32 85.5254 185.851 86.6454 186.681 87.2551C187.027 87.5103 187.421 87.3027 187.602 86.8486C188.891 83.6313 187.952 80.4876 183.801 78.6324C179.274 76.6086 175.044 79.013 173.998 82.9005C173.219 85.8022 174.253 88.3103 176.022 90.9611C178.832 95.1773 175.157 99.96 172.432 98.654V98.6497ZM132.614 91.0865C131.472 91.2162 130.785 91.2551 130.058 91.2508C129.721 91.2508 129.57 91.7222 129.855 92.1935C130.119 92.6346 130.426 92.8941 131.101 93.2573C131.84 93.6551 133.133 93.9232 133.133 93.9232C133.872 96.3665 136.112 98.9351 141.336 99.3546C144.835 99.6357 147.801 98.6627 149.773 97.72C149.864 97.8497 150.028 97.9405 150.214 98.0962C151.442 99.1254 152.476 99.9557 153.146 100.449C153.769 100.898 154.365 100.613 154.681 99.813C155.926 96.7124 156.956 94.3081 157.302 93.4605C160.359 85.8843 165.544 81.7286 166.633 80.8551C165.89 82.7622 164.419 85.9449 164.346 86.1611C164.13 86.7838 163.879 87.2335 164.688 87.8995C165.868 88.8681 166.915 89.7805 167.628 90.3297C168.238 90.7967 168.848 90.4897 169.168 89.694C169.168 89.694 172.199 81.9449 172.64 80.7859C172.96 79.9427 172.787 79.6443 172.368 79.294C171.922 78.9222 169.89 77.2789 169.237 76.7686C168.761 76.4011 168.099 76.7557 167.728 76.9719C164.415 78.9092 162.201 81.0757 161.916 81.3567C161.916 81.3567 162.227 80.6259 162.318 80.3751C162.564 79.6962 162.443 79.3805 162.002 79.0216C161.57 78.667 159.594 77.0757 158.88 76.5222C158.054 75.8865 157.622 76.7686 157.354 77.4432C157.354 77.4432 154.097 85.5903 154.084 85.6205C151.373 92.4789 145.825 96.1978 142.214 96.0292C139.2 95.8908 138.854 93.8368 138.854 93.8368C145.669 93.0843 149.392 89.3135 151.005 84.2065C152.272 80.1978 150.599 77.5989 147.883 76.1676C144.861 74.5719 141.008 75.2422 137.462 78.7795C135.031 81.2054 132.731 85.5427 132.601 91.0908L132.614 91.0865ZM141.354 83.3416C142.85 81.2097 145.453 78.8919 145.946 79.2465C146.443 79.6011 145.306 82.1308 143.421 85.067C142.642 86.2735 140.627 89.1622 138.443 90.0357C138.633 88.0205 139.892 85.4303 141.358 83.3459L141.354 83.3416ZM103.222 80.2065C102.214 80.1286 102.162 80.8422 102.69 81.2443C103.546 81.8973 105.107 83.2249 105.107 83.2249C103.105 88.3967 99.9654 96.3189 99.8184 96.7384C99.6065 97.3611 99.3513 97.8065 100.16 98.4767C101.163 99.307 102.564 100.414 103.174 100.894C103.779 101.37 104.394 101.058 104.709 100.258C108.614 90.4854 111.299 83.1513 111.736 81.9924C112.056 81.1492 111.87 80.8638 111.464 80.5005C110.997 80.0811 109.219 78.5373 108.502 78.04C108.043 77.7243 107.568 77.8757 107.312 78.2865C106.789 79.1427 105.449 80.3838 103.217 80.2065H103.222ZM111.952 76.2497C114.305 76.1935 116.562 74.0703 116.995 71.5059C117.427 68.9416 115.87 66.9092 113.518 66.9654C111.165 67.0216 108.908 69.1449 108.476 71.7092C108.043 74.2735 109.6 76.3059 111.952 76.2497Z" fill="#0085CA"/>
<path d="M138.439 90.0314C138.439 90.0314 141.561 89.1881 144.636 84.4011C146.521 81.4649 147.581 79.2724 147.053 78.8703C146.603 78.5243 145.851 78.9222 145.211 79.4238C145.215 79.4238 145.228 79.4238 145.245 79.4238C145.574 79.2292 145.821 79.1557 145.946 79.2422C146.443 79.5968 145.306 82.1265 143.421 85.0627C142.642 86.2692 140.627 89.1579 138.443 90.0314H138.439ZM111.948 76.2454C113.345 76.2108 114.703 75.4497 115.671 74.2995C114.802 75.026 113.756 75.48 112.688 75.506C110.335 75.5622 108.778 73.5297 109.211 70.9654C109.388 69.9233 109.868 68.9546 110.534 68.1676C109.492 69.0411 108.709 70.3038 108.476 71.7049C108.043 74.2692 109.6 76.3016 111.952 76.2454H111.948ZM138.863 93.8368C141.488 93.547 143.654 92.8076 145.414 91.7179C143.896 92.4443 141.133 93.2876 138.768 93.3697C138.768 93.3697 138.806 93.6638 138.858 93.8368H138.863ZM182.093 81.893C183.239 82.3081 183.044 83.2206 182.902 84.0551C182.828 84.4833 183.204 84.7211 183.715 85.0843C184.32 85.5168 185.851 86.6368 186.681 87.2465C187.027 87.5016 187.421 87.2941 187.602 86.84C187.615 86.8097 187.624 86.7838 187.637 86.7535C187.563 86.7362 187.49 86.7103 187.421 86.6584C186.59 86.0487 185.064 84.9287 184.454 84.4962C183.944 84.1373 183.568 83.8951 183.641 83.467C183.784 82.6324 183.978 81.72 182.832 81.3049C182.184 81.0714 181.388 81.4173 180.709 82.1135C181.185 81.8368 181.674 81.7416 182.093 81.893ZM175.559 97.8411C177.462 96.6779 178.763 93.3784 176.757 90.3643C174.988 87.7092 173.955 85.2054 174.733 82.3038C175.075 81.0281 175.762 79.9168 176.688 79.0649C175.39 79.9557 174.426 81.3006 173.998 82.8962C173.219 85.7978 174.253 88.306 176.022 90.9568C177.756 93.56 177.021 96.3751 175.563 97.8454L175.559 97.8411ZM106.084 82.6843C106.084 82.6843 104.277 81.1579 103.421 80.5049C103.304 80.4141 103.217 80.3103 103.161 80.2022C102.21 80.1546 102.171 80.8508 102.685 81.2443C103.542 81.8973 105.103 83.2249 105.103 83.2249C103.101 88.3968 99.9611 96.3189 99.8141 96.7384C99.6022 97.3611 99.3514 97.8065 100.156 98.4768C101.159 99.307 102.56 100.414 103.17 100.894C103.745 101.348 104.333 101.08 104.662 100.358C104.424 100.418 104.164 100.358 103.905 100.159C103.295 99.6789 102.145 98.7708 101.142 97.9406C100.333 97.2703 100.588 96.8292 100.8 96.2022C100.943 95.7784 104.082 87.8606 106.089 82.6887L106.084 82.6843ZM150.759 97.2616C150.452 97.4087 150.162 97.547 149.777 97.7243C149.764 97.8757 152.48 99.96 153.15 100.449C153.643 100.808 154.123 100.695 154.456 100.237C154.391 100.207 154.322 100.168 154.257 100.116C153.583 99.627 152.554 98.7968 151.325 97.7676C151.139 97.6119 150.854 97.387 150.763 97.2573L150.759 97.2616ZM168.104 79.627C167.831 79.8433 167.304 80.267 166.616 80.8984C165.842 82.7622 164.411 85.9838 164.35 86.1654C164.134 86.7881 163.883 87.2378 164.692 87.9038C165.872 88.8724 166.923 89.7849 167.632 90.3341C168.156 90.7405 168.735 90.5892 169.09 89.8627C168.886 90.0011 168.683 89.9578 168.614 89.906C167.901 89.3568 166.975 88.5395 165.795 87.5665C164.986 86.9006 165.241 86.4551 165.453 85.8281C165.526 85.6162 167.356 81.5297 168.099 79.6227L168.104 79.627ZM22.0195 84.5611C23.2 85.4822 51.6238 109.132 55.6627 112.488C56.0692 112.375 56.4757 112.267 56.8865 112.159C56.8865 112.159 24.026 84.8206 22.7546 83.826C21.6216 82.9395 20.186 80.6346 21.5092 78.84C21.4314 78.9049 21.3535 78.9697 21.28 79.0346C19.1438 80.8768 20.7697 83.5838 22.0151 84.5611H22.0195ZM15.9914 141.474C14.7676 141.409 13.3968 141.452 12.2205 140.492C11.2043 139.666 9.60433 138.39 8.71784 137.655C7.58055 136.708 8.09947 135.64 8.73947 134.883C8.69622 134.922 8.64866 134.961 8.60541 135C7.8573 135.683 6.48217 137.141 7.97839 138.39C8.86055 139.125 10.4605 140.401 11.4768 141.227C12.6573 142.183 14.0281 142.139 15.2476 142.209C16.1816 142.261 26.8584 142.178 40.8908 137.154C53.9546 132.479 61.4487 127.078 65.5741 122.823C61.3146 126.952 53.9503 132.008 41.6303 136.418C27.5978 141.443 16.9211 141.525 15.987 141.474H15.9914ZM130.08 118.274C127.914 111.739 120.605 89.5557 120.605 89.5557L120.074 90.9049C120.074 90.9049 128.891 117.452 129.064 117.932C129.155 118.178 129.405 119.147 130.262 119.147C130.383 119.147 130.569 119.147 130.802 119.147C130.314 118.948 130.145 118.442 130.08 118.265V118.274ZM14.3178 136.682L11.9697 138.451L17.2324 136.734C17.2065 136.734 17.1805 136.738 17.1546 136.743C15.7276 136.868 14.8497 136.803 14.8497 136.803C14.88 136.786 14.9103 136.764 14.9405 136.743C14.9276 136.743 14.9146 136.743 14.906 136.743C21.2022 132.674 34.7416 124.219 61.427 118.005C61.5395 117.975 61.6735 117.945 61.8292 117.906C61.8292 117.906 61.8292 117.906 61.8292 117.91C63.4551 117.517 66.1578 116.89 69.4357 116.211C69.4357 116.211 69.4357 116.211 69.4357 116.206C70.067 116.072 70.6595 115.956 71.1654 115.856C85.7254 112.959 104.61 110.818 124.705 110.568L124.424 109.668C115.654 109.616 51.7838 110.17 14.3265 136.691L14.3178 136.682ZM141.341 99.3589C143.801 99.5579 145.989 99.1341 147.762 98.5416C146.214 98.9481 144.415 99.186 142.443 99.0303C137.219 98.6108 134.979 96.0378 134.24 93.5946C134.24 93.5946 132.943 93.3265 132.203 92.9287C131.529 92.5654 131.222 92.306 130.958 91.8649C130.819 91.64 130.789 91.4151 130.824 91.2379C130.56 91.2508 130.309 91.2551 130.054 91.2508C129.717 91.2508 129.565 91.7222 129.851 92.1935C130.115 92.6346 130.422 92.8941 131.096 93.2573C131.836 93.6551 133.129 93.9233 133.129 93.9233C133.868 96.3665 136.108 98.9352 141.332 99.3546L141.341 99.3589ZM191.239 115.545C191.131 115.536 191.023 115.519 190.936 115.506C170.556 111.995 149.016 110.213 132.065 109.845C132.147 110.105 132.229 110.356 132.311 110.606C149.072 111.022 170.21 112.799 190.201 116.241C190.595 116.31 191.351 116.418 191.239 115.545ZM60.6876 66.027L58.4087 71.4368C58.4087 71.4368 58.0627 72.2843 58.7546 72.76C59.3038 73.1362 60.7178 73.9795 61.9676 74.7319C62.4995 75.0519 63.0097 75.2119 63.4465 74.2389C63.2087 74.2649 62.9578 74.1481 62.707 73.9968C61.4573 73.24 60.0433 72.4011 59.4941 72.0249C58.8022 71.5492 59.1481 70.7016 59.1481 70.7016L61.267 65.6724L62.6033 62.5589L60.2811 65.0887C54.1751 66.5287 37.2324 72.4616 28.3546 80.8595C37.6605 73.24 53.9503 67.5016 59.6108 66.2303C59.6108 66.2303 60.48 66.053 60.6876 66.0314V66.027ZM83.7103 83.1816C82.7849 83.8606 79.8832 86.5027 79.8832 86.5027C79.8832 86.5027 81.7773 84.9806 82.4389 84.4962C81.6173 86.5849 76.5189 99.4454 76.48 99.5578C76.2681 100.181 76.013 100.626 76.8216 101.296C77.8811 102.174 79.1049 103.177 79.7405 103.688C80.3027 104.137 80.9081 103.83 81.2454 103.125C80.9989 103.199 80.7351 103.156 80.4757 102.948C79.84 102.442 78.8368 101.672 77.7773 100.795C76.9687 100.124 77.2238 99.6833 77.4357 99.0562C77.4746 98.9438 82.8887 85.2703 83.7103 83.1816ZM91.226 91.2724C92.2854 92.1503 93.5178 93.2011 94.1751 93.72C94.7503 94.1784 95.3384 93.906 95.667 93.1838C95.4292 93.2443 95.1697 93.1838 94.9103 92.9849C94.2573 92.466 93.3622 91.7135 92.3027 90.8357C91.4984 90.1654 91.7492 89.72 91.9611 89.0973C92.0346 88.8854 94.5384 82.8487 94.5384 82.8487C94.1189 83.186 92.4497 84.6822 91.1611 86.0141C92.1038 85.106 92.8389 84.5178 93.1762 84.2454C92.4324 86.1524 90.9578 89.3178 90.8843 89.5297C90.6724 90.1524 90.4173 90.5978 91.226 91.2681V91.2724ZM72.5838 66.2C72.7135 65.88 73.0076 65.8151 73.1633 65.8022C72.4411 65.2833 71.9308 66.027 71.7838 66.3946C71.7838 66.3946 70.0714 70.8703 67.7838 76.9676C68.1211 76.8638 68.64 76.6606 68.64 76.6606C71.053 70.2303 72.4065 66.6411 72.5881 66.2H72.5838Z" fill="#1C75BC"/>
<path d="M69.2324 118.083C69.7946 117.154 69.7038 116.57 69.4314 116.206C66.1535 116.885 63.4508 117.517 61.8249 117.906C61.4184 118.676 60.6227 119.549 60.6227 119.549C60.5838 119.592 60.1816 120.012 60.1384 120.055C63.1524 119.307 69.2324 118.083 69.2324 118.083Z" fill="#005F9E"/>
<path d="M122.569 103.796L124.696 110.559C125.328 110.55 125.955 110.546 126.59 110.542L124.337 103.752C123.749 103.765 123.161 103.778 122.573 103.796H122.569Z" fill="#005F9E"/>
<path d="M127.044 68.0811C127.347 68.2281 127.274 68.6043 127.174 68.8724C126.971 69.4087 123.87 77.3827 121.544 83.307L122.759 82.3946C125.085 76.4703 127.978 69.0584 128.186 68.5222C128.285 68.2584 128.147 68.0897 127.931 68.0811C127.71 68.0681 127.286 68.0811 127.049 68.0811H127.044Z" fill="url(#paint0_linear_752_171)"/>
<path d="M146.72 76.7167C148.722 77.7762 150.837 79.8994 149.535 84.0162C147.814 89.4562 143.905 92.5524 137.911 93.214L137.254 93.2876L137.362 93.9405C137.379 94.0443 137.834 96.4962 141.31 96.6562C141.397 96.6562 141.488 96.6605 141.578 96.6605C141.725 96.6605 141.872 96.6519 142.024 96.6432C138.703 96.4097 138.266 94.04 138.249 93.9405L138.141 93.2876L138.798 93.214C144.791 92.5524 148.701 89.4562 150.422 84.0162C151.723 79.8994 149.609 77.7762 147.606 76.7167C146.668 76.2238 145.656 75.973 144.601 75.973C144.454 75.973 144.303 75.9773 144.151 75.9903C145.051 76.0508 145.911 76.2973 146.72 76.7211V76.7167Z" fill="url(#paint1_linear_752_171)"/>
<path d="M160.726 79.5016C160.956 79.6919 161.008 79.7308 160.848 80.1546C160.778 80.3492 159.269 84.2627 159.183 84.466L160.592 83.1125C160.679 82.9135 161.661 80.3492 161.73 80.1589C161.885 79.7352 161.838 79.6962 161.609 79.506C161.146 79.1254 159.909 78.1741 159.209 77.6422C158.975 77.4606 158.789 77.5427 158.642 77.8584C159.507 78.5416 160.342 79.1903 160.726 79.506V79.5016Z" fill="url(#paint2_linear_752_171)"/>
<path d="M62.2184 110.849L26.5773 81.5513L27.1351 81.067C35.9784 73.3654 50.4086 67.333 59.3384 64.9586C59.4854 64.92 39.4119 68.8551 25.2065 81.6508L60.8562 111.147C60.8562 111.147 61.8508 110.944 62.2184 110.853V110.849Z" fill="url(#paint3_linear_752_171)"/>
<path d="M116.675 97.9535C117.518 95.8432 120.151 88.9978 120.151 88.9978L119.749 87.7784C119.749 87.7784 116.631 95.8432 115.792 97.9535C115.779 97.9838 115.766 98.0141 115.754 98.0443C115.888 98.1524 116.004 98.2519 116.108 98.3297C116.182 98.3859 116.251 98.4205 116.298 98.4205C116.394 98.4205 116.558 98.2562 116.679 97.9535H116.675Z" fill="url(#paint4_linear_752_171)"/>
<path d="M139.952 82.9784C138.24 85.413 137.111 88.0292 136.93 89.9708L136.835 90.9913L137.751 90.6238L137.812 89.9708C137.994 88.0292 139.126 85.4173 140.835 82.9784C141.942 81.3957 144.065 79.1903 145.345 78.6843C145.219 78.6151 145.081 78.5805 144.93 78.5805C143.775 78.5805 141.211 81.1881 139.952 82.9784Z" fill="url(#paint5_linear_752_171)"/>
<path d="M142.573 98.7795C145.384 98.7795 148.437 97.867 150.067 96.7903L149.838 96.4703C149.021 97.1232 144.874 98.6887 142.149 98.7708C142.292 98.7751 142.435 98.7795 142.573 98.7795Z" fill="url(#paint6_linear_752_171)"/>
<path d="M169.894 95.346C168.99 94.68 167.702 93.7719 166.897 93.2184C166.75 93.1146 166.564 93.3222 166.564 93.5989C167.36 94.1524 168.229 94.7708 169.012 95.346C169.423 95.6487 169.397 95.8346 169.358 96.1114C169.228 97.0584 169.652 98.4378 171.278 99.2162C171.667 99.4022 172.082 99.4973 172.51 99.4973C172.662 99.4973 172.813 99.4843 172.964 99.4627C172.688 99.4195 172.419 99.3416 172.164 99.2205C170.538 98.4422 170.115 97.0627 170.244 96.1157C170.283 95.8389 170.309 95.653 169.898 95.3503L169.894 95.346Z" fill="url(#paint7_linear_752_171)"/>
<path d="M154.041 99.2508C154.132 99.2508 154.288 99.1081 154.417 98.7924C155.282 96.6432 156.623 93.4822 156.731 93.2227C158.746 88.2324 162.123 83.666 166.249 80.3622L166.785 79.9297L167.187 78.9005L165.362 80.3622C161.237 83.666 157.855 88.2324 155.844 93.2227C155.741 93.4822 154.396 96.6432 153.531 98.7924C153.513 98.8314 153.501 98.866 153.483 98.9005C153.604 98.9914 153.721 99.0822 153.829 99.1557C153.911 99.2162 153.989 99.2508 154.041 99.2508Z" fill="url(#paint8_linear_752_171)"/>
<path d="M171.083 79.774C171.321 79.973 171.377 80.0205 171.174 80.5611C170.742 81.7027 167.965 88.8162 167.952 88.8465C168.078 88.9459 168.195 89.0454 168.307 89.1232C168.566 89.3178 168.744 89.0886 168.878 88.7557C168.908 88.6778 171.628 81.7027 172.061 80.5611C172.268 80.0205 172.208 79.973 171.97 79.774C171.516 79.3935 169.73 77.9449 169.085 77.4389C169.068 77.4259 169.042 77.413 168.982 77.413C168.809 77.413 168.575 77.5211 168.415 77.6119C169.211 78.2389 170.672 79.4281 171.083 79.774Z" fill="url(#paint9_linear_752_171)"/>
<path d="M181.401 99.2768C183.092 96.4962 182.413 93.3395 179.382 89.893C177.868 88.1719 177.522 85.9103 178.461 83.8433C179.088 82.4551 180.151 81.4692 181.211 81.24C181.072 81.2097 180.93 81.1924 180.783 81.1924C179.581 81.1924 178.292 82.2562 177.574 83.8433C176.64 85.9103 176.986 88.1719 178.495 89.893C181.526 93.3395 182.205 96.4962 180.515 99.2768C179.152 101.517 177.085 102.139 175.438 102.23C175.581 102.239 175.723 102.243 175.862 102.243C177.565 102.243 179.905 101.729 181.397 99.2724L181.401 99.2768Z" fill="url(#paint10_linear_752_171)"/>
<path d="M63.9827 59.9513C64.5968 60.4054 65.773 61.3222 66.3914 61.8541C66.6465 62.0703 66.7114 62.1308 66.5297 62.6324C66.3092 63.2378 62.3092 73.2313 62.2919 73.2746C62.2919 73.2746 62.9276 73.6205 62.9449 73.6205C62.9449 73.6205 67.1957 63.2378 67.4162 62.6324C67.5978 62.1308 67.5287 62.0746 67.2778 61.8541C66.6595 61.3222 65.4789 60.4054 64.8692 59.9513C64.5795 59.7351 64.2595 59.6313 63.8919 59.6313C63.7449 59.6313 63.5849 59.6486 63.4205 59.6832C63.6238 59.7351 63.8097 59.8173 63.987 59.947L63.9827 59.9513Z" fill="url(#paint11_linear_752_171)"/>
<path d="M81.8897 97.7978C81.4141 98.9222 81.0162 99.787 80.1643 101.91C80.1427 101.966 80.1168 102.018 80.0908 102.066C80.2249 102.174 80.3503 102.274 80.4541 102.356C80.5146 102.403 80.5708 102.429 80.6097 102.429C80.7049 102.429 80.9038 102.269 81.0465 101.91C81.9027 99.787 82.2962 98.9222 82.7719 97.7978C82.9924 97.2789 83.1611 96.8811 83.2692 96.6173C85.28 91.6313 88.6616 87.0649 92.787 83.7567L94.6508 82.2259L95.053 81.1967L91.9005 83.7567C87.7751 87.0605 84.3935 91.627 82.3827 96.6173C82.2746 96.8811 82.106 97.2789 81.8897 97.7978Z" fill="url(#paint12_linear_752_171)"/>
<path d="M140.964 68.5654C140.925 68.626 140.874 68.6908 140.817 68.7427C140.705 68.8595 140.298 69.2616 139.676 69.8843C136.709 72.8422 128.822 80.7038 123.235 86.347L122.966 86.6195L123.083 86.9827C124.337 90.8357 132.904 117.223 133.258 118.347C133.28 118.425 133.297 118.477 133.306 118.516C133.25 118.529 133.159 118.542 133.025 118.55C133.297 118.55 133.557 118.55 133.773 118.55C133.989 118.55 134.115 118.533 134.188 118.511C134.179 118.472 134.167 118.416 134.141 118.343C133.786 117.218 125.224 90.8314 123.965 86.9784L123.849 86.6151L124.117 86.3427C129.704 80.6995 137.591 72.8378 140.558 69.88C141.185 69.2573 141.587 68.8551 141.699 68.7384C141.756 68.6822 141.803 68.6173 141.846 68.5611C141.059 68.5222 140.964 68.5611 140.964 68.5611V68.5654Z" fill="url(#paint13_linear_752_171)"/>
<path d="M75.1049 68.8595C75.3038 69.0152 75.3859 69.08 75.1611 69.6724C75.1308 69.7503 72.9427 75.5968 72.9427 75.5968L73.933 75.32C73.933 75.32 76.0173 69.7503 76.0476 69.6724C76.2724 69.08 76.1903 69.0152 75.9913 68.8595C75.7016 68.6303 74.7286 67.8519 73.9027 67.186C73.4616 66.8314 73.3751 66.7492 73.1373 66.5719C72.8346 66.3384 72.7135 66.9092 72.7005 66.9308C72.8951 67.0865 74.8151 68.6303 75.1049 68.8595Z" fill="url(#paint14_linear_752_171)"/>
<path d="M110.158 80.9632C110.417 81.1968 110.465 81.2357 110.262 81.7676C110.197 81.9405 103.637 99.1816 103.619 99.2119C103.736 99.3027 103.857 99.3978 103.978 99.493C104.052 99.5492 104.121 99.5838 104.164 99.5838C104.238 99.5838 104.406 99.4584 104.545 99.1168C107.857 90.8184 111.079 81.9405 111.144 81.7676C111.343 81.24 111.299 81.1968 111.04 80.9632C110.478 80.4573 108.787 79 108.138 78.5503C108.086 78.5113 108.035 78.494 107.996 78.494C107.922 78.494 107.857 78.5849 107.84 78.6108C107.788 78.693 107.732 78.7795 107.671 78.8616C108.45 79.4713 109.686 80.5438 110.154 80.9589L110.158 80.9632Z" fill="url(#paint15_linear_752_171)"/>
<path d="M88.2638 82.6324C87.7622 82.2216 86.1881 80.9373 85.5222 80.4487C85.427 80.3795 85.3232 80.3449 85.1892 80.3449C85.0249 80.3449 84.8432 80.3968 84.6659 80.4703C85.3449 80.9719 86.8843 82.226 87.3773 82.6324C87.6151 82.827 87.6713 82.8746 87.4638 83.4195C87.3903 83.6097 85.7773 87.48 85.7773 87.48C85.8551 87.4065 87.5676 85.3481 87.5676 85.3481C87.5676 85.3481 88.2724 83.6097 88.3459 83.4195C88.5535 82.8746 88.4973 82.827 88.2595 82.6324H88.2638Z" fill="url(#paint16_linear_752_171)"/>
<path d="M98.7459 82.5286C98.3524 82.187 96.6184 80.734 95.9092 80.1935C95.8573 80.1546 95.8011 80.133 95.7276 80.133C95.5935 80.133 95.4119 80.1935 95.2216 80.3059C95.213 80.3103 95.2043 80.3146 95.1957 80.3232C95.9784 80.933 97.5005 82.2086 97.8638 82.5243C98.1146 82.7405 98.1665 82.7838 97.9632 83.32C97.5308 84.4616 94.6551 91.8908 94.6249 91.973C94.6119 92.0032 94.5989 92.0292 94.5859 92.0551C94.72 92.1632 94.8411 92.2627 94.9449 92.3449C95.014 92.4011 95.0832 92.4357 95.1308 92.4357C95.2043 92.4357 95.3773 92.3103 95.5113 91.973C95.5459 91.8908 98.4173 84.4616 98.8497 83.32C99.053 82.7838 99.0011 82.7405 98.7503 82.5243L98.7459 82.5286Z" fill="url(#paint17_linear_752_171)"/>
<path d="M62.5773 103.147C62.6854 103.229 62.7849 103.303 62.8713 103.368C62.9146 103.398 62.9405 103.406 62.9751 103.406C63.1568 103.406 63.4378 103.203 63.5892 103.009C70.6724 94.066 76.7135 87.9211 82.0627 83.9903L83.7622 82.7795L84.1211 81.867C84.1211 81.867 82.1578 83.186 81.1762 83.9903C71.7405 91.7222 62.6205 103.099 62.573 103.147H62.5773Z" fill="url(#paint18_linear_752_171)"/>
<path d="M114.893 68.4746C115.446 69.1362 115.663 70.1092 115.49 71.1341C115.161 73.1146 113.544 74.7795 111.792 75.0173C111.918 75.0346 112.043 75.0476 112.173 75.0476H112.246C114.128 75 115.944 73.2443 116.294 71.1341C116.463 70.1049 116.246 69.1362 115.697 68.4746C115.23 67.9124 114.547 67.6054 113.777 67.6054H113.704C113.587 67.6054 113.47 67.6184 113.349 67.6357C113.963 67.7222 114.499 68.0119 114.889 68.4789L114.893 68.4746Z" fill="url(#paint19_linear_752_171)"/>
<path d="M67.1092 118.909C64.5578 122.736 58.1492 129.292 40.6876 136.565C58.8065 130.079 65.6951 122.459 68.1297 118.697L67.1092 118.905V118.909Z" fill="url(#paint20_linear_752_171)"/>
<path d="M71.2605 82.2822L70.3049 82.4681C68.1297 88.12 64.32 97.9319 64.32 97.9319C64.4195 97.8151 66.2141 95.3373 66.2141 95.3373C67.0227 93.2746 69.0465 88.0292 71.2605 82.2822Z" fill="url(#paint21_linear_752_171)"/>
<path d="M186.512 85.3697L187.274 85.8757C188.099 83.0043 186.798 80.6476 183.546 79.1946C182.538 78.7449 181.518 78.5157 180.519 78.5157C180.376 78.5157 180.234 78.5243 180.091 78.533C180.943 78.5892 181.808 78.8141 182.664 79.1946C185.721 80.5611 187.053 82.7233 186.512 85.3654V85.3697Z" fill="url(#paint22_linear_752_171)"/>
<path d="M122.776 104.418C48.8432 106.831 19.4854 126.083 9.3708 135.16C19.5157 126.343 51.494 107.052 122.966 104.985L122.776 104.414V104.418Z" fill="white"/>
<path d="M190.439 114.836C190.136 113.711 189.129 110.057 188.917 109.21C188.865 109.006 188.709 108.725 187.926 108.609C169.44 105.919 148.99 104.388 130.314 104.297L130.53 104.894C148.969 105.028 169.064 106.55 187.261 109.197C188.043 109.309 188.199 109.595 188.251 109.798C188.441 110.555 189.228 113.409 189.643 114.948C189.816 114.978 189.989 115.004 190.162 115.035C190.24 115.048 190.374 115.069 190.478 115.069C190.478 115.017 190.461 114.939 190.43 114.831L190.439 114.836Z" fill="url(#paint23_linear_752_171)"/>
<path d="M105.072 69.8713C105.072 69.8713 104.852 70.4249 104.852 70.7016C104.852 70.7016 77.933 73.1319 47.4249 84.7946C47.4249 84.7946 71.6887 73.7416 105.072 69.8713Z" fill="url(#paint24_linear_752_171)"/>
<path d="M22.0238 84.5654C21.1762 83.9038 20.1643 82.4508 20.2551 81.0065C18.8843 82.8054 20.333 85.1362 21.4703 86.027C22.5946 86.9092 48.0692 108.094 53.92 112.959C54.4995 112.799 55.0789 112.643 55.667 112.488C55.667 112.488 23.2951 85.5557 22.0238 84.5611V84.5654Z" fill="#A9ABAC"/>
<path d="M58.7589 72.7643C58.067 72.2886 58.413 71.4411 58.413 71.4411L60.6919 66.0313C60.4843 66.053 59.6108 66.2303 59.6108 66.2303C53.7816 67.5405 36.6876 73.5816 27.546 81.5427L28.2292 82.1049C37.6562 74.8703 53.0379 69.4778 58.5038 68.2497L56.4195 72.9459C56.4195 72.9459 56.0735 73.7935 56.7654 74.2692C57.3146 74.6454 58.9492 75.6097 60.1989 76.3622C60.7568 76.6994 61.2887 76.8595 61.7384 75.7222C61.8292 75.4886 61.9546 75.1773 62.1016 74.814C62.0584 74.7881 62.0108 74.7622 61.9676 74.7362C60.7179 73.9794 59.3038 73.1405 58.7546 72.7643H58.7589Z" fill="#A9ABAC"/>
<path d="M120.078 90.9135C120.078 90.9135 119.689 91.8951 119.17 93.2054C119.974 95.7438 121.302 99.9124 122.577 103.8C123.161 103.783 123.749 103.77 124.333 103.757C122.166 97.2227 120.074 90.9092 120.074 90.9092L120.078 90.9135Z" fill="#A9ABAC"/>
<path d="M112.004 95.5665C112.19 95.0259 120.03 74.8876 122.141 69.4735C121.799 69.4735 121.518 69.4735 121.328 69.4735C120.627 69.4735 120.337 69.7805 120.186 70.1568C120.186 70.1568 110.041 96.1632 109.829 96.7859C109.617 97.4086 109.358 97.8627 110.171 98.5243C111.403 99.5232 112.519 100.488 113.12 100.959C113.725 101.435 114.339 101.123 114.659 100.323C114.75 100.098 114.863 99.8173 114.988 99.493C114.352 98.974 113.392 98.1568 112.346 97.3092C111.533 96.6519 111.792 96.1978 112.004 95.5708V95.5665Z" fill="#A9ABAC"/>
<path d="M40.8995 137.162C26.867 142.187 16.1903 142.265 15.2562 142.217C14.0368 142.152 12.6616 142.196 11.4854 141.236C10.4649 140.41 8.86919 139.134 7.98271 138.399C7.51568 138.01 7.32974 137.603 7.31244 137.205C6.55136 137.941 5.49622 139.268 6.87568 140.418C7.75784 141.154 9.35784 142.429 10.3784 143.255C11.5589 144.211 12.9297 144.168 14.1492 144.237C15.0832 144.289 25.7254 144.107 39.7924 139.182C58.4995 132.635 66.9362 124.933 69.2584 120.769C69.6389 120.137 69.2065 119.368 68.8 118.823C66.067 123.164 58.5989 130.831 40.8951 137.166L40.8995 137.162Z" fill="#A9ABAC"/>
<path d="M129.068 117.941C128.895 117.461 127.879 114.425 126.59 110.55C105.795 110.684 86.1751 112.872 71.1611 115.861C70.6551 115.956 70.067 116.077 69.4314 116.206C69.6995 116.561 69.7946 117.132 69.2714 118.031C69.5481 117.975 69.8119 117.923 70.0541 117.876C85.0681 114.888 104.688 112.704 125.483 112.57C126.772 116.444 127.788 119.48 127.961 119.96C128.052 120.206 128.303 121.179 129.159 121.179C129.695 121.179 131.619 121.205 132.67 121.205C133.881 121.205 133.795 120.682 133.639 120.185C133.557 119.921 133.449 119.584 133.323 119.19C132.246 119.186 130.733 119.164 130.27 119.164C129.414 119.164 129.159 118.191 129.072 117.949L129.068 117.941Z" fill="#A9ABAC"/>
<path d="M132.982 112.674C149.583 113.123 169.423 114.879 189.098 118.265C189.535 118.338 190.404 118.468 190.08 117.283C190.011 117.028 189.907 116.639 189.782 116.176C169.539 112.712 149.15 110.978 132.316 110.611C132.549 111.329 132.77 112.021 132.982 112.674Z" fill="#A9ABAC"/>
<path d="M60.627 119.554C60.627 119.554 61.427 118.676 61.8335 117.906C61.6822 117.945 61.5438 117.975 61.4357 118.005C61.4357 118.005 61.4357 118.005 61.4314 118.005C34.6076 124.25 21.0681 132.764 14.8108 136.808C14.8108 136.808 15.6368 136.868 16.9816 136.76C24.2378 132.328 37.3924 125.391 60.1168 120.077C60.2984 119.899 60.4714 119.722 60.6314 119.554H60.627Z" fill="#A9ABAC"/>
<path d="M134.08 69.7243C133.782 69.7113 133.561 69.7027 133.457 69.6984C132.934 69.6811 132.307 69.8843 131.935 70.1394C131.101 70.7232 129.531 72.4184 125.773 76.4184C125.358 77.4735 124.917 78.5978 124.458 79.774C127.628 76.4011 131.766 72.0335 134.076 69.7243H134.08Z" fill="#A9ABAC"/>
<path d="M72.1643 81.6941C81.5568 79.5924 92.7524 77.6595 104.394 76.8984C104.259 76.293 104.199 75.6487 104.221 74.9741C92.8908 75.8 82.0324 77.7027 72.9124 79.7568C72.6746 80.3795 72.4238 81.0281 72.1687 81.6941H72.1643Z" fill="#A9ABAC"/>
<path d="M91.2346 91.2767C90.4303 90.6065 90.6811 90.1611 90.893 89.5384C90.9665 89.3265 92.4454 86.1611 93.1849 84.254C92.307 84.9589 88.7395 87.8216 85.7903 92.9027C87.3643 90.7794 89.0378 89.0194 90.1881 87.9211C90.1881 87.9211 88.9254 90.6843 88.8562 90.9005C88.6443 91.5232 88.3892 91.9686 89.1979 92.6389C90.2573 93.5167 91.8789 94.8313 92.5319 95.3502C93.133 95.8302 93.7514 95.5146 94.0714 94.7146C94.0714 94.7146 94.1968 94.3946 94.4 93.8713C94.3265 93.8367 94.253 93.7892 94.1838 93.7329C93.5308 93.214 92.2941 92.1632 91.2346 91.2854V91.2767Z" fill="#A9ABAC"/>
<path d="M67.7881 76.9719C69.2886 72.9762 70.4692 69.8627 71.1481 68.0767C71.1092 68.0465 71.0703 68.0205 71.04 67.9946C70.2876 67.3935 69.7557 68.1719 69.6086 68.5481C69.6086 68.5481 68.2897 71.9859 66.2314 77.4562C67.2173 77.1449 67.7881 76.9676 67.7881 76.9676V76.9719Z" fill="#A9ABAC"/>
<path d="M76.826 101.301C76.0216 100.63 76.2724 100.189 76.4843 99.5621C76.5232 99.4497 76.7222 98.974 77.12 97.9448C77.4011 97.214 77.7341 96.3621 78.0843 95.4757C78.7849 93.6897 81.6173 86.5892 82.4389 84.5005C78.0973 87.6875 72.9168 92.8119 67.2908 99.48C72.0216 94.3859 75.9611 90.8357 79.68 87.8302C78.8584 89.9189 74.4778 100.903 74.4432 101.011C74.2314 101.633 73.9762 102.079 74.7849 102.749C75.8443 103.627 77.7211 104.981 78.3568 105.491C78.9578 105.971 79.6022 105.59 79.9222 104.79C80.0476 104.483 80.1687 104.185 80.2854 103.895C80.1038 103.895 79.9222 103.83 79.7405 103.683C79.1049 103.177 77.8811 102.174 76.8216 101.292L76.826 101.301Z" fill="#A9ABAC"/>
<path d="M61.9676 104.535C61.3578 104.077 60.1816 103.173 58.9924 102.217C58.1751 101.56 58.4389 101.106 58.6508 100.479C58.7416 100.215 62.7546 89.9276 66.0714 81.3914C57.1935 83.5535 48.7914 86.4984 47.7146 86.8919C47.1611 87.0908 46.3654 87.3546 45.9157 87.0173L45.44 86.6368C45.0162 86.8227 44.5968 87.0087 44.1816 87.1946C43.7622 87.3849 43.1827 87.7697 43.8314 88.2497L44.8087 89.0368C45.2584 89.3741 46.0541 89.1146 46.6076 88.9114C47.68 88.5178 55.0054 85.707 63.8832 83.5492C60.5665 92.0854 56.8476 101.525 56.7568 101.789C56.5405 102.412 56.2811 102.87 57.0984 103.528C58.2876 104.479 59.6368 105.668 60.2508 106.126C60.8389 106.568 61.5481 105.997 61.8378 105.655C62.1232 105.322 62.4 104.994 62.6768 104.669C62.4433 104.73 62.1924 104.712 61.9632 104.539L61.9676 104.535Z" fill="#A9ABAC"/>
<path d="M174.919 92.9805C175.996 94.5935 176.121 96.293 175.71 97.6984C177.068 96.1935 177.699 93.4778 176.022 90.9654C174.253 88.3103 173.219 85.8065 173.998 82.9049C174.041 82.7449 174.089 82.5892 174.145 82.4378C173.574 83.1557 173.142 83.9989 172.895 84.9243C172.117 87.8259 173.15 90.3341 174.919 92.9849V92.9805Z" fill="#A9ABAC"/>
<path d="M170.85 101.629C166.339 99.3849 165.345 96.4184 165.475 94.507C165.168 94.5373 164.852 94.7708 164.601 95.4108C163.965 97.0584 164.216 100.898 169.743 103.649C173.514 105.525 178.409 105.621 180.835 101.629C181.098 101.197 181.306 100.751 181.462 100.306C178.915 103.584 174.387 103.394 170.85 101.634V101.629Z" fill="#A9ABAC"/>
<path d="M183.723 85.0886C183.213 84.7297 182.837 84.4875 182.91 84.0594C183.053 83.2248 183.248 82.3124 182.102 81.8973C180.96 81.4821 179.338 82.8789 178.776 84.8248C179.472 84.0594 180.316 83.6702 180.995 83.9124C182.141 84.3275 181.946 85.24 181.803 86.0746C181.73 86.5027 182.106 86.7405 182.616 87.1038C183.222 87.5362 184.752 88.6562 185.583 89.2659C185.929 89.5211 186.322 89.3135 186.504 88.8594C186.707 88.3535 186.854 87.8519 186.941 87.3546C186.854 87.3459 186.772 87.3113 186.685 87.2508C185.855 86.6411 184.329 85.5167 183.723 85.0886Z" fill="#A9ABAC"/>
<path d="M154.097 85.6248C154.106 85.5989 156.51 79.5881 157.185 77.893C157.068 77.8021 156.969 77.72 156.886 77.6594C156.061 77.0238 155.628 77.9059 155.36 78.5805C155.36 78.5805 152.104 86.7275 152.095 86.7578C150.694 90.2951 148.601 93.054 146.409 94.8789C149.293 93.3005 152.311 90.1438 154.097 85.6248Z" fill="#A9ABAC"/>
<path d="M150.223 98.1049C150.037 97.9492 149.877 97.8584 149.782 97.7286C147.805 98.6713 144.843 99.6443 141.345 99.3632C136.121 98.9438 133.881 96.3708 133.142 93.9276C133.142 93.9276 131.849 93.6595 131.105 93.2616C130.616 92.9978 130.318 92.7859 130.093 92.5222C129.371 92.5913 128.843 92.613 128.294 92.6086C127.957 92.6086 127.81 93.08 128.091 93.5513C128.355 93.9924 128.662 94.2519 129.336 94.6151C130.076 95.013 131.373 95.2811 131.373 95.2811C132.112 97.7243 134.352 100.293 139.576 100.712C143.075 100.994 146.041 100.021 148.013 99.0778C148.104 99.2076 148.268 99.2984 148.454 99.454C149.682 100.483 150.716 101.314 151.39 101.806C152.013 102.261 152.61 101.971 152.925 101.171C153.021 100.937 153.111 100.708 153.202 100.483C153.185 100.475 153.172 100.466 153.155 100.453C152.48 99.9643 151.451 99.1341 150.218 98.1005L150.223 98.1049Z" fill="#A9ABAC"/>
<path d="M145.95 79.2465C145.665 79.0432 144.688 79.7222 143.619 80.7384C143.628 80.7384 143.637 80.7427 143.641 80.7513C144.138 81.1059 143.001 83.6357 141.116 86.5719C140.614 87.3503 139.823 88.76 138.737 89.9016C140.809 88.9027 142.681 86.2173 143.425 85.067C145.315 82.1351 146.448 79.6011 145.95 79.2465Z" fill="#A9ABAC"/>
<path d="M164.696 87.9038C163.888 87.2378 164.143 86.7924 164.355 86.1654C164.428 85.9535 165.898 82.7665 166.642 80.8594C166.322 81.1189 165.639 81.6638 164.761 82.5027C163.991 84.427 162.655 87.3157 162.586 87.5189C162.374 88.1416 162.119 88.5913 162.928 89.2573C164.108 90.2259 165.155 91.1384 165.868 91.6875C166.478 92.1546 167.088 91.8475 167.408 91.0519C167.408 91.0519 167.511 90.7924 167.676 90.36C167.663 90.3513 167.65 90.3427 167.637 90.334C166.923 89.7848 165.872 88.8724 164.696 87.9038Z" fill="#A9ABAC"/>
<path d="M137.479 78.7794C137.678 78.5805 137.877 78.3946 138.076 78.213C137.28 78.7189 136.489 79.3589 135.71 80.133C133.457 82.3773 131.317 86.2692 130.915 91.2378C131.386 91.2162 131.918 91.173 132.618 91.0908C132.748 85.5427 135.049 81.2054 137.479 78.7794Z" fill="#A9ABAC"/>
<path d="M99.8184 96.7427C99.9611 96.3189 103.101 88.4011 105.107 83.2292C105.107 83.2292 103.732 82.0573 102.854 81.3741C102.378 81.4995 101.842 81.5557 101.237 81.5081C100.229 81.4303 100.177 82.1438 100.701 82.5459C101.557 83.1989 103.118 84.5265 103.118 84.5265C101.116 89.6984 97.9762 97.6205 97.8292 98.0443C97.6173 98.667 97.3622 99.1124 98.1708 99.7827C99.1741 100.617 100.575 101.72 101.185 102.2C101.79 102.676 102.404 102.364 102.72 101.564C102.824 101.305 102.928 101.045 103.027 100.79C102.361 100.267 101.09 99.2595 100.156 98.4854C99.347 97.8151 99.6022 97.3741 99.8141 96.747L99.8184 96.7427Z" fill="#A9ABAC"/>
<path d="M110.845 78.2692C112.964 78.2173 115.005 76.4876 115.706 74.2692C114.737 75.4368 113.362 76.2195 111.952 76.2541C109.6 76.3103 108.043 74.2778 108.476 71.7135C108.519 71.4584 108.584 71.2119 108.662 70.9697C108.013 71.7524 107.546 72.7038 107.373 73.733C106.941 76.2973 108.497 78.3297 110.85 78.2735L110.845 78.2692Z" fill="#A9ABAC"/>
<path d="M50.0108 85.6119C49.2151 85.88 48.6659 86.0702 48.4497 86.1524C47.8962 86.3557 47.1005 86.6151 46.6508 86.2778L45.6735 85.4908C45.4962 85.3611 45.4141 85.24 45.3924 85.1232C45.3578 85.1405 45.3232 85.1535 45.2887 85.1708C44.8692 85.3611 44.2897 85.7459 44.9384 86.2259L45.9157 87.0129C46.3654 87.3502 47.1611 87.0908 47.7146 86.8875C48.7914 86.494 57.1892 83.5492 66.0714 81.387C62.7503 89.9232 58.7416 100.211 58.6508 100.475C58.4389 101.097 58.1751 101.556 58.9924 102.213C60.1816 103.164 61.3578 104.072 61.9676 104.531C62.5557 104.972 63.2735 104.41 63.5546 104.059C63.6324 103.96 63.7146 103.861 63.7924 103.761C63.4681 103.96 63.0616 104.064 62.707 103.796C62.0973 103.337 61.2497 102.706 60.0605 101.755C59.2432 101.097 59.507 100.643 59.7189 100.016C59.8011 99.7697 63.84 89.2659 66.9838 81.1621L72.9124 79.7524C82.3741 77.6205 93.7124 75.6486 105.501 74.8789C105.449 74.6497 105.41 74.4205 105.379 74.1827C103.542 74.2865 79.2389 75.787 50.0151 85.6162L50.0108 85.6119Z" fill="#1C75BC"/>
<path d="M116.03 98.9957C115.429 98.5243 114.582 97.854 113.345 96.8594C112.532 96.2021 112.791 95.7438 113.003 95.1211C113.181 94.5978 121.016 74.4508 123.416 68.2627C123.65 67.6573 124.074 67.493 124.199 67.454C124.048 67.454 123.909 67.454 123.792 67.454C123.092 67.454 122.802 67.7611 122.651 68.1373C122.651 68.1373 112.212 94.9394 111.996 95.5621C111.784 96.1849 111.524 96.6432 112.337 97.3005C113.57 98.2994 114.685 99.2638 115.286 99.7351C115.866 100.189 116.45 99.9211 116.778 99.1989C116.541 99.2594 116.281 99.1989 116.022 99L116.03 98.9957Z" fill="#1C75BC"/>
<path d="M171.585 101.032C166.058 98.2821 165.79 94.4378 166.443 92.7946C166.508 92.6303 166.629 92.5351 166.742 92.4875C166.383 92.44 165.998 92.6303 165.704 93.387C165.068 95.0346 165.319 98.8746 170.845 101.625C174.067 103.225 178.102 103.528 180.722 101.102C178.123 102.875 174.512 102.494 171.581 101.037L171.585 101.032Z" fill="#1C75BC"/>
<path d="M161.501 82.3903C161.777 82.1221 165.254 78.8746 168.653 76.9719C168.947 76.8075 169.211 76.8205 169.328 76.8378C169.297 76.8119 169.267 76.7859 169.237 76.7686C168.761 76.4011 168.099 76.7557 167.728 76.9719C164.415 78.9092 162.201 81.0757 161.916 81.3567C161.907 81.374 161.907 81.3913 161.898 81.4086C161.808 81.6594 161.496 82.3903 161.496 82.3903H161.501Z" fill="#1C75BC"/>
<path d="M155.2 85.2919C155.213 85.2616 158.292 77.5557 158.461 77.1319C158.629 76.6951 158.992 76.6043 158.992 76.6043C158.958 76.574 158.919 76.5438 158.889 76.5221C158.063 75.8865 157.63 76.7686 157.362 77.4432C157.362 77.4432 154.106 85.5902 154.093 85.6205C152.004 90.9005 148.234 94.3211 144.96 95.5362C148.45 94.7492 152.869 91.1773 155.196 85.2875L155.2 85.2919Z" fill="#1C75BC"/>
<path d="M138.396 78.1092C139.191 77.3178 140.294 76.6692 141.107 76.1589C139.892 76.7211 138.668 77.5859 137.475 78.7708C135.044 81.1967 132.744 85.534 132.614 91.0821C132.96 91.0562 133.142 90.9697 133.604 90.9135C133.514 85.1665 135.961 80.5308 138.396 78.1049V78.1092Z" fill="#1C75BC"/>
<path d="M136.839 68.2497C137.475 67.7265 138.24 67.774 138.24 67.774C137.76 67.7524 137.388 67.7351 137.25 67.7308C136.726 67.7135 136.099 67.9167 135.732 68.1719C134.841 68.7903 128.765 75.1946 124.467 79.7697C124.173 80.5135 123.87 81.2876 123.559 82.0832C127.416 77.9794 134.742 70.2432 136.848 68.2497H136.839Z" fill="#1C75BC"/>
<path d="M65.2973 83.3459L72.1514 81.7243C72.3935 81.0973 72.6789 80.3362 72.9038 79.7481C67.8919 80.8897 66.067 81.387 66.067 81.387C65.9027 81.8065 65.4616 82.9178 65.2973 83.3459Z" fill="#005F9E"/>
<defs>
<linearGradient id="paint0_linear_752_171" x1="121.544" y1="75.6876" x2="128.221" y2="75.6876" gradientUnits="userSpaceOnUse">
<stop stop-color="#00AEEF"/>
<stop offset="0.03" stop-color="#0EB2EF"/>
<stop offset="0.14" stop-color="#46C4F3"/>
<stop offset="0.26" stop-color="#77D4F6"/>
<stop offset="0.37" stop-color="#A1E1F9"/>
<stop offset="0.49" stop-color="#C3ECFB"/>
<stop offset="0.61" stop-color="#DDF4FC"/>
<stop offset="0.73" stop-color="#F0FAFE"/>
<stop offset="0.86" stop-color="#FBFDFE"/>
<stop offset="1" stop-color="white"/>
</linearGradient>
<linearGradient id="paint1_linear_752_171" x1="137.25" y1="86.3167" x2="150.819" y2="86.3167" gradientUnits="userSpaceOnUse">
<stop stop-color="#00AEEF"/>
<stop offset="0.03" stop-color="#0EB2EF"/>
<stop offset="0.14" stop-color="#46C4F3"/>
<stop offset="0.26" stop-color="#77D4F6"/>
<stop offset="0.37" stop-color="#A1E1F9"/>
<stop offset="0.49" stop-color="#C3ECFB"/>
<stop offset="0.61" stop-color="#DDF4FC"/>
<stop offset="0.73" stop-color="#F0FAFE"/>
<stop offset="0.86" stop-color="#FBFDFE"/>
<stop offset="1" stop-color="white"/>
</linearGradient>
<linearGradient id="paint2_linear_752_171" x1="158.642" y1="81.0065" x2="161.825" y2="81.0065" gradientUnits="userSpaceOnUse">
<stop stop-color="#00AEEF"/>
<stop offset="0.03" stop-color="#0EB2EF"/>
<stop offset="0.14" stop-color="#46C4F3"/>
<stop offset="0.26" stop-color="#77D4F6"/>
<stop offset="0.37" stop-color="#A1E1F9"/>
<stop offset="0.49" stop-color="#C3ECFB"/>
<stop offset="0.61" stop-color="#DDF4FC"/>
<stop offset="0.73" stop-color="#F0FAFE"/>
<stop offset="0.86" stop-color="#FBFDFE"/>
<stop offset="1" stop-color="white"/>
</linearGradient>
<linearGradient id="paint3_linear_752_171" x1="25.2065" y1="88.0463" x2="62.2184" y2="88.0463" gradientUnits="userSpaceOnUse">
<stop stop-color="#00AEEF"/>
<stop offset="0.03" stop-color="#0EB2EF"/>
<stop offset="0.14" stop-color="#46C4F3"/>
<stop offset="0.26" stop-color="#77D4F6"/>
<stop offset="0.37" stop-color="#A1E1F9"/>
<stop offset="0.49" stop-color="#C3ECFB"/>
<stop offset="0.61" stop-color="#DDF4FC"/>
<stop offset="0.73" stop-color="#F0FAFE"/>
<stop offset="0.86" stop-color="#FBFDFE"/>
<stop offset="1" stop-color="white"/>
</linearGradient>
<linearGradient id="paint4_linear_752_171" x1="115.749" y1="93.1016" x2="120.151" y2="93.1016" gradientUnits="userSpaceOnUse">
<stop stop-color="#00AEEF"/>
<stop offset="0.03" stop-color="#0EB2EF"/>
<stop offset="0.14" stop-color="#46C4F3"/>
<stop offset="0.26" stop-color="#77D4F6"/>
<stop offset="0.37" stop-color="#A1E1F9"/>
<stop offset="0.49" stop-color="#C3ECFB"/>
<stop offset="0.61" stop-color="#DDF4FC"/>
<stop offset="0.73" stop-color="#F0FAFE"/>
<stop offset="0.86" stop-color="#FBFDFE"/>
<stop offset="1" stop-color="white"/>
</linearGradient>
<linearGradient id="paint5_linear_752_171" x1="136.835" y1="84.7859" x2="145.349" y2="84.7859" gradientUnits="userSpaceOnUse">
<stop stop-color="#00AEEF"/>
<stop offset="0.03" stop-color="#0EB2EF"/>
<stop offset="0.14" stop-color="#46C4F3"/>
<stop offset="0.26" stop-color="#77D4F6"/>
<stop offset="0.37" stop-color="#A1E1F9"/>
<stop offset="0.49" stop-color="#C3ECFB"/>
<stop offset="0.61" stop-color="#DDF4FC"/>
<stop offset="0.73" stop-color="#F0FAFE"/>
<stop offset="0.86" stop-color="#FBFDFE"/>
<stop offset="1" stop-color="white"/>
</linearGradient>
<linearGradient id="paint6_linear_752_171" x1="142.145" y1="97.6249" x2="150.063" y2="97.6249" gradientUnits="userSpaceOnUse">
<stop stop-color="#00AEEF"/>
<stop offset="0.03" stop-color="#0EB2EF"/>
<stop offset="0.14" stop-color="#46C4F3"/>
<stop offset="0.26" stop-color="#77D4F6"/>
<stop offset="0.37" stop-color="#A1E1F9"/>
<stop offset="0.49" stop-color="#C3ECFB"/>
<stop offset="0.61" stop-color="#DDF4FC"/>
<stop offset="0.73" stop-color="#F0FAFE"/>
<stop offset="0.86" stop-color="#FBFDFE"/>
<stop offset="1" stop-color="white"/>
</linearGradient>
<linearGradient id="paint7_linear_752_171" x1="166.564" y1="96.3449" x2="172.96" y2="96.3449" gradientUnits="userSpaceOnUse">
<stop stop-color="#00AEEF"/>
<stop offset="0.03" stop-color="#0EB2EF"/>
<stop offset="0.14" stop-color="#46C4F3"/>
<stop offset="0.26" stop-color="#77D4F6"/>
<stop offset="0.37" stop-color="#A1E1F9"/>
<stop offset="0.49" stop-color="#C3ECFB"/>
<stop offset="0.61" stop-color="#DDF4FC"/>
<stop offset="0.73" stop-color="#F0FAFE"/>
<stop offset="0.86" stop-color="#FBFDFE"/>
<stop offset="1" stop-color="white"/>
</linearGradient>
<linearGradient id="paint8_linear_752_171" x1="153.488" y1="89.08" x2="167.187" y2="89.08" gradientUnits="userSpaceOnUse">
<stop stop-color="#00AEEF"/>
<stop offset="0.03" stop-color="#0EB2EF"/>
<stop offset="0.14" stop-color="#46C4F3"/>
<stop offset="0.26" stop-color="#77D4F6"/>
<stop offset="0.37" stop-color="#A1E1F9"/>
<stop offset="0.49" stop-color="#C3ECFB"/>
<stop offset="0.61" stop-color="#DDF4FC"/>
<stop offset="0.73" stop-color="#F0FAFE"/>
<stop offset="0.86" stop-color="#FBFDFE"/>
<stop offset="1" stop-color="white"/>
</linearGradient>
<linearGradient id="paint9_linear_752_171" x1="167.952" y1="83.307" x2="172.186" y2="83.307" gradientUnits="userSpaceOnUse">
<stop stop-color="#00AEEF"/>
<stop offset="0.03" stop-color="#0EB2EF"/>
<stop offset="0.14" stop-color="#46C4F3"/>
<stop offset="0.26" stop-color="#77D4F6"/>
<stop offset="0.37" stop-color="#A1E1F9"/>
<stop offset="0.49" stop-color="#C3ECFB"/>
<stop offset="0.61" stop-color="#DDF4FC"/>
<stop offset="0.73" stop-color="#F0FAFE"/>
<stop offset="0.86" stop-color="#FBFDFE"/>
<stop offset="1" stop-color="white"/>
</linearGradient>
<linearGradient id="paint10_linear_752_171" x1="175.442" y1="91.7222" x2="182.309" y2="91.7222" gradientUnits="userSpaceOnUse">
<stop stop-color="#00AEEF"/>
<stop offset="0.03" stop-color="#0EB2EF"/>
<stop offset="0.14" stop-color="#46C4F3"/>
<stop offset="0.26" stop-color="#77D4F6"/>
<stop offset="0.37" stop-color="#A1E1F9"/>
<stop offset="0.49" stop-color="#C3ECFB"/>
<stop offset="0.61" stop-color="#DDF4FC"/>
<stop offset="0.73" stop-color="#F0FAFE"/>
<stop offset="0.86" stop-color="#FBFDFE"/>
<stop offset="1" stop-color="white"/>
</linearGradient>
<linearGradient id="paint11_linear_752_171" x1="62.2919" y1="66.6281" x2="67.52" y2="66.6281" gradientUnits="userSpaceOnUse">
<stop stop-color="#00AEEF"/>
<stop offset="0.03" stop-color="#0EB2EF"/>
<stop offset="0.14" stop-color="#46C4F3"/>
<stop offset="0.26" stop-color="#77D4F6"/>
<stop offset="0.37" stop-color="#A1E1F9"/>
<stop offset="0.49" stop-color="#C3ECFB"/>
<stop offset="0.61" stop-color="#DDF4FC"/>
<stop offset="0.73" stop-color="#F0FAFE"/>
<stop offset="0.86" stop-color="#FBFDFE"/>
<stop offset="1" stop-color="white"/>
</linearGradient>
<linearGradient id="paint12_linear_752_171" x1="80.0908" y1="91.813" x2="95.0573" y2="91.813" gradientUnits="userSpaceOnUse">
<stop stop-color="#00AEEF"/>
<stop offset="0.03" stop-color="#0EB2EF"/>
<stop offset="0.14" stop-color="#46C4F3"/>
<stop offset="0.26" stop-color="#77D4F6"/>
<stop offset="0.37" stop-color="#A1E1F9"/>
<stop offset="0.49" stop-color="#C3ECFB"/>
<stop offset="0.61" stop-color="#DDF4FC"/>
<stop offset="0.73" stop-color="#F0FAFE"/>
<stop offset="0.86" stop-color="#FBFDFE"/>
<stop offset="1" stop-color="white"/>
</linearGradient>
<linearGradient id="paint13_linear_752_171" x1="122.966" y1="93.547" x2="141.851" y2="93.547" gradientUnits="userSpaceOnUse">
<stop stop-color="#00AEEF"/>
<stop offset="0.03" stop-color="#0EB2EF"/>
<stop offset="0.14" stop-color="#46C4F3"/>
<stop offset="0.26" stop-color="#77D4F6"/>
<stop offset="0.37" stop-color="#A1E1F9"/>
<stop offset="0.49" stop-color="#C3ECFB"/>
<stop offset="0.61" stop-color="#DDF4FC"/>
<stop offset="0.73" stop-color="#F0FAFE"/>
<stop offset="0.86" stop-color="#FBFDFE"/>
<stop offset="1" stop-color="white"/>
</linearGradient>
<linearGradient id="paint14_linear_752_171" x1="72.7005" y1="71.0562" x2="76.1773" y2="71.0562" gradientUnits="userSpaceOnUse">
<stop stop-color="#00AEEF"/>
<stop offset="0.03" stop-color="#0EB2EF"/>
<stop offset="0.14" stop-color="#46C4F3"/>
<stop offset="0.26" stop-color="#77D4F6"/>
<stop offset="0.37" stop-color="#A1E1F9"/>
<stop offset="0.49" stop-color="#C3ECFB"/>
<stop offset="0.61" stop-color="#DDF4FC"/>
<stop offset="0.73" stop-color="#F0FAFE"/>
<stop offset="0.86" stop-color="#FBFDFE"/>
<stop offset="1" stop-color="white"/>
</linearGradient>
<linearGradient id="paint15_linear_752_171" x1="103.624" y1="89.0368" x2="111.274" y2="89.0368" gradientUnits="userSpaceOnUse">
<stop stop-color="#00AEEF"/>
<stop offset="0.03" stop-color="#0EB2EF"/>
<stop offset="0.14" stop-color="#46C4F3"/>
<stop offset="0.26" stop-color="#77D4F6"/>
<stop offset="0.37" stop-color="#A1E1F9"/>
<stop offset="0.49" stop-color="#C3ECFB"/>
<stop offset="0.61" stop-color="#DDF4FC"/>
<stop offset="0.73" stop-color="#F0FAFE"/>
<stop offset="0.86" stop-color="#FBFDFE"/>
<stop offset="1" stop-color="white"/>
</linearGradient>
<linearGradient id="paint16_linear_752_171" x1="84.6659" y1="83.9124" x2="88.48" y2="83.9124" gradientUnits="userSpaceOnUse">
<stop stop-color="#00AEEF"/>
<stop offset="0.03" stop-color="#0EB2EF"/>
<stop offset="0.14" stop-color="#46C4F3"/>
<stop offset="0.26" stop-color="#77D4F6"/>
<stop offset="0.37" stop-color="#A1E1F9"/>
<stop offset="0.49" stop-color="#C3ECFB"/>
<stop offset="0.61" stop-color="#DDF4FC"/>
<stop offset="0.73" stop-color="#F0FAFE"/>
<stop offset="0.86" stop-color="#FBFDFE"/>
<stop offset="1" stop-color="white"/>
</linearGradient>
<linearGradient id="paint17_linear_752_171" x1="94.5816" y1="86.2908" x2="98.9708" y2="86.2908" gradientUnits="userSpaceOnUse">
<stop stop-color="#00AEEF"/>
<stop offset="0.03" stop-color="#0EB2EF"/>
<stop offset="0.14" stop-color="#46C4F3"/>
<stop offset="0.26" stop-color="#77D4F6"/>
<stop offset="0.37" stop-color="#A1E1F9"/>
<stop offset="0.49" stop-color="#C3ECFB"/>
<stop offset="0.61" stop-color="#DDF4FC"/>
<stop offset="0.73" stop-color="#F0FAFE"/>
<stop offset="0.86" stop-color="#FBFDFE"/>
<stop offset="1" stop-color="white"/>
</linearGradient>
<linearGradient id="paint18_linear_752_171" x1="62.5773" y1="92.6346" x2="84.1254" y2="92.6346" gradientUnits="userSpaceOnUse">
<stop stop-color="#00AEEF"/>
<stop offset="0.03" stop-color="#0EB2EF"/>
<stop offset="0.14" stop-color="#46C4F3"/>
<stop offset="0.26" stop-color="#77D4F6"/>
<stop offset="0.37" stop-color="#A1E1F9"/>
<stop offset="0.49" stop-color="#C3ECFB"/>
<stop offset="0.61" stop-color="#DDF4FC"/>
<stop offset="0.73" stop-color="#F0FAFE"/>
<stop offset="0.86" stop-color="#FBFDFE"/>
<stop offset="1" stop-color="white"/>
</linearGradient>
<linearGradient id="paint19_linear_752_171" x1="111.797" y1="71.3287" x2="116.355" y2="71.3287" gradientUnits="userSpaceOnUse">
<stop stop-color="#00AEEF"/>
<stop offset="0.03" stop-color="#0EB2EF"/>
<stop offset="0.14" stop-color="#46C4F3"/>
<stop offset="0.26" stop-color="#77D4F6"/>
<stop offset="0.37" stop-color="#A1E1F9"/>
<stop offset="0.49" stop-color="#C3ECFB"/>
<stop offset="0.61" stop-color="#DDF4FC"/>
<stop offset="0.73" stop-color="#F0FAFE"/>
<stop offset="0.86" stop-color="#FBFDFE"/>
<stop offset="1" stop-color="white"/>
</linearGradient>
<linearGradient id="paint20_linear_752_171" x1="40.6832" y1="127.631" x2="68.1297" y2="127.631" gradientUnits="userSpaceOnUse">
<stop stop-color="#00AEEF"/>
<stop offset="0.03" stop-color="#0EB2EF"/>
<stop offset="0.14" stop-color="#46C4F3"/>
<stop offset="0.26" stop-color="#77D4F6"/>
<stop offset="0.37" stop-color="#A1E1F9"/>
<stop offset="0.49" stop-color="#C3ECFB"/>
<stop offset="0.61" stop-color="#DDF4FC"/>
<stop offset="0.73" stop-color="#F0FAFE"/>
<stop offset="0.86" stop-color="#FBFDFE"/>
<stop offset="1" stop-color="white"/>
</linearGradient>
<linearGradient id="paint21_linear_752_171" x1="64.32" y1="90.1092" x2="71.2605" y2="90.1092" gradientUnits="userSpaceOnUse">
<stop stop-color="#00AEEF"/>
<stop offset="0.03" stop-color="#0EB2EF"/>
<stop offset="0.14" stop-color="#46C4F3"/>
<stop offset="0.26" stop-color="#77D4F6"/>
<stop offset="0.37" stop-color="#A1E1F9"/>
<stop offset="0.49" stop-color="#C3ECFB"/>
<stop offset="0.61" stop-color="#DDF4FC"/>
<stop offset="0.73" stop-color="#F0FAFE"/>
<stop offset="0.86" stop-color="#FBFDFE"/>
<stop offset="1" stop-color="white"/>
</linearGradient>
<linearGradient id="paint22_linear_752_171" x1="180.091" y1="82.1957" x2="187.511" y2="82.1957" gradientUnits="userSpaceOnUse">
<stop stop-color="#00AEEF"/>
<stop offset="0.03" stop-color="#0EB2EF"/>
<stop offset="0.14" stop-color="#46C4F3"/>
<stop offset="0.26" stop-color="#77D4F6"/>
<stop offset="0.37" stop-color="#A1E1F9"/>
<stop offset="0.49" stop-color="#C3ECFB"/>
<stop offset="0.61" stop-color="#DDF4FC"/>
<stop offset="0.73" stop-color="#F0FAFE"/>
<stop offset="0.86" stop-color="#FBFDFE"/>
<stop offset="1" stop-color="white"/>
</linearGradient>
<linearGradient id="paint23_linear_752_171" x1="130.314" y1="109.685" x2="190.487" y2="109.685" gradientUnits="userSpaceOnUse">
<stop stop-color="#00AEEF"/>
<stop offset="0.03" stop-color="#0EB2EF"/>
<stop offset="0.14" stop-color="#46C4F3"/>
<stop offset="0.26" stop-color="#77D4F6"/>
<stop offset="0.37" stop-color="#A1E1F9"/>
<stop offset="0.49" stop-color="#C3ECFB"/>
<stop offset="0.61" stop-color="#DDF4FC"/>
<stop offset="0.73" stop-color="#F0FAFE"/>
<stop offset="0.86" stop-color="#FBFDFE"/>
<stop offset="1" stop-color="white"/>
</linearGradient>
<linearGradient id="paint24_linear_752_171" x1="47.4249" y1="77.3351" x2="105.072" y2="77.3351" gradientUnits="userSpaceOnUse">
<stop stop-color="#00AEEF"/>
<stop offset="0.03" stop-color="#0EB2EF"/>
<stop offset="0.14" stop-color="#46C4F3"/>
<stop offset="0.26" stop-color="#77D4F6"/>
<stop offset="0.37" stop-color="#A1E1F9"/>
<stop offset="0.49" stop-color="#C3ECFB"/>
<stop offset="0.61" stop-color="#DDF4FC"/>
<stop offset="0.73" stop-color="#F0FAFE"/>
<stop offset="0.86" stop-color="#FBFDFE"/>
<stop offset="1" stop-color="white"/>
</linearGradient>
</defs>
</svg>
