<svg width="200" height="200" viewBox="0 0 200 200" fill="none" xmlns="http://www.w3.org/2000/svg">
<g clip-path="url(#clip0_752_704)">
<path d="M72.4447 153.328L64.3113 151.7L65.3654 146.249C58.9939 145.949 55.3441 144.621 55.1868 144.558L53.5349 143.942L53.5821 129.452C46.2038 129.073 39.3919 126.513 39.0773 126.403L37.4411 125.786V114.568L34.0273 116.527L29.9842 114.615V79.6945L37.4411 75.523V66.6744L38.7941 65.9633C41.1853 64.6993 43.671 63.451 46.1881 62.2501V57.5097L47.4781 56.7829C73.7348 42.1037 105.277 32.9074 138.708 30.2212L141.414 30L141.477 41.045C144.324 41.1082 147.156 41.2188 149.94 41.3926L152.3 41.5348V54.9026C154.534 55.0922 156.217 55.4082 157.539 55.8506L158.451 56.1666L160.245 59.3743C160.245 59.3743 160.103 69.8662 160.103 70.6563C160.607 71.7781 160.874 72.821 160.968 73.8955C161.173 76.4237 160.497 78.62 159.002 80.2475C157.429 81.9699 155.116 82.8863 152.316 82.9021V98.166L151.702 98.8771C151.466 99.1457 146.055 105.308 134.004 109.29V123.353L133.469 124.032C130.338 128.078 124.895 130.953 120.616 132.755C118.838 135.63 116.856 138.759 115.094 141.129L114.433 142.03L113.332 142.141C109.446 142.536 103.846 143.752 99.7082 145.064L98.5126 149.899L97.5844 150.436C84.4954 157.562 68.8579 179.984 68.8579 179.984L72.4762 153.312L72.4447 153.328Z" fill="white"/>
<path d="M33.933 113.667L39.974 110.191V124.032C39.974 124.032 48.2176 127.161 56.115 126.956L56.0521 142.172C56.0521 142.172 60.52 143.831 68.4017 143.768L67.2532 149.709L75.2608 151.321L72.4133 171.625C72.4133 171.625 81.9784 156.614 96.2787 148.271L97.553 143.12C101.722 141.666 108.377 140.134 113.033 139.644C114.827 137.226 116.872 133.987 118.87 130.732C122.992 129.089 128.482 126.324 131.455 122.484V107.441C144.23 103.665 149.783 97.2337 149.783 97.2337V78.8412C150.129 78.8728 150.475 78.8886 150.79 78.9044C150.932 78.9044 151.073 78.9044 151.215 78.9044C153.339 78.9044 155.038 78.2724 156.155 77.0557C157.161 75.9496 157.618 74.4169 157.476 72.6156C157.303 70.5931 156.186 68.7443 154.534 66.5796C153.873 65.7105 153.228 64.8414 152.568 63.9882C153.732 64.0514 154.896 64.1304 156.06 64.2094L156.658 64.2568L156.737 58.2366C155.038 57.6677 152.552 57.3991 149.783 57.2727V43.9208C146.18 43.6996 142.578 43.5731 138.96 43.5415L138.897 32.7336C109.022 35.1512 76.9913 43.1781 48.721 58.995V63.846C45.7791 65.2365 42.8687 66.6744 39.974 68.2071V77.0083L32.5171 81.1798V113.003L33.9172 113.667H33.933Z" fill="#5F259F"/>
<path d="M115.251 93.5521V86.4574C103.122 88.2113 83.9134 93.2519 72.0515 97.1864V104.502C62.0932 107.852 55.4228 110.965 46.4399 115.626V118.692C54.3531 114.52 64.9092 109.732 74.7259 106.714V99.1773C85.345 95.8591 101.58 91.6244 112.42 90.0285V96.9967C123.558 95.1322 133.784 94.9268 144.938 94.9268C144.938 93.9471 144.938 92.9675 144.922 91.972C134.57 91.7824 125.745 92.051 115.251 93.5521Z" fill="#211551"/>
<path d="M143.302 79.6945C142.216 79.6945 141.115 79.6945 140.029 79.7261C139.982 79.7261 139.935 79.7261 139.888 79.7261C139.652 79.7261 139.416 79.7261 139.195 79.6945C138.016 79.5839 137.056 79.1731 136.348 78.462C136.285 78.3988 136.222 78.3356 136.175 78.2724C136.175 78.4146 136.175 79.0783 136.175 79.0783L135.262 79.4259C134.413 79.7577 132.997 80.1527 131.801 80.2317C131.676 80.2317 131.565 80.2317 131.455 80.2317C131.361 80.2317 131.282 80.2317 131.204 80.2317H131.031C129.741 80.2317 128.561 79.2995 127.695 78.3988V80.2791L127.192 80.3265C123.306 80.6426 119.373 81.0692 115.487 81.6064L115.157 81.6538C115.157 81.6538 114.528 80.8322 114.308 80.5478L114.134 81.8119L113.71 81.8751C111.507 82.1911 109.289 82.5703 107.102 82.9653H107.071C106.268 83.2972 105.388 83.5658 104.569 83.7238C104.129 83.8028 103.704 83.866 103.295 83.8976C103.043 83.9134 102.792 83.9292 102.556 83.9292C101.014 83.9292 99.724 83.5026 98.7172 82.6809C98.434 82.4439 98.1665 82.1753 97.9306 81.8593V84.7193L97.4743 84.8141C95.3191 85.3039 93.1323 85.8411 90.977 86.41L90.2691 86.5996C90.2691 86.5996 88.7274 87.2 88.0037 87.4054C87.7834 87.4687 87.5632 87.5161 87.343 87.5477C87.0912 87.5951 86.8395 87.6109 86.6193 87.6109C85.6754 87.6109 85.0461 87.279 84.7 87.0104C84.5899 86.9156 84.3853 86.7102 84.1651 86.4574V88.2745L83.7561 88.4009C81.648 89.033 79.5084 89.7124 77.4003 90.4077L76.7868 90.6131C76.1261 90.9923 75.4339 91.3241 74.7731 91.5453C74.5529 91.6243 74.3326 91.6875 74.1281 91.735C73.7977 91.814 73.4674 91.8456 73.1527 91.8456C72.3504 91.8456 71.7998 91.5769 71.4851 91.3557C71.3278 91.2451 71.1233 91.0713 70.9503 90.8185V92.683L70.5727 92.8252C68.4646 93.6153 66.3408 94.4369 64.2956 95.2586L63.509 95.5746C63.509 95.5746 61.8729 96.4911 61.1492 96.8071C60.8975 96.9177 60.6458 96.9967 60.4098 97.0757C59.9536 97.2179 59.5446 97.2811 59.167 97.2811C58.8524 97.2811 58.5535 97.2337 58.286 97.1389C57.5152 97.8658 56.2566 98.9403 54.9037 99.5565C54.6205 99.6987 54.353 99.7935 54.1013 99.8725C53.5979 100.046 53.1102 100.125 52.6854 100.125C52.1506 100.125 51.6629 99.9989 51.2538 99.7303C51.1123 99.6355 50.892 99.4301 50.656 99.1931V104.518L50.3257 104.676C48.076 105.814 45.7949 106.999 43.5609 108.216V117.096C54.0856 111.565 61.0548 108.152 72.0515 104.455V97.1389C83.9134 93.2203 103.122 88.1639 115.251 86.41V93.5047C126.217 91.9404 135.357 91.7191 146.322 91.9562C146.306 87.9901 146.291 83.866 146.306 79.6787C145.315 79.6629 144.308 79.6629 143.317 79.6629L143.302 79.6945Z" fill="url(#paint0_linear_752_704)"/>
<path d="M55.5644 75.3966L56.1937 75.1122C58.3018 74.1957 62.9584 72.2996 62.9584 72.2996C65.1924 71.4147 67.4735 70.5457 69.7232 69.724C70.1951 69.5502 70.6513 69.4238 71.0604 69.329C71.6425 69.1868 72.1931 69.1236 72.6965 69.1236C73.6719 69.1236 74.4899 69.3606 75.1507 69.8504C75.3867 70.0242 75.5754 70.1981 75.7485 70.4035C75.7485 69.6134 75.7642 67.6383 75.7642 67.6383L76.1575 67.5119C78.4387 66.7692 80.7355 66.0582 83.0009 65.3945C83.4729 65.2523 83.9291 65.1575 84.3539 65.0785C84.7944 65.0153 85.2191 64.9679 85.6124 64.9679C86.7609 64.9679 87.7205 65.2681 88.4599 65.8527C88.8532 66.1688 89.1521 66.5164 89.3724 66.8956L89.4038 63.688L89.8286 63.5774C91.9839 63.0243 94.1863 62.5029 96.3731 62.0131L97.0653 61.8551V64.9047C97.0968 64.8099 97.144 64.7309 97.1911 64.6361C98.6385 62.2343 100.684 60.8122 103.437 60.2908C103.909 60.2117 104.444 60.1485 104.978 60.1011C105.246 60.0853 105.513 60.0695 105.765 60.0695C106.033 60.0695 106.284 60.0695 106.52 60.1011C106.882 60.1327 107.244 60.1643 107.59 60.1959L108.125 60.2433L107.983 67.338L109.289 60.0379L109.368 59.6429C122.614 57.5256 135.2 57.1305 140.942 57.1305C142.688 57.1305 144.513 57.1305 146.291 57.1463V56.9567C146.291 53.5753 146.291 50.2412 146.259 47.0178C141.351 46.8124 137.056 46.6544 132.84 46.6544C127.223 46.6544 121.749 46.9388 115.189 47.8079V55.0448C103.059 56.6723 83.8662 61.302 71.9886 65.1259C71.9886 62.6925 71.9886 60.2592 71.9886 57.8258C61.1492 61.3178 53.8968 64.5729 43.498 69.8346V75.1122C45.2914 74.1799 47.0849 73.2635 48.894 72.3786L49.7121 71.9836C49.7121 71.9836 49.7121 76.3131 49.6964 78.0196C51.6314 77.1031 53.5822 76.2183 55.5172 75.365L55.5644 75.3966Z" fill="url(#paint1_linear_752_704)"/>
<path d="M146.306 47.0494C134.853 46.5912 126.736 46.3225 115.236 47.8394C115.598 48.0607 116.007 48.2977 116.368 48.5189C127.113 47.1442 134.586 47.4602 145.299 47.8236C145.299 50.8417 145.299 53.9861 145.268 57.1779C145.614 57.1779 145.976 57.1779 146.322 57.1779C146.322 53.7333 146.322 50.336 146.291 47.0494" fill="white"/>
<path d="M145.079 91.1503C145.488 91.4348 145.897 91.7034 146.306 91.9878C146.275 88.0217 146.275 83.8976 146.291 79.7103C145.913 79.7103 145.52 79.7103 145.126 79.7103C145.095 83.6448 145.079 87.5003 145.079 91.1661" fill="white"/>
<g style="mix-blend-mode:multiply" opacity="0.65">
<path d="M44.6307 70.119C44.2689 70.04 43.9071 69.961 43.5452 69.882V75.1596C43.9071 74.97 44.2689 74.7804 44.6307 74.6066C44.6307 73.0896 44.6307 71.5885 44.6307 70.1348" fill="#A6A8AB"/>
</g>
<path d="M44.5835 115.579C44.5835 113.019 44.5835 110.38 44.5835 107.678C44.2374 107.868 43.8913 108.042 43.5452 108.231V117.112C54.0699 111.581 61.0392 108.168 72.0358 104.471C71.6268 104.281 71.2335 104.091 70.8244 103.902C60.6144 107.394 54.3845 110.475 44.5835 115.579Z" fill="#A6A8AB"/>
<path d="M156.06 64.2094C154.912 64.1304 153.732 64.0514 152.568 63.9882C153.228 64.8573 153.873 65.7105 154.534 66.5796C154.251 66.2162 153.968 65.8369 153.685 65.4577C154.802 65.5209 155.919 65.5999 157.036 65.6947L157.633 65.7421L157.712 60.0063L156.737 58.2366L156.658 64.2568L156.06 64.2094Z" fill="#211551"/>
<path d="M158.467 74.1009C158.341 72.5208 157.618 70.9407 156.092 68.8233C156.863 70.1032 157.366 71.3199 157.476 72.6314C157.633 74.4327 157.161 75.9654 156.155 77.0715C155.053 78.2724 153.339 78.9202 151.215 78.9202C151.073 78.9202 150.932 78.9202 150.79 78.9202C149.988 78.8886 149.059 78.7938 148.068 78.6516C147.486 78.5726 146.92 78.4778 146.416 78.3672C146.243 78.3356 145.882 78.304 145.882 78.304H145.378C144.639 78.304 143.915 78.2882 143.176 78.2882C141.807 78.2882 140.423 78.2882 139.054 78.3356C138.991 78.3356 138.944 78.3356 138.881 78.3356C138.645 78.3356 138.425 78.3356 138.22 78.304C137.04 78.1934 136.081 77.7826 135.373 77.0873C135.31 77.0241 135.247 76.9609 135.2 76.9135V77.7194C135.2 77.7194 134.476 78.0038 134.303 78.067C133.406 78.4146 132.037 78.8096 130.842 78.8886C130.669 78.8886 130.511 78.8886 130.354 78.8886C130.244 78.8886 130.134 78.8886 130.024 78.8886C128.608 78.8096 127.475 78.225 126.72 77.2137V78.9518L126.217 78.9993C122.331 79.3311 118.382 79.7735 114.512 80.3423L113.914 80.4214C113.914 80.4214 113.71 77.9564 113.631 77.0241L113.159 80.5478L112.734 80.611C110.532 80.9428 108.298 81.322 106.127 81.7328H106.095C105.293 82.0647 104.412 82.3491 103.61 82.5071C103.169 82.6019 102.745 82.6493 102.336 82.6967C102.068 82.7125 101.816 82.7283 101.565 82.7283C100.039 82.7283 98.7487 82.3175 97.7575 81.4958C97.4744 81.2588 97.2069 80.9902 96.9709 80.69V83.55L96.5147 83.6448C94.3437 84.1504 92.1727 84.6877 90.0174 85.2723L89.2937 85.4619C89.2937 85.4619 87.7677 86.0624 87.0441 86.2678C86.8238 86.331 86.6036 86.3784 86.3833 86.41C86.1316 86.4574 85.8799 86.4732 85.6439 86.4732C84.7157 86.4732 84.0865 86.1572 83.7404 85.8727C83.5673 85.7463 83.3785 85.5567 83.2055 85.3197V87.1368L82.7964 87.2632C80.6884 87.9111 78.5488 88.5905 76.4407 89.3016L75.8272 89.507C75.1664 89.8862 74.4585 90.218 73.8135 90.4551C73.5933 90.5341 73.3887 90.5973 73.1685 90.6447C72.8224 90.7237 72.492 90.7711 72.1774 90.7711C71.375 90.7711 70.8244 90.5025 70.5098 90.2813C70.3367 90.1548 70.148 89.981 69.9749 89.7598V91.6243L69.5973 91.7666C67.505 92.5566 65.3969 93.3783 63.3203 94.2315L62.5337 94.5475C62.5337 94.5475 60.8976 95.4798 60.1739 95.78C59.9222 95.8906 59.6705 95.9855 59.4345 96.0487C58.9783 96.1909 58.5535 96.2541 58.1759 96.2541C57.8613 96.2541 57.5624 96.2067 57.3107 96.1119C56.5555 96.8387 55.297 97.929 53.944 98.561C53.6609 98.6874 53.3934 98.7981 53.1417 98.8771C52.6226 99.0509 52.1506 99.1457 51.7101 99.1457C51.1752 99.1457 50.7033 99.0193 50.2942 98.7665C50.0582 98.6242 49.8695 98.4346 49.6964 98.2292C49.6964 99.8883 49.6964 103.57 49.6964 103.57L49.3818 103.728C47.0534 104.913 44.6936 106.146 42.3968 107.425L41.563 107.884L42.9631 108.626L43.3407 108.421C45.6533 107.157 47.9974 105.924 50.3414 104.755L50.6561 104.597V99.2721C50.9078 99.5091 51.128 99.7145 51.2696 99.8093C51.6786 100.062 52.1506 100.204 52.7012 100.204C53.1417 100.204 53.6137 100.125 54.1171 99.9515C54.3688 99.8725 54.6205 99.7619 54.9194 99.6355C56.2724 99.0193 57.5309 97.9448 58.3018 97.2021C58.5692 97.2969 58.8681 97.3443 59.1828 97.3443C59.5603 97.3443 59.9694 97.2811 60.4256 97.1389C60.6616 97.0757 60.9133 96.9809 61.165 96.8703C61.8887 96.5701 63.5248 95.6378 63.5248 95.6378L64.3114 95.3218C66.3566 94.4843 68.4804 93.6627 70.5884 92.8884L70.9503 92.7462V90.8817C71.1391 91.1345 71.3436 91.2925 71.5009 91.4189C71.8155 91.6401 72.3662 91.9088 73.1842 91.9088C73.4831 91.9088 73.8135 91.8614 74.1596 91.7982C74.3641 91.7508 74.5844 91.6876 74.8046 91.6085C75.4496 91.3873 76.1576 91.0555 76.8183 90.6763L77.4319 90.4709C79.5399 89.7756 81.6795 89.0962 83.7876 88.4641L84.1966 88.3377V86.5206C84.4326 86.7734 84.6371 86.9788 84.7472 87.0736C85.109 87.3422 85.7226 87.6741 86.6665 87.6741C86.9025 87.6741 87.1542 87.6583 87.3902 87.6109C87.5947 87.5793 87.8149 87.5319 88.0509 87.4686C88.7746 87.2632 90.3163 86.6628 90.3163 86.6628L91.04 86.4732C93.1953 85.9043 95.382 85.3671 97.5373 84.8773L97.9778 84.7825V81.9225C98.2452 82.2227 98.4969 82.5071 98.7958 82.7283C99.8027 83.5658 101.093 83.9766 102.634 83.9766C102.87 83.9766 103.122 83.9766 103.374 83.945C103.783 83.9134 104.208 83.8502 104.648 83.7712C105.466 83.6132 106.331 83.3446 107.134 83.0127H107.165C109.352 82.6177 111.57 82.2385 113.773 81.9225L114.197 81.8593L114.37 80.5952C114.591 80.8796 115.22 81.7012 115.22 81.7012L115.55 81.6538C119.436 81.1166 123.369 80.6742 127.255 80.3739L127.79 80.3265V78.4462C128.624 79.3469 129.819 80.2633 131.094 80.2633H131.267C131.345 80.2633 131.44 80.2633 131.518 80.2633C131.628 80.2633 131.754 80.2633 131.864 80.2633C133.06 80.2001 134.476 79.7893 135.325 79.4575L136.222 79.1099C136.222 79.1099 136.222 78.4304 136.222 78.304C136.285 78.3672 136.332 78.4304 136.395 78.4936C137.103 79.1889 138.063 79.6155 139.243 79.7261C139.463 79.7419 139.699 79.7577 139.935 79.7577C139.982 79.7577 140.029 79.7577 140.077 79.7577C141.162 79.7419 142.263 79.7261 143.349 79.7261C144.371 79.7261 145.394 79.7261 146.401 79.7419H146.92V79.7103C147.093 79.7419 147.266 79.7735 147.439 79.8209C147.927 79.9157 148.493 80.0105 149.091 80.1053C150.066 80.2475 151.01 80.3423 151.813 80.3739C151.97 80.3739 152.127 80.3739 152.285 80.3739C154.393 80.3739 156.076 79.7419 157.177 78.541C158.184 77.4349 158.64 75.9022 158.483 74.1167" fill="#211551"/>
<path d="M32.5171 112.987L33.9173 113.651L41.5158 109.29V107.836C41.5158 107.836 41.5158 99.4775 41.5158 95.7958C41.1225 96.0013 40.7292 96.2225 40.3359 96.4279V108.453L32.5014 113.003L32.5171 112.987Z" fill="#211551"/>
<path d="M41.5158 87.6583C41.5158 85.3355 41.5158 81.4326 41.5158 78.8254L40.3831 76.7713L40.3359 88.2903C40.7292 88.0849 41.1225 87.8637 41.5158 87.6583Z" fill="#211551"/>
<path d="M146.306 91.9878C145.897 91.7034 145.488 91.4347 145.079 91.1503C134.901 90.9607 126.563 91.0397 116.384 92.3986V85.3197C103.437 87.1052 83.4886 92.288 70.8401 96.5543L72.0515 97.1547C83.9134 93.2361 103.122 88.1797 115.251 86.4258C115.251 88.875 115.251 91.1187 115.251 93.5205C126.217 91.9562 135.357 91.735 146.306 91.972V91.9878Z" fill="#A6A8AB"/>
<path d="M70.8401 103.918C71.2492 104.107 71.6425 104.297 72.0515 104.486V97.1705C71.611 96.9809 71.2806 96.7439 70.8401 96.5701V103.918Z" fill="white"/>
<path d="M72.0515 65.1575C72.0515 63.8934 72.0515 62.6293 72.0515 61.3652C72.0515 60.1801 72.0515 59.0108 72.0515 57.8732C61.2122 61.3652 53.9597 64.6202 43.5609 69.882C43.9227 69.961 44.2846 70.04 44.6307 70.1348C54.3216 65.2839 60.7717 62.3291 70.8401 59.0108V66.3268C83.4729 62.2027 103.484 57.3991 116.384 55.74C116.007 55.5188 115.629 55.3134 115.251 55.108C103.122 56.7355 83.9291 61.3652 72.0515 65.1891V65.1575Z" fill="#A6A8AB"/>
<path d="M115.251 47.8395V55.0764C115.629 55.2818 116.007 55.503 116.384 55.7084V48.5031C116.022 48.2819 115.613 48.0449 115.251 47.8237V47.8395Z" fill="#A6A8AB"/>
<path d="M70.1637 71.3041C68.1814 72.0152 66.1992 72.7578 64.2327 73.5321C64.2013 79.7103 64.1698 85.9043 64.1541 92.0984C65.5385 91.5453 66.9229 90.9923 68.323 90.4709C68.323 88.0217 68.3388 85.5883 68.3545 83.1391C69.0782 82.8705 69.8176 82.5861 70.5412 82.3333C70.6828 84.1504 70.8401 85.9517 70.9975 87.7689C71.1076 89.1436 72.1459 89.3016 73.373 88.8749C74.3956 88.5115 75.5283 87.8479 76.2047 87.3106C76.2205 86.41 76.2362 85.5093 76.2519 84.6086C75.8272 84.7509 75.3867 84.8931 74.9619 85.0511C74.8833 84.0082 74.7889 82.9811 74.7102 81.9383C74.5843 80.4687 74.2068 79.5523 72.7909 79.5997C74.1753 78.3514 75.3709 76.0286 75.1507 73.4531C75.0406 72.1416 74.5214 69.7872 70.1794 71.3357M70.7929 79.4575C69.9277 79.7735 69.0782 80.0895 68.2129 80.4055C68.2129 78.6358 68.2129 76.8661 68.2129 75.0964C69.0782 74.7803 69.9434 74.4485 70.8244 74.1483C70.8244 75.918 70.7929 77.6878 70.7772 79.4575M43.1204 88.6537C41.6574 89.4122 40.1943 90.1864 38.7469 90.9923C38.7627 87.1526 38.7784 83.313 38.7941 79.4733C37.2209 80.3265 35.6635 81.2114 34.106 82.1121C34.106 91.4979 34.106 100.9 34.106 110.301C35.6477 109.385 37.2052 108.484 38.7627 107.615C38.7627 103.602 38.7627 99.5881 38.7627 95.5746C40.21 94.7688 41.6731 93.9945 43.1362 93.2361C43.1362 97.2337 43.1362 101.247 43.1362 105.245C44.7723 104.36 46.4241 103.491 48.076 102.638C48.0917 93.2993 48.1232 83.9766 48.1547 74.6539C46.4713 75.4756 44.8037 76.3289 43.1519 77.2137C43.1519 81.0376 43.1519 84.8615 43.1362 88.6695M83.4257 67.0536C81.4277 67.6382 79.4298 68.2545 77.4318 68.8865C77.4004 75.0332 77.3532 81.1798 77.3217 87.3264C78.7218 86.8682 80.1377 86.41 81.5379 85.9833C81.5379 83.55 81.5693 81.1324 81.5693 78.699C82.3087 78.4778 83.0481 78.2566 83.7875 78.0354C83.9449 79.8525 84.0864 81.6538 84.2438 83.4552C84.3539 84.8299 85.4079 85.0511 86.6507 84.7034C87.6891 84.4032 88.8218 83.8344 89.514 83.3288C89.5297 82.4439 89.5454 81.5432 89.5612 80.6584C89.1207 80.769 88.6959 80.8954 88.2554 81.006C88.1768 79.9631 88.0824 78.936 88.0037 77.909C87.8778 76.4395 87.5003 75.5072 86.0687 75.4598C87.4688 74.3063 88.6644 72.0784 88.4599 69.5028C88.3498 68.2071 87.8149 65.8211 83.4414 67.0694M84.055 75.1754C83.1897 75.4282 82.3245 75.681 81.4592 75.9496C81.4592 74.1957 81.4592 72.4418 81.4749 70.6879C82.3559 70.4192 83.2369 70.1664 84.1022 69.9136L84.055 75.1912M57.5152 76.4079C57.4994 81.5906 57.4837 86.7892 57.4522 91.972C56.5398 92.3828 55.6273 92.7778 54.7149 93.1887C54.7306 87.9901 54.7463 82.7915 54.7621 77.6087C53.3777 78.225 52.009 78.857 50.6246 79.5049C50.6246 84.9247 50.5931 90.3444 50.5774 95.7642C50.7662 97.9764 52.2135 97.6604 53.4878 97.0757C55.0138 96.3647 56.6656 94.7688 57.5624 93.6469C57.5624 93.7259 57.5624 93.8207 57.5781 93.9155C57.6568 94.911 58.7737 94.6898 59.7334 94.2947C60.8031 93.8365 62.1089 92.9358 62.8483 92.2248V89.6966C62.4235 89.8704 62.0145 90.0284 61.6055 90.2022C61.6369 85.0195 61.6684 79.8367 61.6999 74.6697C60.2997 75.2386 58.8996 75.8232 57.4994 76.4237M130.323 72.821C129.127 68.3651 127.916 63.9092 126.72 59.4533C124.99 59.5797 123.243 59.7219 121.497 59.8957C121.45 65.9001 121.403 71.9045 121.355 77.909C122.598 77.7668 123.825 77.6562 125.068 77.5455C125.021 73.5321 124.99 69.5186 124.942 65.5051C125.792 68.7443 126.641 71.9836 127.491 75.2228C127.9 76.9609 129.001 77.4191 130.559 77.3243C131.487 77.2611 132.698 76.9451 133.532 76.6133C133.563 70.7669 133.579 64.9047 133.611 59.0582C132.352 59.1056 131.078 59.1688 129.804 59.2479C129.961 63.767 130.134 68.2861 130.291 72.821M155.022 62.6135C155.022 61.6022 155.053 60.5909 155.069 59.5797C154.282 59.3901 152.851 59.1688 151.875 59.1214C148.493 58.9318 146.149 60.4645 146.416 63.7354C146.527 65.0153 147.235 66.39 148.226 67.6698C149.295 69.0761 150.381 70.4824 151.451 71.8887C151.435 72.6156 151.419 73.3266 151.388 74.0535C149.767 73.9903 148.131 73.9271 146.511 73.8955C146.511 74.8752 146.495 75.8706 146.479 76.8503C147.628 77.0873 149.217 77.3085 150.57 77.3559C154.046 77.4823 156.076 75.6494 155.824 72.5524C155.698 70.9881 154.739 69.4396 153.276 67.5276C152.442 66.4374 151.608 65.3313 150.79 64.241C150.821 63.609 150.853 62.9927 150.869 62.3765C152.253 62.4397 153.637 62.5187 155.022 62.6135ZM135.892 74.812C135.986 75.9654 136.804 76.8187 138.786 76.7713C140.659 76.7397 142.515 76.7239 144.371 76.7397C144.481 75.7284 144.607 74.7171 144.717 73.7059C143.223 73.7059 141.713 73.7059 140.202 73.7059C140.202 72.1732 140.234 70.6247 140.234 69.0919C141.398 69.0919 142.562 69.0919 143.726 69.0919C143.726 68.1281 143.726 67.18 143.726 66.2161C142.546 66.2161 141.382 66.2161 140.202 66.2161C140.202 64.8098 140.234 63.4035 140.234 61.9972C141.618 61.9972 143.003 61.9972 144.387 62.013C144.387 60.986 144.418 59.9747 144.434 58.9634C141.634 58.916 138.818 58.9318 136.018 59.0108C135.97 64.2726 135.923 69.5502 135.892 74.8278M107.354 79.9315C108.786 79.6787 110.201 79.4417 111.633 79.2205C111.853 77.5297 112.089 75.8548 112.31 74.1641C113.191 74.0377 114.087 73.8955 114.968 73.7849C115.11 75.4124 115.236 77.0399 115.377 78.6674C116.793 78.4778 118.209 78.2882 119.641 78.1302C119.153 72.1732 118.665 66.2319 118.162 60.2749C115.708 60.5593 113.269 60.8754 110.815 61.2546C109.651 67.4644 108.502 73.6901 107.354 79.9315ZM113.6 63.7196C113.804 63.688 113.993 63.6564 114.197 63.6406C114.402 66.1213 114.606 68.6021 114.811 71.0671C114.056 71.1619 113.316 71.2725 112.561 71.3831C112.907 68.8233 113.253 66.2635 113.6 63.7196ZM90.9141 83.4078C92.3615 83.0285 93.8088 82.6651 95.2561 82.3175C95.3033 76.2341 95.3505 70.1348 95.3977 64.0514C93.9504 64.3832 92.503 64.7308 91.0557 65.0943C91.0085 71.1935 90.9613 77.2927 90.9298 83.4078M101.785 65.8843C103.311 65.5841 104.853 65.2997 106.394 65.0311C106.426 63.9882 106.442 62.9453 106.473 61.9024C105.749 61.8392 104.648 61.9024 103.814 62.0605C101.486 62.5029 99.8184 63.688 98.6385 65.6315C97.0181 68.3335 96.7664 72.742 97.0181 75.7916C97.2384 78.4146 98.0564 82.0489 103.248 80.9902C104.412 80.7532 105.686 80.2791 106.552 79.7419C106.552 78.7938 106.583 77.8458 106.583 76.9135C104.963 77.1979 103.342 77.5139 101.706 77.8458C101.738 73.8639 101.753 69.8662 101.785 65.8843Z" fill="white"/>
<g style="mix-blend-mode:multiply" opacity="0.55">
<path d="M34.8454 108.99C34.8454 100.125 34.8454 91.2767 34.8454 82.4281C34.6095 82.3017 34.3577 82.1911 34.1218 82.0647C34.1218 91.4505 34.1218 100.852 34.1218 110.254C35.6635 109.337 37.221 108.437 38.7784 107.552C38.5739 107.394 38.3537 107.252 38.1491 107.094C37.0479 107.71 35.9467 108.342 34.8454 108.99Z" fill="#808184"/>
<path d="M84.7787 75.3966C84.8101 73.2002 84.8416 71.0039 84.8573 68.8075C83.5359 69.1868 82.2144 69.5818 80.8929 69.9768C81.0659 70.1822 81.239 70.4034 81.4278 70.6089C82.3088 70.3402 83.1898 70.0874 84.055 69.8346C84.0393 71.5885 84.0235 73.3424 84.0078 75.1122C84.2595 75.207 84.5112 75.3018 84.7629 75.4124" fill="#808184"/>
<path d="M71.5481 79.6787C71.5638 77.4665 71.5796 75.2386 71.611 73.0106C70.321 73.4689 69.031 73.9429 67.741 74.4327C67.8983 74.6381 68.0713 74.8436 68.2287 75.049C69.0939 74.7329 69.9592 74.4169 70.8402 74.1009C70.8402 75.8706 70.8087 77.6403 70.793 79.4101C71.0447 79.5049 71.3121 79.5839 71.5638 79.6787" fill="#808184"/>
<path d="M43.8441 88.8275C43.8441 85.0669 43.8441 81.3062 43.8599 77.5297C43.6082 77.4033 43.3722 77.2611 43.1205 77.1347C43.1205 80.9586 43.1205 84.7666 43.1047 88.5905C43.3564 88.6695 43.5924 88.7485 43.8284 88.8117" fill="#808184"/>
<path d="M58.1602 92.0194C58.1759 86.884 58.2074 81.7644 58.2231 76.6449C57.9714 76.5343 57.7197 76.4237 57.4837 76.313C57.468 81.4958 57.4365 86.6944 57.4208 91.8771C57.6725 91.9246 57.9085 91.972 58.1602 92.0194Z" fill="#808184"/>
<path d="M105.749 64.2252C104.255 64.478 102.76 64.7625 101.266 65.0627C101.439 65.2997 101.612 65.5367 101.785 65.7579C103.311 65.4577 104.853 65.1733 106.394 64.9047C106.174 64.6835 105.97 64.4464 105.749 64.2252Z" fill="#808184"/>
<path d="M151.451 71.7781C151.435 72.505 151.419 73.216 151.388 73.9429C151.655 73.9429 151.907 73.9587 152.159 73.9745C152.19 72.9948 152.206 72.0152 152.237 71.0355C151.168 69.6134 150.082 68.2071 149.012 66.8008C148.021 65.5051 147.313 64.1304 147.203 62.8505C147.093 61.6022 147.376 60.6068 147.958 59.8641C146.857 60.6226 146.259 61.8708 146.416 63.5932C146.527 64.8731 147.235 66.2478 148.226 67.5276C149.295 68.9339 150.381 70.3402 151.451 71.7465" fill="#808184"/>
<path d="M143.758 68.2071C142.389 68.1913 141.02 68.1755 139.652 68.1913C139.856 68.4599 140.061 68.7285 140.265 68.9972C141.429 68.9972 142.594 68.9972 143.758 68.9972V68.2229" fill="#808184"/>
<path d="M150.916 61.4916C150.916 61.7444 150.9 61.9972 150.884 62.2659C152.269 62.3291 153.653 62.4081 155.038 62.5029C155.038 62.2501 155.038 61.9814 155.038 61.7286C153.653 61.6338 152.284 61.5548 150.9 61.4916" fill="#808184"/>
<path d="M130.983 74.5275C130.873 69.6292 130.763 64.715 130.653 59.8167C130.37 59.5955 130.102 59.3743 129.819 59.153C129.992 63.6564 130.15 68.1597 130.323 72.6788C130.543 73.295 130.779 73.9113 130.999 74.5433" fill="#808184"/>
<path d="M114.984 62.1711C114.732 62.6135 114.465 63.0559 114.213 63.5141C114.418 65.9949 114.622 68.4757 114.827 70.9407C115.126 71.0671 115.44 71.2093 115.755 71.3357C115.503 68.2861 115.236 65.2365 114.984 62.1711Z" fill="#808184"/>
<path d="M139.652 61.0808C139.856 61.3494 140.061 61.618 140.265 61.8866C141.65 61.8866 143.034 61.8866 144.419 61.9024C144.419 61.6496 144.419 61.381 144.419 61.1282C142.83 61.0966 141.241 61.0808 139.636 61.0808" fill="#808184"/>
<path d="M131.361 76.3921C129.804 76.4869 128.702 76.0128 128.293 74.2747C127.208 70.1506 126.138 66.0265 125.053 61.9024C125.021 63.0717 124.974 64.2252 124.942 65.3945C125.792 68.6337 126.641 71.8729 127.491 75.1122C127.9 76.8503 129.001 77.3243 130.559 77.2137C131.487 77.1505 132.698 76.8345 133.532 76.5027C133.532 76.3131 133.532 76.1392 133.532 75.9654C132.824 76.1866 132.022 76.3605 131.361 76.3921Z" fill="#808184"/>
<path d="M116.195 77.6404C116.054 76.0128 115.928 74.3853 115.786 72.7578C114.481 72.9316 113.191 73.1212 111.885 73.3109C112.026 73.5479 112.168 73.8007 112.31 74.0377C113.191 73.9113 114.087 73.7691 114.968 73.6585C115.11 75.286 115.236 76.9135 115.377 78.541C116.793 78.3514 118.209 78.1618 119.625 78.0038C119.405 77.7668 119.2 77.5456 118.98 77.3085C118.052 77.4191 117.108 77.5297 116.18 77.6404" fill="#808184"/>
<path d="M108.172 78.8729C109.226 73.1054 110.296 67.3538 111.35 61.618C111.177 61.46 111.004 61.2862 110.831 61.1124C109.682 67.3222 108.518 73.5479 107.37 79.7893C108.801 79.5365 110.217 79.2995 111.649 79.0783C111.476 78.857 111.303 78.62 111.145 78.383C110.154 78.541 109.163 78.699 108.172 78.857" fill="#808184"/>
<path d="M122.142 76.9293C122.189 71.4463 122.221 65.9791 122.268 60.4961C122 60.2591 121.733 60.0221 121.481 59.7851C121.434 65.7895 121.387 71.7939 121.34 77.7984C122.583 77.672 123.81 77.5455 125.052 77.4349C124.816 77.1979 124.581 76.9609 124.345 76.7239C123.605 76.7871 122.881 76.8503 122.142 76.9293Z" fill="#808184"/>
<path d="M43.8756 103.965C43.8756 99.9673 43.8756 95.9697 43.8913 91.9562C41.9878 92.9516 40.0999 93.9629 38.2121 95.0216C38.4009 95.1796 38.5739 95.3534 38.7627 95.5114C40.2101 94.7056 41.6731 93.9313 43.1362 93.1729C43.1362 97.1705 43.1362 101.184 43.1362 105.182C44.7723 104.297 46.4242 103.428 48.076 102.575C47.8873 102.417 47.6985 102.243 47.5097 102.085C46.2983 102.701 45.1027 103.333 43.8913 103.965" fill="#808184"/>
<path d="M151.372 76.5027C150.035 76.4395 148.446 76.2183 147.282 75.9812C147.282 75.2544 147.282 74.5275 147.297 73.8007C147.03 73.8007 146.763 73.8007 146.495 73.8007C146.495 74.7804 146.479 75.7758 146.464 76.7555C147.612 76.9925 149.217 77.2137 150.554 77.2611C152.552 77.3401 154.062 76.7713 154.943 75.681C154.046 76.2815 152.835 76.5817 151.356 76.5185" fill="#808184"/>
<path d="M104.05 79.9157C98.8588 80.9428 98.0407 77.3085 97.8204 74.6855C97.5687 71.6359 97.8204 67.2274 99.4408 64.5412C99.5667 64.3516 99.6768 64.162 99.8027 63.9882C99.3622 64.4306 98.9846 64.9363 98.6385 65.5051C97.0181 68.2071 96.7664 72.6156 97.0181 75.6652C97.2384 78.2882 98.0564 81.9225 103.248 80.8638C104.412 80.6268 105.686 80.1527 106.552 79.6155C106.552 79.4417 106.552 79.2679 106.552 79.0941C105.797 79.4417 104.9 79.7419 104.05 79.8999" fill="#808184"/>
<path d="M139.605 75.8706C137.622 75.9022 136.804 75.049 136.71 73.8955C136.741 69.1236 136.773 64.3674 136.804 59.5955C136.553 59.3585 136.285 59.1214 136.033 58.8844C135.986 64.162 135.939 69.4238 135.908 74.7013C136.002 75.8548 136.82 76.7081 138.802 76.6607C140.659 76.6291 142.531 76.6133 144.387 76.6133C144.167 76.3605 143.962 76.1076 143.742 75.8548C142.358 75.8548 140.989 75.8548 139.605 75.8548" fill="#808184"/>
<path d="M64.9249 90.9765C64.9407 85.2723 64.9564 79.5681 64.9878 73.8639C64.7361 73.7533 64.4844 73.6427 64.2327 73.5163C64.2013 79.7103 64.1698 85.8885 64.1541 92.0826C65.5385 91.5295 66.9229 90.9765 68.323 90.4551C68.1185 90.2812 67.914 90.1074 67.6937 89.9336C66.7656 90.2812 65.8531 90.6131 64.9249 90.9765Z" fill="#808184"/>
<path d="M74.1439 87.7847C72.9168 88.2113 71.8785 88.0533 71.7526 86.6786C71.5953 84.8615 71.4537 83.0601 71.2964 81.243C70.1008 81.6696 68.9209 82.0963 67.741 82.5387C67.9298 82.7441 68.1343 82.9337 68.3231 83.1391C69.0467 82.8705 69.7861 82.5861 70.5098 82.3333C70.6514 84.1504 70.8087 85.9517 70.966 87.7689C71.0761 89.1436 72.1144 89.3016 73.3415 88.8749C74.3641 88.5115 75.4968 87.8479 76.1733 87.2948C76.1733 87.121 76.1733 86.9472 76.1733 86.7734C75.5598 87.1684 74.8203 87.5477 74.1281 87.7847" fill="#808184"/>
<path d="M60.4728 93.0465C59.5131 93.4573 58.3961 93.6627 58.3175 92.6672C58.3175 92.5724 58.3175 92.4934 58.3018 92.3986C57.405 93.5205 55.7532 95.1006 54.2272 95.8117C52.9686 96.3963 51.5055 96.6965 51.3168 94.4844C51.3168 89.6018 51.3168 84.7035 51.3325 79.8209C51.0808 79.6787 50.8448 79.5523 50.5931 79.4101C50.5774 84.8299 50.5616 90.2497 50.5459 95.6694C50.7347 97.8816 52.182 97.5656 53.4563 96.9809C54.9823 96.2699 56.6342 94.674 57.5309 93.5521C57.5309 93.6311 57.5309 93.7259 57.5466 93.8207C57.6253 94.8162 58.7422 94.6108 59.7019 94.1999C60.7717 93.7417 62.0774 92.841 62.8168 92.13V91.656C62.1089 92.1932 61.2279 92.7462 60.4728 93.0623" fill="#808184"/>
<path d="M87.4217 83.6132C86.1788 83.9608 85.1248 83.7238 85.0147 82.3649C84.8574 80.5636 84.7158 78.7464 84.5584 76.9451C83.3628 77.2927 82.1672 77.6403 80.9716 78.0038C81.1603 78.2092 81.3649 78.4304 81.5536 78.6358C82.293 78.4146 83.0324 78.1934 83.7718 77.9722C83.9134 79.7893 84.0708 81.5906 84.2281 83.392C84.3382 84.7667 85.3922 84.9879 86.6351 84.6402C87.6734 84.34 88.8061 83.7712 89.4983 83.2655C89.4983 83.0917 89.4983 82.9179 89.4983 82.7599C88.869 83.1075 88.1296 83.4394 87.4217 83.629" fill="#808184"/>
<path d="M78.0926 86.2046C78.124 80.5478 78.1555 74.891 78.187 69.2342C77.9352 69.092 77.6678 68.9655 77.4161 68.8233C77.3846 74.97 77.3374 81.1166 77.306 87.2632C78.7061 86.805 80.1063 86.3468 81.5221 85.9201C81.3019 85.7305 81.0816 85.5251 80.8771 85.3355C79.9489 85.6199 79.0208 85.9043 78.1083 86.2046" fill="#808184"/>
<path d="M91.7322 82.2859C91.7794 76.6923 91.8109 71.0829 91.8423 65.5051C91.5749 65.3313 91.3232 65.1575 91.0557 64.9995C91.0085 71.0987 90.9771 77.1979 90.9299 83.2971C92.3772 82.9179 93.8246 82.5703 95.2719 82.2227C95.0359 82.0173 94.7999 81.8118 94.564 81.6064C93.62 81.8276 92.6761 82.0647 91.7322 82.3017" fill="#808184"/>
</g>
<path d="M134.523 42.3881V40.6815C129.096 40.2075 122.032 40.5867 116.416 40.7605C120.254 39.6229 129.19 38.2798 134.523 37.8215V36.115C108.015 38.4536 79.2095 47.3496 53.8654 60.2275C79.8545 49.1667 108.204 43.1465 134.523 42.3881Z" fill="url(#paint2_linear_752_704)"/>
<path d="M127.664 97.9922C121.088 98.4662 113.238 99.4459 104.68 101.105V105.656C97.789 106.999 90.4421 108.769 82.9695 111.091V106.541C75.3709 108.895 67.6308 111.802 60.0952 115.342C60.0952 116.416 60.0952 117.68 60.0952 119.087C63.2416 117.965 68.0713 116.543 70.966 116.005C67.0645 117.87 62.5809 120.303 60.0795 121.868C60.048 126.561 60.0165 131.886 60.0165 135.283C67.5993 131.791 75.3709 128.931 82.9852 126.592V121.741C90.4579 119.419 97.8047 117.649 104.695 116.306V121.157C113.175 119.498 121.009 118.47 127.68 117.949V105.039C122.048 104.708 116.888 104.629 112.168 104.692C117.328 103.807 122.504 103.08 127.68 102.511V97.9922H127.664Z" fill="url(#paint3_linear_752_704)"/>
<path d="M77.9667 157.926L79.5871 146.865L71.9099 145.411C72.901 141.714 73.9079 138.032 74.899 134.351C88.5386 129.468 103.736 126.197 117.517 124.254L111.051 133.64C96.8451 136.136 86.0057 139.707 84.8101 140.213C86.5564 140.418 90.9928 140.861 92.2199 141.066C92.1412 141.809 91.7007 146.28 91.7007 146.28C83.9763 150.152 77.9824 157.942 77.9824 157.942L77.9667 157.926Z" fill="url(#paint4_linear_752_704)"/>
<path d="M74.3169 145.87C74.2225 146.249 74.1124 146.628 74.0023 147.023L79.3983 148.05L79.5714 146.881L74.3169 145.885V145.87Z" fill="#211551"/>
<path d="M90.8354 140.861C95.0359 139.439 101.108 137.621 107.338 136.594L109.195 133.956C95.9011 136.421 85.9271 139.707 84.7944 140.197C86.1159 140.355 88.9948 140.639 90.8512 140.861" fill="#211551"/>
<path d="M79.4927 156.109L78.6747 160.343C78.6747 160.343 84.9517 151.305 91.9525 147.782C91.9525 147.782 91.7165 146.596 91.6693 146.249C86.2732 148.951 81.7267 153.565 79.477 156.093" fill="#211551"/>
<g style="mix-blend-mode:multiply" opacity="0.65">
<path d="M117.501 124.238C103.736 126.181 88.5386 129.452 74.899 134.335C73.9079 138.016 72.901 141.698 71.9099 145.396L79.5871 146.865L77.9667 157.926C77.9667 157.926 83.8347 150.31 91.449 146.391C87.6419 147.276 83.6145 149.994 81.2862 151.7L82.3559 145.127L76.7554 142.852L77.951 135.994C81.5379 134.793 97.6631 129.752 115.22 127.414L115.377 127.335L117.517 124.238H117.501Z" fill="#A6A8AB"/>
</g>
<path d="M50.719 73.7533L49.7593 72.031C49.7593 72.031 49.7593 76.3605 49.7436 78.067C50.0582 77.909 50.3886 77.7668 50.7032 77.6246C50.7032 76.4079 50.7032 73.7691 50.7032 73.7691" fill="#211551"/>
<path d="M108.015 67.3696L109.037 61.7128L108.156 60.2749L108.015 67.3696Z" fill="#211551"/>
<path d="M97.081 61.8708L97.0496 64.9205C97.0968 64.8257 97.144 64.7467 97.2069 64.6518C97.4586 64.241 97.7103 63.8776 97.9935 63.53L97.081 61.8867V61.8708Z" fill="#211551"/>
<path d="M75.0249 55.6768C75.371 55.5662 75.7014 55.4398 76.0475 55.3292C76.0475 56.1035 76.0475 56.8935 76.0475 57.6836C77.1173 57.3201 78.187 56.9725 79.2568 56.6407C79.2568 55.8664 79.2568 55.0764 79.2568 54.3021C79.6029 54.1915 79.949 54.0809 80.2951 53.9703C80.2951 55.977 80.2951 57.9996 80.3108 60.0063C79.9647 60.1169 79.6186 60.2276 79.2725 60.3382C79.2725 59.4691 79.2725 58.6 79.2725 57.731C78.2028 58.0628 77.133 58.4104 76.0632 58.7738C76.0632 59.6429 76.0632 60.512 76.0632 61.381C75.7171 61.4916 75.3867 61.618 75.0406 61.7287C75.0406 59.7061 75.0406 57.6836 75.0249 55.6768Z" fill="white"/>
<path d="M82.7807 53.1486C83.8662 52.8326 84.9518 52.5324 86.0373 52.2322C86.8711 52.011 87.1385 52.2322 87.1385 53.3541C87.1385 54.4127 87.1385 55.4714 87.1385 56.5301C87.1385 57.6678 86.8711 58.0154 86.0373 58.2524C84.9518 58.5526 83.8662 58.8528 82.7807 59.1847C81.9469 59.4217 81.6795 59.2163 81.6795 58.0786C81.6795 57.0199 81.6795 55.9612 81.6795 54.9026C81.6795 53.7649 81.9469 53.4015 82.7807 53.1486ZM86.1317 57.0989C86.1317 55.819 86.1317 54.5549 86.1317 53.2751C84.999 53.5911 83.8662 53.9071 82.7335 54.2389C82.7335 55.5188 82.7335 56.7829 82.7335 58.0628C83.8662 57.731 84.999 57.4149 86.1317 57.0989Z" fill="white"/>
<path d="M88.5544 51.6159C89.8287 51.2999 91.0872 50.9839 92.3615 50.6837C93.038 50.5257 93.3684 50.7785 93.3684 51.6159V52.3428C93.3684 52.9274 93.1009 53.3383 92.6132 53.5279C93.1324 53.4963 93.4156 53.8597 93.4156 54.4917C93.4156 54.7446 93.4156 54.9974 93.4156 55.266C93.4156 56.0718 92.9751 56.5459 92.1098 56.7513C90.9299 57.0357 89.75 57.3201 88.5701 57.6204C88.5701 55.6136 88.5701 53.6069 88.5544 51.6001M89.577 54.7446C89.577 55.2502 89.577 55.7558 89.577 56.2615C90.3636 56.0718 91.1502 55.8664 91.9367 55.6926C92.2829 55.6136 92.4402 55.4872 92.4402 55.0448C92.4402 54.8868 92.4402 54.7446 92.4402 54.5865C92.4402 54.1441 92.2986 54.0809 91.9367 54.1757C91.1502 54.3653 90.3636 54.5549 89.577 54.7446ZM89.577 52.327C89.577 52.801 89.577 53.275 89.577 53.7649C90.3636 53.5753 91.1502 53.3857 91.9367 53.196C92.2514 53.117 92.4087 53.0064 92.4087 52.6588C92.4087 52.4692 92.4087 52.2796 92.4087 52.09C92.4087 51.7423 92.2514 51.6949 91.9367 51.7739C91.1502 51.9636 90.3636 52.1532 89.577 52.3428" fill="white"/>
<path d="M96.9237 49.546C97.2541 49.4828 97.5845 49.4038 97.9306 49.3406C98.7958 51.1577 99.6454 52.9906 100.511 54.8236C100.117 54.9026 99.724 54.9816 99.3465 55.0448C99.1734 54.634 98.9846 54.2389 98.8116 53.8439C97.8677 54.0335 96.9237 54.2231 95.9798 54.4285C95.8068 54.9026 95.6337 55.3766 95.4607 55.8506C95.1146 55.9296 94.7685 56.0086 94.4224 56.0877C95.2562 53.9071 96.09 51.7265 96.9237 49.546ZM98.3554 52.8484C98.0407 52.1058 97.7103 51.3473 97.3957 50.6047C97.0653 51.4895 96.735 52.3744 96.4046 53.2435C97.0496 53.1012 97.7103 52.9748 98.3554 52.8326" fill="white"/>
<path d="M101.376 48.6453C102.65 48.4083 103.924 48.2029 105.214 47.9975C105.907 47.8869 106.221 48.1713 106.221 48.9929V50.3834C106.221 51.2209 105.907 51.5843 105.214 51.6949C105.026 51.7265 104.821 51.7581 104.617 51.7897C105.309 52.4218 106.001 53.0696 106.678 53.7175C106.174 53.7965 105.686 53.8755 105.183 53.9545C104.585 53.2908 103.972 52.643 103.374 51.9951C103.043 52.0583 102.713 52.1058 102.383 52.169C102.383 52.9274 102.383 53.6701 102.383 54.4285C102.037 54.4917 101.706 54.5549 101.36 54.6181C101.36 52.6272 101.36 50.6362 101.36 48.6453M102.383 49.4986C102.383 50.0516 102.383 50.6046 102.383 51.1577C103.154 51.0155 103.94 50.8891 104.727 50.7627C105.041 50.7153 105.199 50.6046 105.199 50.2096C105.199 49.9726 105.199 49.7356 105.199 49.4986C105.199 49.1035 105.057 49.0403 104.727 49.1035C103.94 49.2299 103.169 49.3564 102.383 49.4986Z" fill="white"/>
<path d="M110.532 53.038C110.186 53.0854 109.84 53.1328 109.494 53.1802C109.494 51.5527 109.494 49.9252 109.494 48.2819C108.801 48.3767 108.125 48.4715 107.433 48.5821C107.433 48.2345 107.433 47.8711 107.433 47.5234C109.148 47.2706 110.878 47.0336 112.593 46.8282C112.593 47.1758 112.593 47.5392 112.593 47.8869C111.901 47.9659 111.208 48.0607 110.532 48.1555C110.532 49.783 110.532 51.4105 110.532 53.0538" fill="white"/>
<path d="M104.68 104.565C104.066 104.676 103.437 104.802 102.823 104.913V106.019C103.437 105.893 104.066 105.766 104.68 105.64V104.55V104.565Z" fill="#211551"/>
<path d="M104.68 116.322C97.789 117.665 90.4422 119.45 82.9695 121.757V126.608C76.1261 128.71 69.1569 131.238 62.2977 134.272C62.2977 135.141 62.2977 135.946 62.2977 136.658C69.3771 133.403 77.8409 130.448 84.936 128.283V123.764C91.9053 121.599 96.4046 120.367 102.839 119.118V123.653C110.736 122.105 119.169 120.999 125.383 120.509V118.186C119.232 118.755 112.215 119.719 104.695 121.204V116.353L104.68 116.322Z" fill="#211551"/>
<path d="M84.936 110.507V109.559C84.291 109.764 83.6303 109.969 82.9695 110.175V111.091C83.6303 110.886 84.2753 110.696 84.936 110.491" fill="#211551"/>
<g style="mix-blend-mode:multiply" opacity="0.65">
<path d="M127.664 108.374C123.401 108.658 119.153 109.085 114.905 109.622C118.791 109.732 123.023 109.969 127.664 110.459V108.374Z" fill="#A6A8AB"/>
<path d="M104.68 103.396C113.222 101.737 121.088 100.757 127.664 100.283V97.9922C121.088 98.4662 113.238 99.4459 104.68 101.105V103.396Z" fill="#A6A8AB"/>
<path d="M104.68 116.321L107.448 113.857C92.6447 115.926 80.3895 120.446 80.3895 120.446L82.9695 121.773C90.4422 119.45 97.789 117.68 104.68 116.337V116.321Z" fill="#A6A8AB"/>
<path d="M60.0008 135.299C61.1807 134.761 62.3606 134.24 63.5405 133.734L63.7922 126.561C66.2779 125.012 70.8244 122.531 74.7731 120.651C71.8627 121.188 67.033 122.61 63.8866 123.716L64.0282 119.592C62.4865 120.446 61.1021 121.236 60.048 121.899C60.0166 126.561 59.9851 131.838 59.9851 135.235V135.314L60.0008 135.299Z" fill="#A6A8AB"/>
<path d="M60.0795 115.342C60.0795 116.416 60.0795 117.68 60.0795 119.087C61.2437 118.676 62.6596 118.218 64.1069 117.775L64.1698 115.926C70.3997 113.209 76.7239 110.902 82.9538 108.974V106.541C75.3553 108.895 67.6151 111.802 60.0795 115.342Z" fill="#A6A8AB"/>
</g>
</g>
<defs>
<linearGradient id="paint0_linear_752_704" x1="47.9467" y1="99.4612" x2="155.254" y2="99.4612" gradientUnits="userSpaceOnUse">
<stop stop-color="#BBBDBF"/>
<stop offset="0.01" stop-color="#C3C4C6"/>
<stop offset="0.05" stop-color="#DDDEDF"/>
<stop offset="0.09" stop-color="#F0F0F1"/>
<stop offset="0.13" stop-color="#FBFBFB"/>
<stop offset="0.17" stop-color="white"/>
<stop offset="0.2" stop-color="#F1F2F2"/>
<stop offset="0.29" stop-color="#D1D2D4"/>
<stop offset="0.34" stop-color="#C5C7C9"/>
<stop offset="0.36" stop-color="#CBCCCE"/>
<stop offset="0.42" stop-color="#E7E8E9"/>
<stop offset="0.47" stop-color="#F8F9F9"/>
<stop offset="0.52" stop-color="white"/>
<stop offset="0.65" stop-color="#D0D2D3"/>
<stop offset="0.69" stop-color="#C5C7C9"/>
<stop offset="0.74" stop-color="#D9DADC"/>
<stop offset="0.81" stop-color="#EAEBEC"/>
<stop offset="0.85" stop-color="#F1F1F2"/>
<stop offset="0.86" stop-color="#EDEDEE"/>
<stop offset="0.91" stop-color="#D7D8D9"/>
<stop offset="0.95" stop-color="#C9CBCD"/>
<stop offset="0.99" stop-color="#C5C7C9"/>
<stop offset="1" stop-color="#C5C7C9"/>
</linearGradient>
<linearGradient id="paint1_linear_752_704" x1="47.6006" y1="64.0351" x2="154.908" y2="64.0351" gradientUnits="userSpaceOnUse">
<stop stop-color="#BBBDBF"/>
<stop offset="0.01" stop-color="#C3C4C6"/>
<stop offset="0.05" stop-color="#DDDEDF"/>
<stop offset="0.09" stop-color="#F0F0F1"/>
<stop offset="0.13" stop-color="#FBFBFB"/>
<stop offset="0.17" stop-color="white"/>
<stop offset="0.2" stop-color="#F1F2F2"/>
<stop offset="0.29" stop-color="#D1D2D4"/>
<stop offset="0.34" stop-color="#C5C7C9"/>
<stop offset="0.36" stop-color="#CBCCCE"/>
<stop offset="0.42" stop-color="#E7E8E9"/>
<stop offset="0.47" stop-color="#F8F9F9"/>
<stop offset="0.52" stop-color="white"/>
<stop offset="0.65" stop-color="#D0D2D3"/>
<stop offset="0.69" stop-color="#C5C7C9"/>
<stop offset="0.74" stop-color="#D9DADC"/>
<stop offset="0.81" stop-color="#EAEBEC"/>
<stop offset="0.85" stop-color="#F1F1F2"/>
<stop offset="0.86" stop-color="#EDEDEE"/>
<stop offset="0.91" stop-color="#D7D8D9"/>
<stop offset="0.95" stop-color="#C9CBCD"/>
<stop offset="0.99" stop-color="#C5C7C9"/>
<stop offset="1" stop-color="#C5C7C9"/>
</linearGradient>
<linearGradient id="paint2_linear_752_704" x1="56.4492" y1="52.9718" x2="138.817" y2="43.0769" gradientUnits="userSpaceOnUse">
<stop stop-color="#929497"/>
<stop offset="0.1" stop-color="white"/>
<stop offset="0.14" stop-color="#F2F2F3"/>
<stop offset="0.32" stop-color="#BBBDBF"/>
<stop offset="0.72" stop-color="#BBBDBF"/>
<stop offset="0.84" stop-color="white"/>
<stop offset="0.86" stop-color="#F9FAFA"/>
<stop offset="0.89" stop-color="#EBEBEC"/>
<stop offset="0.92" stop-color="#D2D3D5"/>
<stop offset="0.94" stop-color="#BBBDBF"/>
<stop offset="1" stop-color="#797B7D"/>
</linearGradient>
<linearGradient id="paint3_linear_752_704" x1="60.6653" y1="116.54" x2="128.328" y2="116.54" gradientUnits="userSpaceOnUse">
<stop stop-color="#BBBDBF"/>
<stop offset="0.01" stop-color="#C3C4C6"/>
<stop offset="0.05" stop-color="#DDDEDF"/>
<stop offset="0.09" stop-color="#F0F0F1"/>
<stop offset="0.13" stop-color="#FBFBFB"/>
<stop offset="0.17" stop-color="white"/>
<stop offset="0.2" stop-color="#F1F2F2"/>
<stop offset="0.29" stop-color="#D1D2D4"/>
<stop offset="0.34" stop-color="#C5C7C9"/>
<stop offset="0.36" stop-color="#CBCCCE"/>
<stop offset="0.42" stop-color="#E7E8E9"/>
<stop offset="0.47" stop-color="#F8F9F9"/>
<stop offset="0.52" stop-color="white"/>
<stop offset="0.65" stop-color="#D0D2D3"/>
<stop offset="0.69" stop-color="#C5C7C9"/>
<stop offset="0.74" stop-color="#D9DADC"/>
<stop offset="0.81" stop-color="#EAEBEC"/>
<stop offset="0.85" stop-color="#F1F1F2"/>
<stop offset="0.86" stop-color="#EDEDEE"/>
<stop offset="0.91" stop-color="#D7D8D9"/>
<stop offset="0.95" stop-color="#C9CBCD"/>
<stop offset="0.99" stop-color="#C5C7C9"/>
<stop offset="1" stop-color="#C5C7C9"/>
</linearGradient>
<linearGradient id="paint4_linear_752_704" x1="71.8942" y1="141.082" x2="117.501" y2="141.082" gradientUnits="userSpaceOnUse">
<stop stop-color="#929497"/>
<stop offset="0.1" stop-color="white"/>
<stop offset="0.14" stop-color="#F2F2F3"/>
<stop offset="0.32" stop-color="#BBBDBF"/>
<stop offset="0.72" stop-color="#BBBDBF"/>
<stop offset="0.84" stop-color="white"/>
<stop offset="0.86" stop-color="#F9FAFA"/>
<stop offset="0.89" stop-color="#EBEBEC"/>
<stop offset="0.92" stop-color="#D2D3D5"/>
<stop offset="0.94" stop-color="#BBBDBF"/>
<stop offset="1" stop-color="#797B7D"/>
</linearGradient>
<clipPath id="clip0_752_704">
<rect width="131" height="150" fill="white" transform="translate(30 30)"/>
</clipPath>
</defs>
</svg>
