<svg width="200" height="200" viewBox="0 0 200 200" fill="none" xmlns="http://www.w3.org/2000/svg">
<g clip-path="url(#clip0_752_488)">
<path d="M48.6881 120.864V94.063H56.0483V56.489H48.6881V29.6881H103.675C114.136 29.6881 122.061 30.289 127.9 31.5253C134.07 32.8946 139.018 35.6882 142.596 39.8259L142.628 39.8626C146.24 44.1379 148.077 49.1884 148.077 54.8651C148.077 60.5418 146.245 65.1978 142.628 68.6658C141.433 69.8149 140.125 70.8562 138.742 71.7644L137.825 72.3677L138.77 72.9296C141.41 74.503 143.683 76.3884 145.525 78.5329C149.279 82.9435 151.183 87.9803 151.183 93.5033C151.183 100.003 149.05 105.618 144.843 110.196C140.719 114.639 135.061 117.577 128.022 118.923C121.481 120.233 112.265 120.868 99.8426 120.868H48.6881V120.864Z" fill="#00B3C4"/>
<path d="M93.276 41.9635C92.1934 47.6196 98.932 48.1012 98.5329 55.8284C98.1797 62.6955 93.3264 64.2758 92.0535 70.2919C90.7943 76.2485 93.7897 78.6224 93.7897 78.6224C94.0214 65.4318 107.226 65.3721 107.233 55.7344C107.239 44.9727 95.2026 46.7778 93.2783 41.9635H93.276Z" fill="white"/>
<path d="M146.045 78.0834C144.146 75.87 141.83 73.9503 139.121 72.3379C140.543 71.4044 141.871 70.3447 143.105 69.1612C146.862 65.5579 148.765 60.7482 148.765 54.8651C148.765 48.982 146.873 43.8213 143.144 39.4107L143.114 39.3763C139.437 35.1262 134.378 32.2615 128.04 30.8532C122.157 29.6055 114.187 29 103.675 29H48V57.1771H55.3602V93.3772H48V121.554H99.8426C112.311 121.554 121.579 120.912 128.15 119.598C135.334 118.224 141.116 115.222 145.35 110.66C149.678 105.951 151.871 100.178 151.871 93.501C151.871 87.8106 149.914 82.627 146.047 78.0834H146.045ZM142.437 107.981C140.813 109.731 138.917 111.212 136.756 112.423C140.075 106.992 139.352 100.249 137.474 96.0814C135.144 90.9161 131.222 88.0927 128.49 84.6339C125.024 80.2485 126.226 76.6774 126.226 76.6774C119.946 80.0513 122.481 86.6959 123.43 88.7877C125.242 92.7877 125.554 97.7855 121.462 97.9415C118.37 98.0585 116.818 95.0194 118.682 89.1615C120.432 83.6614 116.542 78.9595 113.824 78.1178C115.698 82.4756 113.052 84.5674 111.265 84.8702C109.063 85.2463 105.434 82.9045 105.827 77.8104C106.29 71.7943 113.811 69.48 110.109 60.684C108.026 68.0901 97.1476 70.2874 97.1499 79.4297C97.1499 87.267 106.46 87.6454 106.923 96.3245C107.338 104.075 99.6499 105.543 94.6957 105.543C94.6957 105.543 98.5398 100.809 98.5398 95.1226C98.5398 81.5376 84.8859 84.1752 89.8608 67.3951C80.7184 74.1062 82.4432 86.0583 84.9891 89.9849C80.6909 88.3794 78.6152 84.455 78.6152 84.455C78.4913 89.423 81.0831 93.3772 82.4914 95.7327C85.5534 100.857 84.0212 105.765 80.7391 106.329C79.2436 106.586 76.8399 106.451 75.6312 102.909C74.3192 99.0654 76.567 96.8176 75.911 92.0377C74.6862 83.1156 66.0553 82.4871 66.0553 82.4871C66.0553 82.4871 68.115 84.6431 68.0233 90.079C67.9292 95.5148 63.0346 99.9025 62.8672 108.075C62.7571 113.506 65.9292 116.912 66.6219 117.591H51.9565V97.3291H59.319V53.2183H51.9565V32.9565H103.678C113.818 32.9565 121.666 33.5459 127.226 34.7226C132.701 35.9382 137.004 38.3534 140.125 41.9612C143.247 45.6539 144.811 49.9545 144.811 54.8605C144.811 55.3766 144.791 55.8812 144.756 56.3743C144.74 56.6105 144.719 56.8422 144.694 57.0716C144.692 57.1037 144.687 57.1335 144.685 57.1656C144.662 57.3812 144.635 57.5945 144.602 57.8055C144.596 57.8468 144.591 57.8881 144.584 57.9294C144.552 58.1358 144.518 58.3376 144.481 58.5395C144.472 58.583 144.465 58.6243 144.456 58.6679C144.417 58.8675 144.375 59.067 144.327 59.2643C144.318 59.2987 144.309 59.3354 144.302 59.3698C144.254 59.5739 144.201 59.7757 144.146 59.973C144.146 59.9799 144.141 59.9844 144.141 59.9913C143.958 60.6358 143.735 61.2551 143.476 61.8492C143.465 61.8744 143.456 61.9019 143.444 61.9271C143.38 62.0716 143.311 62.2138 143.242 62.3538C143.206 62.4294 143.171 62.5051 143.132 62.5785C143.07 62.7024 143.004 62.8239 142.937 62.9455C142.889 63.035 142.841 63.1244 142.791 63.2116C142.726 63.3217 142.66 63.4318 142.593 63.5418C142.534 63.6382 142.474 63.7322 142.414 63.8263C142.35 63.9272 142.284 64.0281 142.215 64.1267C142.146 64.2276 142.075 64.3263 142.004 64.4249C141.937 64.5166 141.871 64.6061 141.804 64.6955C141.724 64.801 141.639 64.9065 141.554 65.0098C141.49 65.09 141.426 65.1703 141.359 65.2483C141.261 65.3653 141.155 65.4799 141.052 65.5946C140.995 65.6566 140.94 65.7208 140.882 65.7827C140.717 65.957 140.547 66.129 140.373 66.2988C137.442 69.113 133.907 71.0993 129.77 72.2553C129.634 72.2943 129.63 72.4824 129.765 72.5236C135.501 74.3127 139.93 77.0237 143.05 80.6568C146.295 84.4688 147.919 88.7487 147.919 93.4965C147.919 99.1755 146.093 104.004 142.442 107.976L142.437 107.981Z" fill="white"/>
<path d="M48 127.6H58.069C60.0117 127.6 60.8488 128.385 60.8488 130.238V132.107C60.8488 133.052 60.491 133.426 59.7273 133.997C60.6699 134.353 60.8488 134.942 60.8488 136.045V137.915C60.8488 139.91 60.0828 140.908 58.0323 140.908H48V127.598V127.6ZM56.7318 132.857V131.199H52.1354V132.857H56.7318ZM56.7318 137.275V135.545H52.1354V137.275H56.7318Z" fill="white"/>
<path d="M62.4062 127.6H71.7435C73.8972 127.6 74.8789 128.437 74.8789 130.307V132.002C74.8789 133.213 74.505 133.784 73.3123 134.194C74.6128 134.658 74.8789 135.229 74.8789 136.403V140.91H70.7985V135.958H66.5232V140.91H62.4062V127.6ZM70.7802 132.928V131.199H66.5209V132.928H70.7802Z" fill="white"/>
<path d="M76.4729 127.6H80.6244V140.91H76.4729V127.6Z" fill="white"/>
<path d="M82.1244 137.277H90.7323V135.834H86.1359C83.535 135.834 82.2138 135.566 82.2138 133.41V130.22C82.2138 128.261 83.4983 127.6 86.1359 127.6H93.9549V131.199H86.2758V132.678H91.8012C93.8333 132.678 94.776 133.479 94.776 135.263V138.525C94.776 139.983 93.7232 140.91 91.8539 140.91H82.1244V137.277Z" fill="white"/>
<path d="M96.315 127.6H106.382C108.327 127.6 109.162 128.385 109.162 130.238V132.107C109.162 133.052 108.804 133.426 108.038 133.997C108.983 134.353 109.162 134.942 109.162 136.045V137.915C109.162 139.91 108.395 140.908 106.345 140.908H96.3127V127.598L96.315 127.6ZM105.047 132.857V131.199H100.448V132.857H105.047ZM105.047 137.275V135.545H100.448V137.275H105.047Z" fill="white"/>
<path d="M113.609 127.6H120.487C122.393 127.6 123.462 128.687 123.462 130.343V140.91H119.311V136.97H114.765V140.91H110.632V130.343C110.632 128.687 111.701 127.6 113.607 127.6H113.609ZM119.311 134.279V131.199H114.765V134.279H119.311Z" fill="white"/>
<path d="M125.038 127.6H130.132L133.375 132.837C133.607 133.213 133.894 133.802 134.249 134.568C134.089 133.747 134.036 132.928 134.036 132.091V127.6H137.992V140.91H134.036L129.653 133.942C129.492 133.694 129.189 133.123 128.779 132.213C128.942 133.034 128.994 133.834 128.994 134.674V140.91H125.038V127.6Z" fill="white"/>
<path d="M139.605 127.6H150.706V131.199H143.774V132.733H150.715V135.745H143.774V137.277H150.715V140.91H139.605V127.6Z" fill="white"/>
<path d="M48 145.454H56.0689V154.961H64.8925V145.454H72.9637V171H64.8925V160.775H56.0689V171H48V145.454Z" fill="white"/>
<path d="M76.0555 145.454H97.3609V152.36H84.0579V155.3H97.2944V161.082H84.0579V164.023H97.26V171H76.0555V145.454Z" fill="white"/>
<path d="M105.893 145.454H119.093C122.751 145.454 124.806 147.539 124.806 150.718V170.998H116.838V163.275H108.116V170.998H100.182V150.718C100.182 147.539 102.233 145.454 105.893 145.454ZM116.836 158.112V152.36H108.113V158.112H116.836Z" fill="white"/>
<path d="M134.839 152.36H127.006V145.454H150.706V152.36H143.215V171H134.839V152.36Z" fill="white"/>
</g>
<defs>
<clipPath id="clip0_752_488">
<rect width="103.871" height="142" fill="white" transform="translate(48 29)"/>
</clipPath>
</defs>
</svg>
